<svg width="64" height="64" viewBox="0 0 64 64" fill="none" xmlns="http://www.w3.org/2000/svg">
<path d="M46.6641 60.0003V36.0003C46.6641 35.6467 46.8045 35.3076 47.0546 35.0575C47.3046 34.8075 47.6438 34.667 47.9974 34.667H59.9974C60.351 34.667 60.6902 34.8075 60.9402 35.0575C61.1903 35.3076 61.3307 35.6467 61.3307 36.0003V60.0003C61.3307 60.3539 61.1903 60.6931 60.9402 60.9431C60.6902 61.1932 60.351 61.3337 59.9974 61.3337H47.9974C47.6438 61.3337 47.3046 61.1932 47.0546 60.9431C46.8045 60.6931 46.6641 60.3539 46.6641 60.0003Z" fill="#B3B3B3"/>
<path d="M15.9974 61.3337H3.9974C3.64377 61.3337 3.30464 61.1932 3.05459 60.9431C2.80454 60.6931 2.66406 60.3539 2.66406 60.0003V36.0003C2.66406 35.6467 2.80454 35.3076 3.05459 35.0575C3.30464 34.8075 3.64377 34.667 3.9974 34.667H15.9974C16.351 34.667 16.6902 34.8075 16.9402 35.0575C17.1903 35.3076 17.3307 35.6467 17.3307 36.0003V60.0003C17.3307 60.3539 17.1903 60.6931 16.9402 60.9431C16.6902 61.1932 16.351 61.3337 15.9974 61.3337Z" fill="#B3B3B3"/>
<path d="M47.9974 61.3333H15.9974C15.6438 61.3333 15.3046 61.1929 15.0546 60.9428C14.8045 60.6928 14.6641 60.3536 14.6641 60V29.3333C14.6641 28.9797 14.8045 28.6406 15.0546 28.3905C15.3046 28.1405 15.6438 28 15.9974 28H47.9974C48.351 28 48.6902 28.1405 48.9402 28.3905C49.1903 28.6406 49.3307 28.9797 49.3307 29.3333V60C49.3307 60.3536 49.1903 60.6928 48.9402 60.9428C48.6902 61.1929 48.351 61.3333 47.9974 61.3333Z" fill="#B3B3B3"/>
<path d="M31.9974 18.6667C31.6438 18.6667 31.3046 18.5262 31.0546 18.2761C30.8045 18.0261 30.6641 17.687 30.6641 17.3333V1.33333C30.6641 0.979711 30.8045 0.640573 31.0546 0.390524C31.3046 0.140476 31.6438 0 31.9974 0C32.351 0 32.6902 0.140476 32.9402 0.390524C33.1903 0.640573 33.3307 0.979711 33.3307 1.33333V17.3333C33.3307 17.687 33.1903 18.0261 32.9402 18.2761C32.6902 18.5262 32.351 18.6667 31.9974 18.6667Z" fill="#4C4C4C"/>
<path d="M43.9987 12.0003H33.332V2.66699H43.9987C44.3523 2.66699 44.6915 2.80747 44.9415 3.05752C45.1916 3.30756 45.332 3.6467 45.332 4.00033V10.667C45.332 11.0206 45.1916 11.3598 44.9415 11.6098C44.6915 11.8598 44.3523 12.0003 43.9987 12.0003Z" fill="#F74B3B"/>
<path d="M53.3307 30.667H10.664C10.3746 30.6667 10.0932 30.5723 9.86217 30.3979C9.63117 30.2236 9.46316 29.9788 9.38352 29.7006C9.30387 29.4224 9.31691 29.1258 9.42068 28.8556C9.52444 28.5854 9.71329 28.3564 9.9587 28.203L31.292 14.8697C31.5039 14.7372 31.7488 14.667 31.9987 14.667C32.2486 14.667 32.4935 14.7372 32.7054 14.8697L54.0387 28.203C54.2843 28.3565 54.4733 28.5858 54.577 28.8562C54.6807 29.1267 54.6935 29.4235 54.6135 29.7019C54.5335 29.9802 54.3651 30.225 54.1336 30.3991C53.9022 30.5733 53.6203 30.6673 53.3307 30.667Z" fill="#E3E3E3"/>
<path d="M18.6654 30.667H13.332V61.3337H18.6654V30.667Z" fill="#E3E3E3"/>
<path d="M50.6654 30.667H45.332V61.3337H50.6654V30.667Z" fill="#E3E3E3"/>
<path d="M29.3333 30.667H24V61.3337H29.3333V30.667Z" fill="#E3E3E3"/>
<path d="M39.9974 30.667H34.6641V61.3337H39.9974V30.667Z" fill="#E3E3E3"/>
<path d="M50.6654 58.667H13.332V61.3337H50.6654V58.667Z" fill="#E3E3E3"/>
<path d="M19.0841 61.3335C19.6896 60.0685 20.0022 58.6833 19.9987 57.2808C19.9952 55.8784 19.6757 54.4947 19.0639 53.2327C18.4522 51.9707 17.5639 50.8629 16.465 49.9914C15.3662 49.1199 14.0851 48.5073 12.717 48.199C11.3488 47.8907 9.92879 47.8947 8.5624 48.2107C7.19602 48.5267 5.91841 49.1466 4.82452 50.0242C3.73064 50.9019 2.84861 52.0148 2.24397 53.2802C1.63934 54.5456 1.32765 55.931 1.33208 57.3335C1.33341 58.7185 1.646 60.0855 2.24674 61.3335H19.0841Z" fill="#49C549"/>
<path d="M44.9147 61.3336C44.2337 59.9108 43.9244 58.3387 44.0156 56.7641C44.1069 55.1894 44.5957 53.6635 45.4365 52.329C46.2773 50.9944 47.4425 49.8948 48.8235 49.1326C50.2044 48.3704 51.756 47.9707 53.3333 47.9707C54.9106 47.9707 56.4622 48.3704 57.8432 49.1326C59.2241 49.8948 60.3894 50.9944 61.2302 52.329C62.0709 53.6635 62.5598 55.1894 62.651 56.7641C62.7423 58.3387 62.433 59.9108 61.752 61.3336H44.9147Z" fill="#49C549"/>
<path d="M18.6654 30.667H13.332V34.667H18.6654V30.667Z" fill="#C8C8C8"/>
<path d="M29.3333 30.667H24V34.667H29.3333V30.667Z" fill="#C8C8C8"/>
<path d="M39.9974 30.667H34.6641V34.667H39.9974V30.667Z" fill="#C8C8C8"/>
<path d="M23.9974 30.667H18.6641V34.667H23.9974V30.667Z" fill="#949494"/>
<path d="M34.6654 30.667H29.332V34.667H34.6654V30.667Z" fill="#949494"/>
<path d="M45.3333 30.667H40V34.667H45.3333V30.667Z" fill="#949494"/>
<path d="M50.6654 30.667H45.332V34.667H50.6654V30.667Z" fill="#C8C8C8"/>
</svg>
