<svg width="18" height="18" viewBox="0 0 18 18" fill="none" xmlns="http://www.w3.org/2000/svg">
<g clip-path="url(#clip0_9194_1556)">
<path d="M13.5 3H12V1.5H6V3H4.5V0.75C4.5 0.551088 4.57902 0.360322 4.71967 0.21967C4.86032 0.0790176 5.05109 0 5.25 0L12.75 0C12.9489 0 13.1397 0.0790176 13.2803 0.21967C13.421 0.360322 13.5 0.551088 13.5 0.75V3Z" fill="#148564"/>
<path d="M6 10.5V9.75C6 9.55109 6.07902 9.36032 6.21967 9.21967C6.36032 9.07902 6.55109 9 6.75 9H11.25C11.4489 9 11.6397 9.07902 11.7803 9.21967C11.921 9.36032 12 9.55109 12 9.75V10.5H18V6C18 5.60218 17.842 5.22064 17.5607 4.93934C17.2794 4.65804 16.8978 4.5 16.5 4.5H1.5C1.10218 4.5 0.720644 4.65804 0.43934 4.93934C0.158035 5.22064 0 5.60218 0 6L0 10.5H6Z" fill="#148564"/>
<path d="M12 12V12.75C12 12.9489 11.921 13.1397 11.7803 13.2803C11.6397 13.421 11.4489 13.5 11.25 13.5H6.75C6.55109 13.5 6.36032 13.421 6.21967 13.2803C6.07902 13.1397 6 12.9489 6 12.75V12H0V16.5C0 16.8978 0.158035 17.2794 0.43934 17.5607C0.720644 17.842 1.10218 18 1.5 18H16.5C16.8978 18 17.2794 17.842 17.5607 17.5607C17.842 17.2794 18 16.8978 18 16.5V12H12Z" fill="#148564"/>
</g>
<defs>
<clipPath id="clip0_9194_1556">
<rect width="18" height="18" fill="white"/>
</clipPath>
</defs>
</svg>
