<svg width="160" height="160" viewBox="0 0 160 160" fill="none" xmlns="http://www.w3.org/2000/svg">
<path d="M57.5625 104.625H14.4375C14.2469 104.625 14.0641 104.701 13.9293 104.836C13.7945 104.97 13.7188 105.153 13.7188 105.344V134.094C13.7188 134.284 13.7945 134.467 13.9293 134.602C14.0641 134.737 14.2469 134.812 14.4375 134.812H57.5625C57.7531 134.812 57.9359 134.737 58.0707 134.602C58.2055 134.467 58.2812 134.284 58.2812 134.094V105.344C58.2812 105.153 58.2055 104.97 58.0707 104.836C57.9359 104.701 57.7531 104.625 57.5625 104.625ZM56.8438 133.375H15.1562V106.062H56.8438V133.375Z" fill="black"/>
<path d="M17.3125 129.062C17.8844 129.062 18.4328 129.29 18.8372 129.694C19.2416 130.098 19.4688 130.647 19.4688 131.219C19.4688 131.409 19.5445 131.592 19.6793 131.727C19.8141 131.862 19.9969 131.938 20.1875 131.938H51.8125C52.0031 131.938 52.1859 131.862 52.3207 131.727C52.4555 131.592 52.5312 131.409 52.5312 131.219C52.5312 130.647 52.7584 130.098 53.1628 129.694C53.5672 129.29 54.1156 129.062 54.6875 129.062C54.8781 129.062 55.0609 128.987 55.1957 128.852C55.3305 128.717 55.4062 128.534 55.4062 128.344V111.094C55.4062 110.903 55.3305 110.72 55.1957 110.586C55.0609 110.451 54.8781 110.375 54.6875 110.375C54.1156 110.375 53.5672 110.148 53.1628 109.743C52.7584 109.339 52.5312 108.791 52.5312 108.219C52.5312 108.028 52.4555 107.845 52.3207 107.711C52.1859 107.576 52.0031 107.5 51.8125 107.5H20.1875C19.9969 107.5 19.8141 107.576 19.6793 107.711C19.5445 107.845 19.4688 108.028 19.4688 108.219C19.4688 108.791 19.2416 109.339 18.8372 109.743C18.4328 110.148 17.8844 110.375 17.3125 110.375C17.1219 110.375 16.9391 110.451 16.8043 110.586C16.6695 110.72 16.5938 110.903 16.5938 111.094V128.344C16.5938 128.534 16.6695 128.717 16.8043 128.852C16.9391 128.987 17.1219 129.062 17.3125 129.062ZM18.0312 111.741C18.7214 111.599 19.3547 111.257 19.853 110.759C20.3512 110.261 20.6924 109.628 20.8344 108.938H51.1656C51.3076 109.628 51.6488 110.261 52.147 110.759C52.6453 111.257 53.2786 111.599 53.9688 111.741V127.697C53.2786 127.839 52.6453 128.18 52.147 128.678C51.6488 129.177 51.3076 129.81 51.1656 130.5H20.8344C20.6924 129.81 20.3512 129.177 19.853 128.678C19.3547 128.18 18.7214 127.839 18.0312 127.697V111.741Z" fill="black"/>
<path d="M46.0625 124.75H25.9375C25.7469 124.75 25.5641 124.826 25.4293 124.96C25.2945 125.095 25.2188 125.278 25.2188 125.469V128.344C25.2188 128.534 25.2945 128.717 25.4293 128.852C25.5641 128.987 25.7469 129.062 25.9375 129.062H46.0625C46.2531 129.062 46.4359 128.987 46.5707 128.852C46.7055 128.717 46.7812 128.534 46.7812 128.344V125.469C46.7812 125.278 46.7055 125.095 46.5707 124.96C46.4359 124.826 46.2531 124.75 46.0625 124.75ZM45.3438 127.625H26.6562V126.187H45.3438V127.625ZM42.4688 121.875H41.0312V117.562H41.75C41.8921 117.562 42.0311 117.52 42.1492 117.441C42.2674 117.362 42.3595 117.25 42.4139 117.119C42.4683 116.987 42.4825 116.843 42.4548 116.703C42.4271 116.564 42.3586 116.436 42.2582 116.335L36.5082 110.585C36.3734 110.451 36.1906 110.375 36 110.375C35.8094 110.375 35.6266 110.451 35.4918 110.585L29.7418 116.335C29.6414 116.436 29.5729 116.564 29.5452 116.703C29.5175 116.843 29.5317 116.987 29.5861 117.119C29.6405 117.25 29.7326 117.362 29.8508 117.441C29.9689 117.52 30.1079 117.562 30.25 117.562H30.9688V121.875H29.5312V123.312H42.4688V121.875ZM39.5938 121.875H36.7188V117.562H39.5938V121.875ZM36 112.11L40.0149 116.125H31.9851L36 112.11ZM32.4062 117.562H35.2812V121.875H32.4062V117.562Z" fill="black"/>
<path d="M35.2812 113.969H36.7188V115.406H35.2812V113.969ZM44.625 113.969H51.8125V115.406H44.625V113.969ZM44.625 116.844H51.8125V118.281H44.625V116.844ZM44.625 119.719H51.8125V121.156H44.625V119.719ZM20.1875 113.969H27.375V115.406H20.1875V113.969ZM20.1875 116.844H27.375V118.281H20.1875V116.844ZM20.1875 119.719H27.375V121.156H20.1875V119.719Z" fill="black"/>
<path d="M68.8559 93.6353L62.6684 91.3178C62.0272 91.0816 60.9809 91.0816 60.3397 91.3178L54.1522 93.6353C52.9597 94.0853 51.9922 95.4803 51.9922 96.7516V105.864C51.9922 106.775 52.5884 107.979 53.3197 108.519L59.5072 113.143C60.5984 113.964 62.3872 113.964 63.4784 113.143L69.6659 108.519C70.3972 107.968 70.9934 106.775 70.9934 105.864V96.7516C71.0047 95.4803 70.0372 94.0853 68.8559 93.6353ZM65.4134 99.9353L60.5759 104.773C60.4072 104.942 60.1934 105.02 59.9797 105.02C59.7659 105.02 59.5522 104.942 59.3834 104.773L57.5834 102.95C57.2572 102.624 57.2572 102.084 57.5834 101.758C57.9097 101.432 58.4497 101.432 58.7759 101.758L59.9909 102.973L64.2322 98.7316C64.5584 98.4053 65.0984 98.4053 65.4247 98.7316C65.7509 99.0578 65.7509 99.6091 65.4134 99.9353Z" fill="black"/>
<path d="M78.5625 32.625H35.4375C35.2469 32.625 35.0641 32.7007 34.9293 32.8355C34.7945 32.9703 34.7188 33.1531 34.7188 33.3438V62.0938C34.7188 62.2844 34.7945 62.4672 34.9293 62.602C35.0641 62.7368 35.2469 62.8125 35.4375 62.8125H78.5625C78.7531 62.8125 78.9359 62.7368 79.0707 62.602C79.2055 62.4672 79.2812 62.2844 79.2812 62.0938V33.3438C79.2812 33.1531 79.2055 32.9703 79.0707 32.8355C78.9359 32.7007 78.7531 32.625 78.5625 32.625ZM77.8438 61.375H36.1562V34.0625H77.8438V61.375Z" fill="black"/>
<path d="M38.3125 57.0625C38.8844 57.0625 39.4328 57.2897 39.8372 57.6941C40.2416 58.0984 40.4688 58.6469 40.4688 59.2188C40.4688 59.4094 40.5445 59.5922 40.6793 59.727C40.8141 59.8618 40.9969 59.9375 41.1875 59.9375H72.8125C73.0031 59.9375 73.1859 59.8618 73.3207 59.727C73.4555 59.5922 73.5312 59.4094 73.5312 59.2188C73.5312 58.6469 73.7584 58.0984 74.1628 57.6941C74.5672 57.2897 75.1156 57.0625 75.6875 57.0625C75.8781 57.0625 76.0609 56.9868 76.1957 56.852C76.3305 56.7172 76.4062 56.5344 76.4062 56.3438V39.0938C76.4062 38.9031 76.3305 38.7203 76.1957 38.5855C76.0609 38.4507 75.8781 38.375 75.6875 38.375C75.1156 38.375 74.5672 38.1478 74.1628 37.7434C73.7584 37.3391 73.5312 36.7906 73.5312 36.2188C73.5312 36.0281 73.4555 35.8453 73.3207 35.7105C73.1859 35.5757 73.0031 35.5 72.8125 35.5H41.1875C40.9969 35.5 40.8141 35.5757 40.6793 35.7105C40.5445 35.8453 40.4688 36.0281 40.4688 36.2188C40.4688 36.7906 40.2416 37.3391 39.8372 37.7434C39.4328 38.1478 38.8844 38.375 38.3125 38.375C38.1219 38.375 37.9391 38.4507 37.8043 38.5855C37.6695 38.7203 37.5938 38.9031 37.5938 39.0938V56.3438C37.5938 56.5344 37.6695 56.7172 37.8043 56.852C37.9391 56.9868 38.1219 57.0625 38.3125 57.0625ZM39.0312 39.7406C39.7214 39.5986 40.3547 39.2574 40.853 38.7592C41.3512 38.261 41.6924 37.6276 41.8344 36.9375H72.1656C72.3076 37.6276 72.6488 38.261 73.147 38.7592C73.6453 39.2574 74.2786 39.5986 74.9688 39.7406V55.6969C74.2786 55.8389 73.6453 56.1801 73.147 56.6783C72.6488 57.1765 72.3076 57.8099 72.1656 58.5H41.8344C41.6924 57.8099 41.3512 57.1765 40.853 56.6783C40.3547 56.1801 39.7214 55.8389 39.0312 55.6969V39.7406Z" fill="black"/>
<g clip-path="url(#clip0_8181_4277)">
<path d="M52.9154 49.3336C51.1939 49.3336 49.7636 48.9609 48.832 48.335C48.832 48.7701 48.832 49.0571 48.832 49.3336C48.832 50.3002 50.6602 51.0836 52.9154 51.0836C55.1705 51.0836 56.9987 50.3002 56.9987 49.3336C56.9987 49.0571 56.9987 48.7701 56.9987 48.335C56.0671 48.9609 54.6368 49.3336 52.9154 49.3336Z" fill="#212121"/>
<path d="M52.9154 52.2496C51.1939 52.2496 49.7636 51.8769 48.832 51.251C48.832 51.6861 48.832 51.9731 48.832 52.2496C48.832 53.2162 50.6602 53.9996 52.9154 53.9996C55.1705 53.9996 56.9987 53.2162 56.9987 52.2496C56.9987 51.9731 56.9987 51.6861 56.9987 51.251C56.0671 51.8769 54.6368 52.2496 52.9154 52.2496Z" fill="#212121"/>
<path d="M52.9154 48.167C55.1705 48.167 56.9987 47.3835 56.9987 46.417C56.9987 45.4505 55.1705 44.667 52.9154 44.667C50.6602 44.667 48.832 45.4505 48.832 46.417C48.832 47.3835 50.6602 48.167 52.9154 48.167Z" fill="#212121"/>
<path d="M47.0833 43.5C49.3385 43.5 51.1667 42.7165 51.1667 41.75C51.1667 40.7835 49.3385 40 47.0833 40C44.8282 40 43 40.7835 43 41.75C43 42.7165 44.8282 43.5 47.0833 43.5Z" fill="#212121"/>
<path d="M47.6667 50.4839C47.4759 50.4932 47.2822 50.4996 47.0833 50.4996C45.3619 50.4996 43.9316 50.1269 43 49.501C43 49.9361 43 50.2231 43 50.4996C43 51.4662 44.8282 52.2496 47.0833 52.2496C47.2817 52.2496 47.4759 52.2415 47.6667 52.2298V50.4839Z" fill="#212121"/>
<path d="M47.6667 47.5679C47.4759 47.5772 47.2822 47.5836 47.0833 47.5836C45.3619 47.5836 43.9316 47.2109 43 46.585C43 47.0201 43 47.3071 43 47.5836C43 48.5502 44.8282 49.3336 47.0833 49.3336C47.2817 49.3336 47.4759 49.3255 47.6667 49.3138V47.5679Z" fill="#212121"/>
<path d="M48.7867 44.5301C48.2605 44.6176 47.6912 44.6666 47.0833 44.6666C45.3619 44.6666 43.9316 44.2939 43 43.668C43 44.1031 43 44.3901 43 44.6666C43 45.6332 44.8282 46.4166 47.0833 46.4166C47.2823 46.4166 47.4765 46.4085 47.6684 46.3968C47.6754 45.6601 48.0808 45.0201 48.7867 44.5301Z" fill="#212121"/>
</g>
<g clip-path="url(#clip1_8181_4277)">
<path d="M66.9154 49.3336C65.1939 49.3336 63.7636 48.9609 62.832 48.335C62.832 48.7701 62.832 49.0571 62.832 49.3336C62.832 50.3002 64.6602 51.0836 66.9154 51.0836C69.1705 51.0836 70.9987 50.3002 70.9987 49.3336C70.9987 49.0571 70.9987 48.7701 70.9987 48.335C70.0671 48.9609 68.6368 49.3336 66.9154 49.3336Z" fill="#212121"/>
<path d="M66.9154 52.2496C65.1939 52.2496 63.7636 51.8769 62.832 51.251C62.832 51.6861 62.832 51.9731 62.832 52.2496C62.832 53.2162 64.6602 53.9996 66.9154 53.9996C69.1705 53.9996 70.9987 53.2162 70.9987 52.2496C70.9987 51.9731 70.9987 51.6861 70.9987 51.251C70.0671 51.8769 68.6368 52.2496 66.9154 52.2496Z" fill="#212121"/>
<path d="M66.9154 48.167C69.1705 48.167 70.9987 47.3835 70.9987 46.417C70.9987 45.4505 69.1705 44.667 66.9154 44.667C64.6602 44.667 62.832 45.4505 62.832 46.417C62.832 47.3835 64.6602 48.167 66.9154 48.167Z" fill="#212121"/>
<path d="M61.0833 43.5C63.3385 43.5 65.1667 42.7165 65.1667 41.75C65.1667 40.7835 63.3385 40 61.0833 40C58.8282 40 57 40.7835 57 41.75C57 42.7165 58.8282 43.5 61.0833 43.5Z" fill="#212121"/>
<path d="M61.6667 50.4839C61.4759 50.4932 61.2822 50.4996 61.0833 50.4996C59.3619 50.4996 57.9316 50.1269 57 49.501C57 49.9361 57 50.2231 57 50.4996C57 51.4662 58.8282 52.2496 61.0833 52.2496C61.2817 52.2496 61.4759 52.2415 61.6667 52.2298V50.4839Z" fill="#212121"/>
<path d="M61.6667 47.5679C61.4759 47.5772 61.2822 47.5836 61.0833 47.5836C59.3619 47.5836 57.9316 47.2109 57 46.585C57 47.0201 57 47.3071 57 47.5836C57 48.5502 58.8282 49.3336 61.0833 49.3336C61.2817 49.3336 61.4759 49.3255 61.6667 49.3138V47.5679Z" fill="#212121"/>
<path d="M62.7867 44.5301C62.2605 44.6176 61.6912 44.6666 61.0833 44.6666C59.3619 44.6666 57.9316 44.2939 57 43.668C57 44.1031 57 44.3901 57 44.6666C57 45.6332 58.8282 46.4166 61.0833 46.4166C61.2823 46.4166 61.4765 46.4085 61.6684 46.3968C61.6754 45.6601 62.0808 45.0201 62.7867 44.5301Z" fill="#212121"/>
</g>
<path d="M89.8559 21.6353L83.6684 19.3178C83.0272 19.0816 81.9809 19.0816 81.3397 19.3178L75.1522 21.6353C73.9597 22.0853 72.9922 23.4803 72.9922 24.7516V33.8641C72.9922 34.7753 73.5884 35.9791 74.3197 36.5191L80.5072 41.1428C81.5984 41.9641 83.3872 41.9641 84.4784 41.1428L90.6659 36.5191C91.3972 35.9678 91.9934 34.7753 91.9934 33.8641V24.7516C92.0047 23.4803 91.0372 22.0853 89.8559 21.6353ZM86.4134 27.9353L81.5759 32.7728C81.4072 32.9416 81.1934 33.0203 80.9797 33.0203C80.7659 33.0203 80.5522 32.9416 80.3834 32.7728L78.5834 30.9503C78.2572 30.6241 78.2572 30.0841 78.5834 29.7578C78.9097 29.4316 79.4497 29.4316 79.7759 29.7578L80.9909 30.9728L85.2322 26.7316C85.5584 26.4053 86.0984 26.4053 86.4247 26.7316C86.7509 27.0578 86.7509 27.6091 86.4134 27.9353Z" fill="black"/>
<path d="M130.562 76.625H87.4375C87.2469 76.625 87.0641 76.7007 86.9293 76.8355C86.7945 76.9703 86.7188 77.1531 86.7188 77.3438V106.094C86.7188 106.284 86.7945 106.467 86.9293 106.602C87.0641 106.737 87.2469 106.812 87.4375 106.812H130.562C130.753 106.812 130.936 106.737 131.071 106.602C131.206 106.467 131.281 106.284 131.281 106.094V77.3438C131.281 77.1531 131.206 76.9703 131.071 76.8355C130.936 76.7007 130.753 76.625 130.562 76.625ZM129.844 105.375H88.1562V78.0625H129.844V105.375Z" fill="black"/>
<path d="M90.3125 101.062C90.8844 101.062 91.4328 101.29 91.8372 101.694C92.2416 102.098 92.4688 102.647 92.4688 103.219C92.4688 103.409 92.5445 103.592 92.6793 103.727C92.8141 103.862 92.9969 103.938 93.1875 103.938H124.812C125.003 103.938 125.186 103.862 125.321 103.727C125.456 103.592 125.531 103.409 125.531 103.219C125.531 102.647 125.758 102.098 126.163 101.694C126.567 101.29 127.116 101.062 127.688 101.062C127.878 101.062 128.061 100.987 128.196 100.852C128.331 100.717 128.406 100.534 128.406 100.344V83.0938C128.406 82.9031 128.331 82.7203 128.196 82.5855C128.061 82.4507 127.878 82.375 127.688 82.375C127.116 82.375 126.567 82.1478 126.163 81.7434C125.758 81.3391 125.531 80.7906 125.531 80.2188C125.531 80.0281 125.456 79.8453 125.321 79.7105C125.186 79.5757 125.003 79.5 124.812 79.5H93.1875C92.9969 79.5 92.8141 79.5757 92.6793 79.7105C92.5445 79.8453 92.4688 80.0281 92.4688 80.2188C92.4688 80.7906 92.2416 81.3391 91.8372 81.7434C91.4328 82.1478 90.8844 82.375 90.3125 82.375C90.1219 82.375 89.9391 82.4507 89.8043 82.5855C89.6695 82.7203 89.5938 82.9031 89.5938 83.0938V100.344C89.5938 100.534 89.6695 100.717 89.8043 100.852C89.9391 100.987 90.1219 101.062 90.3125 101.062ZM91.0312 83.7406C91.7214 83.5986 92.3547 83.2574 92.853 82.7592C93.3512 82.261 93.6924 81.6276 93.8344 80.9375H124.166C124.308 81.6276 124.649 82.261 125.147 82.7592C125.645 83.2574 126.279 83.5986 126.969 83.7406V99.6969C126.279 99.8389 125.645 100.18 125.147 100.678C124.649 101.177 124.308 101.81 124.166 102.5H93.8344C93.6924 101.81 93.3512 101.177 92.853 100.678C92.3547 100.18 91.7214 99.8389 91.0312 99.6969V83.7406Z" fill="black"/>
<path d="M119.062 96.7498H98.9375C98.7469 96.7498 98.5641 96.8256 98.4293 96.9604C98.2945 97.0952 98.2188 97.278 98.2188 97.4686V100.344C98.2188 100.534 98.2945 100.717 98.4293 100.852C98.5641 100.987 98.7469 101.062 98.9375 101.062H119.062C119.253 101.062 119.436 100.987 119.571 100.852C119.706 100.717 119.781 100.534 119.781 100.344V97.4686C119.781 97.278 119.706 97.0952 119.571 96.9604C119.436 96.8256 119.253 96.7498 119.062 96.7498ZM118.344 99.6248H99.6562V98.1873H118.344V99.6248ZM115.469 93.8748H114.031V89.5623H114.75C114.892 89.5623 115.031 89.5201 115.149 89.4412C115.267 89.3622 115.36 89.2499 115.414 89.1186C115.468 88.9873 115.483 88.8428 115.455 88.7034C115.427 88.564 115.359 88.436 115.258 88.3354L109.508 82.5854C109.373 82.4507 109.191 82.375 109 82.375C108.809 82.375 108.627 82.4507 108.492 82.5854L102.742 88.3354C102.641 88.436 102.573 88.564 102.545 88.7034C102.517 88.8428 102.532 88.9873 102.586 89.1186C102.64 89.2499 102.733 89.3622 102.851 89.4412C102.969 89.5201 103.108 89.5623 103.25 89.5623H103.969V93.8748H102.531V95.3123H115.469V93.8748ZM112.594 93.8748H109.719V89.5623H112.594V93.8748ZM109 84.1099L113.015 88.1248H104.985L109 84.1099ZM105.406 89.5623H108.281V93.8748H105.406V89.5623Z" fill="black"/>
<path d="M108.281 85.9688H109.719V87.4062H108.281V85.9688ZM117.625 85.9688H124.812V87.4062H117.625V85.9688ZM117.625 88.8438H124.812V90.2812H117.625V88.8438ZM117.625 91.7188H124.812V93.1562H117.625V91.7188ZM93.1875 85.9688H100.375V87.4062H93.1875V85.9688ZM93.1875 88.8438H100.375V90.2812H93.1875V88.8438ZM93.1875 91.7188H100.375V93.1562H93.1875V91.7188Z" fill="black"/>
<path d="M141.856 65.6353L135.668 63.3178C135.027 63.0816 133.981 63.0816 133.34 63.3178L127.152 65.6353C125.96 66.0853 124.992 67.4803 124.992 68.7516V77.8641C124.992 78.7753 125.588 79.9791 126.32 80.5191L132.507 85.1428C133.598 85.9641 135.387 85.9641 136.478 85.1428L142.666 80.5191C143.397 79.9678 143.993 78.7753 143.993 77.8641V68.7516C144.005 67.4803 143.037 66.0853 141.856 65.6353ZM138.413 71.9353L133.576 76.7728C133.407 76.9416 133.193 77.0203 132.98 77.0203C132.766 77.0203 132.552 76.9416 132.383 76.7728L130.583 74.9503C130.257 74.6241 130.257 74.0841 130.583 73.7578C130.91 73.4316 131.45 73.4316 131.776 73.7578L132.991 74.9728L137.232 70.7316C137.558 70.4053 138.098 70.4053 138.425 70.7316C138.751 71.0578 138.751 71.6091 138.413 71.9353Z" fill="black"/>
<defs>
<clipPath id="clip0_8181_4277">
<rect width="14" height="14" fill="white" transform="translate(43 40)"/>
</clipPath>
<clipPath id="clip1_8181_4277">
<rect width="14" height="14" fill="white" transform="translate(57 40)"/>
</clipPath>
</defs>
</svg>
