<svg width="24" height="24" viewBox="0 0 24 24" fill="none" xmlns="http://www.w3.org/2000/svg">
<path d="M21.6188 6H3.75C3.3375 6 3 5.6625 3 5.25C3 4.8375 3.3375 4.5 3.75 4.5H21.75C22.1625 4.5 22.5 4.1625 22.5 3.75C22.5 2.50781 21.4922 1.5 20.25 1.5H3C1.34531 1.5 0 2.84531 0 4.5V19.5C0 21.1594 1.34531 22.5 3 22.5H21.6188C22.9313 22.5 24 21.4922 24 20.25V8.25C24 7.00781 22.9313 6 21.6188 6ZM19.5 15.75C18.6703 15.75 18 15.0797 18 14.25C18 13.4203 18.6703 12.75 19.5 12.75C20.3297 12.75 21 13.4203 21 14.25C21 15.0797 20.3297 15.75 19.5 15.75Z" fill="#F8D34C"/>
</svg>
