<svg width="21" height="24" viewBox="0 0 21 24" fill="none" xmlns="http://www.w3.org/2000/svg">
<path d="M2.37656 2.74219L0 7.5H9.75V1.5H4.39219C3.53906 1.5 2.76094 1.98281 2.37656 2.74219ZM11.25 7.5H21L18.6234 2.74219C18.2391 1.98281 17.4609 1.5 16.6078 1.5H11.25V7.5ZM21 9H0V19.5C0 21.1547 1.34531 22.5 3 22.5H18C19.6547 22.5 21 21.1547 21 19.5V9Z" fill="#E8862A"/>
<path d="M14.3333 12C14.3333 14.3333 12.5 16.1667 10.1667 16.1667C7.83333 16.1667 6 14.3333 6 12" stroke="white" stroke-miterlimit="10" stroke-linecap="square"/>
</svg>
