<svg width="18" height="18" viewBox="0 0 18 18" fill="none" xmlns="http://www.w3.org/2000/svg">
<circle cx="9" cy="9" r="9" fill="#3FA965"/>
<path d="M11.8015 5.40039H7.00803C6.79614 5.40039 6.59294 5.48456 6.44311 5.63439C6.29329 5.78421 6.20912 5.98742 6.20912 6.1993C6.20912 6.41118 6.29329 6.61439 6.44311 6.76421C6.59294 6.91404 6.79614 6.99821 7.00803 6.99821H9.87291L5.64429 11.2268C5.56798 11.3005 5.50712 11.3887 5.46525 11.4862C5.42338 11.5836 5.40134 11.6885 5.40042 11.7945C5.3995 11.9006 5.41971 12.0058 5.45988 12.104C5.50005 12.2022 5.55937 12.2914 5.63439 12.3664C5.7094 12.4414 5.7986 12.5007 5.89678 12.5409C5.99496 12.5811 6.10016 12.6013 6.20624 12.6004C6.31232 12.5994 6.41715 12.5774 6.51462 12.5355C6.61209 12.4937 6.70025 12.4328 6.77395 12.3565L11.0026 8.12787V10.9928C11.0026 11.2046 11.0867 11.4078 11.2366 11.5577C11.3864 11.7075 11.5896 11.7917 11.8015 11.7917C12.0134 11.7917 12.2166 11.7075 12.3664 11.5577C12.5162 11.4078 12.6004 11.2046 12.6004 10.9928V6.1993C12.6004 5.98742 12.5162 5.78421 12.3664 5.63439C12.2166 5.48456 12.0134 5.40039 11.8015 5.40039Z" fill="white"/>
</svg>
