<svg width="48" height="48" viewBox="0 0 48 48" fill="none" xmlns="http://www.w3.org/2000/svg">
<path d="M24 1C11.3174 1 1 11.3179 1 24C1 36.6821 11.3174 47 24 47C36.6826 47 47 36.6821 47 24C47 11.3179 36.6826 1 24 1Z" fill="#FFD8B4"/>
<path d="M24 28V33M24 28L30 33M24 28L18 33M33 15V23.2C33 24.8802 33 25.7202 32.673 26.362C32.3854 26.9265 31.9265 27.3854 31.362 27.673C30.7202 28 29.8802 28 28.2 28H19.8C18.1198 28 17.2798 28 16.638 27.673C16.0735 27.3854 15.6146 26.9265 15.327 26.362C15 25.7202 15 24.8802 15 23.2V15M20 21V24M24 19V24M28 23V24M34 15H14" stroke="#E8862A" stroke-width="2" stroke-linecap="round" stroke-linejoin="round"/>
</svg>
