<svg width="48" height="48" viewBox="0 0 48 48" fill="none" xmlns="http://www.w3.org/2000/svg">
<path d="M24 1C11.3174 1 1 11.3179 1 24C1 36.6821 11.3174 47 24 47C36.6826 47 47 36.6821 47 24C47 11.3179 36.6826 1 24 1Z" fill="#E88C8C"/>
<path d="M35 35H14.9556C14.271 35 13.9288 35 13.6673 34.8668C13.4374 34.7496 13.2504 34.5626 13.1332 34.3327C13 34.0712 13 33.729 13 33.0444V13M35 27.6667L28.3581 21.0247C28.1161 20.7827 27.995 20.6617 27.8555 20.6164C27.7328 20.5765 27.6006 20.5765 27.4778 20.6164C27.3383 20.6617 27.2173 20.7827 26.9753 21.0247L24.6914 23.3086C24.4494 23.5506 24.3284 23.6716 24.1888 23.717C24.0661 23.7568 23.9339 23.7568 23.8112 23.717C23.6716 23.6716 23.5506 23.5506 23.3086 23.3086L17.8889 17.8889M35 27.6667H30.1111M35 27.6667V22.7778" stroke="#893737" stroke-width="3" stroke-linecap="round" stroke-linejoin="round"/>
</svg>
