<svg width="48" height="48" viewBox="0 0 48 48" fill="none" xmlns="http://www.w3.org/2000/svg">
<path d="M24 1C11.3174 1 1 11.3179 1 24C1 36.6821 11.3174 47 24 47C36.6826 47 47 36.6821 47 24C47 11.3179 36.6826 1 24 1Z" fill="#BADEFC"/>
<path d="M27 14.92C27 14.2479 27 13.9119 26.8692 13.6552C26.7542 13.4294 26.5706 13.2458 26.3448 13.1308C26.0881 13 25.7521 13 25.08 13H22.92C22.2479 13 21.9119 13 21.6552 13.1308C21.4294 13.2458 21.2458 13.4294 21.1308 13.6552C21 13.9119 21 14.2479 21 14.92L21 34.6H27L27 14.92Z" fill="#B3B3B3"/>
<path d="M12 34.6L36 34.6Z" fill="#B3B3B3"/>
<path d="M21 17.8H16.92C16.2479 17.8 15.9119 17.8 15.6552 17.9308C15.4294 18.0458 15.2458 18.2294 15.1308 18.4552C15 18.7119 15 19.0479 15 19.72V34.6M27 22.6H31.08C31.7521 22.6 32.0881 22.6 32.3448 22.7308C32.5706 22.8458 32.7542 23.0294 32.8692 23.2552C33 23.5119 33 23.8479 33 24.52V34.6M12 34.6L36 34.6M27 34.6L27 14.92C27 14.2479 27 13.9119 26.8692 13.6552C26.7542 13.4294 26.5706 13.2458 26.3448 13.1308C26.0881 13 25.7521 13 25.08 13H22.92C22.2479 13 21.9119 13 21.6552 13.1308C21.4294 13.2458 21.2458 13.4294 21.1308 13.6552C21 13.9119 21 14.2479 21 14.92L21 34.6H27Z" stroke="#444444" stroke-width="2" stroke-linecap="round" stroke-linejoin="round"/>
</svg>
