<svg width="156" height="64" viewBox="0 0 156 64" fill="none" xmlns="http://www.w3.org/2000/svg">
<rect x="0.75" y="0.75" width="154.5" height="62.5" rx="7.25" stroke="#CCCCCC" stroke-width="1.5"/>
<g clip-path="url(#clip0_3703_187)">
<path d="M30.25 15.34C32.115 14.7825 34.0525 14.4975 36 14.5C47.035 14.49 55.99 23.43 56 34.465C56 36.4125 55.72 38.35 55.16 40.215C54.845 41.275 53.87 42 52.765 42H45.13C45.2925 40.515 45.4575 38.8075 45.62 37H50.7875C50.93 36.175 51 35.3375 51 34.5C51 26.215 44.285 19.5 36 19.5C27.715 19.5 21 26.215 21 34.5C21 35.3375 21.07 36.175 21.2125 37H29.98C28.7875 39.275 27.8725 41.1475 27.625 41.96C27.62 41.9725 27.62 41.985 27.6175 42H19.235C18.13 42 17.155 41.275 16.84 40.215C13.675 29.6425 19.6775 18.505 30.25 15.34Z" fill="#FED137"/>
<path d="M31.2154 43.0473C31.8379 40.9923 39.4854 27.4748 40.3554 25.9398C40.6404 25.4348 41.2304 25.1923 41.8054 25.3598C42.3654 25.5298 42.7304 26.0648 42.6904 26.6473C42.5604 28.4073 41.4079 43.8948 40.7854 45.9498C40.1304 48.1048 38.1429 49.4973 35.9979 49.4973C35.5179 49.4973 35.0304 49.4273 34.5479 49.2823C31.9104 48.4823 30.4179 45.6873 31.2154 43.0473Z" fill="#FED137"/>
</g>
<path d="M72.7422 26.5V19.2246H75.2812C75.8542 19.2246 76.3245 19.3223 76.6924 19.5176C77.0635 19.7096 77.3402 19.9766 77.5225 20.3184C77.7048 20.6602 77.7959 21.0508 77.7959 21.4902C77.7959 21.9297 77.7048 22.3171 77.5225 22.6523C77.3434 22.9876 77.0667 23.2497 76.6924 23.4385C76.3213 23.624 75.8509 23.7168 75.2812 23.7168H73.3281V22.8184H75.2227C75.5938 22.8184 75.8916 22.7663 76.1162 22.6621C76.3441 22.5547 76.5101 22.4017 76.6143 22.2031C76.7184 22.0046 76.7705 21.7669 76.7705 21.4902C76.7705 21.2135 76.7168 20.9727 76.6094 20.7676C76.5052 20.5625 76.3392 20.4046 76.1113 20.2939C75.8867 20.18 75.5889 20.123 75.2178 20.123H73.7725V26.5H72.7422ZM76.8926 26.5L75.1396 23.2236H76.2871L78.0791 26.5H76.8926ZM80.8566 19.2246V26.5H79.8215V19.2246H80.8566ZM85.5873 26.6172C85.0307 26.6172 84.5489 26.5244 84.142 26.3389C83.7351 26.1533 83.4193 25.888 83.1947 25.543C82.9701 25.1979 82.8513 24.7894 82.8383 24.3174H83.8783C83.8913 24.6169 83.9695 24.8708 84.1127 25.0791C84.2592 25.2842 84.4594 25.4404 84.7133 25.5479C84.9672 25.6553 85.2585 25.709 85.5873 25.709C85.9161 25.709 86.2042 25.6602 86.4516 25.5625C86.7022 25.4616 86.8975 25.3216 87.0375 25.1426C87.1807 24.9603 87.2523 24.7471 87.2523 24.5029C87.2523 24.2979 87.1986 24.1253 87.0912 23.9854C86.9838 23.8421 86.8259 23.7217 86.6176 23.624C86.4092 23.5231 86.1521 23.4352 85.8461 23.3604L85.016 23.1504C84.3487 22.9811 83.8474 22.7419 83.5121 22.4326C83.1768 22.1201 83.0092 21.7132 83.0092 21.2119C83.0092 20.7887 83.1182 20.4209 83.3363 20.1084C83.5544 19.7959 83.8555 19.5534 84.2396 19.3809C84.627 19.2051 85.0714 19.1172 85.5727 19.1172C86.074 19.1172 86.5134 19.2067 86.891 19.3857C87.2686 19.5648 87.5648 19.8154 87.7797 20.1377C87.9945 20.46 88.1085 20.8359 88.1215 21.2656H87.1205C87.088 20.875 86.9301 20.5706 86.6469 20.3525C86.3637 20.1344 85.9975 20.0254 85.5482 20.0254C85.2488 20.0254 84.9851 20.0742 84.7572 20.1719C84.5294 20.2663 84.352 20.3997 84.225 20.5723C84.098 20.7415 84.0346 20.9368 84.0346 21.1582C84.0346 21.3112 84.0671 21.4463 84.1322 21.5635C84.2006 21.6774 84.2966 21.7783 84.4203 21.8662C84.544 21.9541 84.6905 22.0306 84.8598 22.0957C85.029 22.1576 85.2146 22.2145 85.4164 22.2666L86.1732 22.4619C86.4727 22.5335 86.7494 22.6247 87.0033 22.7354C87.2572 22.846 87.4786 22.9811 87.6674 23.1406C87.8594 23.3001 88.0092 23.4906 88.1166 23.7119C88.224 23.9333 88.2777 24.1888 88.2777 24.4785C88.2777 24.8984 88.1687 25.2695 87.9506 25.5918C87.7357 25.9141 87.4265 26.1663 87.0229 26.3486C86.6225 26.5277 86.1439 26.6172 85.5873 26.6172ZM90.2594 26.5V19.2246H91.2945V22.7451H91.3775L94.4977 19.2246H95.8062L92.8375 22.501L95.816 26.5H94.5758L92.1734 23.209L91.2945 24.2148V26.5H90.2594ZM100.863 19.2246H102.162L104.481 24.9961H104.53L106.84 19.2246H108.163V26.5H107.152V21.002H107.113L104.896 26.4902H104.091L101.884 20.9971H101.845V26.5H100.863V19.2246ZM110.638 26.5V19.2246H115.154V20.123H111.673V22.3887H114.901V23.2725H111.673V25.6016H115.194V26.5H110.638ZM116.926 20.1279V19.2246H122.507V20.1279H120.237V26.5H119.206V20.1279H116.926ZM124.425 26.5V19.2246H128.942V20.123H125.461V22.3887H128.688V23.2725H125.461V25.6016H128.981V26.5H124.425ZM131.085 26.5V19.2246H133.624C134.197 19.2246 134.667 19.3223 135.035 19.5176C135.406 19.7096 135.683 19.9766 135.865 20.3184C136.047 20.6602 136.138 21.0508 136.138 21.4902C136.138 21.9297 136.047 22.3171 135.865 22.6523C135.686 22.9876 135.409 23.2497 135.035 23.4385C134.664 23.624 134.193 23.7168 133.624 23.7168H131.671V22.8184H133.565C133.936 22.8184 134.234 22.7663 134.459 22.6621C134.687 22.5547 134.853 22.4017 134.957 22.2031C135.061 22.0046 135.113 21.7669 135.113 21.4902C135.113 21.2135 135.059 20.9727 134.952 20.7676C134.848 20.5625 134.682 20.4046 134.454 20.2939C134.229 20.18 133.931 20.123 133.56 20.123H132.115V26.5H131.085ZM135.235 26.5L133.482 23.2236H134.63L136.422 26.5H135.235Z" fill="#666666"/>
<path d="M73.1985 34.5909H75.196L78.669 43.071H78.7969L82.2699 34.5909H84.2674V45.5H82.7013V37.6058H82.6001L79.3828 45.484H78.0831L74.8658 37.6005H74.7646V45.5H73.1985V34.5909ZM89.779 45.6651C89.0119 45.6651 88.3425 45.4893 87.7708 45.1378C87.1991 44.7862 86.7552 44.2944 86.4391 43.6623C86.1231 43.0302 85.965 42.2915 85.965 41.4464C85.965 40.5977 86.1231 39.8555 86.4391 39.2198C86.7552 38.5842 87.1991 38.0906 87.7708 37.739C88.3425 37.3874 89.0119 37.2116 89.779 37.2116C90.546 37.2116 91.2154 37.3874 91.7871 37.739C92.3589 38.0906 92.8028 38.5842 93.1188 39.2198C93.4349 39.8555 93.5929 40.5977 93.5929 41.4464C93.5929 42.2915 93.4349 43.0302 93.1188 43.6623C92.8028 44.2944 92.3589 44.7862 91.7871 45.1378C91.2154 45.4893 90.546 45.6651 89.779 45.6651ZM89.7843 44.3281C90.2814 44.3281 90.6934 44.1967 91.0201 43.9339C91.3468 43.6712 91.5883 43.3214 91.7445 42.8846C91.9043 42.4478 91.9842 41.9666 91.9842 41.4411C91.9842 40.919 91.9043 40.4396 91.7445 40.0028C91.5883 39.5625 91.3468 39.2092 91.0201 38.9428C90.6934 38.6765 90.2814 38.5433 89.7843 38.5433C89.2836 38.5433 88.8681 38.6765 88.5378 38.9428C88.2111 39.2092 87.9679 39.5625 87.8081 40.0028C87.6518 40.4396 87.5737 40.919 87.5737 41.4411C87.5737 41.9666 87.6518 42.4478 87.8081 42.8846C87.9679 43.3214 88.2111 43.6712 88.5378 43.9339C88.8681 44.1967 89.2836 44.3281 89.7843 44.3281ZM98.2335 45.6598C97.573 45.6598 96.9835 45.4911 96.4651 45.1538C95.9501 44.8129 95.5453 44.3281 95.2506 43.6996C94.9594 43.0675 94.8138 42.3093 94.8138 41.4251C94.8138 40.5408 94.9612 39.7844 95.2559 39.1559C95.5542 38.5273 95.9626 38.0462 96.481 37.7124C96.9995 37.3786 97.5872 37.2116 98.2442 37.2116C98.752 37.2116 99.1604 37.2969 99.4693 37.4673C99.7818 37.6342 100.023 37.8295 100.194 38.0533C100.368 38.277 100.503 38.4741 100.599 38.6445H100.694V34.5909H102.287V45.5H100.732V44.2269H100.599C100.503 44.4009 100.364 44.5998 100.183 44.8235C100.006 45.0472 99.7605 45.2425 99.448 45.4094C99.1355 45.5763 98.7307 45.6598 98.2335 45.6598ZM98.5851 44.3015C99.0432 44.3015 99.4303 44.1808 99.7463 43.9393C100.066 43.6942 100.307 43.3551 100.471 42.9219C100.638 42.4886 100.721 41.9844 100.721 41.4091C100.721 40.8409 100.639 40.3437 100.476 39.9176C100.313 39.4915 100.073 39.1594 99.757 38.9215C99.4409 38.6836 99.0503 38.5646 98.5851 38.5646C98.1057 38.5646 97.7062 38.6889 97.3866 38.9375C97.067 39.1861 96.8255 39.5252 96.6621 39.9549C96.5023 40.3846 96.4224 40.8693 96.4224 41.4091C96.4224 41.956 96.5041 42.4478 96.6675 42.8846C96.8308 43.3214 97.0723 43.6676 97.3919 43.9233C97.7151 44.1754 98.1128 44.3015 98.5851 44.3015ZM107.887 45.6651C107.08 45.6651 106.386 45.4929 105.804 45.1484C105.225 44.8004 104.778 44.3121 104.462 43.6836C104.149 43.0515 103.993 42.3111 103.993 41.4624C103.993 40.6243 104.149 39.8857 104.462 39.2464C104.778 38.6072 105.218 38.1083 105.783 37.7496C106.351 37.391 107.015 37.2116 107.775 37.2116C108.236 37.2116 108.684 37.288 109.117 37.4407C109.55 37.5934 109.939 37.8331 110.284 38.1598C110.628 38.4865 110.9 38.9109 111.099 39.4329C111.297 39.9513 111.397 40.5817 111.397 41.3239V41.8885H104.893V40.6953H109.836C109.836 40.2763 109.751 39.9052 109.58 39.582C109.41 39.2553 109.17 38.9979 108.861 38.8097C108.556 38.6214 108.197 38.5273 107.785 38.5273C107.338 38.5273 106.947 38.6374 106.614 38.8576C106.283 39.0742 106.028 39.3583 105.846 39.7099C105.669 40.0579 105.58 40.4361 105.58 40.8445V41.7766C105.58 42.3235 105.676 42.7887 105.868 43.1722C106.063 43.5558 106.335 43.8487 106.683 44.0511C107.031 44.25 107.437 44.3494 107.903 44.3494C108.204 44.3494 108.48 44.3068 108.728 44.2216C108.977 44.1328 109.192 44.0014 109.373 43.8274C109.554 43.6534 109.692 43.4386 109.788 43.1829L111.296 43.4545C111.175 43.8984 110.958 44.2873 110.646 44.6211C110.337 44.9513 109.948 45.2088 109.479 45.3935C109.014 45.5746 108.483 45.6651 107.887 45.6651ZM112.964 45.5V37.3182H114.503V38.6179H114.589C114.738 38.1776 115.001 37.8313 115.377 37.5792C115.757 37.3235 116.187 37.1957 116.666 37.1957C116.766 37.1957 116.883 37.1992 117.018 37.2063C117.156 37.2134 117.264 37.2223 117.343 37.233V38.7564C117.279 38.7386 117.165 38.7191 117.002 38.6978C116.838 38.6729 116.675 38.6605 116.512 38.6605C116.135 38.6605 115.8 38.7404 115.505 38.9002C115.214 39.0565 114.983 39.2749 114.812 39.5554C114.642 39.8324 114.557 40.1484 114.557 40.5036V45.5H112.964ZM120.829 45.6811C120.31 45.6811 119.841 45.5852 119.422 45.3935C119.003 45.1982 118.671 44.9158 118.426 44.5465C118.185 44.1772 118.064 43.7244 118.064 43.1882C118.064 42.7266 118.153 42.3466 118.33 42.0483C118.508 41.75 118.748 41.5138 119.05 41.3398C119.351 41.1658 119.689 41.0344 120.062 40.9457C120.434 40.8569 120.814 40.7894 121.202 40.7433C121.692 40.6864 122.089 40.6403 122.395 40.6048C122.7 40.5657 122.922 40.5036 123.061 40.4183C123.199 40.3331 123.268 40.1946 123.268 40.0028V39.9656C123.268 39.5004 123.137 39.1399 122.874 38.8842C122.615 38.6286 122.228 38.5007 121.713 38.5007C121.177 38.5007 120.754 38.6197 120.445 38.8576C120.14 39.092 119.928 39.353 119.811 39.6406L118.314 39.2997C118.492 38.8026 118.751 38.4013 119.092 38.0959C119.437 37.7869 119.833 37.5632 120.28 37.4247C120.727 37.2827 121.198 37.2116 121.692 37.2116C122.018 37.2116 122.365 37.2507 122.73 37.3288C123.1 37.4034 123.444 37.5419 123.764 37.7443C124.087 37.9467 124.351 38.2362 124.557 38.6126C124.763 38.9854 124.866 39.4702 124.866 40.0668V45.5H123.311V44.3814H123.247C123.144 44.5874 122.99 44.7898 122.784 44.9886C122.578 45.1875 122.313 45.3526 121.99 45.484C121.667 45.6154 121.28 45.6811 120.829 45.6811ZM121.175 44.4027C121.615 44.4027 121.992 44.3157 122.304 44.1417C122.62 43.9677 122.86 43.7404 123.023 43.4599C123.19 43.1758 123.274 42.8722 123.274 42.549V41.4943C123.217 41.5511 123.107 41.6044 122.943 41.6541C122.784 41.7003 122.601 41.7411 122.395 41.7766C122.189 41.8086 121.988 41.8388 121.793 41.8672C121.597 41.892 121.434 41.9134 121.303 41.9311C120.994 41.9702 120.711 42.0359 120.456 42.1282C120.204 42.2205 120.001 42.3537 119.849 42.5277C119.699 42.6982 119.625 42.9254 119.625 43.2095C119.625 43.6037 119.77 43.902 120.062 44.1044C120.353 44.3033 120.724 44.4027 121.175 44.4027ZM130.607 37.3182V38.5966H126.138V37.3182H130.607ZM127.336 35.358H128.929V43.0977C128.929 43.4066 128.975 43.6392 129.067 43.7955C129.16 43.9482 129.279 44.0529 129.424 44.1097C129.574 44.163 129.735 44.1896 129.909 44.1896C130.037 44.1896 130.149 44.1808 130.245 44.163C130.341 44.1452 130.415 44.131 130.468 44.1204L130.756 45.4361C130.664 45.4716 130.532 45.5071 130.362 45.5426C130.191 45.5817 129.978 45.603 129.723 45.6065C129.304 45.6136 128.913 45.5391 128.551 45.3828C128.189 45.2266 127.896 44.9851 127.672 44.6584C127.448 44.3317 127.336 43.9215 127.336 43.4279V35.358ZM135.607 45.6651C134.801 45.6651 134.107 45.4929 133.524 45.1484C132.946 44.8004 132.498 44.3121 132.182 43.6836C131.87 43.0515 131.713 42.3111 131.713 41.4624C131.713 40.6243 131.87 39.8857 132.182 39.2464C132.498 38.6072 132.938 38.1083 133.503 37.7496C134.071 37.391 134.735 37.2116 135.495 37.2116C135.957 37.2116 136.404 37.288 136.838 37.4407C137.271 37.5934 137.66 37.8331 138.004 38.1598C138.349 38.4865 138.62 38.9109 138.819 39.4329C139.018 39.9513 139.117 40.5817 139.117 41.3239V41.8885H132.613V40.6953H137.557C137.557 40.2763 137.471 39.9052 137.301 39.582C137.131 39.2553 136.891 38.9979 136.582 38.8097C136.276 38.6214 135.918 38.5273 135.506 38.5273C135.058 38.5273 134.668 38.6374 134.334 38.8576C134.004 39.0742 133.748 39.3583 133.567 39.7099C133.389 40.0579 133.301 40.4361 133.301 40.8445V41.7766C133.301 42.3235 133.397 42.7887 133.588 43.1722C133.784 43.5558 134.055 43.8487 134.403 44.0511C134.751 44.25 135.158 44.3494 135.623 44.3494C135.925 44.3494 136.2 44.3068 136.449 44.2216C136.697 44.1328 136.912 44.0014 137.093 43.8274C137.274 43.6534 137.413 43.4386 137.509 43.1829L139.016 43.4545C138.895 43.8984 138.679 44.2873 138.366 44.6211C138.057 44.9513 137.669 45.2088 137.2 45.3935C136.735 45.5746 136.204 45.6651 135.607 45.6651Z" fill="black"/>
<defs>
<clipPath id="clip0_3703_187">
<rect width="40" height="40" fill="white" transform="matrix(-1 0 0 1 56 12)"/>
</clipPath>
</defs>
</svg>
