<svg width="158" height="64" viewBox="0 0 158 64" fill="none" xmlns="http://www.w3.org/2000/svg">
<rect x="0.75" y="0.75" width="156.5" height="62.5" rx="7.25" stroke="#CCCCCC" stroke-width="1.5"/>
<g clip-path="url(#clip0_3703_203)">
<path d="M30.25 15.34C32.115 14.7825 34.0525 14.4975 36 14.5C47.035 14.49 55.99 23.43 56 34.465C56 36.4125 55.72 38.35 55.16 40.215C54.845 41.275 53.87 42 52.765 42H45.13C45.2925 40.515 45.4575 38.8075 45.62 37H50.7875C50.93 36.175 51 35.3375 51 34.5C51 26.215 44.285 19.5 36 19.5C27.715 19.5 21 26.215 21 34.5C21 35.3375 21.07 36.175 21.2125 37H29.98C28.7875 39.275 27.8725 41.1475 27.625 41.96C27.62 41.9725 27.62 41.985 27.6175 42H19.235C18.13 42 17.155 41.275 16.84 40.215C13.675 29.6425 19.6775 18.505 30.25 15.34Z" fill="#F26D24"/>
<path d="M31.2154 43.0473C31.8379 40.9923 39.4854 27.4748 40.3554 25.9398C40.6404 25.4348 41.2304 25.1923 41.8054 25.3598C42.3654 25.5298 42.7304 26.0648 42.6904 26.6473C42.5604 28.4073 41.4079 43.8948 40.7854 45.9498C40.1304 48.1048 38.1429 49.4973 35.9979 49.4973C35.5179 49.4973 35.0304 49.4273 34.5479 49.2823C31.9104 48.4823 30.4179 45.6873 31.2154 43.0473Z" fill="#F26D24"/>
</g>
<path d="M72.7422 26V18.7246H75.2812C75.8542 18.7246 76.3245 18.8223 76.6924 19.0176C77.0635 19.2096 77.3402 19.4766 77.5225 19.8184C77.7048 20.1602 77.7959 20.5508 77.7959 20.9902C77.7959 21.4297 77.7048 21.8171 77.5225 22.1523C77.3434 22.4876 77.0667 22.7497 76.6924 22.9385C76.3213 23.124 75.8509 23.2168 75.2812 23.2168H73.3281V22.3184H75.2227C75.5938 22.3184 75.8916 22.2663 76.1162 22.1621C76.3441 22.0547 76.5101 21.9017 76.6143 21.7031C76.7184 21.5046 76.7705 21.2669 76.7705 20.9902C76.7705 20.7135 76.7168 20.4727 76.6094 20.2676C76.5052 20.0625 76.3392 19.9046 76.1113 19.7939C75.8867 19.68 75.5889 19.623 75.2178 19.623H73.7725V26H72.7422ZM76.8926 26L75.1396 22.7236H76.2871L78.0791 26H76.8926ZM80.8566 18.7246V26H79.8215V18.7246H80.8566ZM85.5873 26.1172C85.0307 26.1172 84.5489 26.0244 84.142 25.8389C83.7351 25.6533 83.4193 25.388 83.1947 25.043C82.9701 24.6979 82.8513 24.2894 82.8383 23.8174H83.8783C83.8913 24.1169 83.9695 24.3708 84.1127 24.5791C84.2592 24.7842 84.4594 24.9404 84.7133 25.0479C84.9672 25.1553 85.2585 25.209 85.5873 25.209C85.9161 25.209 86.2042 25.1602 86.4516 25.0625C86.7022 24.9616 86.8975 24.8216 87.0375 24.6426C87.1807 24.4603 87.2523 24.2471 87.2523 24.0029C87.2523 23.7979 87.1986 23.6253 87.0912 23.4854C86.9838 23.3421 86.8259 23.2217 86.6176 23.124C86.4092 23.0231 86.1521 22.9352 85.8461 22.8604L85.016 22.6504C84.3487 22.4811 83.8474 22.2419 83.5121 21.9326C83.1768 21.6201 83.0092 21.2132 83.0092 20.7119C83.0092 20.2887 83.1182 19.9209 83.3363 19.6084C83.5544 19.2959 83.8555 19.0534 84.2396 18.8809C84.627 18.7051 85.0714 18.6172 85.5727 18.6172C86.074 18.6172 86.5134 18.7067 86.891 18.8857C87.2686 19.0648 87.5648 19.3154 87.7797 19.6377C87.9945 19.96 88.1085 20.3359 88.1215 20.7656H87.1205C87.088 20.375 86.9301 20.0706 86.6469 19.8525C86.3637 19.6344 85.9975 19.5254 85.5482 19.5254C85.2488 19.5254 84.9851 19.5742 84.7572 19.6719C84.5294 19.7663 84.352 19.8997 84.225 20.0723C84.098 20.2415 84.0346 20.4368 84.0346 20.6582C84.0346 20.8112 84.0671 20.9463 84.1322 21.0635C84.2006 21.1774 84.2966 21.2783 84.4203 21.3662C84.544 21.4541 84.6905 21.5306 84.8598 21.5957C85.029 21.6576 85.2146 21.7145 85.4164 21.7666L86.1732 21.9619C86.4727 22.0335 86.7494 22.1247 87.0033 22.2354C87.2572 22.346 87.4786 22.4811 87.6674 22.6406C87.8594 22.8001 88.0092 22.9906 88.1166 23.2119C88.224 23.4333 88.2777 23.6888 88.2777 23.9785C88.2777 24.3984 88.1687 24.7695 87.9506 25.0918C87.7357 25.4141 87.4265 25.6663 87.0229 25.8486C86.6225 26.0277 86.1439 26.1172 85.5873 26.1172ZM90.2594 26V18.7246H91.2945V22.2451H91.3775L94.4977 18.7246H95.8062L92.8375 22.001L95.816 26H94.5758L92.1734 22.709L91.2945 23.7148V26H90.2594ZM100.863 18.7246H102.162L104.481 24.4961H104.53L106.84 18.7246H108.163V26H107.152V20.502H107.113L104.896 25.9902H104.091L101.884 20.4971H101.845V26H100.863V18.7246ZM110.638 26V18.7246H115.154V19.623H111.673V21.8887H114.901V22.7725H111.673V25.1016H115.194V26H110.638ZM116.926 19.6279V18.7246H122.507V19.6279H120.237V26H119.206V19.6279H116.926ZM124.425 26V18.7246H128.942V19.623H125.461V21.8887H128.688V22.7725H125.461V25.1016H128.981V26H124.425ZM131.085 26V18.7246H133.624C134.197 18.7246 134.667 18.8223 135.035 19.0176C135.406 19.2096 135.683 19.4766 135.865 19.8184C136.047 20.1602 136.138 20.5508 136.138 20.9902C136.138 21.4297 136.047 21.8171 135.865 22.1523C135.686 22.4876 135.409 22.7497 135.035 22.9385C134.664 23.124 134.193 23.2168 133.624 23.2168H131.671V22.3184H133.565C133.936 22.3184 134.234 22.2663 134.459 22.1621C134.687 22.0547 134.853 21.9017 134.957 21.7031C135.061 21.5046 135.113 21.2669 135.113 20.9902C135.113 20.7135 135.059 20.4727 134.952 20.2676C134.848 20.0625 134.682 19.9046 134.454 19.7939C134.229 19.68 133.931 19.623 133.56 19.623H132.115V26H131.085ZM135.235 26L133.482 22.7236H134.63L136.422 26H135.235Z" fill="#666666"/>
<path d="M73.2784 46V34.3636H75.0341V39.4205H80.8352V34.3636H82.5966V46H80.8352V40.9261H75.0341V46H73.2784ZM84.817 46V37.2727H86.5159V46H84.817ZM85.675 35.9261C85.3795 35.9261 85.1258 35.8277 84.9136 35.6307C84.7053 35.4299 84.6011 35.1913 84.6011 34.9148C84.6011 34.6345 84.7053 34.3958 84.9136 34.1989C85.1258 33.9981 85.3795 33.8977 85.675 33.8977C85.9705 33.8977 86.2223 33.9981 86.4307 34.1989C86.6428 34.3958 86.7489 34.6345 86.7489 34.9148C86.7489 35.1913 86.6428 35.4299 86.4307 35.6307C86.2223 35.8277 85.9705 35.9261 85.675 35.9261ZM92.2605 49.4545C91.5673 49.4545 90.9707 49.3636 90.4707 49.1818C89.9745 49 89.5692 48.7595 89.2548 48.4602C88.9404 48.161 88.7056 47.8333 88.5503 47.4773L90.0105 46.875C90.1128 47.0417 90.2491 47.2178 90.4196 47.4034C90.5938 47.5928 90.8287 47.7538 91.1241 47.8864C91.4234 48.0189 91.8079 48.0852 92.2776 48.0852C92.9215 48.0852 93.4537 47.928 93.8741 47.6136C94.2946 47.303 94.5048 46.8068 94.5048 46.125V44.4091H94.3969C94.2946 44.5947 94.1469 44.8011 93.9537 45.0284C93.7643 45.2557 93.5029 45.4527 93.1696 45.6193C92.8363 45.786 92.4026 45.8693 91.8685 45.8693C91.1791 45.8693 90.5579 45.7083 90.0048 45.3864C89.4556 45.0606 89.02 44.5814 88.698 43.9489C88.3798 43.3125 88.2207 42.5303 88.2207 41.6023C88.2207 40.6742 88.3779 39.8788 88.6923 39.2159C89.0105 38.553 89.4461 38.0455 89.9991 37.6932C90.5522 37.3371 91.1791 37.1591 91.8798 37.1591C92.4215 37.1591 92.859 37.25 93.1923 37.4318C93.5257 37.6098 93.7851 37.8182 93.9707 38.0568C94.1601 38.2955 94.306 38.5057 94.4082 38.6875H94.5332V37.2727H96.198V46.1932C96.198 46.9432 96.0238 47.5587 95.6753 48.0398C95.3268 48.5208 94.8552 48.8769 94.2605 49.108C93.6696 49.339 93.0029 49.4545 92.2605 49.4545ZM92.2435 44.4602C92.7321 44.4602 93.145 44.3466 93.4821 44.1193C93.823 43.8883 94.0806 43.5587 94.2548 43.1307C94.4329 42.6989 94.5219 42.1818 94.5219 41.5795C94.5219 40.9924 94.4348 40.4754 94.2605 40.0284C94.0863 39.5814 93.8306 39.233 93.4935 38.983C93.1563 38.7292 92.7397 38.6023 92.2435 38.6023C91.7321 38.6023 91.306 38.7348 90.9651 39C90.6241 39.2614 90.3666 39.6174 90.1923 40.0682C90.0219 40.5189 89.9366 41.0227 89.9366 41.5795C89.9366 42.1515 90.0238 42.6534 90.198 43.0852C90.3723 43.517 90.6298 43.8542 90.9707 44.0966C91.3154 44.339 91.7397 44.4602 92.2435 44.4602ZM99.9753 40.8182V46H98.2764V34.3636H99.9526V38.6932H100.061C100.265 38.2235 100.578 37.8504 100.998 37.5739C101.418 37.2973 101.968 37.1591 102.646 37.1591C103.244 37.1591 103.767 37.2822 104.214 37.5284C104.665 37.7746 105.013 38.142 105.259 38.6307C105.509 39.1155 105.634 39.7216 105.634 40.4489V46H103.936V40.6534C103.936 40.0133 103.771 39.517 103.441 39.1648C103.112 38.8087 102.653 38.6307 102.066 38.6307C101.665 38.6307 101.305 38.7159 100.987 38.8864C100.672 39.0568 100.424 39.3068 100.242 39.6364C100.064 39.9621 99.9753 40.3561 99.9753 40.8182ZM111.872 46V34.3636H116.02C116.921 34.3636 117.67 34.5189 118.264 34.8295C118.863 35.1402 119.31 35.5701 119.605 36.1193C119.901 36.6648 120.048 37.2955 120.048 38.0114C120.048 38.7235 119.899 39.3504 119.599 39.892C119.304 40.4299 118.857 40.8485 118.259 41.1477C117.664 41.447 116.916 41.5966 116.014 41.5966H112.872V40.0852H115.855C116.423 40.0852 116.885 40.0038 117.241 39.8409C117.601 39.678 117.865 39.4413 118.031 39.1307C118.198 38.8201 118.281 38.447 118.281 38.0114C118.281 37.572 118.196 37.1913 118.026 36.8693C117.859 36.5473 117.596 36.3011 117.236 36.1307C116.88 35.9564 116.412 35.8693 115.832 35.8693H113.628V46H111.872ZM117.616 40.75L120.491 46H118.491L115.673 40.75H117.616ZM121.848 46V37.2727H123.547V46H121.848ZM122.706 35.9261C122.411 35.9261 122.157 35.8277 121.945 35.6307C121.737 35.4299 121.632 35.1913 121.632 34.9148C121.632 34.6345 121.737 34.3958 121.945 34.1989C122.157 33.9981 122.411 33.8977 122.706 33.8977C123.002 33.8977 123.254 33.9981 123.462 34.1989C123.674 34.3958 123.78 34.6345 123.78 34.9148C123.78 35.1913 123.674 35.4299 123.462 35.6307C123.254 35.8277 123.002 35.9261 122.706 35.9261ZM132.172 39.4034L130.633 39.6761C130.568 39.4792 130.466 39.2917 130.326 39.1136C130.189 38.9356 130.004 38.7898 129.769 38.6761C129.534 38.5625 129.241 38.5057 128.888 38.5057C128.407 38.5057 128.006 38.6136 127.684 38.8295C127.362 39.0417 127.201 39.3163 127.201 39.6534C127.201 39.9451 127.309 40.1799 127.525 40.358C127.741 40.536 128.089 40.6818 128.57 40.7955L129.957 41.1136C130.76 41.2992 131.358 41.5852 131.752 41.9716C132.146 42.358 132.343 42.8598 132.343 43.4773C132.343 44 132.191 44.4659 131.888 44.875C131.589 45.2803 131.171 45.5985 130.633 45.8295C130.099 46.0606 129.479 46.1761 128.775 46.1761C127.797 46.1761 127 45.9678 126.383 45.5511C125.765 45.1307 125.386 44.5341 125.246 43.7614L126.888 43.5114C126.991 43.9394 127.201 44.2633 127.519 44.483C127.837 44.6989 128.252 44.8068 128.763 44.8068C129.32 44.8068 129.765 44.6913 130.099 44.4602C130.432 44.2254 130.599 43.9394 130.599 43.6023C130.599 43.3295 130.496 43.1004 130.292 42.9148C130.091 42.7292 129.782 42.589 129.366 42.4943L127.888 42.1705C127.074 41.9848 126.472 41.6894 126.082 41.2841C125.695 40.8788 125.502 40.3655 125.502 39.7443C125.502 39.2292 125.646 38.7784 125.934 38.392C126.222 38.0057 126.619 37.7045 127.127 37.4886C127.635 37.2689 128.216 37.1591 128.871 37.1591C129.814 37.1591 130.557 37.3636 131.099 37.7727C131.64 38.178 131.998 38.7216 132.172 39.4034ZM135.573 43.0398L135.562 40.9659H135.857L139.335 37.2727H141.369L137.403 41.4773H137.136L135.573 43.0398ZM134.011 46V34.3636H135.71V46H134.011ZM139.522 46L136.397 41.8523L137.568 40.6648L141.607 46H139.522Z" fill="black"/>
<defs>
<clipPath id="clip0_3703_203">
<rect width="40" height="40" fill="white" transform="matrix(-1 0 0 1 56 12)"/>
</clipPath>
</defs>
</svg>
