<svg width="161" height="64" viewBox="0 0 161 64" fill="none" xmlns="http://www.w3.org/2000/svg">
<rect x="0.75" y="0.75" width="159.5" height="62.5" rx="7.25" stroke="#CCCCCC" stroke-width="1.5"/>
<g clip-path="url(#clip0_3703_211)">
<path d="M30.25 15.34C32.115 14.7825 34.0525 14.4975 36 14.5C47.035 14.49 55.99 23.43 56 34.465C56 36.4125 55.72 38.35 55.16 40.215C54.845 41.275 53.87 42 52.765 42H45.13C45.2925 40.515 45.4575 38.8075 45.62 37H50.7875C50.93 36.175 51 35.3375 51 34.5C51 26.215 44.285 19.5 36 19.5C27.715 19.5 21 26.215 21 34.5C21 35.3375 21.07 36.175 21.2125 37H29.98C28.7875 39.275 27.8725 41.1475 27.625 41.96C27.62 41.9725 27.62 41.985 27.6175 42H19.235C18.13 42 17.155 41.275 16.84 40.215C13.675 29.6425 19.6775 18.505 30.25 15.34Z" fill="#D72626"/>
<path d="M31.2154 43.0473C31.8379 40.9923 39.4854 27.4748 40.3554 25.9398C40.6404 25.4348 41.2304 25.1923 41.8054 25.3598C42.3654 25.5298 42.7304 26.0648 42.6904 26.6473C42.5604 28.4073 41.4079 43.8948 40.7854 45.9498C40.1304 48.1048 38.1429 49.4973 35.9979 49.4973C35.5179 49.4973 35.0304 49.4273 34.5479 49.2823C31.9104 48.4823 30.4179 45.6873 31.2154 43.0473Z" fill="#D72626"/>
</g>
<path d="M72.7422 26V18.7246H75.2812C75.8542 18.7246 76.3245 18.8223 76.6924 19.0176C77.0635 19.2096 77.3402 19.4766 77.5225 19.8184C77.7048 20.1602 77.7959 20.5508 77.7959 20.9902C77.7959 21.4297 77.7048 21.8171 77.5225 22.1523C77.3434 22.4876 77.0667 22.7497 76.6924 22.9385C76.3213 23.124 75.8509 23.2168 75.2812 23.2168H73.3281V22.3184H75.2227C75.5938 22.3184 75.8916 22.2663 76.1162 22.1621C76.3441 22.0547 76.5101 21.9017 76.6143 21.7031C76.7184 21.5046 76.7705 21.2669 76.7705 20.9902C76.7705 20.7135 76.7168 20.4727 76.6094 20.2676C76.5052 20.0625 76.3392 19.9046 76.1113 19.7939C75.8867 19.68 75.5889 19.623 75.2178 19.623H73.7725V26H72.7422ZM76.8926 26L75.1396 22.7236H76.2871L78.0791 26H76.8926ZM80.8566 18.7246V26H79.8215V18.7246H80.8566ZM85.5873 26.1172C85.0307 26.1172 84.5489 26.0244 84.142 25.8389C83.7351 25.6533 83.4193 25.388 83.1947 25.043C82.9701 24.6979 82.8513 24.2894 82.8383 23.8174H83.8783C83.8913 24.1169 83.9695 24.3708 84.1127 24.5791C84.2592 24.7842 84.4594 24.9404 84.7133 25.0479C84.9672 25.1553 85.2585 25.209 85.5873 25.209C85.9161 25.209 86.2042 25.1602 86.4516 25.0625C86.7022 24.9616 86.8975 24.8216 87.0375 24.6426C87.1807 24.4603 87.2523 24.2471 87.2523 24.0029C87.2523 23.7979 87.1986 23.6253 87.0912 23.4854C86.9838 23.3421 86.8259 23.2217 86.6176 23.124C86.4092 23.0231 86.1521 22.9352 85.8461 22.8604L85.016 22.6504C84.3487 22.4811 83.8474 22.2419 83.5121 21.9326C83.1768 21.6201 83.0092 21.2132 83.0092 20.7119C83.0092 20.2887 83.1182 19.9209 83.3363 19.6084C83.5544 19.2959 83.8555 19.0534 84.2396 18.8809C84.627 18.7051 85.0714 18.6172 85.5727 18.6172C86.074 18.6172 86.5134 18.7067 86.891 18.8857C87.2686 19.0648 87.5648 19.3154 87.7797 19.6377C87.9945 19.96 88.1085 20.3359 88.1215 20.7656H87.1205C87.088 20.375 86.9301 20.0706 86.6469 19.8525C86.3637 19.6344 85.9975 19.5254 85.5482 19.5254C85.2488 19.5254 84.9851 19.5742 84.7572 19.6719C84.5294 19.7663 84.352 19.8997 84.225 20.0723C84.098 20.2415 84.0346 20.4368 84.0346 20.6582C84.0346 20.8112 84.0671 20.9463 84.1322 21.0635C84.2006 21.1774 84.2966 21.2783 84.4203 21.3662C84.544 21.4541 84.6905 21.5306 84.8598 21.5957C85.029 21.6576 85.2146 21.7145 85.4164 21.7666L86.1732 21.9619C86.4727 22.0335 86.7494 22.1247 87.0033 22.2354C87.2572 22.346 87.4786 22.4811 87.6674 22.6406C87.8594 22.8001 88.0092 22.9906 88.1166 23.2119C88.224 23.4333 88.2777 23.6888 88.2777 23.9785C88.2777 24.3984 88.1687 24.7695 87.9506 25.0918C87.7357 25.4141 87.4265 25.6663 87.0229 25.8486C86.6225 26.0277 86.1439 26.1172 85.5873 26.1172ZM90.2594 26V18.7246H91.2945V22.2451H91.3775L94.4977 18.7246H95.8062L92.8375 22.001L95.816 26H94.5758L92.1734 22.709L91.2945 23.7148V26H90.2594ZM100.863 18.7246H102.162L104.481 24.4961H104.53L106.84 18.7246H108.163V26H107.152V20.502H107.113L104.896 25.9902H104.091L101.884 20.4971H101.845V26H100.863V18.7246ZM110.638 26V18.7246H115.154V19.623H111.673V21.8887H114.901V22.7725H111.673V25.1016H115.194V26H110.638ZM116.926 19.6279V18.7246H122.507V19.6279H120.237V26H119.206V19.6279H116.926ZM124.425 26V18.7246H128.942V19.623H125.461V21.8887H128.688V22.7725H125.461V25.1016H128.981V26H124.425ZM131.085 26V18.7246H133.624C134.197 18.7246 134.667 18.8223 135.035 19.0176C135.406 19.2096 135.683 19.4766 135.865 19.8184C136.047 20.1602 136.138 20.5508 136.138 20.9902C136.138 21.4297 136.047 21.8171 135.865 22.1523C135.686 22.4876 135.409 22.7497 135.035 22.9385C134.664 23.124 134.193 23.2168 133.624 23.2168H131.671V22.3184H133.565C133.936 22.3184 134.234 22.2663 134.459 22.1621C134.687 22.0547 134.853 21.9017 134.957 21.7031C135.061 21.5046 135.113 21.2669 135.113 20.9902C135.113 20.7135 135.059 20.4727 134.952 20.2676C134.848 20.0625 134.682 19.9046 134.454 19.7939C134.229 19.68 133.931 19.623 133.56 19.623H132.115V26H131.085ZM135.235 26L133.482 22.7236H134.63L136.422 26H135.235Z" fill="#666666"/>
<path d="M74.2955 34.3636L77.5341 43.8409H77.6648L80.9034 34.3636H82.8011L78.6136 46H76.5852L72.3977 34.3636H74.2955ZM87.0315 46.1761C86.1717 46.1761 85.4312 45.9924 84.8099 45.625C84.1925 45.2538 83.7152 44.733 83.3781 44.0625C83.0448 43.3883 82.8781 42.5985 82.8781 41.6932C82.8781 40.7992 83.0448 40.0114 83.3781 39.3295C83.7152 38.6477 84.1849 38.1155 84.7872 37.733C85.3933 37.3504 86.1016 37.1591 86.9122 37.1591C87.4046 37.1591 87.8819 37.2405 88.344 37.4034C88.8062 37.5663 89.2209 37.822 89.5884 38.1705C89.9558 38.5189 90.2455 38.9716 90.4577 39.5284C90.6698 40.0814 90.7759 40.7538 90.7759 41.5455V42.1477H83.8384V40.875H89.1111C89.1111 40.428 89.0202 40.0322 88.8384 39.6875C88.6565 39.339 88.4009 39.0644 88.0713 38.8636C87.7455 38.6629 87.363 38.5625 86.9236 38.5625C86.4463 38.5625 86.0296 38.6799 85.6736 38.9148C85.3213 39.1458 85.0486 39.4489 84.8554 39.8239C84.666 40.1951 84.5713 40.5985 84.5713 41.0341V42.0284C84.5713 42.6117 84.6736 43.108 84.8781 43.517C85.0865 43.9261 85.3762 44.2386 85.7474 44.4545C86.1187 44.6667 86.5524 44.7727 87.0486 44.7727C87.3705 44.7727 87.6641 44.7273 87.9293 44.6364C88.1944 44.5417 88.4236 44.4015 88.6168 44.2159C88.8099 44.0303 88.9577 43.8011 89.0599 43.5284L90.6679 43.8182C90.5391 44.2917 90.308 44.7064 89.9747 45.0625C89.6452 45.4148 89.2304 45.6894 88.7304 45.8864C88.2342 46.0795 87.6679 46.1761 87.0315 46.1761ZM92.4608 46V37.2727H94.1028V38.6591H94.1938C94.3528 38.1894 94.6331 37.8201 95.0347 37.5511C95.44 37.2784 95.8983 37.142 96.4097 37.142C96.5157 37.142 96.6407 37.1458 96.7847 37.1534C96.9324 37.161 97.0479 37.1705 97.1313 37.1818V38.8068C97.0631 38.7879 96.9419 38.767 96.7676 38.7443C96.5934 38.7178 96.4191 38.7045 96.2449 38.7045C95.8434 38.7045 95.4854 38.7898 95.171 38.9602C94.8604 39.1269 94.6142 39.3598 94.4324 39.6591C94.2506 39.9545 94.1597 40.2917 94.1597 40.6705V46H92.4608ZM99.7409 49.2727C99.4871 49.2727 99.2561 49.2519 99.0477 49.2102C98.8394 49.1723 98.6841 49.1307 98.5818 49.0852L98.9909 47.6932C99.3015 47.7765 99.578 47.8125 99.8205 47.8011C100.063 47.7898 100.277 47.6989 100.462 47.5284C100.652 47.358 100.819 47.0795 100.962 46.6932L101.173 46.1136L97.9795 37.2727H99.7977L102.008 44.0455H102.099L104.309 37.2727H106.133L102.536 47.1648C102.37 47.6193 102.158 48.0038 101.9 48.3182C101.642 48.6364 101.336 48.875 100.98 49.0341C100.623 49.1932 100.211 49.2727 99.7409 49.2727ZM111.7 46V34.3636H113.456V39.4205H119.257V34.3636H121.018V46H119.257V40.9261H113.456V46H111.7ZM123.239 46V37.2727H124.938V46H123.239ZM124.097 35.9261C123.801 35.9261 123.548 35.8277 123.336 35.6307C123.127 35.4299 123.023 35.1913 123.023 34.9148C123.023 34.6345 123.127 34.3958 123.336 34.1989C123.548 33.9981 123.801 33.8977 124.097 33.8977C124.392 33.8977 124.644 33.9981 124.853 34.1989C125.065 34.3958 125.171 34.6345 125.171 34.9148C125.171 35.1913 125.065 35.4299 124.853 35.6307C124.644 35.8277 124.392 35.9261 124.097 35.9261ZM130.682 49.4545C129.989 49.4545 129.393 49.3636 128.893 49.1818C128.396 49 127.991 48.7595 127.677 48.4602C127.362 48.161 127.127 47.8333 126.972 47.4773L128.432 46.875C128.535 47.0417 128.671 47.2178 128.841 47.4034C129.016 47.5928 129.251 47.7538 129.546 47.8864C129.845 48.0189 130.23 48.0852 130.699 48.0852C131.343 48.0852 131.876 47.928 132.296 47.6136C132.716 47.303 132.927 46.8068 132.927 46.125V44.4091H132.819C132.716 44.5947 132.569 44.8011 132.376 45.0284C132.186 45.2557 131.925 45.4527 131.591 45.6193C131.258 45.786 130.824 45.8693 130.29 45.8693C129.601 45.8693 128.98 45.7083 128.427 45.3864C127.877 45.0606 127.442 44.5814 127.12 43.9489C126.802 43.3125 126.643 42.5303 126.643 41.6023C126.643 40.6742 126.8 39.8788 127.114 39.2159C127.432 38.553 127.868 38.0455 128.421 37.6932C128.974 37.3371 129.601 37.1591 130.302 37.1591C130.843 37.1591 131.281 37.25 131.614 37.4318C131.948 37.6098 132.207 37.8182 132.393 38.0568C132.582 38.2955 132.728 38.5057 132.83 38.6875H132.955V37.2727H134.62V46.1932C134.62 46.9432 134.446 47.5587 134.097 48.0398C133.749 48.5208 133.277 48.8769 132.682 49.108C132.091 49.339 131.425 49.4545 130.682 49.4545ZM130.665 44.4602C131.154 44.4602 131.567 44.3466 131.904 44.1193C132.245 43.8883 132.502 43.5587 132.677 43.1307C132.855 42.6989 132.944 42.1818 132.944 41.5795C132.944 40.9924 132.857 40.4754 132.682 40.0284C132.508 39.5814 132.252 39.233 131.915 38.983C131.578 38.7292 131.162 38.6023 130.665 38.6023C130.154 38.6023 129.728 38.7348 129.387 39C129.046 39.2614 128.788 39.6174 128.614 40.0682C128.444 40.5189 128.359 41.0227 128.359 41.5795C128.359 42.1515 128.446 42.6534 128.62 43.0852C128.794 43.517 129.052 43.8542 129.393 44.0966C129.737 44.339 130.162 44.4602 130.665 44.4602ZM138.397 40.8182V46H136.698V34.3636H138.374V38.6932H138.482C138.687 38.2235 138.999 37.8504 139.42 37.5739C139.84 37.2973 140.39 37.1591 141.068 37.1591C141.666 37.1591 142.189 37.2822 142.636 37.5284C143.087 37.7746 143.435 38.142 143.681 38.6307C143.931 39.1155 144.056 39.7216 144.056 40.4489V46H142.357V40.6534C142.357 40.0133 142.193 39.517 141.863 39.1648C141.534 38.8087 141.075 38.6307 140.488 38.6307C140.087 38.6307 139.727 38.7159 139.409 38.8864C139.094 39.0568 138.846 39.3068 138.664 39.6364C138.486 39.9621 138.397 40.3561 138.397 40.8182Z" fill="black"/>
<defs>
<clipPath id="clip0_3703_211">
<rect width="40" height="40" fill="white" transform="matrix(-1 0 0 1 56 12)"/>
</clipPath>
</defs>
</svg>
