<svg width="48" height="47" viewBox="0 0 48 47" fill="none" xmlns="http://www.w3.org/2000/svg">
<rect x="18" width="24.75" height="33" rx="4" fill="#555555"/>
<path d="M47.6889 40.4387C47.4539 40.1771 47.1311 40.0329 46.7799 40.0329H40.4716V6.57579C40.4716 3.82057 38.2314 1.5791 35.4776 1.5791H5.61292C2.72561 1.5791 0.315486 3.74529 0.00583003 6.62632C-0.0273575 6.97216 0.0819551 7.30479 0.313049 7.56223C0.546205 7.82285 0.86833 7.96629 1.22017 7.96629H9.75002V40.7828C9.75002 43.8912 12.2789 46.42 15.3872 46.42H42.3872C43.7835 46.42 45.1255 45.9014 46.1659 44.9598C47.1983 44.0253 47.8473 42.755 47.9928 41.3897C48.0331 41.0404 47.9253 40.7029 47.6889 40.4387ZM1.54342 6.46629C1.90221 4.51441 3.59946 3.0791 5.61283 3.0791C7.63802 3.0791 9.32796 4.54188 9.68177 6.46629H1.54342ZM15.3871 44.92C13.1059 44.92 11.2499 43.064 11.2499 40.7828V7.21638C11.2499 5.58307 10.5515 4.1097 9.43802 3.0792H35.4776C37.4042 3.0792 38.9717 4.64782 38.9717 6.57588V40.033H20.7233C20.0864 40.033 19.5641 40.5111 19.5086 41.1446C19.321 43.2617 17.5106 44.92 15.3871 44.92ZM42.3871 44.92H19.1949C20.139 44.0508 20.7932 42.8658 20.974 41.5328H46.4574C46.1017 43.4844 44.4036 44.92 42.3871 44.92ZM22.7371 10.6444C22.7371 10.4454 22.8161 10.2547 22.9568 10.114C23.0974 9.97337 23.2882 9.89435 23.4871 9.89435H34.4544C34.6533 9.89435 34.844 9.97337 34.9847 10.114C35.1253 10.2547 35.2044 10.4454 35.2044 10.6444C35.2044 10.8433 35.1253 11.034 34.9847 11.1747C34.844 11.3153 34.6533 11.3944 34.4544 11.3944H23.487C23.2881 11.3944 23.0973 11.3153 22.9567 11.1747C22.816 11.034 22.7371 10.8433 22.7371 10.6444ZM22.7371 16.5254C22.7371 16.3265 22.8161 16.1357 22.9568 15.9951C23.0974 15.8544 23.2882 15.7754 23.4871 15.7754H34.4544C34.6533 15.7754 34.844 15.8544 34.9847 15.9951C35.1253 16.1357 35.2044 16.3265 35.2044 16.5254C35.2044 16.7243 35.1253 16.9151 34.9847 17.0557C34.844 17.1964 34.6533 17.2754 34.4544 17.2754H23.487C23.2881 17.2754 23.0973 17.1964 22.9567 17.0557C22.816 16.9151 22.7371 16.7243 22.7371 16.5254ZM22.7371 22.4063C22.7371 22.2074 22.8161 22.0166 22.9568 21.876C23.0974 21.7353 23.2882 21.6563 23.4871 21.6563H34.4544C34.6533 21.6563 34.844 21.7353 34.9847 21.876C35.1253 22.0166 35.2044 22.2074 35.2044 22.4063C35.2044 22.6052 35.1253 22.796 34.9847 22.9367C34.844 23.0773 34.6533 23.1563 34.4544 23.1563H23.487C23.2881 23.1563 23.0973 23.0773 22.9567 22.9367C22.816 22.796 22.7371 22.6052 22.7371 22.4063ZM22.7371 28.2874C22.7371 28.0884 22.8161 27.8977 22.9568 27.757C23.0974 27.6164 23.2882 27.5374 23.4871 27.5374H34.4544C34.6533 27.5374 34.844 27.6164 34.9847 27.757C35.1253 27.8977 35.2044 28.0884 35.2044 28.2874C35.2044 28.4863 35.1253 28.677 34.9847 28.8177C34.844 28.9583 34.6533 29.0374 34.4544 29.0374H23.487C23.2881 29.0374 23.0973 28.9583 22.9567 28.8177C22.816 28.677 22.7371 28.4863 22.7371 28.2874ZM22.7371 34.1684C22.7371 33.9695 22.8161 33.7787 22.9568 33.6381C23.0974 33.4974 23.2882 33.4184 23.4871 33.4184H34.4544C34.6533 33.4184 34.844 33.4974 34.9847 33.6381C35.1253 33.7787 35.2044 33.9695 35.2044 34.1684C35.2044 34.3673 35.1253 34.5581 34.9847 34.6987C34.844 34.8394 34.6533 34.9184 34.4544 34.9184H23.487C23.2881 34.9184 23.0973 34.8394 22.9567 34.6987C22.816 34.5581 22.7371 34.3673 22.7371 34.1684ZM15.1961 10.681C15.0699 10.5286 15.009 10.3326 15.0267 10.1355C15.0444 9.9385 15.1393 9.75644 15.2906 9.62901C15.4419 9.50158 15.6375 9.43909 15.8347 9.45517C16.0318 9.47124 16.2147 9.56456 16.3434 9.71482L17.2711 10.8167L18.9483 8.82466C19.0117 8.74931 19.0894 8.68718 19.1768 8.64184C19.2643 8.59649 19.3598 8.56882 19.4579 8.56039C19.5561 8.55196 19.6549 8.56295 19.7488 8.59272C19.8427 8.6225 19.9298 8.67047 20.0051 8.73391C20.1573 8.86203 20.2523 9.04534 20.2693 9.24351C20.2863 9.44169 20.2239 9.63851 20.0958 9.79066L17.8451 12.4641C17.7747 12.5478 17.6868 12.615 17.5877 12.6611C17.4886 12.7072 17.3806 12.7311 17.2713 12.7311C17.162 12.7311 17.054 12.7072 16.9549 12.6611C16.8558 12.615 16.768 12.5478 16.6976 12.4641L15.1961 10.681ZM15.1961 16.5619C15.0699 16.4096 15.009 16.2135 15.0267 16.0165C15.0444 15.8194 15.1393 15.6374 15.2906 15.5099C15.4419 15.3825 15.6375 15.32 15.8347 15.3361C16.0318 15.3522 16.2147 15.4455 16.3434 15.5958L17.2713 16.6977L18.9483 14.7057C19.0117 14.6303 19.0894 14.5682 19.1768 14.5229C19.2643 14.4775 19.3598 14.4498 19.4579 14.4414C19.5561 14.433 19.6549 14.444 19.7488 14.4738C19.8427 14.5035 19.9298 14.5515 20.0051 14.6149C20.1573 14.743 20.2524 14.9263 20.2694 15.1245C20.2864 15.3227 20.224 15.5195 20.0959 15.6717L17.845 18.3452C17.7746 18.4288 17.6867 18.496 17.5876 18.542C17.4886 18.5881 17.3806 18.612 17.2713 18.612C17.162 18.612 17.054 18.5881 16.955 18.542C16.8559 18.496 16.768 18.4288 16.6976 18.3452L15.1961 16.5619ZM15.1961 22.4431C15.0699 22.2907 15.009 22.0946 15.0267 21.8976C15.0444 21.7006 15.1393 21.5185 15.2906 21.3911C15.4419 21.2636 15.6375 21.2012 15.8347 21.2172C16.0318 21.2333 16.2147 21.3266 16.3434 21.4769L17.2711 22.5786L18.9483 20.5866C19.0117 20.5113 19.0894 20.4492 19.1768 20.4038C19.2643 20.3585 19.3598 20.3308 19.4579 20.3224C19.5561 20.314 19.6549 20.325 19.7488 20.3548C19.8427 20.3845 19.9298 20.4325 20.0051 20.496C20.1573 20.6241 20.2523 20.8074 20.2693 21.0056C20.2863 21.2038 20.2239 21.4006 20.0958 21.5527L17.8451 24.2262C17.7747 24.3098 17.6868 24.377 17.5877 24.4232C17.4886 24.4693 17.3806 24.4932 17.2713 24.4932C17.162 24.4932 17.054 24.4693 16.9549 24.4232C16.8558 24.377 16.768 24.3098 16.6976 24.2262L15.1961 22.4431ZM15.1961 28.3267C15.0699 28.1744 15.009 27.9783 15.0267 27.7813C15.0444 27.5842 15.1393 27.4022 15.2906 27.2747C15.4419 27.1473 15.6375 27.0848 15.8347 27.1009C16.0318 27.117 16.2147 27.2103 16.3434 27.3605L17.2709 28.462L18.9481 26.4679C19.0767 26.3175 19.2595 26.2239 19.4567 26.2076C19.654 26.1914 19.8497 26.2538 20.0011 26.3812C20.1526 26.5086 20.2476 26.6907 20.2653 26.8878C20.2831 27.0849 20.2222 27.281 20.096 27.4335L17.8452 30.1095C17.7749 30.1931 17.687 30.2604 17.5879 30.3066C17.4888 30.3527 17.3808 30.3766 17.2715 30.3767C17.1622 30.3767 17.054 30.3528 16.9549 30.3067C16.8558 30.2606 16.768 30.1934 16.6976 30.1099L15.1961 28.3267ZM20.096 33.3144L17.8451 35.9905C17.7748 36.0742 17.687 36.1415 17.5879 36.1876C17.4887 36.2338 17.3807 36.2578 17.2714 36.2578C17.0501 36.2578 16.84 36.1601 16.6976 35.9909L15.1961 34.2078C15.1316 34.1326 15.0828 34.0453 15.0522 33.9511C15.0217 33.857 15.0101 33.7576 15.0182 33.659C15.0262 33.5603 15.0537 33.4642 15.0991 33.3761C15.1445 33.2881 15.2068 33.21 15.2826 33.1462C15.3583 33.0824 15.4459 33.0343 15.5404 33.0045C15.6348 32.9748 15.7342 32.964 15.8328 32.9729C15.9315 32.9818 16.0273 33.0101 16.115 33.0562C16.2026 33.1023 16.2802 33.1653 16.3434 33.2416L17.2709 34.343L18.9481 32.349C19.0111 32.2723 19.0887 32.2088 19.1763 32.1623C19.264 32.1159 19.36 32.0872 19.4588 32.0781C19.5577 32.069 19.6573 32.0796 19.752 32.1092C19.8467 32.1389 19.9346 32.1871 20.0105 32.2509C20.0864 32.3148 20.149 32.3931 20.1944 32.4813C20.2399 32.5696 20.2674 32.6659 20.2753 32.7648C20.2833 32.8637 20.2715 32.9633 20.2407 33.0576C20.21 33.1519 20.1608 33.2392 20.096 33.3144Z" fill="white"/>
</svg>
