<svg width="58" height="58" viewBox="0 0 58 58" fill="none" xmlns="http://www.w3.org/2000/svg">
<path d="M25.25 47.75C37.6764 47.75 47.75 37.6764 47.75 25.25C47.75 12.8236 37.6764 2.75 25.25 2.75C12.8236 2.75 2.75 12.8236 2.75 25.25C2.75 37.6764 12.8236 47.75 25.25 47.75Z" fill="white"/>
<path d="M25.25 50.25C11.4652 50.25 0.25 39.0348 0.25 25.25C0.25 11.4652 11.4652 0.25 25.25 0.25C39.0348 0.25 50.25 11.4652 50.25 25.25C50.25 39.0348 39.0348 50.25 25.25 50.25ZM25.25 5.25C14.2222 5.25 5.25 14.2222 5.25 25.25C5.25 36.2778 14.2222 45.25 25.25 45.25C36.2778 45.25 45.25 36.2778 45.25 25.25C45.25 14.2222 36.2778 5.25 25.25 5.25Z" fill="#43A6DD"/>
<path d="M16.5 35.25C16.1802 35.25 15.8603 35.1279 15.6162 34.8838C15.1279 34.3955 15.1279 33.6045 15.6162 33.1162L24.3662 24.3662C24.8545 23.8779 25.6455 23.8779 26.1338 24.3662C26.6221 24.8545 26.6221 25.6455 26.1338 26.1338L17.3838 34.8838C17.1396 35.1279 16.8198 35.25 16.5 35.25Z" fill="#E86C60"/>
<path d="M25.25 26.5C24.5591 26.5 24 25.9403 24 25.25V12.75C24 12.0597 24.5591 11.5 25.25 11.5C25.9409 11.5 26.5 12.0597 26.5 12.75V25.25C26.5 25.9403 25.9409 26.5 25.25 26.5Z" fill="#223E49"/>
<path d="M37.75 26.5H25.25C24.5591 26.5 24 25.9403 24 25.25C24 24.5597 24.5591 24 25.25 24H37.75C38.4409 24 39 24.5597 39 25.25C39 25.9403 38.4409 26.5 37.75 26.5Z" fill="#223E49"/>
<path d="M25.25 29C27.3211 29 29 27.3211 29 25.25C29 23.1789 27.3211 21.5 25.25 21.5C23.1789 21.5 21.5 23.1789 21.5 25.25C21.5 27.3211 23.1789 29 25.25 29Z" fill="#223E49"/>
<path opacity="0.1" d="M50.25 25.25C50.25 22.3359 49.7229 19.5489 48.8022 16.9461C47.2915 16.6527 45.6447 16.5 44 16.5C38.4092 16.5 32.75 18.2175 32.75 21.5V25.25C32.75 25.6967 32.863 26.1117 33.0581 26.5C32.863 26.8883 32.75 27.3033 32.75 27.75V31.5C32.75 31.9467 32.863 32.3617 33.0581 32.75C32.863 33.1383 32.75 33.5533 32.75 34V37.75C32.75 38.1967 32.863 38.6117 33.0581 39C32.863 39.3883 32.75 39.8033 32.75 40.25V44C32.75 44.4467 32.863 44.8617 33.0581 45.25C32.863 45.6383 32.75 46.0533 32.75 46.5V49H33.0144C43.0068 45.7243 50.25 36.3231 50.25 25.25Z" fill="black"/>
<path d="M56.5 47.75H36.5C35.8097 47.75 35.25 48.3097 35.25 49V52.75C35.25 56.0325 40.9092 57.75 46.5 57.75C52.0908 57.75 57.75 56.0325 57.75 52.75V49C57.75 48.3097 57.1903 47.75 56.5 47.75Z" fill="#D8BC48"/>
<path d="M46.5 44C40.9092 44 35.25 45.7175 35.25 49C35.25 52.2825 40.9092 54 46.5 54C52.0908 54 57.75 52.2825 57.75 49C57.75 45.7175 52.0908 44 46.5 44Z" fill="#EFD358"/>
<path d="M56.5 41.5H36.5C35.8097 41.5 35.25 42.0597 35.25 42.75V46.5C35.25 49.7825 40.9092 51.5 46.5 51.5C52.0908 51.5 57.75 49.7825 57.75 46.5V42.75C57.75 42.0597 57.1903 41.5 56.5 41.5Z" fill="#D8BC48"/>
<path d="M46.5 37.75C40.9092 37.75 35.25 39.4675 35.25 42.75C35.25 46.0325 40.9092 47.75 46.5 47.75C52.0908 47.75 57.75 46.0325 57.75 42.75C57.75 39.4675 52.0908 37.75 46.5 37.75Z" fill="#EFD358"/>
<path d="M56.5 35.25H36.5C35.8097 35.25 35.25 35.8097 35.25 36.5V40.25C35.25 43.5325 40.9092 45.25 46.5 45.25C52.0908 45.25 57.75 43.5325 57.75 40.25V36.5C57.75 35.8097 57.1903 35.25 56.5 35.25Z" fill="#D8BC48"/>
<path d="M46.5 31.5C40.9092 31.5 35.25 33.2175 35.25 36.5C35.25 39.7825 40.9092 41.5 46.5 41.5C52.0908 41.5 57.75 39.7825 57.75 36.5C57.75 33.2175 52.0908 31.5 46.5 31.5Z" fill="#EFD358"/>
<path d="M56.5 29H36.5C35.8097 29 35.25 29.5597 35.25 30.25V34C35.25 37.2825 40.9092 39 46.5 39C52.0908 39 57.75 37.2825 57.75 34V30.25C57.75 29.5597 57.1903 29 56.5 29Z" fill="#D8BC48"/>
<path d="M46.5 25.25C40.9092 25.25 35.25 26.9675 35.25 30.25C35.25 33.5325 40.9092 35.25 46.5 35.25C52.0908 35.25 57.75 33.5325 57.75 30.25C57.75 26.9675 52.0908 25.25 46.5 25.25Z" fill="#EFD358"/>
<path d="M56.5 22.75H36.5C35.8097 22.75 35.25 23.3097 35.25 24V27.75C35.25 31.0325 40.9092 32.75 46.5 32.75C52.0908 32.75 57.75 31.0325 57.75 27.75V24C57.75 23.3097 57.1903 22.75 56.5 22.75Z" fill="#D8BC48"/>
<path d="M46.5 19C40.9092 19 35.25 20.7175 35.25 24C35.25 27.2825 40.9092 29 46.5 29C52.0908 29 57.75 27.2825 57.75 24C57.75 20.7175 52.0908 19 46.5 19Z" fill="#EFD358"/>
</svg>
