<svg width="60" height="60" viewBox="0 0 60 60" fill="none" xmlns="http://www.w3.org/2000/svg">
<path d="M30 30C37.2487 30 43.125 24.1237 43.125 16.875C43.125 9.62626 37.2487 3.75 30 3.75C22.7513 3.75 16.875 9.62626 16.875 16.875C16.875 24.1237 22.7513 30 30 30Z" fill="#EFD358"/>
<path d="M34.7344 14.1104L34.29 15.6465H26L26.438 14.1104H34.7344ZM30.7417 24L26.165 18.4331L26.146 17.2461H28.4185C28.994 17.2461 29.4806 17.1593 29.8784 16.9858C30.2804 16.8123 30.5851 16.5584 30.7925 16.2241C31.0041 15.8898 31.1099 15.4751 31.1099 14.98C31.1099 14.2479 30.8919 13.6702 30.4561 13.2471C30.0202 12.8197 29.341 12.606 28.4185 12.606H26L26.4507 11H28.4185C29.4637 11 30.3228 11.1693 30.9956 11.5078C31.6727 11.8421 32.1763 12.3055 32.5063 12.8979C32.8364 13.4904 33.0015 14.1675 33.0015 14.9292C33.0015 15.6147 32.8597 16.2389 32.5762 16.8018C32.2969 17.3604 31.8504 17.8153 31.2368 18.1665C30.6232 18.5135 29.8149 18.7061 28.812 18.7441L28.7549 18.7568L32.957 23.8921V24H30.7417ZM34.7344 11L34.29 12.5488L27.6948 12.5044L28.1392 11H34.7344Z" fill="#B2500D"/>
<path d="M15 34.6875H11.25V30H9.375V34.6875H5.625C5.37636 34.6875 5.1379 34.7863 4.96209 34.9621C4.78627 35.1379 4.6875 35.3764 4.6875 35.625V45C4.6875 45.2486 4.78627 45.4871 4.96209 45.6629C5.1379 45.8387 5.37636 45.9375 5.625 45.9375H9.375V50.625H11.25V45.9375H15C15.2486 45.9375 15.4871 45.8387 15.6629 45.6629C15.8387 45.4871 15.9375 45.2486 15.9375 45V35.625C15.9375 35.3764 15.8387 35.1379 15.6629 34.9621C15.4871 34.7863 15.2486 34.6875 15 34.6875Z" fill="#009E77"/>
<path d="M41.25 35.625H37.5V30.9375H35.625V35.625H31.875C31.6264 35.625 31.3879 35.7238 31.2121 35.8996C31.0363 36.0754 30.9375 36.3139 30.9375 36.5625V45.9375C30.9375 46.1861 31.0363 46.4246 31.2121 46.6004C31.3879 46.7762 31.6264 46.875 31.875 46.875H35.625V51.5625H37.5V46.875H41.25C41.4986 46.875 41.7371 46.7762 41.9129 46.6004C42.0887 46.4246 42.1875 46.1861 42.1875 45.9375V36.5625C42.1875 36.3139 42.0887 36.0754 41.9129 35.8996C41.7371 35.7238 41.4986 35.625 41.25 35.625Z" fill="#009E77"/>
<path d="M28.125 41.25H24.375V36.5625H22.5V41.25H18.75C18.5014 41.25 18.2629 41.3488 18.0871 41.5246C17.9113 41.7004 17.8125 41.9389 17.8125 42.1875V51.5625C17.8125 51.8111 17.9113 52.0496 18.0871 52.2254C18.2629 52.4012 18.5014 52.5 18.75 52.5H22.5V57.1875H24.375V52.5H28.125C28.3736 52.5 28.6121 52.4012 28.7879 52.2254C28.9637 52.0496 29.0625 51.8111 29.0625 51.5625V42.1875C29.0625 41.9389 28.9637 41.7004 28.7879 41.5246C28.6121 41.3488 28.3736 41.25 28.125 41.25Z" fill="#FF4D6C"/>
<path d="M54.375 41.25H50.625V36.5625H48.75V41.25H45C44.7514 41.25 44.5129 41.3488 44.3371 41.5246C44.1613 41.7004 44.0625 41.9389 44.0625 42.1875V51.5625C44.0625 51.8111 44.1613 52.0496 44.3371 52.2254C44.5129 52.4012 44.7514 52.5 45 52.5H48.75V57.1875H50.625V52.5H54.375C54.6236 52.5 54.8621 52.4012 55.0379 52.2254C55.2137 52.0496 55.3125 51.8111 55.3125 51.5625V42.1875C55.3125 41.9389 55.2137 41.7004 55.0379 41.5246C54.8621 41.3488 54.6236 41.25 54.375 41.25Z" fill="#FF4D6C"/>
</svg>
