<svg width="60" height="60" viewBox="0 0 60 60" fill="none" xmlns="http://www.w3.org/2000/svg">
<path d="M57.5 41.25H2.5C1.80969 41.25 1.25 40.6903 1.25 40V5C1.25 4.30969 1.80969 3.75 2.5 3.75H57.5C58.1903 3.75 58.75 4.30969 58.75 5V40C58.75 40.6903 58.1903 41.25 57.5 41.25Z" fill="#4DA34D"/>
<path d="M47.5 7.5H12.5C12.5 11.6421 9.14215 15 5 15V30C9.14215 30 12.5 33.3578 12.5 37.5H47.5C47.5 33.3578 50.8578 30 55 30V15C50.8578 15 47.5 11.6421 47.5 7.5Z" fill="#9EDB9E"/>
<path d="M30 31.25C34.8325 31.25 38.75 27.3325 38.75 22.5C38.75 17.6675 34.8325 13.75 30 13.75C25.1675 13.75 21.25 17.6675 21.25 22.5C21.25 27.3325 25.1675 31.25 30 31.25Z" fill="#4DA34D"/>
<path opacity="0.1" d="M31.25 41.25H53.75V38.75C53.75 38.3033 53.637 37.8883 53.4418 37.5C53.637 37.1117 53.75 36.6967 53.75 36.25V32.5C53.75 32.0533 53.637 31.6383 53.4418 31.25C53.637 30.8617 53.75 30.4467 53.75 30V26.25C53.75 25.8033 53.637 25.3883 53.4418 25C53.637 24.6117 53.75 24.1967 53.75 23.75V20C53.75 19.5533 53.637 19.1383 53.4418 18.75C53.637 18.3617 53.75 17.9467 53.75 17.5V13.75C53.75 10.4675 48.0908 8.75 42.5 8.75C36.9092 8.75 31.25 10.4675 31.25 13.75V17.5C31.25 17.9467 31.363 18.3617 31.5581 18.75C31.363 19.1383 31.25 19.5533 31.25 20V23.75C31.25 24.1967 31.363 24.6117 31.5581 25C31.363 25.3883 31.25 25.8033 31.25 26.25V30C31.25 30.4467 31.363 30.8617 31.5581 31.25C31.363 31.6383 31.25 32.0533 31.25 32.5V36.25C31.25 36.6967 31.363 37.1117 31.5581 37.5C31.363 37.8883 31.25 38.3033 31.25 38.75V41.25Z" fill="black"/>
<path d="M55 46.25H35C34.3097 46.25 33.75 46.8097 33.75 47.5V51.25C33.75 54.5325 39.4092 56.25 45 56.25C50.5908 56.25 56.25 54.5325 56.25 51.25V47.5C56.25 46.8097 55.6903 46.25 55 46.25Z" fill="#D8BC48"/>
<path d="M45 42.5C39.4092 42.5 33.75 44.2175 33.75 47.5C33.75 50.7825 39.4092 52.5 45 52.5C50.5908 52.5 56.25 50.7825 56.25 47.5C56.25 44.2175 50.5908 42.5 45 42.5Z" fill="#EFD358"/>
<path d="M55 40H35C34.3097 40 33.75 40.5597 33.75 41.25V45C33.75 48.2825 39.4092 50 45 50C50.5908 50 56.25 48.2825 56.25 45V41.25C56.25 40.5597 55.6903 40 55 40Z" fill="#D8BC48"/>
<path d="M45 36.25C39.4092 36.25 33.75 37.9675 33.75 41.25C33.75 44.5325 39.4092 46.25 45 46.25C50.5908 46.25 56.25 44.5325 56.25 41.25C56.25 37.9675 50.5908 36.25 45 36.25Z" fill="#EFD358"/>
<path d="M55 33.75H35C34.3097 33.75 33.75 34.3097 33.75 35V38.75C33.75 42.0325 39.4092 43.75 45 43.75C50.5908 43.75 56.25 42.0325 56.25 38.75V35C56.25 34.3097 55.6903 33.75 55 33.75Z" fill="#D8BC48"/>
<path d="M45 30C39.4092 30 33.75 31.7175 33.75 35C33.75 38.2825 39.4092 40 45 40C50.5908 40 56.25 38.2825 56.25 35C56.25 31.7175 50.5908 30 45 30Z" fill="#EFD358"/>
<path d="M55 27.5H35C34.3097 27.5 33.75 28.0597 33.75 28.75V32.5C33.75 35.7825 39.4092 37.5 45 37.5C50.5908 37.5 56.25 35.7825 56.25 32.5V28.75C56.25 28.0597 55.6903 27.5 55 27.5Z" fill="#D8BC48"/>
<path d="M45 23.75C39.4092 23.75 33.75 25.4675 33.75 28.75C33.75 32.0325 39.4092 33.75 45 33.75C50.5908 33.75 56.25 32.0325 56.25 28.75C56.25 25.4675 50.5908 23.75 45 23.75Z" fill="#EFD358"/>
<path d="M55 21.25H35C34.3097 21.25 33.75 21.8097 33.75 22.5V26.25C33.75 29.5325 39.4092 31.25 45 31.25C50.5908 31.25 56.25 29.5325 56.25 26.25V22.5C56.25 21.8097 55.6903 21.25 55 21.25Z" fill="#D8BC48"/>
<path d="M45 17.5C39.4092 17.5 33.75 19.2175 33.75 22.5C33.75 25.7825 39.4092 27.5 45 27.5C50.5908 27.5 56.25 25.7825 56.25 22.5C56.25 19.2175 50.5908 17.5 45 17.5Z" fill="#EFD358"/>
<path d="M55 15H35C34.3097 15 33.75 15.5597 33.75 16.25V20C33.75 23.2825 39.4092 25 45 25C50.5908 25 56.25 23.2825 56.25 20V16.25C56.25 15.5597 55.6903 15 55 15Z" fill="#D8BC48"/>
<path d="M45 11.25C39.4092 11.25 33.75 12.9675 33.75 16.25C33.75 19.5325 39.4092 21.25 45 21.25C50.5908 21.25 56.25 19.5325 56.25 16.25C56.25 12.9675 50.5908 11.25 45 11.25Z" fill="#EFD358"/>
</svg>
