<svg width="48" height="48" viewBox="0 0 48 48" fill="none" xmlns="http://www.w3.org/2000/svg">
<rect x="1" y="1" width="46" height="46" rx="23" fill="#DC2626"/>
<g clip-path="url(#clip0_3197_128388)">
<path d="M19.2552 32.8094L15.1894 28.7436C15.0096 28.5638 14.7659 28.4629 14.5117 28.4629C14.2576 28.4629 14.0138 28.5638 13.8341 28.7436C13.6544 28.9233 13.5534 29.167 13.5534 29.4212C13.5534 29.6754 13.6544 29.9191 13.8341 30.0988L17.8999 34.1647C18.0797 34.3444 18.3234 34.4454 18.5776 34.4454C18.8317 34.4454 19.0755 34.3444 19.2552 34.1647C19.4349 33.985 19.5359 33.7412 19.5359 33.4871C19.5359 33.2329 19.4349 32.9891 19.2552 32.8094Z" fill="white"/>
<path d="M26.7101 26.7107L29.4207 29.4213C29.5482 29.549 29.7092 29.6381 29.8852 29.6783C30.0612 29.7185 30.2449 29.7082 30.4153 29.6486C30.5856 29.5889 30.7357 29.4824 30.8482 29.3413C30.9607 29.2001 31.031 29.0301 31.0511 28.8507L32.4064 16.6531C32.4166 16.5113 32.3962 16.3689 32.3466 16.2357C32.297 16.1025 32.2193 15.9815 32.1187 15.8809C32.0182 15.7804 31.8972 15.7027 31.7639 15.653C31.6307 15.6034 31.4883 15.583 31.3465 15.5933L19.1489 16.9486C18.9696 16.9687 18.7995 17.039 18.6584 17.1515C18.5172 17.264 18.4107 17.414 18.3511 17.5844C18.2915 17.7547 18.2812 17.9385 18.3214 18.1144C18.3616 18.2904 18.4507 18.4514 18.5784 18.579L21.2889 21.2896L16.5454 26.0331C16.3657 26.2128 16.2647 26.4565 16.2647 26.7107C16.2647 26.9649 16.3657 27.2086 16.5454 27.3883L20.6113 31.4542C20.791 31.6339 21.0348 31.7349 21.2889 31.7349C21.5431 31.7349 21.7869 31.6339 21.9666 31.4542L26.7101 26.7107Z" fill="white"/>
</g>
<defs>
<clipPath id="clip0_3197_128388">
<rect width="23" height="23" fill="white" transform="translate(24 7.73657) rotate(45)"/>
</clipPath>
</defs>
</svg>
