<svg width="48" height="48" viewBox="0 0 48 48" fill="none" xmlns="http://www.w3.org/2000/svg">
<path d="M24 47C36.7025 47 47 36.7025 47 24C47 11.2975 36.7025 1 24 1C11.2975 1 1 11.2975 1 24C1 36.7025 11.2975 47 24 47Z" fill="#F8D34C"/>
<path d="M24.0003 40.0001C23.7351 40.0001 23.4807 39.8948 23.2932 39.7072C23.1057 39.5197 23.0003 39.2653 23.0003 39.0001V36.0001C23.0003 35.7349 23.1057 35.4805 23.2932 35.293C23.4807 35.1055 23.7351 35.0001 24.0003 35.0001C24.2655 35.0001 24.5199 35.1055 24.7074 35.293C24.8949 35.4805 25.0003 35.7349 25.0003 36.0001V39.0001C25.0003 39.2653 24.8949 39.5197 24.7074 39.7072C24.5199 39.8948 24.2655 40.0001 24.0003 40.0001Z" fill="#BB991D"/>
<path d="M39.2173 28.9441C39.1353 29.1963 38.9565 29.4057 38.7203 29.526C38.484 29.6464 38.2095 29.6681 37.9573 29.5861L35.1003 28.6591C34.9701 28.6231 34.8485 28.5611 34.7429 28.4769C34.6373 28.3926 34.5498 28.2878 34.4858 28.1688C34.4219 28.0498 34.3826 27.9191 34.3706 27.7846C34.3585 27.65 34.3738 27.5144 34.4156 27.3859C34.4574 27.2574 34.5248 27.1387 34.6137 27.037C34.7026 26.9353 34.8113 26.8527 34.933 26.7941C35.0547 26.7355 35.1871 26.7022 35.3221 26.6962C35.457 26.6902 35.5918 26.7116 35.7183 26.7591L38.5713 27.6861C38.8238 27.7673 39.0337 27.9454 39.1548 28.1813C39.276 28.4172 39.2985 28.6916 39.2173 28.9441Z" fill="#BB991D"/>
<path d="M33.4053 11.0561C33.512 11.1333 33.6023 11.2309 33.6712 11.3431C33.7401 11.4554 33.7861 11.5801 33.8067 11.7102C33.8272 11.8403 33.8218 11.9731 33.7909 12.1011C33.7599 12.2292 33.704 12.3498 33.6263 12.4561L31.8623 14.8801C31.7058 15.0947 31.4705 15.2383 31.2082 15.2794C30.9458 15.3204 30.6779 15.2556 30.4633 15.0991C30.2487 14.9426 30.1051 14.7073 30.0641 14.445C30.023 14.1826 30.0878 13.9147 30.2443 13.7001L32.0083 11.2731C32.1648 11.0592 32.3999 10.9161 32.6619 10.8754C32.9238 10.8347 33.1912 10.8997 33.4053 11.0561Z" fill="#BB991D"/>
<path d="M14.6003 11.0561C14.7066 10.9784 14.8273 10.9225 14.9553 10.8915C15.0833 10.8606 15.2161 10.8552 15.3462 10.8758C15.4763 10.8963 15.601 10.9423 15.7133 11.0112C15.8255 11.0801 15.9231 11.1704 16.0003 11.2771L17.7563 13.7001C17.9122 13.9147 17.9766 14.1824 17.9351 14.4444C17.8937 14.7064 17.7499 14.9412 17.5353 15.0971C17.3207 15.2531 17.053 15.3174 16.791 15.2759C16.529 15.2345 16.2942 15.0907 16.1383 14.8761L14.3743 12.4491C14.2201 12.2342 14.1573 11.967 14.1997 11.7059C14.242 11.4449 14.3861 11.2112 14.6003 11.0561Z" fill="#BB991D"/>
<path d="M8.7833 28.9441C8.70137 28.6919 8.72297 28.4175 8.84337 28.1812C8.96377 27.9449 9.17309 27.7661 9.4253 27.6841L12.2783 26.7571C12.4048 26.7096 12.5396 26.6882 12.6745 26.6942C12.8095 26.7002 12.9419 26.7335 13.0636 26.7921C13.1854 26.8507 13.294 26.9333 13.3829 27.035C13.4718 27.1367 13.5392 27.2554 13.581 27.3839C13.6228 27.5124 13.6381 27.648 13.626 27.7826C13.614 27.9171 13.5747 28.0478 13.5108 28.1668C13.4468 28.2858 13.3593 28.3906 13.2537 28.4749C13.1481 28.5591 13.0265 28.6211 12.8963 28.6571L10.0433 29.5841C9.79134 29.6661 9.51713 29.6448 9.28088 29.5248C9.04464 29.4048 8.86568 29.196 8.7833 28.9441Z" fill="#BB991D"/>
<path d="M30.1813 33.4781C30.0192 33.478 29.8595 33.4382 29.7163 33.3621L24.0003 30.3621L18.2843 33.3621C18.1193 33.4486 17.9334 33.4872 17.7475 33.4737C17.5617 33.4601 17.3834 33.3949 17.2326 33.2855C17.0819 33.176 16.9647 33.0266 16.8943 32.8541C16.8239 32.6815 16.8031 32.4928 16.8343 32.3091L17.9263 25.9441L13.3003 21.4381C13.1666 21.3079 13.072 21.1429 13.0272 20.9617C12.9824 20.7805 12.9893 20.5904 13.0469 20.4129C13.1045 20.2354 13.2107 20.0775 13.3534 19.9572C13.4961 19.8369 13.6696 19.7589 13.8543 19.7321L20.2443 18.8041L23.1023 13.0141C23.194 12.8579 23.3249 12.7284 23.4821 12.6385C23.6392 12.5485 23.8172 12.5011 23.9983 12.5011C24.1794 12.5011 24.3574 12.5485 24.5145 12.6385C24.6717 12.7284 24.8026 12.8579 24.8943 13.0141L27.7523 18.8041L34.1423 19.7321C34.327 19.7589 34.5005 19.8369 34.6432 19.9572C34.7859 20.0775 34.8921 20.2354 34.9497 20.4129C35.0073 20.5904 35.0142 20.7805 34.9694 20.9617C34.9246 21.1429 34.83 21.3079 34.6963 21.4381L30.0723 25.9441L31.1643 32.3091C31.1889 32.4526 31.1819 32.5997 31.1437 32.7402C31.1056 32.8807 31.0372 33.0111 30.9434 33.1225C30.8496 33.2338 30.7326 33.3233 30.6007 33.3847C30.4687 33.4462 30.3249 33.478 30.1793 33.4781H30.1813Z" fill="#BB991D"/>
</svg>
