<svg width="54" height="54" viewBox="0 0 54 54" fill="none" xmlns="http://www.w3.org/2000/svg">
<rect width="54" height="54" rx="6" fill="white"/>
<path d="M38.0468 12.2658C37.9267 12.2058 37.7467 12.5508 37.5066 13.3009C37.2968 14.021 37.0115 14.9663 36.6516 16.1365C36.2915 17.2766 35.9014 18.5817 35.4815 20.0521C35.0913 21.4921 34.6563 22.9324 34.1761 24.3727C33.6962 25.8127 33.216 27.163 32.7361 28.4232C32.2559 29.6534 31.7759 30.6286 31.2958 31.3487C30.8156 32.0687 30.3657 32.4737 29.9455 32.5637C29.5256 32.6238 29.1503 32.1887 28.8205 31.2586C28.5804 30.8385 28.2354 30.1785 27.7852 29.2784C27.3653 28.3483 26.8701 27.313 26.3 26.1728C25.7299 25.0327 25.1298 23.8325 24.4998 22.5722C23.8696 21.3123 23.2695 20.1269 22.6995 19.0168C22.1594 17.8766 21.6493 16.8565 21.1692 15.9564C20.7192 15.0563 20.3891 14.3961 20.1791 13.976C19.819 13.3159 19.489 12.7909 19.1889 12.4008C18.9189 11.9808 18.4838 11.7707 17.8837 11.7707C17.8837 13.871 18.0037 16.1813 18.2438 18.7018C18.4838 21.2222 18.7389 23.7724 19.0089 26.3529C19.309 28.9334 19.579 31.4836 19.819 34.0043C20.0591 36.4942 20.1791 38.8046 20.1791 40.9351C20.2991 41.2052 20.2541 41.4602 20.0441 41.7003C19.864 41.9404 19.594 42.1202 19.2339 42.2402C18.9039 42.3603 18.5288 42.3603 18.1088 42.2402C17.7187 42.1505 17.3887 41.9104 17.1187 41.52C16.8486 38.8497 16.6986 36.1343 16.6686 33.3741C16.6686 30.5835 16.6535 27.7932 16.6235 25.0027C16.5935 22.2124 16.4735 19.4218 16.2635 16.6315C16.0535 13.811 15.6334 11.0056 15.0033 8.21518C14.9733 7.67508 15.0633 7.34505 15.2733 7.22506C15.4834 7.075 15.7534 7 16.0835 7C16.8036 7 17.4487 7.18002 18.0188 7.54005C18.6189 7.87013 19.1589 8.30519 19.639 8.84529C20.1191 9.35533 20.5391 9.92542 20.8992 10.5555C21.2892 11.1856 21.6343 11.7557 21.9344 12.2658C22.1744 12.6558 22.5044 13.2709 22.9245 14.1111L24.3647 17.0365C24.9048 18.1167 25.4599 19.2569 26.03 20.4571C26.6301 21.6273 27.2001 22.7523 27.7403 23.8325C28.2802 24.8826 28.7753 25.8278 29.2255 26.6679C29.6754 27.4782 30.0207 28.063 30.2605 28.4232C30.3805 28.4232 30.4857 28.3783 30.5757 28.2883C30.6658 28.1982 30.7856 27.9433 30.9356 27.5231C31.1157 27.1029 31.3406 26.4578 31.6107 25.5877C31.9109 24.7177 32.3159 23.5175 32.8261 21.9871C33.336 20.4571 33.9663 18.5217 34.7163 16.1813C35.4663 13.841 36.3815 10.9906 37.4617 7.63011C37.5217 7.48005 37.7167 7.34505 38.0468 7.22506C38.3769 7.10499 38.6768 7.04499 38.9469 7.04499C39.217 7.04499 39.3971 7.135 39.4871 7.31507C39.6071 7.49509 39.6969 7.7951 39.7569 8.21518C40.027 10.7655 40.2371 13.436 40.3872 16.2265C40.5672 18.9868 40.7922 21.7922 41.0623 24.6425C41.3321 27.4631 41.6623 30.2685 42.0524 33.0591C42.4726 35.8496 43.0425 38.5044 43.7626 41.0252L40.6573 42.2402L38.0468 12.2658Z" fill="#20257F"/>
<path d="M36.354 13.1623C36.222 13.0962 36.0238 13.4758 35.76 14.3009C35.5288 15.0929 35.2154 16.1328 34.8193 17.4198C34.4232 18.6741 33.9941 20.1098 33.5321 21.7269C33.103 23.3113 32.6244 24.8954 32.0964 26.4799C31.5683 28.064 31.0403 29.5492 30.5122 30.9354C29.9839 32.2886 29.4559 33.3615 28.9278 34.1531C28.3998 34.9456 27.9047 35.3912 27.4426 35.4902C26.9806 35.5561 26.568 35.0778 26.205 34.0542C25.941 33.5924 25.5614 32.8662 25.0663 31.876C24.6042 30.8529 24.0597 29.7144 23.4325 28.4601C22.8055 27.2058 22.1454 25.8856 21.4523 24.4993C20.7592 23.1131 20.0991 21.8096 19.472 20.5883C18.8779 19.3341 18.3168 18.212 17.7887 17.2219C17.2936 16.2318 16.9306 15.5055 16.6996 15.0435C16.3035 14.3174 15.9404 13.7398 15.6104 13.3108C15.3133 12.8487 14.8348 12.6177 14.1747 12.6177C14.1747 14.928 14.3067 17.4693 14.5707 20.2417C14.8348 23.0142 15.1153 25.8196 15.4124 28.658C15.7424 31.4964 16.0395 34.3021 16.3035 37.0743C16.5675 39.8138 16.6996 42.3553 16.6996 44.6984C16.8316 44.9958 16.7821 45.2759 16.551 45.5401C16.353 45.8039 16.056 46.0021 15.6599 46.1341C15.2969 46.2663 14.8843 46.2663 14.4222 46.1341C13.9932 46.0354 13.6301 45.7712 13.333 45.3421C13.036 42.4048 12.871 39.4176 12.838 36.381C12.838 33.3117 12.8215 30.2424 12.7885 27.1728C12.7554 24.1035 12.6234 21.0339 12.3924 17.9646C12.1614 14.862 11.6993 11.776 11.0062 8.70659C10.9732 8.11246 11.0722 7.74946 11.3032 7.6174C11.5343 7.45237 11.8313 7.36987 12.1944 7.36987C12.9865 7.36987 13.6961 7.5679 14.3232 7.96397C14.9833 8.32701 15.5774 8.80557 16.1054 9.39967C16.6335 9.96073 17.0956 10.5878 17.4917 11.281C17.9207 11.9741 18.3003 12.6011 18.6303 13.1623C18.8943 13.5913 19.2574 14.2679 19.7195 15.1922L21.3037 18.4099C21.8979 19.5982 22.5084 20.8525 23.1355 22.1725C23.7956 23.4597 24.4227 24.6975 25.0168 25.8856C25.6109 27.0409 26.1555 28.0805 26.6506 29.0046C27.1458 29.8958 27.5251 30.5393 27.7893 30.9354C27.9212 30.9354 28.0366 30.8859 28.1359 30.787C28.2348 30.688 28.3668 30.4073 28.5317 29.9453C28.7299 29.4832 28.9773 28.7737 29.2744 27.8163C29.6046 26.8592 30.0501 25.5392 30.6112 23.8558C31.1722 22.1725 31.8655 20.0438 32.6904 17.4693C33.5156 14.895 34.5222 11.7595 35.7105 8.06298C35.7765 7.89795 35.9909 7.74946 36.354 7.6174C36.7171 7.48538 37.0472 7.41938 37.3441 7.41938C37.6412 7.41938 37.8392 7.51842 37.9384 7.71641C38.0703 7.91444 38.1693 8.24451 38.2353 8.70659C38.5324 11.512 38.7633 14.4494 38.9285 17.519C39.1264 20.5554 39.3741 23.6414 39.671 26.7767C39.9681 29.8793 40.3312 32.9651 40.76 36.0344C41.2221 39.1043 41.8494 42.0249 42.6413 44.7976L39.2254 46.1341L36.354 13.1623Z" fill="#20257F"/>
</svg>
