<svg width="155" height="64" viewBox="0 0 155 64" fill="none" xmlns="http://www.w3.org/2000/svg">
<rect x="0.75" y="0.75" width="153.5" height="62.5" rx="7.25" stroke="#CCCCCC" stroke-width="1.5"/>
<g clip-path="url(#clip0_3703_171)">
<path d="M30.25 15.34C32.115 14.7825 34.0525 14.4975 36 14.5C47.035 14.49 55.99 23.43 56 34.465C56 36.4125 55.72 38.35 55.16 40.215C54.845 41.275 53.87 42 52.765 42H45.13C45.2925 40.515 45.4575 38.8075 45.62 37H50.7875C50.93 36.175 51 35.3375 51 34.5C51 26.215 44.285 19.5 36 19.5C27.715 19.5 21 26.215 21 34.5C21 35.3375 21.07 36.175 21.2125 37H29.98C28.7875 39.275 27.8725 41.1475 27.625 41.96C27.62 41.9725 27.62 41.985 27.6175 42H19.235C18.13 42 17.155 41.275 16.84 40.215C13.675 29.6425 19.6775 18.505 30.25 15.34Z" fill="#99C817"/>
<path d="M31.2154 43.0473C31.8379 40.9923 39.4854 27.4748 40.3554 25.9398C40.6404 25.4348 41.2304 25.1923 41.8054 25.3598C42.3654 25.5298 42.7304 26.0648 42.6904 26.6473C42.5604 28.4073 41.4079 43.8948 40.7854 45.9498C40.1304 48.1048 38.1429 49.4973 35.9979 49.4973C35.5179 49.4973 35.0304 49.4273 34.5479 49.2823C31.9104 48.4823 30.4179 45.6873 31.2154 43.0473Z" fill="#99C817"/>
</g>
<path d="M72.7422 26V18.7246H75.2812C75.8542 18.7246 76.3245 18.8223 76.6924 19.0176C77.0635 19.2096 77.3402 19.4766 77.5225 19.8184C77.7048 20.1602 77.7959 20.5508 77.7959 20.9902C77.7959 21.4297 77.7048 21.8171 77.5225 22.1523C77.3434 22.4876 77.0667 22.7497 76.6924 22.9385C76.3213 23.124 75.8509 23.2168 75.2812 23.2168H73.3281V22.3184H75.2227C75.5938 22.3184 75.8916 22.2663 76.1162 22.1621C76.3441 22.0547 76.5101 21.9017 76.6143 21.7031C76.7184 21.5046 76.7705 21.2669 76.7705 20.9902C76.7705 20.7135 76.7168 20.4727 76.6094 20.2676C76.5052 20.0625 76.3392 19.9046 76.1113 19.7939C75.8867 19.68 75.5889 19.623 75.2178 19.623H73.7725V26H72.7422ZM76.8926 26L75.1396 22.7236H76.2871L78.0791 26H76.8926ZM80.8566 18.7246V26H79.8215V18.7246H80.8566ZM85.5873 26.1172C85.0307 26.1172 84.5489 26.0244 84.142 25.8389C83.7351 25.6533 83.4193 25.388 83.1947 25.043C82.9701 24.6979 82.8513 24.2894 82.8383 23.8174H83.8783C83.8913 24.1169 83.9695 24.3708 84.1127 24.5791C84.2592 24.7842 84.4594 24.9404 84.7133 25.0479C84.9672 25.1553 85.2585 25.209 85.5873 25.209C85.9161 25.209 86.2042 25.1602 86.4516 25.0625C86.7022 24.9616 86.8975 24.8216 87.0375 24.6426C87.1807 24.4603 87.2523 24.2471 87.2523 24.0029C87.2523 23.7979 87.1986 23.6253 87.0912 23.4854C86.9838 23.3421 86.8259 23.2217 86.6176 23.124C86.4092 23.0231 86.1521 22.9352 85.8461 22.8604L85.016 22.6504C84.3487 22.4811 83.8474 22.2419 83.5121 21.9326C83.1768 21.6201 83.0092 21.2132 83.0092 20.7119C83.0092 20.2887 83.1182 19.9209 83.3363 19.6084C83.5544 19.2959 83.8555 19.0534 84.2396 18.8809C84.627 18.7051 85.0714 18.6172 85.5727 18.6172C86.074 18.6172 86.5134 18.7067 86.891 18.8857C87.2686 19.0648 87.5648 19.3154 87.7797 19.6377C87.9945 19.96 88.1085 20.3359 88.1215 20.7656H87.1205C87.088 20.375 86.9301 20.0706 86.6469 19.8525C86.3637 19.6344 85.9975 19.5254 85.5482 19.5254C85.2488 19.5254 84.9851 19.5742 84.7572 19.6719C84.5294 19.7663 84.352 19.8997 84.225 20.0723C84.098 20.2415 84.0346 20.4368 84.0346 20.6582C84.0346 20.8112 84.0671 20.9463 84.1322 21.0635C84.2006 21.1774 84.2966 21.2783 84.4203 21.3662C84.544 21.4541 84.6905 21.5306 84.8598 21.5957C85.029 21.6576 85.2146 21.7145 85.4164 21.7666L86.1732 21.9619C86.4727 22.0335 86.7494 22.1247 87.0033 22.2354C87.2572 22.346 87.4786 22.4811 87.6674 22.6406C87.8594 22.8001 88.0092 22.9906 88.1166 23.2119C88.224 23.4333 88.2777 23.6888 88.2777 23.9785C88.2777 24.3984 88.1687 24.7695 87.9506 25.0918C87.7357 25.4141 87.4265 25.6663 87.0229 25.8486C86.6225 26.0277 86.1439 26.1172 85.5873 26.1172ZM90.2594 26V18.7246H91.2945V22.2451H91.3775L94.4977 18.7246H95.8062L92.8375 22.001L95.816 26H94.5758L92.1734 22.709L91.2945 23.7148V26H90.2594ZM100.863 18.7246H102.162L104.481 24.4961H104.53L106.84 18.7246H108.163V26H107.152V20.502H107.113L104.896 25.9902H104.091L101.884 20.4971H101.845V26H100.863V18.7246ZM110.638 26V18.7246H115.154V19.623H111.673V21.8887H114.901V22.7725H111.673V25.1016H115.194V26H110.638ZM116.926 19.6279V18.7246H122.507V19.6279H120.237V26H119.206V19.6279H116.926ZM124.425 26V18.7246H128.942V19.623H125.461V21.8887H128.688V22.7725H125.461V25.1016H128.981V26H124.425ZM131.085 26V18.7246H133.624C134.197 18.7246 134.667 18.8223 135.035 19.0176C135.406 19.2096 135.683 19.4766 135.865 19.8184C136.047 20.1602 136.138 20.5508 136.138 20.9902C136.138 21.4297 136.047 21.8171 135.865 22.1523C135.686 22.4876 135.409 22.7497 135.035 22.9385C134.664 23.124 134.193 23.2168 133.624 23.2168H131.671V22.3184H133.565C133.936 22.3184 134.234 22.2663 134.459 22.1621C134.687 22.0547 134.853 21.9017 134.957 21.7031C135.061 21.5046 135.113 21.2669 135.113 20.9902C135.113 20.7135 135.059 20.4727 134.952 20.2676C134.848 20.0625 134.682 19.9046 134.454 19.7939C134.229 19.68 133.931 19.623 133.56 19.623H132.115V26H131.085ZM135.235 26L133.482 22.7236H134.63L136.422 26H135.235Z" fill="#666666"/>
<path d="M73.2784 46V34.3636H75.0341V44.4886H80.3068V46H73.2784ZM85.6494 46.1761C84.8313 46.1761 84.1172 45.9886 83.5074 45.6136C82.8975 45.2386 82.4241 44.714 82.0869 44.0398C81.7498 43.3655 81.5813 42.5777 81.5813 41.6761C81.5813 40.7708 81.7498 39.9792 82.0869 39.3011C82.4241 38.6231 82.8975 38.0966 83.5074 37.7216C84.1172 37.3466 84.8313 37.1591 85.6494 37.1591C86.4676 37.1591 87.1816 37.3466 87.7915 37.7216C88.4013 38.0966 88.8748 38.6231 89.2119 39.3011C89.5491 39.9792 89.7176 40.7708 89.7176 41.6761C89.7176 42.5777 89.5491 43.3655 89.2119 44.0398C88.8748 44.714 88.4013 45.2386 87.7915 45.6136C87.1816 45.9886 86.4676 46.1761 85.6494 46.1761ZM85.6551 44.75C86.1854 44.75 86.6248 44.6098 86.9733 44.3295C87.3218 44.0492 87.5794 43.6761 87.746 43.2102C87.9165 42.7443 88.0017 42.2311 88.0017 41.6705C88.0017 41.1136 87.9165 40.6023 87.746 40.1364C87.5794 39.6667 87.3218 39.2898 86.9733 39.0057C86.6248 38.7216 86.1854 38.5795 85.6551 38.5795C85.121 38.5795 84.6778 38.7216 84.3256 39.0057C83.9771 39.2898 83.7176 39.6667 83.5472 40.1364C83.3805 40.6023 83.2972 41.1136 83.2972 41.6705C83.2972 42.2311 83.3805 42.7443 83.5472 43.2102C83.7176 43.6761 83.9771 44.0492 84.3256 44.3295C84.6778 44.6098 85.121 44.75 85.6551 44.75ZM93.0403 46L90.4722 37.2727H92.2278L93.9381 43.6818H94.0233L95.7392 37.2727H97.4949L99.1994 43.6534H99.2847L100.984 37.2727H102.739L100.177 46H98.4438L96.671 39.6989H96.5403L94.7676 46H93.0403ZM108.322 46V34.3636H112.47C113.371 34.3636 114.12 34.5189 114.714 34.8295C115.313 35.1402 115.76 35.5701 116.055 36.1193C116.351 36.6648 116.498 37.2955 116.498 38.0114C116.498 38.7235 116.349 39.3504 116.049 39.892C115.754 40.4299 115.307 40.8485 114.709 41.1477C114.114 41.447 113.366 41.5966 112.464 41.5966H109.322V40.0852H112.305C112.873 40.0852 113.335 40.0038 113.691 39.8409C114.051 39.678 114.315 39.4413 114.481 39.1307C114.648 38.8201 114.731 38.447 114.731 38.0114C114.731 37.572 114.646 37.1913 114.476 36.8693C114.309 36.5473 114.046 36.3011 113.686 36.1307C113.33 35.9564 112.862 35.8693 112.282 35.8693H110.078V46H108.322ZM114.066 40.75L116.941 46H114.941L112.123 40.75H114.066ZM118.298 46V37.2727H119.997V46H118.298ZM119.156 35.9261C118.861 35.9261 118.607 35.8277 118.395 35.6307C118.187 35.4299 118.082 35.1913 118.082 34.9148C118.082 34.6345 118.187 34.3958 118.395 34.1989C118.607 33.9981 118.861 33.8977 119.156 33.8977C119.452 33.8977 119.704 33.9981 119.912 34.1989C120.124 34.3958 120.23 34.6345 120.23 34.9148C120.23 35.1913 120.124 35.4299 119.912 35.6307C119.704 35.8277 119.452 35.9261 119.156 35.9261ZM128.622 39.4034L127.083 39.6761C127.018 39.4792 126.916 39.2917 126.776 39.1136C126.639 38.9356 126.454 38.7898 126.219 38.6761C125.984 38.5625 125.691 38.5057 125.338 38.5057C124.857 38.5057 124.456 38.6136 124.134 38.8295C123.812 39.0417 123.651 39.3163 123.651 39.6534C123.651 39.9451 123.759 40.1799 123.975 40.358C124.191 40.536 124.539 40.6818 125.02 40.7955L126.407 41.1136C127.21 41.2992 127.808 41.5852 128.202 41.9716C128.596 42.358 128.793 42.8598 128.793 43.4773C128.793 44 128.641 44.4659 128.338 44.875C128.039 45.2803 127.621 45.5985 127.083 45.8295C126.549 46.0606 125.929 46.1761 125.225 46.1761C124.247 46.1761 123.45 45.9678 122.833 45.5511C122.215 45.1307 121.836 44.5341 121.696 43.7614L123.338 43.5114C123.441 43.9394 123.651 44.2633 123.969 44.483C124.287 44.6989 124.702 44.8068 125.213 44.8068C125.77 44.8068 126.215 44.6913 126.549 44.4602C126.882 44.2254 127.049 43.9394 127.049 43.6023C127.049 43.3295 126.946 43.1004 126.742 42.9148C126.541 42.7292 126.232 42.589 125.816 42.4943L124.338 42.1705C123.524 41.9848 122.922 41.6894 122.532 41.2841C122.145 40.8788 121.952 40.3655 121.952 39.7443C121.952 39.2292 122.096 38.7784 122.384 38.392C122.672 38.0057 123.069 37.7045 123.577 37.4886C124.085 37.2689 124.666 37.1591 125.321 37.1591C126.264 37.1591 127.007 37.3636 127.549 37.7727C128.09 38.178 128.448 38.7216 128.622 39.4034ZM132.023 43.0398L132.012 40.9659H132.307L135.785 37.2727H137.819L133.853 41.4773H133.586L132.023 43.0398ZM130.461 46V34.3636H132.16V46H130.461ZM135.972 46L132.847 41.8523L134.018 40.6648L138.057 46H135.972Z" fill="black"/>
<defs>
<clipPath id="clip0_3703_171">
<rect width="40" height="40" fill="white" transform="matrix(-1 0 0 1 56 12)"/>
</clipPath>
</defs>
</svg>
