<svg width="164" height="64" viewBox="0 0 164 64" fill="none" xmlns="http://www.w3.org/2000/svg">
<rect x="0.75" y="0.75" width="162.5" height="62.5" rx="7.25" stroke="#CCCCCC" stroke-width="1.5"/>
<g clip-path="url(#clip0_3703_179)">
<path d="M30.25 15.34C32.115 14.7825 34.0525 14.4975 36 14.5C47.035 14.49 55.99 23.43 56 34.465C56 36.4125 55.72 38.35 55.16 40.215C54.845 41.275 53.87 42 52.765 42H45.13C45.2925 40.515 45.4575 38.8075 45.62 37H50.7875C50.93 36.175 51 35.3375 51 34.5C51 26.215 44.285 19.5 36 19.5C27.715 19.5 21 26.215 21 34.5C21 35.3375 21.07 36.175 21.2125 37H29.98C28.7875 39.275 27.8725 41.1475 27.625 41.96C27.62 41.9725 27.62 41.985 27.6175 42H19.235C18.13 42 17.155 41.275 16.84 40.215C13.675 29.6425 19.6775 18.505 30.25 15.34Z" fill="#FDEB48"/>
<path d="M31.2154 43.0473C31.8379 40.9923 39.4854 27.4748 40.3554 25.9398C40.6404 25.4348 41.2304 25.1923 41.8054 25.3598C42.3654 25.5298 42.7304 26.0648 42.6904 26.6473C42.5604 28.4073 41.4079 43.8948 40.7854 45.9498C40.1304 48.1048 38.1429 49.4973 35.9979 49.4973C35.5179 49.4973 35.0304 49.4273 34.5479 49.2823C31.9104 48.4823 30.4179 45.6873 31.2154 43.0473Z" fill="#FDEB48"/>
</g>
<path d="M72.7422 29V21.7246H75.2812C75.8542 21.7246 76.3245 21.8223 76.6924 22.0176C77.0635 22.2096 77.3402 22.4766 77.5225 22.8184C77.7048 23.1602 77.7959 23.5508 77.7959 23.9902C77.7959 24.4297 77.7048 24.8171 77.5225 25.1523C77.3434 25.4876 77.0667 25.7497 76.6924 25.9385C76.3213 26.124 75.8509 26.2168 75.2812 26.2168H73.3281V25.3184H75.2227C75.5938 25.3184 75.8916 25.2663 76.1162 25.1621C76.3441 25.0547 76.5101 24.9017 76.6143 24.7031C76.7184 24.5046 76.7705 24.2669 76.7705 23.9902C76.7705 23.7135 76.7168 23.4727 76.6094 23.2676C76.5052 23.0625 76.3392 22.9046 76.1113 22.7939C75.8867 22.68 75.5889 22.623 75.2178 22.623H73.7725V29H72.7422ZM76.8926 29L75.1396 25.7236H76.2871L78.0791 29H76.8926ZM80.8566 21.7246V29H79.8215V21.7246H80.8566ZM85.5873 29.1172C85.0307 29.1172 84.5489 29.0244 84.142 28.8389C83.7351 28.6533 83.4193 28.388 83.1947 28.043C82.9701 27.6979 82.8513 27.2894 82.8383 26.8174H83.8783C83.8913 27.1169 83.9695 27.3708 84.1127 27.5791C84.2592 27.7842 84.4594 27.9404 84.7133 28.0479C84.9672 28.1553 85.2585 28.209 85.5873 28.209C85.9161 28.209 86.2042 28.1602 86.4516 28.0625C86.7022 27.9616 86.8975 27.8216 87.0375 27.6426C87.1807 27.4603 87.2523 27.2471 87.2523 27.0029C87.2523 26.7979 87.1986 26.6253 87.0912 26.4854C86.9838 26.3421 86.8259 26.2217 86.6176 26.124C86.4092 26.0231 86.1521 25.9352 85.8461 25.8604L85.016 25.6504C84.3487 25.4811 83.8474 25.2419 83.5121 24.9326C83.1768 24.6201 83.0092 24.2132 83.0092 23.7119C83.0092 23.2887 83.1182 22.9209 83.3363 22.6084C83.5544 22.2959 83.8555 22.0534 84.2396 21.8809C84.627 21.7051 85.0714 21.6172 85.5727 21.6172C86.074 21.6172 86.5134 21.7067 86.891 21.8857C87.2686 22.0648 87.5648 22.3154 87.7797 22.6377C87.9945 22.96 88.1085 23.3359 88.1215 23.7656H87.1205C87.088 23.375 86.9301 23.0706 86.6469 22.8525C86.3637 22.6344 85.9975 22.5254 85.5482 22.5254C85.2488 22.5254 84.9851 22.5742 84.7572 22.6719C84.5294 22.7663 84.352 22.8997 84.225 23.0723C84.098 23.2415 84.0346 23.4368 84.0346 23.6582C84.0346 23.8112 84.0671 23.9463 84.1322 24.0635C84.2006 24.1774 84.2966 24.2783 84.4203 24.3662C84.544 24.4541 84.6905 24.5306 84.8598 24.5957C85.029 24.6576 85.2146 24.7145 85.4164 24.7666L86.1732 24.9619C86.4727 25.0335 86.7494 25.1247 87.0033 25.2354C87.2572 25.346 87.4786 25.4811 87.6674 25.6406C87.8594 25.8001 88.0092 25.9906 88.1166 26.2119C88.224 26.4333 88.2777 26.6888 88.2777 26.9785C88.2777 27.3984 88.1687 27.7695 87.9506 28.0918C87.7357 28.4141 87.4265 28.6663 87.0229 28.8486C86.6225 29.0277 86.1439 29.1172 85.5873 29.1172ZM90.2594 29V21.7246H91.2945V25.2451H91.3775L94.4977 21.7246H95.8062L92.8375 25.001L95.816 29H94.5758L92.1734 25.709L91.2945 26.7148V29H90.2594ZM100.863 21.7246H102.162L104.481 27.4961H104.53L106.84 21.7246H108.163V29H107.152V23.502H107.113L104.896 28.9902H104.091L101.884 23.4971H101.845V29H100.863V21.7246ZM110.638 29V21.7246H115.154V22.623H111.673V24.8887H114.901V25.7725H111.673V28.1016H115.194V29H110.638ZM116.926 22.6279V21.7246H122.507V22.6279H120.237V29H119.206V22.6279H116.926ZM124.425 29V21.7246H128.942V22.623H125.461V24.8887H128.688V25.7725H125.461V28.1016H128.981V29H124.425ZM131.085 29V21.7246H133.624C134.197 21.7246 134.667 21.8223 135.035 22.0176C135.406 22.2096 135.683 22.4766 135.865 22.8184C136.047 23.1602 136.138 23.5508 136.138 23.9902C136.138 24.4297 136.047 24.8171 135.865 25.1523C135.686 25.4876 135.409 25.7497 135.035 25.9385C134.664 26.124 134.193 26.2168 133.624 26.2168H131.671V25.3184H133.565C133.936 25.3184 134.234 25.2663 134.459 25.1621C134.687 25.0547 134.853 24.9017 134.957 24.7031C135.061 24.5046 135.113 24.2669 135.113 23.9902C135.113 23.7135 135.059 23.4727 134.952 23.2676C134.848 23.0625 134.682 22.9046 134.454 22.7939C134.229 22.68 133.931 22.623 133.56 22.623H132.115V29H131.085ZM135.235 29L133.482 25.7236H134.63L136.422 29H135.235Z" fill="#666666"/>
<path d="M72.799 36.7273H74.1307L76.446 42.3807H76.5312L78.8466 36.7273H80.1783V44H79.1342V38.7372H79.0668L76.9219 43.9893H76.0554L73.9105 38.7337H73.843V44H72.799V36.7273ZM83.886 44.1101C83.3746 44.1101 82.9283 43.9929 82.5472 43.7585C82.166 43.5241 81.8701 43.1963 81.6594 42.7749C81.4487 42.3535 81.3434 41.861 81.3434 41.2976C81.3434 40.7318 81.4487 40.237 81.6594 39.8132C81.8701 39.3894 82.166 39.0604 82.5472 38.826C82.9283 38.5916 83.3746 38.4744 83.886 38.4744C84.3973 38.4744 84.8436 38.5916 85.2248 38.826C85.6059 39.0604 85.9018 39.3894 86.1125 39.8132C86.3232 40.237 86.4286 40.7318 86.4286 41.2976C86.4286 41.861 86.3232 42.3535 86.1125 42.7749C85.9018 43.1963 85.6059 43.5241 85.2248 43.7585C84.8436 43.9929 84.3973 44.1101 83.886 44.1101ZM83.8895 43.2188C84.221 43.2188 84.4956 43.1312 84.7134 42.956C84.9312 42.7808 85.0922 42.5476 85.1963 42.2564C85.3029 41.9652 85.3561 41.6444 85.3561 41.294C85.3561 40.946 85.3029 40.6264 85.1963 40.3352C85.0922 40.0417 84.9312 39.8061 84.7134 39.6286C84.4956 39.451 84.221 39.3622 83.8895 39.3622C83.5557 39.3622 83.2787 39.451 83.0586 39.6286C82.8408 39.8061 82.6786 40.0417 82.5721 40.3352C82.4679 40.6264 82.4158 40.946 82.4158 41.294C82.4158 41.6444 82.4679 41.9652 82.5721 42.2564C82.6786 42.5476 82.8408 42.7808 83.0586 42.956C83.2787 43.1312 83.5557 43.2188 83.8895 43.2188ZM89.5557 44.1065C89.1153 44.1065 88.7223 43.9941 88.3767 43.7692C88.0334 43.5419 87.7635 43.2187 87.567 42.7997C87.3729 42.3783 87.2759 41.8729 87.2759 41.2834C87.2759 40.6939 87.3741 40.1896 87.5706 39.7706C87.7695 39.3516 88.0417 39.0308 88.3874 38.8082C88.733 38.5857 89.1248 38.4744 89.5628 38.4744C89.9013 38.4744 90.1736 38.5312 90.3795 38.6449C90.5879 38.7562 90.7489 38.8864 90.8625 39.0355C90.9785 39.1847 91.0685 39.3161 91.1324 39.4297H91.1963V36.7273H92.2581V44H91.2212V43.1513H91.1324C91.0685 43.2673 90.9761 43.3999 90.8554 43.549C90.737 43.6982 90.5737 43.8284 90.3653 43.9396C90.157 44.0509 89.8871 44.1065 89.5557 44.1065ZM89.7901 43.201C90.0955 43.201 90.3535 43.1205 90.5642 42.9595C90.7773 42.7962 90.9383 42.5701 91.0472 42.2812C91.1584 41.9924 91.2141 41.6562 91.2141 41.2727C91.2141 40.8939 91.1596 40.5625 91.0507 40.2784C90.9418 39.9943 90.782 39.773 90.5713 39.6143C90.3606 39.4557 90.1002 39.3764 89.7901 39.3764C89.4705 39.3764 89.2041 39.4593 88.9911 39.625C88.778 39.7907 88.617 40.0168 88.5081 40.3033C88.4016 40.5897 88.3483 40.9129 88.3483 41.2727C88.3483 41.6373 88.4027 41.9652 88.5116 42.2564C88.6205 42.5476 88.7815 42.7784 88.9946 42.9489C89.21 43.117 89.4752 43.201 89.7901 43.201ZM96.0244 44.1101C95.487 44.1101 95.0242 43.9953 94.6359 43.7656C94.25 43.5336 93.9517 43.2081 93.741 42.7891C93.5327 42.3677 93.4285 41.8741 93.4285 41.3082C93.4285 40.7495 93.5327 40.2571 93.741 39.831C93.9517 39.4048 94.2453 39.0722 94.6217 38.8331C95.0005 38.594 95.4432 38.4744 95.9498 38.4744C96.2576 38.4744 96.5559 38.5253 96.8447 38.6271C97.1335 38.7289 97.3928 38.8887 97.6224 39.1065C97.852 39.3243 98.0332 39.6072 98.1657 39.9553C98.2983 40.3009 98.3646 40.7211 98.3646 41.2159V41.5923H94.0287V40.7969H97.3241C97.3241 40.5175 97.2673 40.2701 97.1537 40.0547C97.04 39.8369 96.8802 39.6652 96.6743 39.5398C96.4707 39.4143 96.2315 39.3516 95.9569 39.3516C95.6586 39.3516 95.3982 39.425 95.1757 39.5717C94.9555 39.7161 94.7851 39.9055 94.6643 40.1399C94.5459 40.3719 94.4868 40.6241 94.4868 40.8963V41.5178C94.4868 41.8823 94.5507 42.1925 94.6785 42.4482C94.8087 42.7038 94.9898 42.8991 95.2218 43.0341C95.4538 43.1667 95.7249 43.233 96.0351 43.233C96.2363 43.233 96.4198 43.2045 96.5855 43.1477C96.7512 43.0885 96.8944 43.0009 97.0152 42.8849C97.1359 42.7689 97.2282 42.6257 97.2922 42.4553L98.2971 42.6364C98.2166 42.9323 98.0722 43.1915 97.8639 43.4141C97.6579 43.6342 97.3987 43.8059 97.0862 43.929C96.7761 44.0497 96.4221 44.1101 96.0244 44.1101ZM99.4427 44V38.5455H100.469V39.4119H100.526C100.625 39.1184 100.8 38.8875 101.051 38.7195C101.305 38.549 101.591 38.4638 101.911 38.4638C101.977 38.4638 102.055 38.4661 102.145 38.4709C102.237 38.4756 102.31 38.4815 102.362 38.4886V39.5043C102.319 39.4924 102.243 39.4794 102.134 39.4652C102.026 39.4486 101.917 39.4403 101.808 39.4403C101.557 39.4403 101.333 39.4936 101.137 39.6001C100.942 39.7043 100.789 39.8499 100.675 40.0369C100.561 40.2216 100.504 40.4323 100.504 40.669V44H99.4427ZM104.719 44.1207C104.373 44.1207 104.061 44.0568 103.782 43.929C103.502 43.7988 103.281 43.6106 103.118 43.3643C102.957 43.1181 102.876 42.8163 102.876 42.4588C102.876 42.151 102.935 41.8977 103.054 41.6989C103.172 41.5 103.332 41.3426 103.533 41.2266C103.734 41.1106 103.959 41.023 104.208 40.9638C104.456 40.9046 104.71 40.8596 104.968 40.8288C105.294 40.791 105.56 40.7602 105.763 40.7365C105.967 40.7105 106.115 40.669 106.207 40.6122C106.299 40.5554 106.346 40.4631 106.346 40.3352V40.3104C106.346 40.0002 106.258 39.7599 106.083 39.5895C105.91 39.419 105.652 39.3338 105.309 39.3338C104.951 39.3338 104.669 39.4131 104.463 39.5717C104.26 39.728 104.119 39.902 104.041 40.0938L103.043 39.8665C103.161 39.535 103.334 39.2675 103.561 39.0639C103.791 38.858 104.055 38.7088 104.353 38.6165C104.652 38.5218 104.965 38.4744 105.294 38.4744C105.512 38.4744 105.743 38.5005 105.987 38.5526C106.233 38.6023 106.463 38.6946 106.676 38.8295C106.891 38.9645 107.068 39.1574 107.205 39.4084C107.342 39.657 107.411 39.9801 107.411 40.3778V44H106.374V43.2543H106.331C106.263 43.3916 106.16 43.5265 106.022 43.6591C105.885 43.7917 105.709 43.9018 105.493 43.9893C105.278 44.0769 105.02 44.1207 104.719 44.1207ZM104.95 43.2685C105.243 43.2685 105.494 43.2105 105.703 43.0945C105.913 42.9785 106.073 42.8269 106.182 42.6399C106.293 42.4505 106.349 42.2481 106.349 42.0327V41.3295C106.311 41.3674 106.238 41.4029 106.129 41.4361C106.022 41.4669 105.9 41.4941 105.763 41.5178C105.626 41.5391 105.492 41.5592 105.362 41.5781C105.232 41.5947 105.123 41.6089 105.035 41.6207C104.829 41.6468 104.641 41.6906 104.471 41.7521C104.302 41.8137 104.167 41.9025 104.066 42.0185C103.966 42.1321 103.917 42.2836 103.917 42.473C103.917 42.7358 104.014 42.9347 104.208 43.0696C104.402 43.2022 104.649 43.2685 104.95 43.2685ZM111.271 38.5455V39.3977H108.292V38.5455H111.271ZM109.091 37.2386H110.153V42.3984C110.153 42.6044 110.183 42.7595 110.245 42.8636C110.307 42.9654 110.386 43.0353 110.483 43.0732C110.582 43.1087 110.69 43.1264 110.806 43.1264C110.891 43.1264 110.966 43.1205 111.03 43.1087C111.094 43.0968 111.143 43.0874 111.179 43.0803L111.371 43.9574C111.309 43.9811 111.222 44.0047 111.108 44.0284C110.994 44.0545 110.852 44.0687 110.682 44.071C110.402 44.0758 110.142 44.026 109.901 43.9219C109.659 43.8177 109.464 43.6567 109.315 43.4389C109.165 43.2211 109.091 42.9477 109.091 42.6186V37.2386ZM114.638 44.1101C114.101 44.1101 113.638 43.9953 113.25 43.7656C112.864 43.5336 112.565 43.2081 112.355 42.7891C112.146 42.3677 112.042 41.8741 112.042 41.3082C112.042 40.7495 112.146 40.2571 112.355 39.831C112.565 39.4048 112.859 39.0722 113.235 38.8331C113.614 38.594 114.057 38.4744 114.563 38.4744C114.871 38.4744 115.17 38.5253 115.458 38.6271C115.747 38.7289 116.006 38.8887 116.236 39.1065C116.466 39.3243 116.647 39.6072 116.779 39.9553C116.912 40.3009 116.978 40.7211 116.978 41.2159V41.5923H112.642V40.7969H115.938C115.938 40.5175 115.881 40.2701 115.767 40.0547C115.654 39.8369 115.494 39.6652 115.288 39.5398C115.084 39.4143 114.845 39.3516 114.571 39.3516C114.272 39.3516 114.012 39.425 113.789 39.5717C113.569 39.7161 113.399 39.9055 113.278 40.1399C113.16 40.3719 113.1 40.6241 113.1 40.8963V41.5178C113.1 41.8823 113.164 42.1925 113.292 42.4482C113.422 42.7038 113.604 42.8991 113.836 43.0341C114.068 43.1667 114.339 43.233 114.649 43.233C114.85 43.233 115.033 43.2045 115.199 43.1477C115.365 43.0885 115.508 43.0009 115.629 42.8849C115.75 42.7689 115.842 42.6257 115.906 42.4553L116.911 42.6364C116.83 42.9323 116.686 43.1915 116.478 43.4141C116.272 43.6342 116.012 43.8059 115.7 43.929C115.39 44.0497 115.036 44.1101 114.638 44.1101ZM119.118 36.7273V44H118.056V36.7273H119.118ZM121.118 46.0455C120.959 46.0455 120.815 46.0324 120.685 46.0064C120.554 45.9827 120.457 45.9567 120.393 45.9283L120.649 45.0582C120.843 45.1103 121.016 45.1328 121.167 45.1257C121.319 45.1186 121.453 45.0618 121.569 44.9553C121.687 44.8487 121.791 44.6747 121.881 44.4332L122.013 44.071L120.017 38.5455H121.153L122.535 42.7784H122.591L123.973 38.5455H125.113L122.865 44.728C122.761 45.0121 122.628 45.2524 122.467 45.4489C122.306 45.6477 122.114 45.7969 121.892 45.8963C121.669 45.9957 121.411 46.0455 121.118 46.0455ZM128.642 44V36.7273H129.74V43.0554H133.035V44H128.642ZM136.399 44.1101C135.888 44.1101 135.442 43.9929 135.06 43.7585C134.679 43.5241 134.383 43.1963 134.173 42.7749C133.962 42.3535 133.857 41.861 133.857 41.2976C133.857 40.7318 133.962 40.237 134.173 39.8132C134.383 39.3894 134.679 39.0604 135.06 38.826C135.442 38.5916 135.888 38.4744 136.399 38.4744C136.911 38.4744 137.357 38.5916 137.738 38.826C138.119 39.0604 138.415 39.3894 138.626 39.8132C138.837 40.237 138.942 40.7318 138.942 41.2976C138.942 41.861 138.837 42.3535 138.626 42.7749C138.415 43.1963 138.119 43.5241 137.738 43.7585C137.357 43.9929 136.911 44.1101 136.399 44.1101ZM136.403 43.2188C136.734 43.2188 137.009 43.1312 137.227 42.956C137.444 42.7808 137.605 42.5476 137.71 42.2564C137.816 41.9652 137.869 41.6444 137.869 41.294C137.869 40.946 137.816 40.6264 137.71 40.3352C137.605 40.0417 137.444 39.8061 137.227 39.6286C137.009 39.451 136.734 39.3622 136.403 39.3622C136.069 39.3622 135.792 39.451 135.572 39.6286C135.354 39.8061 135.192 40.0417 135.085 40.3352C134.981 40.6264 134.929 40.946 134.929 41.294C134.929 41.6444 134.981 41.9652 135.085 42.2564C135.192 42.5476 135.354 42.7808 135.572 42.956C135.792 43.1312 136.069 43.2188 136.403 43.2188ZM141.044 44L139.438 38.5455H140.536L141.605 42.5511H141.658L142.73 38.5455H143.828L144.893 42.5334H144.946L146.008 38.5455H147.105L145.504 44H144.421L143.313 40.0618H143.231L142.123 44H141.044Z" fill="black"/>
<defs>
<clipPath id="clip0_3703_179">
<rect width="40" height="40" fill="white" transform="matrix(-1 0 0 1 56 12)"/>
</clipPath>
</defs>
</svg>
