<svg width="346" height="321" viewBox="0 0 346 321" fill="none" xmlns="http://www.w3.org/2000/svg">
<path d="M163.131 320.05H4.68526C3.44265 320.05 2.25094 319.556 1.37228 318.678C0.493624 317.799 0 316.607 0 315.365V4.64423C0.010819 3.40875 0.509215 2.22755 1.3867 1.35774C2.26419 0.487942 3.44973 -4.73662e-05 4.68526 3.44834e-09H163.131C163.746 3.44835e-09 164.355 0.121187 164.924 0.356643C165.492 0.592099 166.009 0.937214 166.444 1.37228C166.879 1.80735 167.224 2.32385 167.459 2.89229C167.695 3.46073 167.816 4.06998 167.816 4.68526V315.365C167.816 315.98 167.695 316.589 167.459 317.158C167.224 317.726 166.879 318.243 166.444 318.678C166.009 319.113 165.492 319.458 164.924 319.693C164.355 319.929 163.746 320.05 163.131 320.05ZM4.68526 0.164108C3.49772 0.166277 2.35944 0.638984 1.51973 1.4787C0.680011 2.31842 0.207303 3.4567 0.205134 4.64423V315.365C0.207303 316.552 0.680011 317.691 1.51973 318.53C2.35944 319.37 3.49772 319.843 4.68526 319.845H163.131C164.318 319.843 165.457 319.37 166.296 318.53C167.136 317.691 167.609 316.552 167.611 315.365V4.64423C167.609 3.4567 167.136 2.31842 166.296 1.4787C165.457 0.638984 164.318 0.166277 163.131 0.164108H4.68526Z" fill="#2a2a2a"/>
<path d="M340.615 320.05H182.17C180.927 320.05 179.735 319.556 178.857 318.678C177.978 317.799 177.484 316.607 177.484 315.365V4.64423C177.495 3.40875 177.994 2.22755 178.871 1.35774C179.749 0.487942 180.934 -4.73662e-05 182.17 3.44834e-09H340.615C341.858 3.44835e-09 343.049 0.493624 343.928 1.37228C344.807 2.25094 345.3 3.44265 345.3 4.68526V315.365C345.3 315.98 345.179 316.589 344.944 317.158C344.708 317.726 344.363 318.243 343.928 318.678C343.493 319.113 342.977 319.458 342.408 319.693C341.84 319.929 341.23 320.05 340.615 320.05ZM182.17 0.164108C180.982 0.166277 179.844 0.638984 179.004 1.4787C178.164 2.31842 177.692 3.4567 177.69 4.64423V315.365C177.692 316.552 178.164 317.691 179.004 318.53C179.844 319.37 180.982 319.843 182.17 319.845H340.615C341.803 319.843 342.941 319.37 343.781 318.53C344.62 317.691 345.093 316.552 345.095 315.365V4.64423C345.093 3.4567 344.62 2.31842 343.781 1.4787C342.941 0.638984 341.803 0.166277 340.615 0.164108H182.17Z" fill="#2a2a2a"/>
<path d="M60.2758 92.9258L61.605 95.6089L64.5754 96.0438L62.4256 98.1362L62.9343 101.09L60.2758 99.6952L57.6254 101.09L58.1342 98.1362L55.9844 96.0438L58.9547 95.6089L60.2758 92.9258Z" fill="#EBEBEB"/>
<path d="M325.846 219.477L327.175 222.168L330.146 222.603L327.996 224.687L328.505 227.649L325.846 226.254L323.196 227.649L323.704 224.687L321.555 222.603L324.525 222.168L325.846 219.477Z" fill="#F5F5F5"/>
<path d="M273.245 297.5L274.574 300.183L277.536 300.618L275.386 302.71L275.895 305.664L273.245 304.269L270.594 305.664L271.095 302.71L268.953 300.618L271.915 300.183L273.245 297.5Z" fill="#F5F5F5"/>
<path d="M152.908 45.2541L153.4 46.2551L154.508 46.4192C154.57 46.4273 154.628 46.4528 154.676 46.4928C154.724 46.5328 154.759 46.5856 154.778 46.645C154.797 46.7044 154.799 46.7679 154.783 46.8282C154.767 46.8885 154.734 46.943 154.689 46.9854L153.868 47.7649L154.057 48.8644C154.066 48.9256 154.059 48.9883 154.035 49.0456C154.012 49.1028 153.973 49.1524 153.923 49.1889C153.873 49.2254 153.813 49.2474 153.752 49.2524C153.69 49.2574 153.628 49.2452 153.573 49.2173L152.588 48.6921L151.603 49.2173C151.548 49.2452 151.486 49.2574 151.424 49.2524C151.363 49.2474 151.303 49.2254 151.253 49.1889C151.203 49.1524 151.164 49.1028 151.141 49.0456C151.117 48.9883 151.11 48.9256 151.119 48.8644L151.3 47.7649L150.479 46.9854C150.433 46.9425 150.401 46.8873 150.385 46.8264C150.37 46.7655 150.372 46.7014 150.392 46.6417C150.412 46.5821 150.448 46.5294 150.497 46.49C150.546 46.4506 150.605 46.426 150.668 46.4192L151.767 46.2551L152.26 45.2541C152.279 45.1833 152.322 45.1208 152.38 45.0764C152.439 45.0319 152.51 45.0078 152.584 45.0078C152.657 45.0078 152.729 45.0319 152.787 45.0764C152.846 45.1208 152.888 45.1833 152.908 45.2541Z" fill="#EBEBEB"/>
<path d="M17.3828 284.725L17.8752 285.718L18.9747 285.882C19.0371 285.89 19.0959 285.916 19.1442 285.957C19.1926 285.997 19.2287 286.05 19.2484 286.11C19.2681 286.17 19.2705 286.234 19.2555 286.295C19.2405 286.356 19.2086 286.412 19.1634 286.456L18.3429 287.227L18.5316 288.327C18.5413 288.388 18.5339 288.451 18.5102 288.508C18.4866 288.565 18.4475 288.615 18.3975 288.651C18.3474 288.688 18.2882 288.71 18.2265 288.715C18.1647 288.72 18.1028 288.708 18.0475 288.68L17.0628 288.163L16.0782 288.68C16.0229 288.708 15.961 288.72 15.8992 288.715C15.8375 288.71 15.7783 288.688 15.7282 288.651C15.6781 288.615 15.6391 288.565 15.6154 288.508C15.5918 288.451 15.5844 288.388 15.5941 288.327L15.7828 287.227L14.9623 286.456C14.9173 286.413 14.8852 286.358 14.8698 286.297C14.8544 286.236 14.8561 286.173 14.8749 286.113C14.8936 286.053 14.9286 286 14.9759 285.959C15.0233 285.918 15.081 285.892 15.1428 285.882L16.2423 285.718L16.7428 284.725C16.7648 284.657 16.8075 284.598 16.865 284.556C16.9225 284.515 16.9918 284.492 17.0628 284.492C17.1339 284.492 17.2032 284.515 17.2607 284.556C17.3181 284.598 17.3609 284.657 17.3828 284.725Z" fill="#F5F5F5"/>
<path d="M39.5228 34.7082L40.0151 35.7093L41.1228 35.8652C41.1846 35.875 41.2423 35.9019 41.2897 35.9428C41.337 35.9836 41.372 36.0369 41.3907 36.0965C41.4095 36.1562 41.4112 36.2199 41.3958 36.2805C41.3804 36.3411 41.3483 36.3962 41.3033 36.4396L40.4828 37.2601L40.6715 38.3514C40.6846 38.4133 40.6795 38.4778 40.6569 38.5369C40.6342 38.596 40.5949 38.6473 40.5437 38.6846C40.4926 38.7219 40.4317 38.7436 40.3685 38.7471C40.3052 38.7506 40.2424 38.7357 40.1874 38.7042L39.2028 38.1873L38.2181 38.7042C38.1632 38.7357 38.1003 38.7506 38.0371 38.7471C37.9738 38.7436 37.913 38.7219 37.8618 38.6846C37.8106 38.6473 37.7713 38.596 37.7487 38.5369C37.726 38.4778 37.7209 38.4133 37.734 38.3514L37.9145 37.2601L37.094 36.4396C37.0488 36.3956 37.0169 36.3399 37.0019 36.2787C36.9869 36.2175 36.9893 36.1533 37.009 36.0934C37.0287 36.0336 37.0648 35.9804 37.1131 35.9401C37.1615 35.8997 37.2203 35.8738 37.2827 35.8652L38.3822 35.7093L38.9074 34.7082C38.9337 34.6486 38.9768 34.5979 39.0315 34.5623C39.0861 34.5268 39.1499 34.5078 39.2151 34.5078C39.2803 34.5078 39.344 34.5268 39.3987 34.5623C39.4533 34.5979 39.4964 34.6486 39.5228 34.7082Z" fill="#EBEBEB"/>
<path d="M38.1904 232.474C38.192 232.69 38.1294 232.902 38.0105 233.082C37.8916 233.263 37.7217 233.404 37.5224 233.488C37.3232 233.572 37.1035 233.594 36.8913 233.553C36.679 233.512 36.4838 233.409 36.3304 233.257C36.1769 233.104 36.0722 232.91 36.0294 232.698C35.9866 232.486 36.0077 232.266 36.0901 232.066C36.1724 231.866 36.3123 231.695 36.492 231.575C36.6716 231.455 36.8829 231.391 37.0991 231.391C37.3871 231.391 37.6635 231.504 37.8679 231.707C38.0723 231.91 38.1882 232.186 38.1904 232.474Z" fill="#EBEBEB"/>
<path d="M193.714 95.9113C193.715 96.1274 193.653 96.3392 193.534 96.5198C193.415 96.7003 193.245 96.8415 193.046 96.9253C192.847 97.0092 192.627 97.032 192.415 96.9908C192.202 96.9496 192.007 96.8463 191.854 96.694C191.7 96.5418 191.596 96.3473 191.553 96.1354C191.51 95.9235 191.531 95.7036 191.614 95.5038C191.696 95.3039 191.836 95.1329 192.015 95.0127C192.195 94.8924 192.406 94.8282 192.623 94.8282C192.765 94.8271 192.907 94.8543 193.04 94.9082C193.172 94.9622 193.292 95.0418 193.394 95.1425C193.495 95.2432 193.576 95.3629 193.631 95.4949C193.686 95.6268 193.714 95.7683 193.714 95.9113Z" fill="#EBEBEB"/>
<path d="M137.128 35.6108C137.128 35.8267 137.064 36.0377 136.944 36.2171C136.824 36.3966 136.654 36.5365 136.454 36.6191C136.255 36.7017 136.035 36.7233 135.824 36.6812C135.612 36.6391 135.418 36.5351 135.265 36.3825C135.112 36.2299 135.008 36.0354 134.966 35.8237C134.924 35.6121 134.946 35.3926 135.028 35.1932C135.111 34.9938 135.251 34.8234 135.43 34.7034C135.61 34.5835 135.821 34.5195 136.037 34.5195C136.325 34.5217 136.602 34.6373 136.806 34.8415C137.01 35.0457 137.126 35.3221 137.128 35.6108Z" fill="#F5F5F5"/>
<path d="M138.859 301.581C142.101 300.815 144.109 297.567 143.343 294.325C142.578 291.084 139.33 289.076 136.088 289.841C132.847 290.606 130.839 293.855 131.604 297.096C132.369 300.338 135.617 302.346 138.859 301.581Z" fill="#F0F0F0"/>
<path d="M135.401 292.184C134.165 292.181 132.961 292.572 131.963 293.3C131.453 294.469 131.328 295.771 131.605 297.016C131.883 298.262 132.549 299.387 133.507 300.23C134.466 301.072 135.667 301.589 136.938 301.704C138.209 301.82 139.484 301.529 140.578 300.873C141.063 299.977 141.306 298.97 141.285 297.951C141.264 296.932 140.978 295.937 140.456 295.062C139.934 294.186 139.194 293.462 138.307 292.959C137.421 292.456 136.42 292.191 135.401 292.192V292.184Z" fill="#E6E6E6"/>
<path d="M88.6952 190.89H38.7656V168.35L88.6952 108.992H112.589V169.63H124.971V190.89H112.589V209.336H88.6952V190.89ZM88.6952 169.63V138.581L62.3068 169.63H88.6952Z" fill="#EBEBEB"/>
<path d="M133.511 159.604C133.511 140.846 136.886 127.718 143.636 120.218C150.387 112.718 160.673 108.971 174.497 108.977C181.132 108.977 186.583 109.797 190.85 111.438C194.726 112.835 198.275 115.01 201.279 117.83C203.811 120.247 205.956 123.04 207.638 126.109C209.303 129.314 210.557 132.716 211.372 136.235C213.227 143.752 214.153 151.468 214.129 159.21C214.129 177.108 211.101 190.207 205.045 198.505C198.99 206.804 188.561 210.955 173.758 210.961C165.454 210.961 158.745 209.637 153.63 206.99C148.475 204.299 144.132 200.279 141.052 195.346C138.672 191.714 136.82 186.744 135.497 180.437C134.122 173.579 133.457 166.598 133.511 159.604ZM160.703 159.669C160.703 172.251 161.811 180.831 164.027 185.409C166.242 189.988 169.461 192.288 173.684 192.31C175.024 192.325 176.354 192.074 177.597 191.571C178.839 191.068 179.969 190.324 180.921 189.381C182.967 187.428 184.472 184.343 185.434 180.125C186.397 175.908 186.879 169.343 186.879 160.432C186.879 147.337 185.768 138.532 183.547 134.019C181.326 129.506 177.995 127.253 173.553 127.258C169.024 127.258 165.742 129.558 163.707 134.159C161.672 138.759 160.671 147.263 160.703 159.669Z" fill="#EBEBEB"/>
<path d="M272.547 190.89H222.617V168.35L272.547 108.992H296.441V169.63H308.864V190.89H296.441V209.336H272.547V190.89ZM272.547 169.63V138.581L246.167 169.63H272.547Z" fill="#EBEBEB"/>
<g opacity="0.3">
<path d="M132.444 74.3586C132.444 74.6625 132.354 74.9594 132.185 75.212C132.016 75.4645 131.776 75.6611 131.495 75.777C131.214 75.8929 130.905 75.9228 130.607 75.8629C130.309 75.8031 130.036 75.6561 129.822 75.4407C129.607 75.2253 129.462 74.9511 129.403 74.6529C129.345 74.3547 129.377 74.046 129.494 73.7657C129.612 73.4855 129.81 73.2464 130.063 73.0788C130.316 72.9112 130.614 72.8226 130.918 72.8242C131.119 72.8242 131.318 72.864 131.504 72.9412C131.689 73.0184 131.858 73.1316 132 73.2741C132.142 73.4167 132.254 73.586 132.33 73.7721C132.406 73.9582 132.445 74.1575 132.444 74.3586Z" fill="#2A2A2A"/>
<path d="M27.3956 133.299C27.9938 133.299 28.4787 132.814 28.4787 132.216C28.4787 131.618 27.9938 131.133 27.3956 131.133C26.7974 131.133 26.3125 131.618 26.3125 132.216C26.3125 132.814 26.7974 133.299 27.3956 133.299Z" fill="#2A2A2A"/>
<path d="M206.34 291.473C207.196 291.473 207.891 290.778 207.891 289.922C207.891 289.065 207.196 288.371 206.34 288.371C205.483 288.371 204.789 289.065 204.789 289.922C204.789 290.778 205.483 291.473 206.34 291.473Z" fill="#2A2A2A"/>
<path d="M243.63 228.373C244.228 228.373 244.713 227.888 244.713 227.29C244.713 226.692 244.228 226.207 243.63 226.207C243.032 226.207 242.547 226.692 242.547 227.29C242.547 227.888 243.032 228.373 243.63 228.373Z" fill="#2A2A2A"/>
<path d="M315.572 33.3331C315.572 33.5473 315.509 33.7567 315.39 33.9348C315.271 34.113 315.102 34.2518 314.904 34.3338C314.706 34.4157 314.488 34.4372 314.278 34.3954C314.068 34.3536 313.875 34.2505 313.723 34.099C313.572 33.9475 313.469 33.7545 313.427 33.5444C313.385 33.3343 313.407 33.1165 313.489 32.9186C313.571 32.7207 313.709 32.5515 313.888 32.4325C314.066 32.3135 314.275 32.25 314.489 32.25C314.777 32.25 315.052 32.3641 315.255 32.5672C315.458 32.7704 315.572 33.0458 315.572 33.3331Z" fill="#2A2A2A"/>
<path d="M109.268 11.4894C109.268 11.7036 109.204 11.913 109.085 12.0911C108.966 12.2692 108.797 12.408 108.599 12.49C108.401 12.572 108.183 12.5934 107.973 12.5517C107.763 12.5099 107.57 12.4067 107.419 12.2552C107.267 12.1038 107.164 11.9108 107.122 11.7007C107.081 11.4906 107.102 11.2728 107.184 11.0749C107.266 10.877 107.405 10.7078 107.583 10.5888C107.761 10.4698 107.97 10.4063 108.185 10.4062C108.471 10.4084 108.746 10.5232 108.948 10.7259C109.151 10.9285 109.266 11.2028 109.268 11.4894Z" fill="#2A2A2A"/>
<path d="M195.38 68.3225C195.978 68.3225 196.463 67.8375 196.463 67.2394C196.463 66.6412 195.978 66.1562 195.38 66.1562C194.782 66.1562 194.297 66.6412 194.297 67.2394C194.297 67.8375 194.782 68.3225 195.38 68.3225Z" fill="#2A2A2A"/>
</g>
<path d="M83.3998 68.327C93.3288 68.327 101.378 60.278 101.378 50.349C101.378 40.4201 93.3288 32.3711 83.3998 32.3711C73.4709 32.3711 65.4219 40.4201 65.4219 50.349C65.4219 60.278 73.4709 68.327 83.3998 68.327Z" fill="#2A2A2A"/>
<path opacity="0.7" d="M83.3998 68.327C93.3288 68.327 101.378 60.278 101.378 50.349C101.378 40.4201 93.3288 32.3711 83.3998 32.3711C73.4709 32.3711 65.4219 40.4201 65.4219 50.349C65.4219 60.278 73.4709 68.327 83.3998 68.327Z" fill="white"/>
<path opacity="0.2" d="M77.2111 36.7852C74.7627 36.7777 72.3388 37.272 70.0888 38.2376C67.3236 41.2768 65.6823 45.1711 65.4381 49.2728C65.1938 53.3744 66.3613 57.436 68.7463 60.7819C71.1313 64.1278 74.59 66.5562 78.5469 67.6631C82.5039 68.7701 86.7206 68.4888 90.4955 66.8661C92.836 64.2868 94.3772 61.0835 94.9321 57.6452C95.487 54.2069 95.0317 50.6814 93.6214 47.4968C92.2112 44.3122 89.9067 41.6056 86.9878 39.7056C84.0689 37.8056 80.6611 36.7939 77.1782 36.7934L77.2111 36.7852Z" fill="#2A2A2A"/>
<path opacity="0.2" d="M75.4228 41.5395C75.4228 41.8641 75.3265 42.1814 75.1462 42.4512C74.9659 42.7211 74.7096 42.9314 74.4097 43.0557C74.1098 43.1799 73.7799 43.2124 73.4615 43.149C73.1432 43.0857 72.8508 42.9294 72.6213 42.6999C72.3918 42.4704 72.2355 42.178 72.1722 41.8597C72.1088 41.5413 72.1413 41.2114 72.2655 40.9115C72.3898 40.6116 72.6001 40.3553 72.87 40.175C73.1398 39.9947 73.4571 39.8984 73.7817 39.8984C74.2169 39.8984 74.6344 40.0713 74.9421 40.3791C75.2499 40.6869 75.4228 41.1043 75.4228 41.5395Z" fill="#2A2A2A"/>
<path opacity="0.2" d="M94.7509 39.895C94.7509 40.2196 94.6547 40.5368 94.4743 40.8067C94.294 41.0766 94.0377 41.2869 93.7378 41.4111C93.438 41.5353 93.108 41.5678 92.7897 41.5045C92.4713 41.4412 92.1789 41.2849 91.9494 41.0554C91.7199 40.8259 91.5636 40.5335 91.5003 40.2151C91.437 39.8968 91.4695 39.5668 91.5937 39.267C91.7179 38.9671 91.9282 38.7108 92.1981 38.5305C92.468 38.3502 92.7852 38.2539 93.1098 38.2539C93.5451 38.2539 93.9625 38.4268 94.2702 38.7346C94.578 39.0423 94.7509 39.4597 94.7509 39.895Z" fill="#2A2A2A"/>
<path opacity="0.2" d="M91.4687 51.6132C91.4687 52.1455 91.3108 52.6659 91.0151 53.1085C90.7193 53.5511 90.299 53.896 89.8072 54.0997C89.3155 54.3034 88.7743 54.3567 88.2522 54.2529C87.7302 54.149 87.2506 53.8927 86.8742 53.5163C86.4978 53.1399 86.2415 52.6604 86.1377 52.1383C86.0338 51.6162 86.0871 51.0751 86.2908 50.5833C86.4945 50.0915 86.8395 49.6712 87.2821 49.3755C87.7247 49.0797 88.245 48.9219 88.7773 48.9219C89.4911 48.9219 90.1756 49.2054 90.6804 49.7102C91.1851 50.2149 91.4687 50.8994 91.4687 51.6132Z" fill="#2A2A2A"/>
<path opacity="0.2" d="M82.9223 59.2854C82.9223 59.9962 82.7115 60.691 82.3166 61.282C81.9217 61.8731 81.3604 62.3337 80.7037 62.6057C80.047 62.8777 79.3243 62.9489 78.6272 62.8102C77.93 62.6716 77.2896 62.3293 76.787 61.8267C76.2844 61.324 75.9421 60.6837 75.8034 59.9865C75.6648 59.2893 75.7359 58.5667 76.008 57.91C76.28 57.2533 76.7406 56.692 77.3316 56.2971C77.9227 55.9022 78.6175 55.6914 79.3283 55.6914C80.2815 55.6914 81.1956 56.07 81.8696 56.744C82.5436 57.418 82.9223 58.3322 82.9223 59.2854Z" fill="#2A2A2A"/>
<path d="M296.471 267.205C298.473 258.723 293.22 250.225 284.739 248.223C276.258 246.221 267.759 251.474 265.757 259.956C263.756 268.437 269.008 276.935 277.49 278.937C285.971 280.939 294.47 275.686 296.471 267.205Z" fill="#2A2A2A"/>
<path opacity="0.3" d="M296.471 267.205C298.473 258.723 293.22 250.225 284.739 248.223C276.258 246.221 267.759 251.474 265.757 259.956C263.756 268.437 269.008 276.935 277.49 278.937C285.971 280.939 294.47 275.686 296.471 267.205Z" fill="white"/>
<path opacity="0.4" d="M291.085 251.364C287.588 250.308 283.832 250.5 280.459 251.906C277.087 253.312 274.308 255.845 272.596 259.073C270.884 262.301 270.346 266.023 271.074 269.604C271.802 273.184 273.75 276.401 276.587 278.704C278.058 279.151 279.587 279.378 281.124 279.377C284.382 279.376 287.559 278.368 290.22 276.489C292.882 274.61 294.896 271.954 295.988 268.885C297.079 265.816 297.194 262.484 296.316 259.347C295.438 256.21 293.611 253.421 291.085 251.364Z" fill="#2A2A2A"/>
<path d="M266.056 268.318C249.21 276.245 261.773 282.358 285.511 273.824C307.493 265.922 315.871 255.961 296.178 259.054C297.236 263.198 269.707 273.923 266.056 268.318Z" fill="#2A2A2A"/>
<path opacity="0.2" d="M290.89 108.992C268.826 123.901 240.263 143.594 232.377 190.89H230.695C238.367 144.119 265.888 123.959 287.961 108.992H290.89Z" fill="black"/>
<path d="M176.752 257.049C162.803 257.049 149.01 250.755 142.29 240.482C138.146 234.131 133.329 220.83 147.672 203.082L148.944 204.116C138.802 216.67 136.932 229.266 143.668 239.588C151.874 252.142 171.23 258.46 187.756 253.964C204.683 249.36 214.956 234.64 215.949 213.577C219.338 141.526 257.616 119.33 285.563 103.125C302.934 93.0566 315.48 85.7866 312.723 70.4344C312.338 68.3092 311.492 66.8405 310.122 65.9379C306.553 63.5829 299.578 65.2158 291.504 67.0948C275.66 70.7873 253.965 75.8418 241.041 53.8596L242.461 53.0391C254.769 73.9873 274.929 69.2857 291.135 65.5112C299.578 63.5501 306.865 61.8516 311.025 64.584C312.789 65.741 313.872 67.5707 314.307 70.1636C317.269 86.64 303.64 94.55 286.368 104.561C258.74 120.577 220.913 142.51 217.566 213.692C216.532 235.518 205.816 250.788 188.158 255.588C184.437 256.579 180.602 257.07 176.752 257.049Z" fill="#2A2A2A"/>
<path opacity="0.2" d="M176.752 257.049C162.803 257.049 149.01 250.755 142.29 240.482C138.146 234.131 133.329 220.83 147.672 203.082L148.944 204.116C138.802 216.67 136.932 229.266 143.668 239.588C151.874 252.142 171.23 258.46 187.756 253.964C204.683 249.36 214.956 234.64 215.949 213.577C219.338 141.526 257.616 119.33 285.563 103.125C302.934 93.0566 315.48 85.7866 312.723 70.4344C312.338 68.3092 311.492 66.8405 310.122 65.9379C306.553 63.5829 299.578 65.2158 291.504 67.0948C275.66 70.7873 253.965 75.8418 241.041 53.8596L242.461 53.0391C254.769 73.9873 274.929 69.2857 291.135 65.5112C299.578 63.5501 306.865 61.8516 311.025 64.584C312.789 65.741 313.872 67.5707 314.307 70.1636C317.269 86.64 303.64 94.55 286.368 104.561C258.74 120.577 220.913 142.51 217.566 213.692C216.532 235.518 205.816 250.788 188.158 255.588C184.437 256.579 180.602 257.07 176.752 257.049Z" fill="white"/>
<path d="M224.148 34.4648C227.929 34.4867 231.685 35.0758 235.291 36.2126C235.291 36.2126 244.317 51.614 245.384 55.1423C245.006 58.6214 239.14 64.3241 239.14 64.3241L224.148 34.4648Z" fill="#2A2A2A"/>
<path opacity="0.3" d="M224.148 34.4648C227.929 34.4867 231.685 35.0758 235.291 36.2126C235.291 36.2126 244.317 51.614 245.384 55.1423C245.006 58.6214 239.14 64.3241 239.14 64.3241L224.148 34.4648Z" fill="white"/>
<path d="M250.886 109.24C247.41 104.99 244.24 100.499 241.4 95.8C240.711 94.6129 240.057 93.404 239.439 92.1732C239.086 91.4757 238.75 90.7783 238.422 90.0726C237.991 89.3859 237.657 88.6432 237.429 87.8654C236.444 77.4692 240.005 69.8136 236.608 61.4688L223.086 66.753C223.086 66.753 224.235 81.6211 226.86 90.5485C228.501 96.0707 232.177 100.846 235.73 105.269C236.838 106.647 237.905 108.067 239.013 109.454C240.12 110.84 241.236 111.965 242.295 113.269C243.895 115.247 244.42 117.142 243.214 119.472L243.009 119.842C242.664 120.449 244.272 121.138 245.29 119.842C246.931 117.725 246.701 117.856 248.129 116.051C248.998 114.959 249.991 113.77 250.853 112.769C251.268 112.276 251.499 111.655 251.505 111.01C251.511 110.366 251.292 109.74 250.886 109.24Z" fill="#2A2A2A"/>
<path opacity="0.7" d="M250.886 109.24C247.41 104.99 244.24 100.499 241.4 95.8C240.711 94.6129 240.057 93.404 239.439 92.1732C239.086 91.4757 238.75 90.7783 238.422 90.0726C237.991 89.3859 237.657 88.6432 237.429 87.8654C236.444 77.4692 240.005 69.8136 236.608 61.4688L223.086 66.753C223.086 66.753 224.235 81.6211 226.86 90.5485C228.501 96.0707 232.177 100.846 235.73 105.269C236.838 106.647 237.905 108.067 239.013 109.454C240.12 110.84 241.236 111.965 242.295 113.269C243.895 115.247 244.42 117.142 243.214 119.472L243.009 119.842C242.664 120.449 244.272 121.138 245.29 119.842C246.931 117.725 246.701 117.856 248.129 116.051C248.998 114.959 249.991 113.77 250.853 112.769C251.268 112.276 251.499 111.655 251.505 111.01C251.511 110.366 251.292 109.74 250.886 109.24Z" fill="white"/>
<path opacity="0.3" d="M247.575 104.961C245.429 107.261 243.047 109.329 240.469 111.131C240.822 111.525 241.166 111.952 241.519 112.329C244.1 110.585 246.445 108.514 248.494 106.167L247.575 104.961Z" fill="#2A2A2A"/>
<path opacity="0.3" d="M250.88 109.236L250.782 109.121C250.15 109.845 249.783 110.762 249.74 111.722C249.687 112.381 249.794 113.042 250.051 113.65L250.831 112.723C251.238 112.236 251.466 111.623 251.475 110.988C251.484 110.353 251.274 109.734 250.88 109.236Z" fill="#2A2A2A"/>
<path d="M220.927 44.3082C219.461 46.5032 217.702 48.4881 215.7 50.2079C214.589 51.1649 213.373 51.9909 212.073 52.6695C211.39 53.0193 210.683 53.3182 209.956 53.5638L209.398 53.7444L209.218 53.7936L208.832 53.9003C208.595 53.9566 208.353 53.995 208.11 54.0151C207.418 54.0681 206.721 54.0043 206.05 53.8264C205.204 53.5862 204.393 53.2359 203.638 52.7843C203.03 52.4292 202.442 52.043 201.874 51.6274C200.848 50.8643 199.867 50.0424 198.936 49.1658C197.141 47.4652 195.494 45.615 194.013 43.6354C193.728 43.2497 193.586 42.7766 193.612 42.2976C193.639 41.8186 193.832 41.3638 194.157 41.0118C194.483 40.6597 194.922 40.4324 195.397 40.3691C195.873 40.3058 196.355 40.4105 196.762 40.665H196.828C198.764 41.8958 200.717 43.1923 202.621 44.3492C203.589 44.9154 204.524 45.4898 205.451 45.9329C205.875 46.1545 206.31 46.3517 206.756 46.5236C207.034 46.6463 207.331 46.7185 207.634 46.737C207.683 46.737 207.634 46.6796 207.33 46.6878C207.235 46.682 207.139 46.682 207.043 46.6878L206.863 46.7288L207.133 46.5893C207.498 46.3931 207.852 46.1767 208.192 45.9411C208.926 45.4234 209.613 44.8413 210.243 44.2015C211.677 42.6993 213.019 41.1128 214.264 39.4506C214.946 38.6878 215.888 38.2072 216.906 38.1033C217.924 37.9993 218.944 38.2795 219.766 38.8888C220.588 39.4981 221.153 40.3926 221.349 41.3967C221.546 42.4008 221.36 43.4422 220.828 44.3164L220.927 44.3082Z" fill="#2A2A2A"/>
<path opacity="0.7" d="M220.927 44.3082C219.461 46.5032 217.702 48.4881 215.7 50.2079C214.589 51.1649 213.373 51.9909 212.073 52.6695C211.39 53.0193 210.683 53.3182 209.956 53.5638L209.398 53.7444L209.218 53.7936L208.832 53.9003C208.595 53.9566 208.353 53.995 208.11 54.0151C207.418 54.0681 206.721 54.0043 206.05 53.8264C205.204 53.5862 204.393 53.2359 203.638 52.7843C203.03 52.4292 202.442 52.043 201.874 51.6274C200.848 50.8643 199.867 50.0424 198.936 49.1658C197.141 47.4652 195.494 45.615 194.013 43.6354C193.728 43.2497 193.586 42.7766 193.612 42.2976C193.639 41.8186 193.832 41.3638 194.157 41.0118C194.483 40.6597 194.922 40.4324 195.397 40.3691C195.873 40.3058 196.355 40.4105 196.762 40.665H196.828C198.764 41.8958 200.717 43.1923 202.621 44.3492C203.589 44.9154 204.524 45.4898 205.451 45.9329C205.875 46.1545 206.31 46.3517 206.756 46.5236C207.034 46.6463 207.331 46.7185 207.634 46.737C207.683 46.737 207.634 46.6796 207.33 46.6878C207.235 46.682 207.139 46.682 207.043 46.6878L206.863 46.7288L207.133 46.5893C207.498 46.3931 207.852 46.1767 208.192 45.9411C208.926 45.4234 209.613 44.8413 210.243 44.2015C211.677 42.6993 213.019 41.1128 214.264 39.4506C214.946 38.6878 215.888 38.2072 216.906 38.1033C217.924 37.9993 218.944 38.2795 219.766 38.8888C220.588 39.4981 221.153 40.3926 221.349 41.3967C221.546 42.4008 221.36 43.4422 220.828 44.3164L220.927 44.3082Z" fill="white"/>
<path d="M190.938 38.9114L191.898 40.5524C191.898 40.5524 192.628 42.7022 194.097 43.0961L198.085 41.8079L197.88 41.4714C197.371 40.7001 197.428 39.1986 197.601 37.9513C197.773 36.7041 197.133 36.6631 196.657 36.9749C196.32 37.3628 196.083 37.8278 195.968 38.3288C195.772 38.0578 195.555 37.8027 195.319 37.5657L194.105 36.3513C193.85 36.1023 193.511 35.9588 193.155 35.9497C192.799 35.9406 192.452 36.0664 192.185 36.3021L191.2 37.18C190.967 37.3961 190.814 37.6851 190.766 37.9997C190.718 38.3143 190.779 38.6358 190.938 38.9114Z" fill="#2A2A2A"/>
<path opacity="0.7" d="M190.938 38.9114L191.898 40.5524C191.898 40.5524 192.628 42.7022 194.097 43.0961L198.085 41.8079L197.88 41.4714C197.371 40.7001 197.428 39.1986 197.601 37.9513C197.773 36.7041 197.133 36.6631 196.657 36.9749C196.32 37.3628 196.083 37.8278 195.968 38.3288C195.772 38.0578 195.555 37.8027 195.319 37.5657L194.105 36.3513C193.85 36.1023 193.511 35.9588 193.155 35.9497C192.799 35.9406 192.452 36.0664 192.185 36.3021L191.2 37.18C190.967 37.3961 190.814 37.6851 190.766 37.9997C190.718 38.3143 190.779 38.6358 190.938 38.9114Z" fill="white"/>
<path d="M228.173 33.0013C223.75 34.1737 219.513 35.9608 215.586 38.3102C214.973 38.6936 214.493 39.2551 214.208 39.9194C213.924 40.5838 213.849 41.3192 213.994 42.0272C215.578 49.7731 219.18 60.1446 223.069 66.7499L241.211 59.242C241.334 56.0419 236.928 45.6868 232.44 35.6762C231.636 33.8793 230.085 32.5418 228.173 33.0013Z" fill="#2A2A2A"/>
<path opacity="0.8" d="M228.173 33.0013C223.75 34.1737 219.513 35.9608 215.586 38.3102C214.973 38.6936 214.493 39.2551 214.208 39.9194C213.924 40.5838 213.849 41.3192 213.994 42.0272C215.578 49.7731 219.18 60.1446 223.069 66.7499L241.211 59.242C241.334 56.0419 236.928 45.6868 232.44 35.6762C231.636 33.8793 230.085 32.5418 228.173 33.0013Z" fill="white"/>
<path opacity="0.3" d="M235.258 42.0187L231.656 40.8125C232.477 42.9213 235.373 45.588 237.4 47.1552C236.744 45.5142 236.013 43.791 235.258 42.0187Z" fill="#2A2A2A"/>
<path d="M226.987 24.8787C225.485 22.0232 222.244 20.5873 218.354 20.9073C215.072 21.1863 212.168 24.534 212.512 26.3392C212.857 28.1444 215.614 28.9157 216.139 29.5393L213.866 31.1804C213.597 31.3747 213.37 31.6215 213.198 31.906C213.027 32.1904 212.915 32.5065 212.869 32.8354C212.823 33.1643 212.844 33.499 212.931 33.8195C213.018 34.1401 213.168 34.4397 213.374 34.7005C214.334 35.9149 215.597 37.1621 216.328 38.0811C222.613 37.917 227.265 35.521 228.948 33.2153C228.316 30.2942 228.447 27.7177 226.987 24.8787Z" fill="#2A2A2A"/>
<path opacity="0.8" d="M226.987 24.8787C225.485 22.0232 222.244 20.5873 218.354 20.9073C215.072 21.1863 212.168 24.534 212.512 26.3392C212.857 28.1444 215.614 28.9157 216.139 29.5393L213.866 31.1804C213.597 31.3747 213.37 31.6215 213.198 31.906C213.027 32.1904 212.915 32.5065 212.869 32.8354C212.823 33.1643 212.844 33.499 212.931 33.8195C213.018 34.1401 213.168 34.4397 213.374 34.7005C214.334 35.9149 215.597 37.1621 216.328 38.0811C222.613 37.917 227.265 35.521 228.948 33.2153C228.316 30.2942 228.447 27.7177 226.987 24.8787Z" fill="white"/>
<path d="M223.897 26.6518C224.343 27.7961 224.44 29.047 224.176 30.2464C223.911 31.4458 223.297 32.5398 222.41 33.3902C221.524 34.2406 220.406 34.8091 219.196 35.024C217.987 35.2388 216.741 35.0903 215.616 34.5972C214.491 34.1041 213.538 33.2886 212.876 32.2537C212.215 31.2188 211.875 30.0111 211.9 28.7831C211.924 27.5551 212.313 26.362 213.015 25.3546C213.718 24.3473 214.704 23.5708 215.848 23.1235C217.383 22.5253 219.093 22.5609 220.602 23.2224C222.111 23.8839 223.296 25.1173 223.897 26.6518Z" fill="#263238"/>
<path d="M277.178 100.597C277.088 97.8976 276.965 98.1356 276.891 95.8627C276.842 94.4678 276.833 92.917 276.825 91.5795C276.822 90.9444 276.601 90.3296 276.197 89.8393C275.793 89.3489 275.233 89.0129 274.61 88.8882C273.527 88.6666 272.435 88.4615 271.328 88.2317C269.908 87.9281 268.505 87.5999 267.118 87.1979C266.035 86.8861 264.968 86.5414 263.91 86.1558C262.851 85.7701 261.662 85.3352 260.562 84.8265C259.266 84.2767 257.986 83.686 256.722 83.0706C255.303 82.3977 253.899 81.6921 252.496 80.9782C247.097 72.0426 246.982 66.1511 241.189 59.2422L228.75 64.8711C228.75 64.8711 237.891 81.0849 244.11 87.9609C247.696 91.9159 253.317 93.7047 258.33 95.0011C261.949 95.9284 265.617 96.6422 269.284 97.3233C270.712 97.5858 272.263 97.6843 273.494 98.5377C274.404 99.2359 275.029 100.242 275.25 101.369C275.304 101.598 275.354 101.828 275.397 102.058C275.553 102.747 277.235 102.222 277.178 100.597Z" fill="#2A2A2A"/>
<path opacity="0.8" d="M277.178 100.597C277.088 97.8976 276.965 98.1356 276.891 95.8627C276.842 94.4678 276.833 92.917 276.825 91.5795C276.822 90.9444 276.601 90.3296 276.197 89.8393C275.793 89.3489 275.233 89.0129 274.61 88.8882C273.527 88.6666 272.435 88.4615 271.328 88.2317C269.908 87.9281 268.505 87.5999 267.118 87.1979C266.035 86.8861 264.968 86.5414 263.91 86.1558C262.851 85.7701 261.662 85.3352 260.562 84.8265C259.266 84.2767 257.986 83.686 256.722 83.0706C255.303 82.3977 253.899 81.6921 252.496 80.9782C247.097 72.0426 246.982 66.1511 241.189 59.2422L228.75 64.8711C228.75 64.8711 237.891 81.0849 244.11 87.9609C247.696 91.9159 253.317 93.7047 258.33 95.0011C261.949 95.9284 265.617 96.6422 269.284 97.3233C270.712 97.5858 272.263 97.6843 273.494 98.5377C274.404 99.2359 275.029 100.242 275.25 101.369C275.304 101.598 275.354 101.828 275.397 102.058C275.553 102.747 277.235 102.222 277.178 100.597Z" fill="white"/>
<path opacity="0.3" d="M270.867 88.1255C270.375 88.0188 269.882 87.9121 269.382 87.7891C269.423 90.6281 268.093 95.5185 267.609 97.0037L269.168 97.2991C270.19 94.3433 270.763 91.2511 270.867 88.1255Z" fill="#2A2A2A"/>
<path opacity="0.3" d="M276.856 91.5816C276.854 90.9476 276.633 90.3338 276.231 89.8436C275.829 89.3534 275.27 89.0167 274.649 88.8903L273.828 88.7344C273.96 89.6672 274.437 90.5164 275.166 91.1139C275.634 91.547 276.195 91.8669 276.807 92.0493C276.856 91.9016 276.856 91.7375 276.856 91.5816Z" fill="#2A2A2A"/>
<path d="M222.747 26.699C223.075 27.9463 221.68 29.2509 220.572 28.176C219.538 27.0675 218.407 26.0542 217.192 25.1482C216.051 24.4344 217.569 23.1871 219.366 23.6713C220.133 23.8639 220.841 24.2402 221.43 24.7677C222.019 25.2952 222.471 25.958 222.747 26.699Z" fill="white"/>
<path d="M222.836 66.3475C222.261 66.5609 223.312 67.5455 223.312 67.5455C223.312 67.5455 234.799 63.6151 241.774 59.5699C241.791 59.325 241.749 59.0796 241.652 58.8541C241.555 58.6286 241.405 58.4295 241.216 58.2734C235.247 61.3099 229.11 64.0056 222.836 66.3475Z" fill="#2A2A2A"/>
<path opacity="0.5" d="M222.836 66.3475C222.261 66.5609 223.312 67.5455 223.312 67.5455C223.312 67.5455 234.799 63.6151 241.774 59.5699C241.791 59.325 241.749 59.0796 241.652 58.8541C241.555 58.6286 241.405 58.4295 241.216 58.2734C235.247 61.3099 229.11 64.0056 222.836 66.3475Z" fill="white"/>
<path d="M231.287 32.4609C233.552 33.6097 235.677 34.8158 237.851 36.1533C238.91 36.8262 239.96 37.5072 241.002 38.2457C242.044 38.9842 243.078 39.7391 244.12 40.5924L244.506 40.9124L244.99 41.3555C245.278 41.6136 245.552 41.8876 245.81 42.1761C246.073 42.4632 246.295 42.7422 246.508 42.9966C246.721 43.251 246.951 43.5546 247.14 43.8171C247.904 44.872 248.611 45.9677 249.257 47.0993C250.528 49.2937 251.626 51.5845 252.539 53.9507C252.708 54.3978 252.716 54.8895 252.564 55.3423C252.411 55.7951 252.106 56.1809 251.701 56.4343C251.295 56.6877 250.815 56.7929 250.341 56.732C249.867 56.6712 249.429 56.448 249.101 56.1006L249.06 56.0513C247.419 54.3036 245.835 52.4656 244.243 50.7507C242.651 49.0357 241.035 47.2962 239.697 46.5331C237.835 45.3761 235.759 44.2192 233.699 43.0869L227.496 39.6406C226.534 39.1314 225.814 38.2609 225.494 37.2207C225.174 36.1804 225.28 35.0557 225.789 34.0938C226.299 33.1319 227.169 32.4117 228.209 32.0916C229.25 31.7716 230.374 31.8778 231.336 32.3871L231.287 32.4609Z" fill="#2A2A2A"/>
<path opacity="0.8" d="M231.287 32.4609C233.552 33.6097 235.677 34.8158 237.851 36.1533C238.91 36.8262 239.96 37.5072 241.002 38.2457C242.044 38.9842 243.078 39.7391 244.12 40.5924L244.506 40.9124L244.99 41.3555C245.278 41.6136 245.552 41.8876 245.81 42.1761C246.073 42.4632 246.295 42.7422 246.508 42.9966C246.721 43.251 246.951 43.5546 247.14 43.8171C247.904 44.872 248.611 45.9677 249.257 47.0993C250.528 49.2937 251.626 51.5845 252.539 53.9507C252.708 54.3978 252.716 54.8895 252.564 55.3423C252.411 55.7951 252.106 56.1809 251.701 56.4343C251.295 56.6877 250.815 56.7929 250.341 56.732C249.867 56.6712 249.429 56.448 249.101 56.1006L249.06 56.0513C247.419 54.3036 245.835 52.4656 244.243 50.7507C242.651 49.0357 241.035 47.2962 239.697 46.5331C237.835 45.3761 235.759 44.2192 233.699 43.0869L227.496 39.6406C226.534 39.1314 225.814 38.2609 225.494 37.2207C225.174 36.1804 225.28 35.0557 225.789 34.0938C226.299 33.1319 227.169 32.4117 228.209 32.0916C229.25 31.7716 230.374 31.8778 231.336 32.3871L231.287 32.4609Z" fill="white"/>
<path d="M254.48 58.0446L253.782 56.2969C253.782 56.2969 253.397 54.065 252.01 53.4414L247.907 54.0896L248.047 54.4507C248.424 55.2712 248.137 56.7728 247.768 57.9708C247.398 59.1687 248.022 59.3247 248.547 59.0867C248.843 58.9554 249.13 58.4221 249.442 57.8559C249.594 58.1411 249.767 58.4153 249.958 58.6764L250.968 60.0631C251.179 60.3505 251.49 60.5474 251.84 60.6144C252.19 60.6814 252.553 60.6134 252.855 60.4242L253.971 59.7103C254.232 59.5316 254.425 59.2693 254.517 58.9666C254.61 58.6639 254.596 58.3388 254.48 58.0446Z" fill="#2A2A2A"/>
<path opacity="0.8" d="M254.48 58.0446L253.782 56.2969C253.782 56.2969 253.397 54.065 252.01 53.4414L247.907 54.0896L248.047 54.4507C248.424 55.2712 248.137 56.7728 247.768 57.9708C247.398 59.1687 248.022 59.3247 248.547 59.0867C248.843 58.9554 249.13 58.4221 249.442 57.8559C249.594 58.1411 249.767 58.4153 249.958 58.6764L250.968 60.0631C251.179 60.3505 251.49 60.5474 251.84 60.6144C252.19 60.6814 252.553 60.6134 252.855 60.4242L253.971 59.7103C254.232 59.5316 254.425 59.2693 254.517 58.9666C254.61 58.6639 254.596 58.3388 254.48 58.0446Z" fill="white"/>
<path opacity="0.3" d="M227.827 41.8984L226.825 41.9805L220.68 56.8158C221.016 56.84 221.353 56.8123 221.681 56.7337C221.681 56.7337 229.689 53.747 232.11 52.631C230.485 49.2751 227.827 41.8984 227.827 41.8984Z" fill="#2A2A2A"/>
<path d="M216.609 45.7878C217.356 49.6658 218.743 53.3926 220.712 56.8158C223.715 55.7819 228.72 53.829 231.149 52.7131C229.517 49.2134 228.068 45.631 226.809 41.9805C224.24 42.1528 218.603 44.3108 216.609 45.7878Z" fill="white"/>
<path opacity="0.3" d="M222.7 48.9929C222.58 49.3941 222.344 49.7508 222.021 50.0177C221.698 50.2847 221.304 50.4499 220.887 50.4925C220.47 50.5351 220.051 50.4532 219.68 50.2571C219.31 50.061 219.007 49.7595 218.808 49.3909C218.609 49.0222 218.525 48.6029 218.564 48.1859C218.604 47.769 218.766 47.3732 219.031 47.0487C219.296 46.7241 219.651 46.4853 220.051 46.3625C220.451 46.2398 220.879 46.2385 221.28 46.3589C221.818 46.5203 222.269 46.8883 222.535 47.3822C222.801 47.876 222.861 48.4553 222.7 48.9929Z" fill="#2A2A2A"/>
<path opacity="0.6" d="M224.275 46.1685C224.243 46.3055 224.17 46.4296 224.067 46.5245C223.963 46.6195 223.833 46.6808 223.694 46.7005C223.554 46.7202 223.412 46.6974 223.286 46.635C223.16 46.5725 223.056 46.4735 222.987 46.3507C222.919 46.228 222.889 46.0874 222.901 45.9473C222.914 45.8072 222.969 45.6742 223.058 45.5658C223.148 45.4574 223.268 45.3785 223.403 45.3397C223.538 45.3008 223.682 45.3037 223.816 45.348C223.982 45.4012 224.122 45.5154 224.207 45.6677C224.292 45.82 224.317 45.999 224.275 46.1685Z" fill="#2A2A2A"/>
<path opacity="0.6" d="M226.108 45.4582C226.088 45.5534 226.049 45.6435 225.993 45.7228C225.937 45.802 225.865 45.8687 225.782 45.9185C225.698 45.9684 225.606 46.0002 225.509 46.0121C225.413 46.024 225.315 46.0156 225.222 45.9874C225.129 45.9593 225.043 45.9121 224.969 45.8488C224.896 45.7855 224.836 45.7075 224.794 45.6199C224.753 45.5322 224.73 45.4368 224.727 45.3397C224.724 45.2426 224.742 45.146 224.778 45.0561C224.805 44.9693 224.848 44.8885 224.905 44.8184C224.963 44.7483 225.034 44.6902 225.114 44.6475C225.194 44.6048 225.281 44.5783 225.372 44.5696C225.462 44.5609 225.553 44.5701 225.64 44.5966C225.816 44.6498 225.963 44.7701 226.051 44.9314C226.138 45.0926 226.159 45.2819 226.108 45.4582Z" fill="#2A2A2A"/>
<path opacity="0.5" d="M228.69 51.8527L221.1 54.8477L220.648 53.3543L228.23 50.3594L228.69 51.8527Z" fill="#2A2A2A"/>
<path opacity="0.2" d="M186.8 165.886C186.783 170.664 186.321 175.429 185.422 180.122C184.454 184.34 182.949 187.425 180.909 189.378C179.958 190.321 178.83 191.066 177.589 191.569C176.348 192.072 175.019 192.323 173.68 192.307C169.462 192.307 166.243 190.007 164.022 185.406C163.632 184.58 163.3 183.727 163.029 182.854C158.339 186.883 153.971 191.272 149.966 195.983L145.609 201.119C147.954 203.496 150.66 205.487 153.626 207.019C158.735 209.661 165.442 210.985 173.746 210.991C175.206 210.991 176.617 210.95 177.988 210.867C183.012 203.434 187.169 195.45 190.378 187.072L202.563 155.301L186.8 165.886Z" fill="black"/>
<path d="M76.9609 209.237L91.3203 223.597L131.527 185.712C117.668 180.42 90.7213 195.444 76.9609 209.237Z" fill="#263238"/>
<path d="M127.039 259.288C122.452 254.693 112.68 244.929 112.68 244.929L150.564 204.723C155.823 218.549 140.799 245.52 127.039 259.288Z" fill="#263238"/>
<path d="M181.998 168.782L197.662 138.578L167.458 154.259C157.757 159.29 148.799 165.641 140.84 173.131L89.3516 221.6L114.649 246.897L163.118 195.408C170.611 187.448 176.965 178.487 181.998 168.782Z" fill="#2A2A2A"/>
<path opacity="0.6" d="M181.998 168.782L197.662 138.578L167.458 154.259C157.757 159.29 148.799 165.641 140.84 173.131L89.3516 221.6L114.649 246.897L163.118 195.408C170.611 187.448 176.965 178.487 181.998 168.782Z" fill="white"/>
<path d="M149.835 196.994C155.681 196.994 160.42 192.255 160.42 186.409C160.42 180.563 155.681 175.824 149.835 175.824C143.989 175.824 139.25 180.563 139.25 186.409C139.25 192.255 143.989 196.994 149.835 196.994Z" fill="white"/>
<path d="M149.833 193.21C153.59 193.21 156.636 190.164 156.636 186.408C156.636 182.651 153.59 179.605 149.833 179.605C146.077 179.605 143.031 182.651 143.031 186.408C143.031 190.164 146.077 193.21 149.833 193.21Z" fill="#2A2A2A"/>
<path opacity="0.3" d="M123.209 237.807L98.4375 213.035L118.721 193.949L142.295 217.531L123.209 237.807Z" fill="#2A2A2A"/>
<path d="M82.5658 231.898C64.0217 233.4 57.8758 245.273 55.7753 261.052C54.7086 269.102 54.2327 277.249 47.4796 281.959C47.0734 282.235 46.7675 282.636 46.6078 283.1C46.4481 283.565 46.4432 284.069 46.5939 284.536C46.7445 285.004 47.0425 285.41 47.4433 285.694C47.8441 285.978 48.3261 286.124 48.8171 286.111C73.7122 285.332 85.3228 273.147 86.7833 268.059C86.4 270.719 85.7145 273.326 84.7402 275.83C84.5611 276.272 84.526 276.759 84.64 277.222C84.7539 277.685 85.0111 278.1 85.3748 278.408C85.7385 278.717 86.1903 278.902 86.6657 278.939C87.141 278.975 87.6158 278.861 88.0223 278.612C95.0051 274.238 103.768 266.18 104.351 253.109C99.2145 245.831 82.5658 231.898 82.5658 231.898Z" fill="#2A2A2A"/>
<path opacity="0.2" d="M82.5658 231.898C64.0217 233.4 57.8758 245.273 55.7753 261.052C54.7086 269.102 54.2327 277.249 47.4796 281.959C47.0734 282.235 46.7675 282.636 46.6078 283.1C46.4481 283.565 46.4432 284.069 46.5939 284.536C46.7445 285.004 47.0425 285.41 47.4433 285.694C47.8441 285.978 48.3261 286.124 48.8171 286.111C73.7122 285.332 85.3228 273.147 86.7833 268.059C86.4 270.719 85.7145 273.326 84.7402 275.83C84.5611 276.272 84.526 276.759 84.64 277.222C84.7539 277.685 85.0111 278.1 85.3748 278.408C85.7385 278.717 86.1903 278.902 86.6657 278.939C87.141 278.975 87.6158 278.861 88.0223 278.612C95.0051 274.238 103.768 266.18 104.351 253.109C99.2145 245.831 82.5658 231.898 82.5658 231.898Z" fill="white"/>
<path d="M107.235 258.711L77.5312 229.008L93.3512 225.586L110.656 242.891L107.235 258.711Z" fill="#2A2A2A"/>
</svg>
