<svg width="14" height="14" viewBox="0 0 14 14" fill="none" xmlns="http://www.w3.org/2000/svg">
<g id="megaphone 1" clip-path="url(#clip0_6245_19510)">
<g id="Group">
<g id="Group_2">
<path id="Vector" d="M5.97609 9.625L6.91672 11.9595C7.15559 12.5563 6.86641 13.2339 6.27053 13.475C5.67291 13.7148 4.99434 13.4256 4.75372 12.8284L2.91797 8.3125" stroke="#506D84" stroke-miterlimit="10"/>
<path id="Vector_2" d="M6.125 3.0625H3.0625C1.61263 3.0625 0.4375 4.23763 0.4375 5.6875C0.4375 7.13737 1.61263 8.3125 3.0625 8.3125H6.125C8.3125 8.3125 10.9375 10.5 10.9375 10.5V0.875C10.9375 0.875 8.3125 3.0625 6.125 3.0625Z" stroke="#506D84" stroke-miterlimit="10" stroke-linecap="square"/>
<path id="Vector_3" d="M12.25 4.375C12.9749 4.375 13.5625 4.96256 13.5625 5.6875C13.5625 6.41244 12.9749 7 12.25 7" stroke="#506D84" stroke-miterlimit="10"/>
</g>
</g>
</g>
<defs>
<clipPath id="clip0_6245_19510">
<rect width="14" height="14" fill="white"/>
</clipPath>
</defs>
</svg>
