<svg width="14" height="14" viewBox="0 0 14 14" fill="none" xmlns="http://www.w3.org/2000/svg">
<g id="Binocular" clip-path="url(#clip0_6245_19536)">
<path id="Vector" d="M9.5 1.03516H10.8125C10.8705 1.03516 10.9262 1.0582 10.9672 1.09923C11.0082 1.14025 11.0312 1.19589 11.0312 1.25391V2.31266H9.28125V1.25391C9.28125 1.19589 9.3043 1.14025 9.34532 1.09923C9.38634 1.0582 9.44198 1.03516 9.5 1.03516Z" stroke="#506D84" stroke-linecap="round" stroke-linejoin="round"/>
<path id="Vector_2" d="M8.75 4.37533V2.53126C8.75 2.47325 8.77305 2.41761 8.81407 2.37658C8.85509 2.33556 8.91073 2.31251 8.96875 2.31251H11.3859C11.4387 2.31192 11.4899 2.33041 11.5301 2.36458C11.5703 2.39874 11.5968 2.44629 11.6047 2.49845L11.8869 4.37533H8.75Z" stroke="#506D84" stroke-linecap="round" stroke-linejoin="round"/>
<path id="Vector_3" d="M12.6163 9.14844L12.9509 11.3316H8.74219V9.14844H12.6163Z" stroke="#506D84" stroke-linecap="round" stroke-linejoin="round"/>
<path id="Vector_4" d="M5.25016 4.37533V2.53126C5.25016 2.47325 5.22711 2.41761 5.18609 2.37658C5.14506 2.33556 5.08942 2.31251 5.03141 2.31251H2.62516C2.5724 2.31192 2.52121 2.33041 2.48101 2.36458C2.44081 2.39874 2.41432 2.44629 2.40641 2.49845L2.11328 4.37533H5.25016Z" stroke="#506D84" stroke-linecap="round" stroke-linejoin="round"/>
<path id="Vector_5" d="M1.38156 9.14844L1.04688 11.3316H5.25563V9.14844H1.38156Z" stroke="#506D84" stroke-linecap="round" stroke-linejoin="round"/>
<path id="Vector_6" d="M1.38281 9.14734H12.6178L11.8872 4.36328H2.11344L1.38281 9.14734Z" stroke="#506D84" stroke-linecap="round" stroke-linejoin="round"/>
<path id="Vector_7" d="M3.18359 1.03516H4.49609C4.55411 1.03516 4.60975 1.0582 4.65077 1.09923C4.6918 1.14025 4.71484 1.19589 4.71484 1.25391V2.31266H2.96484V1.25391C2.96484 1.19589 2.98789 1.14025 3.02891 1.09923C3.06994 1.0582 3.12558 1.03516 3.18359 1.03516Z" stroke="#506D84" stroke-linecap="round" stroke-linejoin="round"/>
<path id="Vector_8" d="M6.99844 7.77617C7.55417 7.77617 8.00469 7.32566 8.00469 6.76992C8.00469 6.21419 7.55417 5.76367 6.99844 5.76367C6.4427 5.76367 5.99219 6.21419 5.99219 6.76992C5.99219 7.32566 6.4427 7.77617 6.99844 7.77617Z" stroke="#506D84" stroke-linecap="round" stroke-linejoin="round"/>
<path id="Vector_9" d="M5.60047 11.332H0.652344C0.531531 11.332 0.433594 11.43 0.433594 11.5508V12.7473C0.433594 12.8682 0.531531 12.9661 0.652344 12.9661H5.60047C5.72128 12.9661 5.81922 12.8682 5.81922 12.7473V11.5508C5.81922 11.43 5.72128 11.332 5.60047 11.332Z" stroke="#506D84" stroke-linecap="round" stroke-linejoin="round"/>
<path id="Vector_10" d="M13.3427 11.332H8.39453C8.27372 11.332 8.17578 11.43 8.17578 11.5508V12.7473C8.17578 12.8682 8.27372 12.9661 8.39453 12.9661H13.3427C13.4635 12.9661 13.5614 12.8682 13.5614 12.7473V11.5508C13.5614 11.43 13.4635 11.332 13.3427 11.332Z" stroke="#506D84" stroke-linecap="round" stroke-linejoin="round"/>
</g>
<defs>
<clipPath id="clip0_6245_19536">
<rect width="14" height="14" fill="white"/>
</clipPath>
</defs>
</svg>
