<svg width="14" height="14" viewBox="0 0 14 14" fill="none" xmlns="http://www.w3.org/2000/svg">
<path d="M8.75 7H5.25" stroke="#506D84" stroke-miterlimit="10" stroke-linecap="square"/>
<path d="M12.25 1.3125H1.75C1.02513 1.3125 0.4375 1.90013 0.4375 2.625V11.375C0.4375 12.0999 1.02513 12.6875 1.75 12.6875H12.25C12.9749 12.6875 13.5625 12.0999 13.5625 11.375V2.625C13.5625 1.90013 12.9749 1.3125 12.25 1.3125Z" stroke="#506D84" stroke-miterlimit="10" stroke-linecap="square"/>
<path d="M2.29688 3.71875C2.59891 3.71875 2.84375 3.47391 2.84375 3.17188C2.84375 2.86984 2.59891 2.625 2.29688 2.625C1.99484 2.625 1.75 2.86984 1.75 3.17188C1.75 3.47391 1.99484 3.71875 2.29688 3.71875Z" fill="#506D84"/>
<path d="M4.26562 3.71875C4.56766 3.71875 4.8125 3.47391 4.8125 3.17188C4.8125 2.86984 4.56766 2.625 4.26562 2.625C3.96359 2.625 3.71875 2.86984 3.71875 3.17188C3.71875 3.47391 3.96359 3.71875 4.26562 3.71875Z" fill="#506D84"/>
</svg>
