<svg width="46" height="46" viewBox="0 0 46 46" fill="none" xmlns="http://www.w3.org/2000/svg">
<path d="M23 30C26.866 30 30 26.866 30 23C30 19.134 26.866 16 23 16C19.134 16 16 19.134 16 23C16 26.866 19.134 30 23 30Z" fill="#FF7163"/>
<path d="M4 22.9999C3.997 19.5989 4.90776 16.2595 6.63705 13.331C8.36634 10.4024 10.8506 7.99224 13.8302 6.35242C16.8098 4.7126 20.1752 3.90338 23.5746 4.00937C26.9739 4.11535 30.2824 5.13265 33.154 6.95489L30.125 9.52389C29.9864 9.64114 29.8824 9.79391 29.824 9.9658C29.7657 10.1377 29.7552 10.3222 29.7937 10.4996C29.8323 10.677 29.9184 10.8405 30.0428 10.9727C30.1672 11.1049 30.3253 11.2007 30.5 11.2499L41.367 14.2779C41.4542 14.3027 41.5444 14.3152 41.635 14.3149C41.9002 14.3149 42.1546 14.2095 42.3421 14.022C42.5296 13.8345 42.635 13.5801 42.635 13.3149C42.6349 13.2731 42.6322 13.2314 42.627 13.1899L41.24 2.12289C41.2177 1.94393 41.1473 1.77434 41.0365 1.63209C40.9256 1.48983 40.7783 1.38021 40.6103 1.31482C40.4422 1.24943 40.2595 1.23072 40.0817 1.26066C39.9038 1.2906 39.7374 1.36808 39.6 1.48489L36.332 4.25789C32.8915 1.81051 28.8437 0.357384 24.6322 0.0577536C20.4207 -0.241877 16.208 0.623548 12.4557 2.5592C8.70334 4.49485 5.55623 7.42602 3.35919 11.0315C1.16216 14.637 -2.34483e-05 18.7777 3.54825e-10 22.9999C3.54828e-10 23.5303 0.210714 24.039 0.585786 24.4141C0.960859 24.7892 1.46957 24.9999 2 24.9999C2.53043 24.9999 3.03914 24.7892 3.41421 24.4141C3.78929 24.039 4 23.5303 4 22.9999Z" fill="#6D82EE"/>
<path d="M43.9982 21C43.4677 21 42.959 21.2107 42.5839 21.5858C42.2089 21.9609 41.9982 22.4696 41.9982 23C42.0014 26.401 41.0908 29.7404 39.3616 32.669C37.6325 35.5976 35.1482 38.0078 32.1687 39.6476C29.1892 41.2875 25.8238 42.0967 22.4245 41.9907C19.0251 41.8847 15.7167 40.8673 12.8452 39.045L15.8732 36.476C16.0117 36.3587 16.1158 36.206 16.1741 36.0341C16.2325 35.8622 16.243 35.6777 16.2044 35.5003C16.1659 35.3229 16.0798 35.1593 15.9554 35.0272C15.8309 34.895 15.6729 34.7992 15.4982 34.75L4.62716 31.722C4.46845 31.6779 4.3013 31.6737 4.14057 31.7097C3.97983 31.7458 3.83049 31.8209 3.70582 31.9286C3.58114 32.0363 3.48499 32.173 3.42591 32.3268C3.36683 32.4806 3.34665 32.6466 3.36716 32.81L4.75816 43.877C4.78062 44.0558 4.85097 44.2252 4.96177 44.3673C5.07257 44.5094 5.2197 44.6189 5.38761 44.6842C5.55552 44.7496 5.73797 44.7684 5.91568 44.7386C6.09338 44.7088 6.25974 44.6315 6.39716 44.515L9.66616 41.742C13.1066 44.1894 17.1544 45.6425 21.3659 45.9421C25.5775 46.2418 29.7902 45.3763 33.5425 43.4407C37.2948 41.505 40.4419 38.5739 42.639 34.9684C44.836 31.3629 45.9982 27.2222 45.9982 23C45.9982 22.4696 45.7874 21.9609 45.4124 21.5858C45.0373 21.2107 44.5286 21 43.9982 21Z" fill="#213597"/>
</svg>
