<svg width="48" height="48" viewBox="0 0 48 48" fill="none" xmlns="http://www.w3.org/2000/svg">
<path d="M17.1411 24C17.1211 24.02 17.1211 24.06 17.1211 24.08V24H17.1411Z" fill="#E1E1FF"/>
<path d="M17.1211 24V24.08C17.1211 24.06 17.1211 24.02 17.1411 24H17.1211Z" fill="#E1E1FF"/>
<path d="M31.0409 24.1V24.12C31.0409 24.2 31.0409 24.3 31.0209 24.38C31.0209 24.44 31.0009 24.52 30.9809 24.58C30.9809 24.6 30.9609 24.64 30.9609 24.66L30.9209 24.76L30.5609 26.12L29.0009 31.62L28.4809 33.46L27.1409 38.2V38.22L25.9209 42.54C25.8809 42.64 25.8609 42.76 25.8009 42.84C25.7609 42.94 25.7009 43.04 25.6409 43.14C25.6209 43.18 25.5809 43.24 25.5409 43.28C25.5009 43.32 25.4809 43.34 25.4409 43.38C25.3809 43.44 25.3409 43.5 25.2609 43.54C25.1609 43.62 25.0609 43.7 24.9409 43.76L24.9209 43.78C24.9009 43.78 24.8809 43.7998 24.8409 43.82C24.7209 43.86 24.6009 43.92 24.4609 43.94C24.4409 43.96 24.4409 43.96 24.4209 43.96C24.2809 43.98 24.1409 44 24.0009 44C23.8609 44 23.7209 43.98 23.5809 43.96C23.5611 43.96 23.5409 43.94 23.5209 43.94C23.4009 43.92 23.2809 43.88 23.1809 43.82C23.1409 43.8 23.1009 43.8 23.0809 43.78C23.0611 43.78 23.0611 43.76 23.0611 43.76C23.0411 43.76 23.0211 43.74 23.0211 43.74C22.8811 43.68 22.7611 43.58 22.6611 43.48C22.6411 43.46 22.6211 43.46 22.6011 43.44C22.5811 43.42 22.5611 43.38 22.5411 43.36L22.4811 43.3C22.4411 43.24 22.4011 43.2 22.3411 43.12C22.3211 43.08 22.3011 43.04 22.2811 43C22.2011 42.88 22.1411 42.74 22.1011 42.6C22.1011 42.58 22.0811 42.54 22.0811 42.52V42.5L22.0211 42.24L20.9211 38.28L20.8411 37.98L19.6411 33.6L17.5811 26.12L17.1811 24.64C17.1811 24.62 17.1611 24.58 17.1611 24.56C17.1411 24.42 17.1211 24.28 17.1211 24.16C17.1211 24.1402 17.1211 24.12 17.1211 24.12C17.1211 24.1 17.1211 24.1 17.1211 24.08C17.1211 24.06 17.1211 24.02 17.1411 24H31.0211C31.0409 24.04 31.0409 24.06 31.0409 24.1Z" fill="#E1E1FF"/>
<path d="M17.1211 24V24.08C17.1211 24.06 17.1211 24.02 17.1411 24H17.1211Z" fill="#8E8EEF"/>
<path d="M20.7406 14C19.7806 14 18.9606 14.68 18.7806 15.6L18.7006 16L18.3006 18L17.4806 22.12L17.1606 23.72C17.1606 23.74 17.1406 23.78 17.1406 23.82C17.1406 23.88 17.1206 23.94 17.1206 24H8.0206C8.0006 23 8.2606 22.06 8.7606 21.24L11.1006 17.34C12.3406 15.28 14.6006 14 17.0006 14H20.7406Z" fill="#E1E1FF"/>
<path d="M22.3395 43.12L18.7595 38.8L9.07953 27.14C8.43953 26.22 8.09953 25.3 8.03953 24.38C8.01953 24.32 8.01953 24.24 8.01953 24.18V24H17.1195V24.08C17.1195 24.1 17.1195 24.1 17.1195 24.12C17.1195 24.12 17.1195 24.14 17.1195 24.16C17.1195 24.2802 17.1395 24.42 17.1595 24.56C17.1595 24.58 17.1795 24.62 17.1795 24.64L17.5795 26.12L19.6395 33.6L20.8395 37.98L20.9195 38.28L22.0195 42.24L22.0795 42.5V42.52C22.0795 42.5398 22.0995 42.58 22.0995 42.6C22.1395 42.74 22.1995 42.88 22.2795 43C22.2995 43.04 22.3195 43.08 22.3395 43.12Z" fill="#B6B6FF"/>
<path d="M31.0395 24V24.1C31.0395 24.06 31.0395 24.04 31.0195 24H31.0395Z" fill="#E1E1FF"/>
<path d="M31.0202 24C31.0402 24.04 31.0402 24.06 31.0402 24.1V24H31.0202ZM39.9802 24H31.0402C31.0402 23.88 31.0202 23.78 30.9802 23.66C30.9802 23.6 30.9602 23.54 30.9402 23.48L30.6202 22.12L29.6802 18L29.2002 16L29.1002 15.54C28.9002 14.64 28.1002 14 27.1602 14H31.0002C32.0602 14 33.0802 14.24 34.0002 14.72C35.1802 15.28 36.2002 16.2 36.9002 17.36L39.2402 21.24C39.7402 22.06 40.0002 23 39.9802 24Z" fill="#E1E1FF"/>
<path d="M31.0195 24C31.0395 24.04 31.0395 24.06 31.0395 24.1V24H31.0195Z" fill="#B6B6FF"/>
<path d="M39.9811 24V24.18C39.9811 24.24 39.9811 24.32 39.9611 24.38C39.9611 24.46 39.9411 24.54 39.9211 24.62C39.8411 25.46 39.5211 26.28 39.0211 27L25.6411 43.14C25.7011 43.04 25.7611 42.94 25.8011 42.84C25.8611 42.76 25.8811 42.64 25.9211 42.54L27.1411 38.22V38.2L28.4811 33.46L29.0011 31.62L30.5611 26.12L30.9211 24.76L30.9611 24.66C30.9611 24.6402 30.9811 24.6 30.9811 24.58C31.0011 24.52 31.0211 24.44 31.0211 24.38C31.0411 24.3 31.0411 24.2 31.0411 24.12V24H39.9811ZM31.0411 24H17.1211C17.1211 23.94 17.1411 23.88 17.1411 23.82C17.1411 23.78 17.1611 23.74 17.1611 23.72L17.4811 22.12L18.3011 18L18.7011 16L18.7811 15.6C18.9611 14.68 19.7811 14 20.7411 14H27.1611C28.1011 14 28.9011 14.64 29.1011 15.54L29.2011 16L29.6811 18L30.6211 22.12L30.9411 23.48C30.9611 23.54 30.9811 23.6 30.9811 23.66C31.0211 23.78 31.0411 23.88 31.0411 24Z" fill="#B6B6FF"/>
<path d="M17.1211 24V24.08C17.1211 24.06 17.1211 24.02 17.1411 24H17.1211ZM31.0211 24C31.0411 24.04 31.0411 24.06 31.0411 24.1V24H31.0211Z" fill="black"/>
<path d="M24 10C22.8946 10 22 9.1054 22 8V6C22 4.8946 22.8946 4 24 4C25.1054 4 26 4.8946 26 6V8C26 9.1054 25.1054 10 24 10Z" fill="#B6B6FF"/>
<path d="M37.4211 9.42012L35.4211 11.4201C35.0211 11.8001 34.5211 12.0001 34.0011 12.0001C33.4811 12.0001 32.9811 11.8001 32.5811 11.4201C31.8011 10.6401 31.8011 9.36012 32.5811 8.58012L34.5811 6.58012C35.3611 5.80012 36.6411 5.80012 37.4211 6.58012C38.2011 7.36012 38.2011 8.64012 37.4211 9.42012Z" fill="#B6B6FF"/>
<path d="M13.9999 11.9999C13.4881 11.9999 12.9765 11.8045 12.5859 11.4139L10.5859 9.41393C9.8047 8.63273 9.8047 7.36713 10.5859 6.58573C11.3671 5.80433 12.6327 5.80453 13.4141 6.58573L15.4141 8.58573C16.1953 9.36693 16.1953 10.6325 15.4141 11.4139C15.0233 11.8045 14.5117 11.9999 13.9999 11.9999Z" fill="#B6B6FF"/>
<path opacity="0.11" d="M35.4217 11.4201C35.0217 11.8001 34.5217 12.0001 34.0017 12.0001V7.16012L34.5817 6.58012C35.3617 5.80012 36.6417 5.80012 37.4217 6.58012C38.2017 7.36012 38.2017 8.64012 37.4217 9.42012L35.4217 11.4201ZM39.9817 24.0001V24.1801C39.9817 24.2401 39.9817 24.3201 39.9617 24.3801C39.9617 24.4601 39.9417 24.5401 39.9217 24.6201C39.8417 25.4601 39.5217 26.2801 39.0217 27.0001L25.6417 43.1401C25.6217 43.1801 25.5817 43.2401 25.5417 43.2801C25.5017 43.3201 25.4817 43.3401 25.4417 43.3801C25.3817 43.4401 25.3417 43.5001 25.2617 43.5401C25.1617 43.6201 25.0617 43.7001 24.9417 43.7601L24.9217 43.7801C24.9017 43.7801 24.8817 43.7999 24.8417 43.8201C24.7217 43.8601 24.6017 43.9201 24.4617 43.9401C24.4417 43.9601 24.4417 43.9601 24.4217 43.9601C24.2817 43.9801 24.1417 44.0001 24.0017 44.0001C23.8617 44.0001 23.7217 43.9801 23.5817 43.9601C23.5619 43.9601 23.5417 43.9401 23.5217 43.9401C23.4017 43.9201 23.2817 43.8801 23.1817 43.8201C23.1417 43.8001 23.1017 43.8001 23.0817 43.7801C23.0619 43.7801 23.0619 43.7601 23.0619 43.7601C23.0419 43.7601 23.0219 43.7401 23.0219 43.7401C22.8819 43.6801 22.7619 43.5801 22.6619 43.4801C22.6419 43.4601 22.6219 43.4601 22.6019 43.4401C22.5819 43.4201 22.5619 43.3801 22.5419 43.3601L22.4819 43.3001C22.4419 43.2401 22.4019 43.2001 22.3419 43.1201L18.7617 38.8001C19.4617 38.5601 20.1617 38.2803 20.8417 37.9801C24.0417 36.5201 26.8217 34.3201 29.0017 31.6201C30.8217 29.4001 32.2017 26.8201 33.0417 24.0001C33.6617 21.9401 34.0017 19.7601 34.0017 17.5001V14.7201C35.1817 15.2801 36.2017 16.2001 36.9017 17.3601L39.2417 21.2401C39.7417 22.0601 40.0017 23.0001 39.9817 24.0001Z" fill="black"/>
</svg>
