<svg width="48" height="48" viewBox="0 0 48 48" fill="none" xmlns="http://www.w3.org/2000/svg">
<path d="M41.4591 29.3099C41.1144 29.3191 40.7771 29.2093 40.5039 28.999C40.2307 28.7886 40.0383 28.4905 39.9591 28.1549L37.4991 17.2199L34.9941 28.1549C34.9047 28.5397 34.6671 28.8737 34.3329 29.0843C33.9987 29.2949 33.5949 29.3652 33.2091 29.2799C33.0157 29.2374 32.8325 29.1569 32.6703 29.0432C32.5081 28.9296 32.37 28.7848 32.264 28.6175C32.158 28.4501 32.0862 28.2635 32.0528 28.0682C32.0193 27.873 32.0249 27.673 32.0691 27.4799L35.9991 10.1699C36.0804 9.84558 36.2677 9.5577 36.5314 9.352C36.795 9.1463 37.1198 9.03458 37.4541 9.03458C37.7885 9.03458 38.1133 9.1463 38.3769 9.352C38.6405 9.5577 38.8278 9.84558 38.9091 10.1699L42.8841 27.4799C42.9284 27.673 42.9339 27.873 42.9005 28.0682C42.867 28.2635 42.7952 28.4501 42.6892 28.6175C42.5833 28.7848 42.4452 28.9296 42.283 29.0432C42.1207 29.1569 41.9376 29.2374 41.7441 29.2799C41.6506 29.301 41.555 29.3111 41.4591 29.3099ZM14.4591 29.3099C14.1144 29.3191 13.7771 29.2093 13.5039 28.999C13.2307 28.7886 13.0383 28.4905 12.9591 28.1549L10.4991 17.2199L7.99414 28.1549C7.9047 28.5397 7.66708 28.8737 7.33287 29.0843C6.99866 29.2949 6.59486 29.3652 6.20914 29.2799C6.01566 29.2374 5.83253 29.1569 5.67032 29.0432C5.5081 28.9296 5.37001 28.7848 5.26402 28.6175C5.15803 28.4501 5.08624 28.2635 5.05279 28.0682C5.01934 27.873 5.0249 27.673 5.06914 27.4799L8.99914 10.1699C8.99914 9.7721 9.15717 9.39057 9.43848 9.10926C9.71978 8.82796 10.1013 8.66992 10.4991 8.66992C10.897 8.66992 11.2785 8.82796 11.5598 9.10926C11.8411 9.39057 11.9991 9.7721 11.9991 10.1699L15.9741 27.4799C16.0184 27.673 16.0239 27.873 15.9905 28.0682C15.957 28.2635 15.8852 28.4501 15.7792 28.6175C15.6733 28.7848 15.5352 28.9296 15.373 29.0432C15.2107 29.1569 15.0276 29.2374 14.8341 29.2799C14.7114 29.3091 14.5849 29.3192 14.4591 29.3099Z" fill="#ECEEF0"/>
<path d="M40.5 12H7.5C7.10218 12 6.72064 11.842 6.43934 11.5607C6.15804 11.2794 6 10.8978 6 10.5C6 10.1022 6.15804 9.72064 6.43934 9.43934C6.72064 9.15804 7.10218 9 7.5 9H40.5C40.8978 9 41.2794 9.15804 41.5607 9.43934C41.842 9.72064 42 10.1022 42 10.5C42 10.8978 41.842 11.2794 41.5607 11.5607C41.2794 11.842 40.8978 12 40.5 12Z" fill="#70564A"/>
<path d="M24 39C23.6022 39 23.2206 38.842 22.9393 38.5607C22.658 38.2794 22.5 37.8978 22.5 37.5V4.5C22.5 4.10218 22.658 3.72064 22.9393 3.43934C23.2206 3.15804 23.6022 3 24 3C24.3978 3 24.7794 3.15804 25.0607 3.43934C25.342 3.72064 25.5 4.10218 25.5 4.5V37.5C25.5 37.8978 25.342 38.2794 25.0607 38.5607C24.7794 38.842 24.3978 39 24 39Z" fill="#ECEEF0"/>
<path d="M24 13.5C25.6569 13.5 27 12.1569 27 10.5C27 8.84315 25.6569 7.5 24 7.5C22.3431 7.5 21 8.84315 21 10.5C21 12.1569 22.3431 13.5 24 13.5Z" fill="#F4D45A"/>
<path d="M43.5 27V30C43.5 30.7956 43.1839 31.5587 42.6213 32.1213C42.0587 32.6839 41.2956 33 40.5 33H34.5C33.7044 33 32.9413 32.6839 32.3787 32.1213C31.8161 31.5587 31.5 30.7956 31.5 30V27H43.5Z" fill="#F4D45A"/>
<path d="M13.5 33H7.5C6.70435 33 5.94129 32.6839 5.37868 32.1213C4.81607 31.5587 4.5 30.7956 4.5 30V27H16.5V30C16.5 30.7956 16.1839 31.5587 15.6213 32.1213C15.0587 32.6839 14.2956 33 13.5 33Z" fill="#F4D45A"/>
<path d="M18 37.5H30C30.7956 37.5 31.5587 37.8161 32.1213 38.3787C32.6839 38.9413 33 39.7044 33 40.5V42C33 42.3978 32.842 42.7794 32.5607 43.0607C32.2794 43.342 31.8978 43.5 31.5 43.5H16.5C16.1022 43.5 15.7206 43.342 15.4393 43.0607C15.158 42.7794 15 42.3978 15 42V40.5C15 39.7044 15.3161 38.9413 15.8787 38.3787C16.4413 37.8161 17.2044 37.5 18 37.5Z" fill="#654D43"/>
</svg>
