<svg width="48" height="48" viewBox="0 0 48 48" fill="none" xmlns="http://www.w3.org/2000/svg">
<g id="gold-coin 2">
<g id="Group">
<path id="Vector" d="M24 47C36.7025 47 47 36.7025 47 24C47 11.2975 36.7025 1 24 1C11.2975 1 1 11.2975 1 24C1 36.7025 11.2975 47 24 47Z" fill="#F8D34C"/>
<g id="Vector_2">
<path d="M24.0003 39.9999C23.7351 39.9999 23.4807 39.8945 23.2932 39.707C23.1057 39.5194 23.0003 39.2651 23.0003 38.9999V35.9999C23.0003 35.7347 23.1057 35.4803 23.2932 35.2928C23.4807 35.1052 23.7351 34.9999 24.0003 34.9999C24.2655 34.9999 24.5199 35.1052 24.7074 35.2928C24.8949 35.4803 25.0003 35.7347 25.0003 35.9999V38.9999C25.0003 39.2651 24.8949 39.5194 24.7074 39.707C24.5199 39.8945 24.2655 39.9999 24.0003 39.9999Z" fill="#BB991D"/>
<path d="M39.2173 28.9439C39.1353 29.1961 38.9565 29.4054 38.7203 29.5258C38.484 29.6462 38.2095 29.6678 37.9573 29.5859L35.1003 28.6589C34.9701 28.6229 34.8485 28.5609 34.7429 28.4766C34.6373 28.3924 34.5498 28.2876 34.4858 28.1686C34.4219 28.0496 34.3826 27.9189 34.3706 27.7843C34.3585 27.6498 34.3738 27.5141 34.4156 27.3857C34.4574 27.2572 34.5248 27.1385 34.6137 27.0368C34.7026 26.9351 34.8113 26.8524 34.933 26.7939C35.0547 26.7353 35.1871 26.702 35.3221 26.696C35.457 26.6899 35.5918 26.7113 35.7183 26.7589L38.5713 27.6859C38.8238 27.767 39.0337 27.9452 39.1548 28.1811C39.276 28.417 39.2985 28.6914 39.2173 28.9439Z" fill="#BB991D"/>
<path d="M33.4053 11.0559C33.512 11.1331 33.6023 11.2306 33.6712 11.3429C33.7401 11.4551 33.7861 11.5799 33.8067 11.71C33.8272 11.84 33.8218 11.9729 33.7909 12.1009C33.7599 12.2289 33.704 12.3495 33.6263 12.4559L31.8623 14.8799C31.7058 15.0944 31.4705 15.238 31.2082 15.2791C30.9458 15.3202 30.6779 15.2553 30.4633 15.0989C30.2487 14.9424 30.1051 14.7071 30.0641 14.4447C30.023 14.1824 30.0878 13.9144 30.2443 13.6999L32.0083 11.2729C32.1648 11.0589 32.3999 10.9159 32.6619 10.8752C32.9238 10.8345 33.1912 10.8995 33.4053 11.0559Z" fill="#BB991D"/>
<path d="M14.6003 11.0559C14.7066 10.9782 14.8273 10.9222 14.9553 10.8913C15.0833 10.8603 15.2161 10.855 15.3462 10.8755C15.4763 10.896 15.601 10.9421 15.7133 11.0109C15.8255 11.0798 15.9231 11.1702 16.0003 11.2769L17.7563 13.6999C17.9122 13.9144 17.9766 14.1822 17.9351 14.4441C17.8937 14.7061 17.7499 14.9409 17.5353 15.0969C17.3207 15.2528 17.053 15.3171 16.791 15.2757C16.529 15.2343 16.2942 15.0904 16.1383 14.8759L14.3743 12.4489C14.2201 12.234 14.1573 11.9668 14.1997 11.7057C14.242 11.4446 14.3861 11.211 14.6003 11.0559Z" fill="#BB991D"/>
<path d="M8.7833 28.9439C8.70137 28.6916 8.72297 28.4172 8.84337 28.1809C8.96377 27.9446 9.17309 27.7658 9.4253 27.6839L12.2783 26.7569C12.4048 26.7093 12.5396 26.6879 12.6745 26.694C12.8095 26.7 12.9419 26.7333 13.0636 26.7919C13.1854 26.8504 13.294 26.9331 13.3829 27.0348C13.4718 27.1365 13.5392 27.2552 13.581 27.3837C13.6228 27.5121 13.6381 27.6478 13.626 27.7823C13.614 27.9169 13.5747 28.0476 13.5108 28.1666C13.4468 28.2856 13.3593 28.3904 13.2537 28.4746C13.1481 28.5589 13.0265 28.6209 12.8963 28.6569L10.0433 29.5839C9.79134 29.6659 9.51713 29.6446 9.28088 29.5246C9.04464 29.4046 8.86568 29.1957 8.7833 28.9439Z" fill="#BB991D"/>
<path d="M30.1813 33.4779C30.0192 33.4778 29.8595 33.438 29.7163 33.3619L24.0003 30.3619L18.2843 33.3619C18.1193 33.4483 17.9334 33.487 17.7475 33.4734C17.5617 33.4599 17.3834 33.3947 17.2326 33.2852C17.0819 33.1757 16.9647 33.0263 16.8943 32.8538C16.8239 32.6813 16.8031 32.4926 16.8343 32.3089L17.9263 25.9439L13.3003 21.4379C13.1666 21.3076 13.072 21.1426 13.0272 20.9614C12.9824 20.7802 12.9893 20.5901 13.0469 20.4126C13.1045 20.2351 13.2107 20.0773 13.3534 19.957C13.4961 19.8367 13.6696 19.7587 13.8543 19.7319L20.2443 18.8039L23.1023 13.0139C23.194 12.8577 23.3249 12.7282 23.4821 12.6382C23.6392 12.5482 23.8172 12.5009 23.9983 12.5009C24.1794 12.5009 24.3574 12.5482 24.5145 12.6382C24.6717 12.7282 24.8026 12.8577 24.8943 13.0139L27.7523 18.8039L34.1423 19.7319C34.327 19.7587 34.5005 19.8367 34.6432 19.957C34.7859 20.0773 34.8921 20.2351 34.9497 20.4126C35.0073 20.5901 35.0142 20.7802 34.9694 20.9614C34.9246 21.1426 34.83 21.3076 34.6963 21.4379L30.0723 25.9439L31.1643 32.3089C31.1889 32.4523 31.1819 32.5995 31.1437 32.74C31.1056 32.8804 31.0372 33.0109 30.9434 33.1222C30.8496 33.2336 30.7326 33.3231 30.6007 33.3845C30.4687 33.4459 30.3249 33.4778 30.1793 33.4779H30.1813Z" fill="#BB991D"/>
</g>
</g>
</g>
</svg>
