<svg width="48" height="48" viewBox="0 0 48 48" fill="none" xmlns="http://www.w3.org/2000/svg">
<g id="transactions 1">
<g id="Group">
<path id="Vector" d="M17.3661 8.21875C17.151 7.57293 17.0314 6.89915 17.0111 6.21875C12.9191 7.66585 9.37552 10.3442 6.86682 13.886C4.35812 17.4279 3.00739 21.6595 3.00009 25.9998C2.99035 29.2826 3.75867 32.5211 5.24209 35.4498L5.69209 36.3438L7.47909 35.4438L7.02709 34.5517C5.68608 31.901 4.99148 28.9704 5.00009 25.9998C5.00666 22.1296 6.19411 18.3537 8.4038 15.1764C10.6135 11.9991 13.7402 9.57175 17.3661 8.21875Z" fill="#D37FF0"/>
<path id="Vector_2" d="M40.9614 34.6338L40.4614 35.4988C39.0824 37.8918 37.1978 39.9549 34.9389 41.5441C32.6801 43.1333 30.1016 44.2102 27.3834 44.6997C24.6653 45.1891 21.8731 45.0793 19.2017 44.3779C16.5304 43.6765 14.0444 42.4004 11.9174 40.6388C11.465 41.1489 10.9401 41.5896 10.3594 41.9468C12.7002 43.9538 15.4547 45.4202 18.4267 46.2416C21.3988 47.063 24.5153 47.2192 27.5546 46.6991C30.5939 46.1791 33.4812 44.9955 36.011 43.2326C38.5409 41.4698 40.651 39.1709 42.1914 36.4998L42.6914 35.6338L40.9614 34.6338Z" fill="#D37FF0"/>
<path id="Vector_3" d="M6.67969 41C9.44111 41 11.6797 38.7614 11.6797 36C11.6797 33.2386 9.44111 31 6.67969 31C3.91826 31 1.67969 33.2386 1.67969 36C1.67969 38.7614 3.91826 41 6.67969 41Z" fill="#645AED"/>
<path id="Vector_4" d="M43 26C42.9965 27.0581 42.9052 28.1141 42.727 29.157C43.3943 29.2929 44.0381 29.5257 44.638 29.848C45.2089 26.8163 45.1037 23.6959 44.33 20.7095C43.5563 17.7231 42.1332 14.9441 40.1621 12.5709C38.191 10.1977 35.7205 8.28872 32.9268 6.98005C30.1331 5.67138 27.085 4.9953 24 5.00002H23V7.00002H24C29.0374 7.00558 33.8669 9.00915 37.4289 12.5711C40.9909 16.1331 42.9944 20.9626 43 26Z" fill="#D37FF0"/>
<path id="Vector_5" d="M41.3203 41C44.0817 41 46.3203 38.7614 46.3203 36C46.3203 33.2386 44.0817 31 41.3203 31C38.5589 31 36.3203 33.2386 36.3203 36C36.3203 38.7614 38.5589 41 41.3203 41Z" fill="#645AED"/>
<path id="Vector_6" d="M24 11C26.7614 11 29 8.76142 29 6C29 3.23858 26.7614 1 24 1C21.2386 1 19 3.23858 19 6C19 8.76142 21.2386 11 24 11Z" fill="#645AED"/>
</g>
</g>
</svg>
