<svg width="48" height="48" viewBox="0 0 48 48" fill="none" xmlns="http://www.w3.org/2000/svg">
<g id="loan 1">
<g id="Group">
<path id="Vector" d="M46.1295 29.9332C45.6387 29.4328 44.9999 29.1035 44.3075 28.994C43.6151 28.8845 42.9058 29.0006 42.2845 29.3252L33.7555 33.5852C33.4326 34.5652 32.8267 35.4277 32.0143 36.0639C31.2019 36.7001 30.2194 37.0815 29.1905 37.1602L18.0905 37.9532H18.0175C17.7523 37.9625 17.4943 37.866 17.3002 37.6851C17.1061 37.5041 16.9918 37.2534 16.9825 36.9882C16.9732 36.723 17.0697 36.4649 17.2507 36.2708C17.4316 36.0767 17.6823 35.9625 17.9475 35.9532L18.0185 35.9482L29.0265 35.3752C29.8384 35.3161 30.5979 34.9519 31.1522 34.3558C31.7065 33.7596 32.0146 32.9757 32.0146 32.1617C32.0146 31.3477 31.7065 30.5638 31.1522 29.9677C30.5979 29.3715 29.8384 29.0073 29.0265 28.9482L18.7265 27.0762C18.2565 26.9908 17.795 26.8637 17.3475 26.6962L11.8115 24.6202C10.6339 24.1784 9.36866 24.0204 8.11853 24.1592L1.90953 24.8492C1.66484 24.8763 1.43874 24.9927 1.27453 25.1761C1.11031 25.3595 1.01951 25.597 1.01953 25.8432V37.9432C1.01953 38.2084 1.12489 38.4628 1.31242 38.6503C1.49996 38.8378 1.75431 38.9432 2.01953 38.9432H2.85753C4.274 38.9433 5.66506 39.3194 6.88853 40.0332L14.3575 44.4002C16.0709 45.3995 18.0945 45.7267 20.0355 45.3182L34.2945 42.3182C35.438 42.0777 36.5149 41.5896 37.4495 40.8882L45.7255 34.6752C46.0846 34.4053 46.3827 34.0627 46.6003 33.6697C46.8178 33.2767 46.95 32.8421 46.9882 32.3946C47.0263 31.947 46.9695 31.4964 46.8216 31.0722C46.6736 30.6481 46.4378 30.26 46.1295 29.9332Z" fill="#EEBC99"/>
<path id="Vector_2" d="M29 23C35.0751 23 40 18.0751 40 12C40 5.92487 35.0751 1 29 1C22.9249 1 18 5.92487 18 12C18 18.0751 22.9249 23 29 23Z" fill="#EFD358"/>
<path id="Vector_3" d="M29 21C27.22 21 25.4799 20.4722 23.9999 19.4832C22.5198 18.4943 21.3663 17.0887 20.6851 15.4442C20.0039 13.7996 19.8257 11.99 20.1729 10.2442C20.5202 8.49836 21.3774 6.89472 22.636 5.63604C23.8947 4.37737 25.4984 3.5202 27.2442 3.17294C28.99 2.82567 30.7996 3.0039 32.4442 3.68509C34.0887 4.36628 35.4943 5.51983 36.4832 6.99987C37.4722 8.47991 38 10.22 38 12C37.9974 14.3861 37.0483 16.6738 35.361 18.361C33.6738 20.0483 31.3861 20.9974 29 21Z" fill="#D8BC48"/>
<path id="Vector_4" d="M29 19C27.6155 19 26.2622 18.5895 25.111 17.8203C23.9599 17.0511 23.0627 15.9579 22.5328 14.6788C22.003 13.3997 21.8644 11.9922 22.1345 10.6344C22.4046 9.2765 23.0713 8.02922 24.0503 7.05026C25.0292 6.07129 26.2765 5.4046 27.6344 5.13451C28.9922 4.86441 30.3997 5.00303 31.6788 5.53285C32.9579 6.06266 34.0511 6.95987 34.8203 8.11101C35.5895 9.26216 36 10.6155 36 12C35.9979 13.8559 35.2597 15.6351 33.9474 16.9474C32.6351 18.2597 30.8559 18.9979 29 19Z" fill="#EFD358"/>
<path id="Vector_5" d="M28.9998 15.9998C28.7346 15.9997 28.4803 15.8943 28.2928 15.7068L25.2928 12.7068C25.1053 12.5193 25 12.265 25 11.9998C25 11.7346 25.1053 11.4803 25.2928 11.2928L28.2928 8.29279C28.4803 8.10532 28.7346 8 28.9998 8C29.265 8 29.5193 8.10532 29.7068 8.29279L32.7068 11.2928C32.8943 11.4803 32.9996 11.7346 32.9996 11.9998C32.9996 12.265 32.8943 12.5193 32.7068 12.7068L29.7068 15.7068C29.5193 15.8943 29.265 15.9997 28.9998 15.9998Z" fill="#D8BC48"/>
</g>
</g>
</svg>
