<svg width="50" height="49" viewBox="0 0 50 49" fill="none" xmlns="http://www.w3.org/2000/svg">
<path d="M25 47.979C38.2 47.979 49 37.3169 49 24.2854C49 11.2539 38.2 0.591797 25 0.591797C11.8 0.591797 1 11.2539 1 24.2854C1 37.3169 11.8 47.979 25 47.979Z" fill="#FFE0DB"/>
<path d="M25 47.979C38.2 47.979 49 37.3169 49 24.2854C49 11.2539 38.2 0.591797 25 0.591797C11.8 0.591797 1 11.2539 1 24.2854C1 37.3169 11.8 47.979 25 47.979Z" fill="#FFF7F7"/>
<path d="M25 47.979C38.2 47.979 49 37.3169 49 24.2854C49 11.2539 38.2 0.591797 25 0.591797C11.8 0.591797 1 11.2539 1 24.2854C1 37.3169 11.8 47.979 25 47.979Z" stroke="#FFDADE" stroke-linecap="round" stroke-linejoin="round"/>
<path d="M17.9258 17.9297L32.0686 32.0725M32.0686 17.9297L17.9258 32.0725" stroke="#DC2626" stroke-width="2" stroke-linecap="round" stroke-linejoin="round"/>
</svg>
