<svg width="28" height="28" viewBox="0 0 28 28" fill="none" xmlns="http://www.w3.org/2000/svg">
<path d="M3 9.66667H24M3 17.3333H24M8.6 2H18.4C20.3602 2 21.3402 2 22.089 2.41781C22.7476 2.78532 23.283 3.37175 23.6185 4.09304C24 4.91303 24 5.98646 24 8.13333V18.8667C24 21.0136 24 22.0869 23.6185 22.907C23.283 23.6283 22.7476 24.2147 22.089 24.5822C21.3402 25 20.3602 25 18.4 25H8.6C6.63981 25 5.65972 25 4.91103 24.5822C4.25246 24.2147 3.71703 23.6283 3.38148 22.907C3 22.0869 3 21.0136 3 18.8667V8.13333C3 5.98646 3 4.91303 3.38148 4.09304C3.71703 3.37175 4.25246 2.78532 4.91103 2.41781C5.65972 2 6.63981 2 8.6 2Z" stroke="black" stroke-width="1.6" stroke-linecap="round" stroke-linejoin="round"/>
<path d="M10 2V25M8.6 2H18.4C20.3602 2 21.3402 2 22.089 2.41781C22.7476 2.78532 23.283 3.37175 23.6185 4.09304C24 4.91303 24 5.98646 24 8.13333V18.8667C24 21.0136 24 22.0869 23.6185 22.907C23.283 23.6283 22.7476 24.2147 22.089 24.5822C21.3402 25 20.3602 25 18.4 25H8.6C6.63981 25 5.65972 25 4.91103 24.5822C4.25246 24.2147 3.71703 23.6283 3.38148 22.907C3 22.0869 3 21.0136 3 18.8667V8.13333C3 5.98646 3 4.91303 3.38148 4.09304C3.71703 3.37175 4.25246 2.78532 4.91103 2.41781C5.65972 2 6.63981 2 8.6 2Z" stroke="black" stroke-width="1.6" stroke-linecap="round" stroke-linejoin="round"/>
</svg>
