<svg width="40" height="40" viewBox="0 0 40 40" fill="none" xmlns="http://www.w3.org/2000/svg">
<g clip-path="url(#clip0_1_106)">
<path d="M20 39.1666C30.5855 39.1666 39.1667 30.5854 39.1667 20C39.1667 9.41452 30.5855 0.833313 20 0.833313C9.41454 0.833313 0.833332 9.41452 0.833332 20C0.833332 30.5854 9.41454 39.1666 20 39.1666Z" fill="#F8D34C"/>
<path d="M20 33.3333C19.779 33.3333 19.567 33.2455 19.4107 33.0892C19.2545 32.9329 19.1667 32.721 19.1667 32.5V30C19.1667 29.7789 19.2545 29.567 19.4107 29.4107C19.567 29.2544 19.779 29.1666 20 29.1666C20.221 29.1666 20.433 29.2544 20.5893 29.4107C20.7455 29.567 20.8333 29.7789 20.8333 30V32.5C20.8333 32.721 20.7455 32.9329 20.5893 33.0892C20.433 33.2455 20.221 33.3333 20 33.3333Z" fill="#BB991D"/>
<path d="M32.6808 24.12C32.6125 24.3301 32.4635 24.5046 32.2666 24.6049C32.0697 24.7052 31.841 24.7232 31.6308 24.655L29.25 23.8825C29.1415 23.8525 29.0402 23.8008 28.9521 23.7306C28.8641 23.6604 28.7913 23.573 28.738 23.4739C28.6846 23.3747 28.652 23.2658 28.6419 23.1537C28.6318 23.0415 28.6446 22.9285 28.6794 22.8214C28.7142 22.7144 28.7704 22.6155 28.8445 22.5307C28.9186 22.446 29.0091 22.3771 29.1106 22.3283C29.212 22.2795 29.3223 22.2517 29.4348 22.2467C29.5473 22.2417 29.6596 22.2595 29.765 22.2991L32.1425 23.0716C32.3529 23.1393 32.5278 23.2877 32.6288 23.4843C32.7297 23.6809 32.7485 23.9095 32.6808 24.12Z" fill="#BB991D"/>
<path d="M27.8375 9.21328C27.9264 9.27764 28.0017 9.35892 28.0591 9.45246C28.1165 9.546 28.1549 9.64995 28.172 9.75836C28.1891 9.86676 28.1846 9.97747 28.1588 10.0841C28.133 10.1908 28.0864 10.2913 28.0217 10.38L26.5517 12.4C26.4213 12.5788 26.2252 12.6984 26.0065 12.7327C25.7879 12.7669 25.5646 12.7128 25.3858 12.5825C25.207 12.4521 25.0874 12.256 25.0531 12.0373C25.0189 11.8187 25.0729 11.5954 25.2033 11.4166L26.6733 9.39412C26.8038 9.21582 26.9997 9.09662 27.218 9.06271C27.4363 9.0288 27.6591 9.08296 27.8375 9.21328Z" fill="#BB991D"/>
<path d="M12.1667 9.21328C12.2553 9.14854 12.3558 9.10193 12.4625 9.07614C12.5691 9.05034 12.6799 9.04588 12.7883 9.06299C12.8967 9.0801 13.0006 9.11846 13.0942 9.17585C13.1877 9.23325 13.269 9.30856 13.3333 9.39745L14.7967 11.4166C14.9266 11.5954 14.9802 11.8185 14.9457 12.0368C14.9111 12.2552 14.7913 12.4508 14.6125 12.5808C14.4337 12.7107 14.2106 12.7643 13.9923 12.7298C13.7739 12.6953 13.5783 12.5754 13.4483 12.3966L11.9783 10.3741C11.8498 10.1951 11.7975 9.97237 11.8328 9.75481C11.8681 9.53726 11.9881 9.34254 12.1667 9.21328Z" fill="#BB991D"/>
<path d="M7.31917 24.12C7.25089 23.9098 7.26889 23.6811 7.36922 23.4842C7.46955 23.2872 7.64399 23.1383 7.85417 23.07L10.2317 22.2975C10.3371 22.2579 10.4494 22.24 10.5619 22.245C10.6743 22.25 10.7846 22.2778 10.8861 22.3266C10.9875 22.3754 11.078 22.4443 11.1522 22.529C11.2263 22.6138 11.2824 22.7127 11.3172 22.8198C11.3521 22.9268 11.3648 23.0399 11.3548 23.152C11.3447 23.2641 11.312 23.3731 11.2587 23.4722C11.2054 23.5714 11.1325 23.6587 11.0445 23.7289C10.9565 23.7991 10.8552 23.8508 10.7467 23.8808L8.36917 24.6533C8.1592 24.7216 7.93069 24.7039 7.73382 24.6039C7.53695 24.5039 7.38781 24.3298 7.31917 24.12Z" fill="#BB991D"/>
<path d="M25.1508 27.8983C25.0157 27.8982 24.8827 27.865 24.7633 27.8016L20 25.3016L15.2367 27.8016C15.0991 27.8737 14.9442 27.9059 14.7894 27.8946C14.6345 27.8833 14.4859 27.829 14.3603 27.7377C14.2346 27.6465 14.137 27.522 14.0783 27.3782C14.0197 27.2345 14.0024 27.0772 14.0283 26.9241L14.9383 21.62L11.0833 17.865C10.9719 17.7564 10.8931 17.6189 10.8558 17.4679C10.8184 17.3169 10.8241 17.1585 10.8722 17.0106C10.9202 16.8627 11.0087 16.7311 11.1276 16.6309C11.2465 16.5306 11.3911 16.4656 11.545 16.4433L16.87 15.67L19.2517 10.845C19.3281 10.7148 19.4372 10.6069 19.5681 10.5319C19.6991 10.4569 19.8474 10.4175 19.9983 10.4175C20.1492 10.4175 20.2975 10.4569 20.4285 10.5319C20.5595 10.6069 20.6686 10.7148 20.745 10.845L23.1267 15.67L28.4517 16.4433C28.6056 16.4656 28.7502 16.5306 28.8691 16.6309C28.988 16.7311 29.0765 16.8627 29.1245 17.0106C29.1725 17.1585 29.1782 17.3169 29.1409 17.4679C29.1036 17.6189 29.0248 17.7564 28.9133 17.865L25.06 21.62L25.97 26.9241C25.9905 27.0437 25.9847 27.1663 25.9529 27.2834C25.9211 27.4004 25.8641 27.5091 25.7859 27.6019C25.7078 27.6947 25.6103 27.7693 25.5003 27.8205C25.3903 27.8717 25.2705 27.8982 25.1492 27.8983H25.1508Z" fill="#BB991D"/>
</g>
<defs>
<clipPath id="clip0_1_106">
<rect width="40" height="40" fill="white"/>
</clipPath>
</defs>
</svg>
