<svg width="133" height="48" viewBox="0 0 133 48" fill="none" xmlns="http://www.w3.org/2000/svg">
<rect x="1" y="1" width="131" height="46" rx="7" stroke="#444444" stroke-width="2"/>
<path d="M15.0625 10.3594V22H13.0781V10.3594H15.0625ZM19.0316 17.0781V22H17.1253V13.5312H18.9925V14.9766L19.055 14.9688C19.2477 14.5052 19.555 14.1276 19.9769 13.8359C20.3987 13.5391 20.9352 13.3906 21.5862 13.3906C22.1696 13.3906 22.6904 13.5182 23.1487 13.7734C23.6071 14.0286 23.9691 14.401 24.2347 14.8906C24.5003 15.375 24.6331 15.9688 24.6331 16.6719V22H22.7347V16.9375C22.7347 16.3281 22.5732 15.8568 22.2503 15.5234C21.9326 15.1901 21.4977 15.0234 20.9456 15.0234C20.5862 15.0234 20.2607 15.1016 19.9691 15.2578C19.6774 15.4089 19.4482 15.638 19.2816 15.9453C19.1149 16.2474 19.0316 16.625 19.0316 17.0781ZM29.485 22.1641C28.7767 22.1641 28.1517 21.9844 27.61 21.625C27.0683 21.2656 26.6465 20.7578 26.3444 20.1016C26.0423 19.4453 25.8912 18.6693 25.8912 17.7734C25.8912 16.8776 26.0449 16.1016 26.3522 15.4453C26.6595 14.7891 27.0814 14.2839 27.6178 13.9297C28.1595 13.5703 28.7793 13.3906 29.4772 13.3906C29.9095 13.3906 30.2845 13.4583 30.6022 13.5938C30.9251 13.724 31.1985 13.8984 31.4225 14.1172C31.6465 14.3307 31.8287 14.5651 31.9694 14.8203H32.0241V10.3594H33.9303V22H32.0553V20.7031H31.985C31.8444 20.9635 31.6595 21.2057 31.4303 21.4297C31.2011 21.6484 30.9251 21.8255 30.6022 21.9609C30.2845 22.0964 29.9121 22.1641 29.485 22.1641ZM29.9381 20.5703C30.386 20.5703 30.7715 20.4557 31.0944 20.2266C31.4173 19.9922 31.6647 19.6641 31.8366 19.2422C32.0136 18.8203 32.1022 18.3281 32.1022 17.7656C32.1022 17.2031 32.0162 16.7135 31.8444 16.2969C31.6725 15.8802 31.4251 15.5573 31.1022 15.3281C30.7793 15.0938 30.3912 14.9766 29.9381 14.9766C29.4954 14.9766 29.1152 15.0911 28.7975 15.3203C28.485 15.5495 28.2428 15.8724 28.0709 16.2891C27.9043 16.7057 27.8209 17.1979 27.8209 17.7656C27.8209 18.3385 27.9043 18.8359 28.0709 19.2578C28.2428 19.6745 28.4876 19.9974 28.8053 20.2266C29.123 20.4557 29.5006 20.5703 29.9381 20.5703ZM35.8369 22V13.5312H37.7353V22H35.8369ZM36.79 12.2344C36.4723 12.2344 36.1989 12.1302 35.9697 11.9219C35.7457 11.7083 35.6338 11.4505 35.6338 11.1484C35.6338 10.8516 35.7457 10.5964 35.9697 10.3828C36.1989 10.1693 36.4723 10.0625 36.79 10.0625C37.1077 10.0625 37.3785 10.1693 37.6025 10.3828C37.8317 10.5964 37.9463 10.8516 37.9463 11.1484C37.9463 11.4505 37.8317 11.7083 37.6025 11.9219C37.3785 12.1302 37.1077 12.2344 36.79 12.2344ZM43.0637 22.1797C42.2408 22.1797 41.5247 21.9948 40.9153 21.625C40.3059 21.25 39.8346 20.7344 39.5012 20.0781C39.1679 19.4167 39.0012 18.6562 39.0012 17.7969C39.0012 16.9271 39.1679 16.1615 39.5012 15.5C39.8398 14.8333 40.3137 14.3151 40.9231 13.9453C41.5325 13.5703 42.2434 13.3828 43.0559 13.3828C43.7434 13.3828 44.3554 13.513 44.8919 13.7734C45.4283 14.0339 45.8606 14.3958 46.1887 14.8594C46.5169 15.3229 46.707 15.8594 46.7591 16.4688H44.9075C44.8554 16.1771 44.7512 15.9193 44.595 15.6953C44.4387 15.4661 44.233 15.2865 43.9778 15.1562C43.7278 15.026 43.4283 14.9609 43.0794 14.9609C42.6419 14.9609 42.2617 15.0755 41.9387 15.3047C41.6158 15.5339 41.3658 15.8594 41.1887 16.2812C41.0117 16.7031 40.9231 17.2005 40.9231 17.7734C40.9231 18.3516 41.0091 18.8542 41.1809 19.2812C41.358 19.7031 41.608 20.0286 41.9309 20.2578C42.2539 20.487 42.6367 20.6016 43.0794 20.6016C43.4179 20.6016 43.7096 20.5417 43.9544 20.4219C44.2044 20.2969 44.4075 20.1198 44.5637 19.8906C44.7252 19.6615 44.8372 19.3932 44.8997 19.0859H46.7591C46.7122 19.6797 46.5273 20.2109 46.2044 20.6797C45.8815 21.1484 45.4518 21.5156 44.9153 21.7812C44.3789 22.0469 43.7617 22.1797 43.0637 22.1797ZM51.6813 22.1797C50.8375 22.1797 50.1083 21.9974 49.4938 21.6328C48.8844 21.263 48.413 20.7474 48.0797 20.0859C47.7516 19.4245 47.5875 18.6615 47.5875 17.7969C47.5875 16.9323 47.7542 16.1693 48.0875 15.5078C48.4208 14.8411 48.887 14.3203 49.4859 13.9453C50.0849 13.5703 50.7802 13.3828 51.5719 13.3828C52.1344 13.3828 52.6526 13.4792 53.1266 13.6719C53.6057 13.8594 54.025 14.138 54.3844 14.5078C54.7438 14.8776 55.0224 15.3333 55.2203 15.875C55.4182 16.4115 55.5172 17.0286 55.5172 17.7266V18.2812H48.4391V16.9531H54.5563L53.6891 17.3438C53.6891 16.849 53.6057 16.4193 53.4391 16.0547C53.2776 15.6901 53.0406 15.4089 52.7281 15.2109C52.4156 15.0078 52.038 14.9062 51.5953 14.9062C51.1526 14.9062 50.7724 15.0078 50.4547 15.2109C50.137 15.4089 49.8922 15.6875 49.7203 16.0469C49.5484 16.401 49.4625 16.8099 49.4625 17.2734V18.1328C49.4625 18.6536 49.551 19.1042 49.7281 19.4844C49.9104 19.8594 50.1708 20.151 50.5094 20.3594C50.8479 20.5625 51.249 20.6641 51.7125 20.6641C52.0354 20.6641 52.3245 20.6172 52.5797 20.5234C52.8349 20.4297 53.051 20.2917 53.2281 20.1094C53.4052 19.9271 53.5354 19.7135 53.6188 19.4688L55.4078 19.5781C55.2984 20.0938 55.0719 20.5469 54.7281 20.9375C54.3844 21.3281 53.9521 21.6328 53.4313 21.8516C52.9104 22.0703 52.3271 22.1797 51.6813 22.1797ZM63.33 15.9531L61.5644 16.0547C61.5331 15.8307 61.4524 15.6276 61.3222 15.4453C61.192 15.2578 61.0123 15.1094 60.7831 15C60.5592 14.8854 60.2883 14.8281 59.9706 14.8281C59.5227 14.8281 59.1607 14.9297 58.8847 15.1328C58.6086 15.3307 58.4706 15.5781 58.4706 15.875C58.4706 16.1354 58.5696 16.349 58.7675 16.5156C58.9706 16.6771 59.2701 16.8021 59.6659 16.8906L61.1191 17.2031C61.9368 17.3802 62.5409 17.6589 62.9316 18.0391C63.3222 18.4141 63.5175 18.9062 63.5175 19.5156C63.5175 20.0521 63.3665 20.5208 63.0644 20.9219C62.7623 21.3229 62.343 21.6354 61.8066 21.8594C61.2753 22.0781 60.6633 22.1875 59.9706 22.1875C59.2988 22.1875 58.7024 22.0859 58.1816 21.8828C57.6607 21.6797 57.2415 21.3828 56.9238 20.9922C56.606 20.5964 56.4159 20.1172 56.3534 19.5547L58.2206 19.4609C58.2883 19.8724 58.4706 20.1875 58.7675 20.4062C59.0644 20.6198 59.4576 20.7266 59.9472 20.7266C60.4524 20.7266 60.8508 20.625 61.1425 20.4219C61.4394 20.2188 61.5878 19.9661 61.5878 19.6641C61.5878 19.4036 61.4863 19.1927 61.2831 19.0312C61.08 18.8698 60.7909 18.7474 60.4159 18.6641L58.9784 18.3594C58.1764 18.1875 57.5748 17.901 57.1738 17.5C56.7727 17.0938 56.5722 16.5781 56.5722 15.9531C56.5722 15.4427 56.7102 14.9948 56.9863 14.6094C57.2675 14.224 57.6607 13.9245 58.1659 13.7109C58.6764 13.4922 59.2675 13.3828 59.9394 13.3828C60.5956 13.3828 61.1659 13.4896 61.6503 13.7031C62.1399 13.9115 62.5279 14.2083 62.8144 14.5938C63.106 14.974 63.2779 15.4271 63.33 15.9531ZM71.7134 22.1641C70.9322 22.1641 70.2551 22.0234 69.6822 21.7422C69.1145 21.4557 68.677 21.0677 68.3697 20.5781C68.0624 20.0833 67.9087 19.526 67.9087 18.9062C67.9087 18.4375 68.0077 18.0234 68.2056 17.6641C68.4035 17.3047 68.6744 16.9714 69.0181 16.6641C69.3671 16.3568 69.7629 16.0443 70.2056 15.7266L72.1978 14.3516C72.4999 14.138 72.7343 13.9219 72.9009 13.7031C73.0676 13.4844 73.1509 13.2161 73.1509 12.8984C73.1509 12.638 73.039 12.3906 72.815 12.1562C72.5962 11.9219 72.2994 11.8047 71.9244 11.8047C71.6692 11.8047 71.4426 11.8672 71.2447 11.9922C71.052 12.112 70.9009 12.2682 70.7916 12.4609C70.6822 12.6536 70.6275 12.8594 70.6275 13.0781C70.6275 13.3333 70.6978 13.5964 70.8384 13.8672C70.9843 14.1328 71.1718 14.4062 71.4009 14.6875C71.6353 14.9688 71.8801 15.2682 72.1353 15.5859L77.5728 22H75.4712L70.9634 16.7891C70.6093 16.3724 70.2733 15.9688 69.9556 15.5781C69.6431 15.1875 69.3853 14.7891 69.1822 14.3828C68.9843 13.9766 68.8853 13.5339 68.8853 13.0547C68.8853 12.5078 69.0103 12.0234 69.2603 11.6016C69.5103 11.1745 69.8593 10.8385 70.3072 10.5938C70.7603 10.349 71.289 10.2266 71.8931 10.2266C72.4973 10.2266 73.0181 10.3464 73.4556 10.5859C73.8931 10.8255 74.2291 11.1432 74.4634 11.5391C74.703 11.9297 74.8228 12.3594 74.8228 12.8281C74.8228 13.375 74.6848 13.862 74.4087 14.2891C74.1379 14.7161 73.7603 15.1068 73.2759 15.4609L70.9244 17.1875C70.5077 17.4948 70.216 17.7995 70.0494 18.1016C69.8827 18.3984 69.7994 18.6432 69.7994 18.8359C69.7994 19.1536 69.8801 19.4453 70.0416 19.7109C70.203 19.9766 70.4296 20.1901 70.7212 20.3516C71.0181 20.5078 71.3645 20.5859 71.7603 20.5859C72.1822 20.5859 72.5962 20.4922 73.0025 20.3047C73.414 20.112 73.7837 19.8411 74.1119 19.4922C74.4452 19.1432 74.7108 18.724 74.9087 18.2344C75.1067 17.7448 75.2056 17.2005 75.2056 16.6016H76.8853C76.8853 17.3411 76.802 17.9766 76.6353 18.5078C76.4686 19.0391 76.2603 19.4818 76.0103 19.8359C75.7603 20.1901 75.5077 20.4688 75.2525 20.6719C75.1692 20.7396 75.0884 20.8047 75.0103 20.8672C74.9374 20.9245 74.8619 20.9844 74.7837 21.0469C74.3775 21.4323 73.8983 21.7161 73.3462 21.8984C72.7942 22.0755 72.2499 22.1641 71.7134 22.1641ZM17.1875 38.1875C16.2604 38.1875 15.4609 38.0365 14.7891 37.7344C14.1172 37.4323 13.5964 37 13.2266 36.4375C12.862 35.875 12.6719 35.1979 12.6562 34.4062H14.6094C14.6302 34.8542 14.7474 35.2344 14.9609 35.5469C15.1797 35.8594 15.4792 36.0964 15.8594 36.2578C16.2396 36.4193 16.6823 36.5 17.1875 36.5C17.6719 36.5 18.0964 36.4271 18.4609 36.2812C18.8307 36.1354 19.1172 35.9323 19.3203 35.6719C19.5286 35.4115 19.6328 35.1068 19.6328 34.7578C19.6328 34.4609 19.5495 34.2083 19.3828 34C19.2214 33.7917 18.9818 33.6146 18.6641 33.4688C18.3464 33.3229 17.9479 33.1927 17.4688 33.0781L16.1719 32.7578C15.1042 32.5026 14.2969 32.1198 13.75 31.6094C13.2031 31.099 12.9297 30.4323 12.9297 29.6094C12.9297 28.9219 13.1094 28.3229 13.4688 27.8125C13.8281 27.2969 14.3255 26.8984 14.9609 26.6172C15.5964 26.3307 16.3281 26.1875 17.1562 26.1875C17.9948 26.1875 18.724 26.3333 19.3438 26.625C19.9688 26.9167 20.4557 27.3255 20.8047 27.8516C21.1589 28.3776 21.3464 28.9974 21.3672 29.7109H19.4688C19.4219 29.1328 19.1875 28.6823 18.7656 28.3594C18.349 28.0365 17.8047 27.875 17.1328 27.875C16.6901 27.875 16.3021 27.9453 15.9688 28.0859C15.6354 28.2214 15.375 28.4141 15.1875 28.6641C15 28.9089 14.9062 29.1901 14.9062 29.5078C14.9062 29.7318 14.9557 29.9297 15.0547 30.1016C15.1536 30.2682 15.2943 30.4167 15.4766 30.5469C15.6641 30.6719 15.8854 30.7839 16.1406 30.8828C16.401 30.9766 16.6875 31.0625 17 31.1406L18.1562 31.4219C18.6719 31.5417 19.1406 31.6927 19.5625 31.875C19.9844 32.0573 20.3464 32.2812 20.6484 32.5469C20.9557 32.8073 21.1901 33.1172 21.3516 33.4766C21.5182 33.8307 21.6016 34.2396 21.6016 34.7031C21.6016 35.3958 21.4245 36.0052 21.0703 36.5312C20.7161 37.0521 20.2083 37.4583 19.5469 37.75C18.8906 38.0417 18.1042 38.1875 17.1875 38.1875ZM27.1097 29.5312V31.0547H22.2581V29.5312H27.1097ZM23.4925 27.1875H25.3988V35.4766C25.3988 35.7057 25.43 35.8958 25.4925 36.0469C25.5602 36.1927 25.6644 36.2995 25.805 36.3672C25.9456 36.4349 26.1279 36.4688 26.3519 36.4688C26.4508 36.4688 26.5706 36.4661 26.7113 36.4609C26.8519 36.4557 26.9613 36.4479 27.0394 36.4375L27.1878 37.9688C27.0524 37.9948 26.8779 38.0156 26.6644 38.0312C26.4508 38.0469 26.2321 38.0547 26.0081 38.0547C25.4769 38.0547 25.0238 37.9661 24.6488 37.7891C24.2738 37.6068 23.9873 37.349 23.7894 37.0156C23.5915 36.6771 23.4925 36.2708 23.4925 35.7969V27.1875ZM31.9225 38.1797C31.1048 38.1797 30.3886 37.9974 29.7741 37.6328C29.1647 37.263 28.6907 36.75 28.3522 36.0938C28.0136 35.4323 27.8444 34.6667 27.8444 33.7969C27.8444 32.9167 28.0136 32.1458 28.3522 31.4844C28.6907 30.8229 29.1647 30.3073 29.7741 29.9375C30.3886 29.5677 31.1048 29.3828 31.9225 29.3828C32.7454 29.3828 33.4616 29.5677 34.0709 29.9375C34.6855 30.3073 35.1621 30.8229 35.5006 31.4844C35.8392 32.1458 36.0084 32.9167 36.0084 33.7969C36.0084 34.6667 35.8392 35.4323 35.5006 36.0938C35.1621 36.75 34.6855 37.263 34.0709 37.6328C33.4616 37.9974 32.7454 38.1797 31.9225 38.1797ZM31.9225 36.6016C32.386 36.6016 32.7767 36.4818 33.0944 36.2422C33.4173 36.0026 33.6621 35.6719 33.8287 35.25C34.0006 34.8229 34.0866 34.3359 34.0866 33.7891C34.0866 33.237 34.0006 32.75 33.8287 32.3281C33.6621 31.901 33.4173 31.5677 33.0944 31.3281C32.7767 31.0833 32.386 30.9609 31.9225 30.9609C31.4642 30.9609 31.0735 31.0833 30.7506 31.3281C30.4329 31.5677 30.1881 31.901 30.0162 32.3281C29.8496 32.75 29.7662 33.237 29.7662 33.7891C29.7662 34.3411 29.8496 34.8281 30.0162 35.25C30.1881 35.6719 30.4329 36.0026 30.7506 36.2422C31.0735 36.4818 31.4642 36.6016 31.9225 36.6016ZM40.9463 38.1797C40.1233 38.1797 39.4072 37.9948 38.7978 37.625C38.1884 37.25 37.7171 36.7344 37.3838 36.0781C37.0504 35.4167 36.8838 34.6562 36.8838 33.7969C36.8838 32.9271 37.0504 32.1615 37.3838 31.5C37.7223 30.8333 38.1963 30.3151 38.8056 29.9453C39.415 29.5703 40.1259 29.3828 40.9384 29.3828C41.6259 29.3828 42.2379 29.513 42.7744 29.7734C43.3108 30.0339 43.7431 30.3958 44.0713 30.8594C44.3994 31.3229 44.5895 31.8594 44.6416 32.4688H42.79C42.7379 32.1771 42.6338 31.9193 42.4775 31.6953C42.3213 31.4661 42.1155 31.2865 41.8603 31.1562C41.6103 31.026 41.3108 30.9609 40.9619 30.9609C40.5244 30.9609 40.1442 31.0755 39.8213 31.3047C39.4983 31.5339 39.2483 31.8594 39.0713 32.2812C38.8942 32.7031 38.8056 33.2005 38.8056 33.7734C38.8056 34.3516 38.8916 34.8542 39.0634 35.2812C39.2405 35.7031 39.4905 36.0286 39.8134 36.2578C40.1364 36.487 40.5192 36.6016 40.9619 36.6016C41.3004 36.6016 41.5921 36.5417 41.8369 36.4219C42.0869 36.2969 42.29 36.1198 42.4463 35.8906C42.6077 35.6615 42.7197 35.3932 42.7822 35.0859H44.6416C44.5947 35.6797 44.4098 36.2109 44.0869 36.6797C43.764 37.1484 43.3343 37.5156 42.7978 37.7812C42.2614 38.0469 41.6442 38.1797 40.9463 38.1797ZM47.8528 35.2891V32.9844H48.1184L51.3684 29.5312H53.6419L49.7747 33.6797H49.4075L47.8528 35.2891ZM46.1106 38V26.3594H48.0091V38H46.1106ZM51.5638 38L48.6263 34.1094L49.9153 32.7734L53.8606 38H51.5638ZM61.1188 31.9531L59.3531 32.0547C59.3219 31.8307 59.2411 31.6276 59.1109 31.4453C58.9807 31.2578 58.801 31.1094 58.5719 31C58.3479 30.8854 58.0771 30.8281 57.7594 30.8281C57.3115 30.8281 56.9495 30.9297 56.6734 31.1328C56.3974 31.3307 56.2594 31.5781 56.2594 31.875C56.2594 32.1354 56.3583 32.349 56.5563 32.5156C56.7594 32.6771 57.0589 32.8021 57.4547 32.8906L58.9078 33.2031C59.7255 33.3802 60.3297 33.6589 60.7203 34.0391C61.1109 34.4141 61.3063 34.9062 61.3063 35.5156C61.3063 36.0521 61.1552 36.5208 60.8531 36.9219C60.551 37.3229 60.1318 37.6354 59.5953 37.8594C59.0641 38.0781 58.4521 38.1875 57.7594 38.1875C57.0875 38.1875 56.4911 38.0859 55.9703 37.8828C55.4495 37.6797 55.0302 37.3828 54.7125 36.9922C54.3948 36.5964 54.2047 36.1172 54.1422 35.5547L56.0094 35.4609C56.0771 35.8724 56.2594 36.1875 56.5563 36.4062C56.8531 36.6198 57.2464 36.7266 57.7359 36.7266C58.2411 36.7266 58.6396 36.625 58.9313 36.4219C59.2281 36.2188 59.3766 35.9661 59.3766 35.6641C59.3766 35.4036 59.275 35.1927 59.0719 35.0312C58.8688 34.8698 58.5797 34.7474 58.2047 34.6641L56.7672 34.3594C55.9651 34.1875 55.3635 33.901 54.9625 33.5C54.5615 33.0938 54.3609 32.5781 54.3609 31.9531C54.3609 31.4427 54.499 30.9948 54.775 30.6094C55.0563 30.224 55.4495 29.9245 55.9547 29.7109C56.4651 29.4922 57.0563 29.3828 57.7281 29.3828C58.3844 29.3828 58.9547 29.4896 59.4391 29.7031C59.9286 29.9115 60.3167 30.2083 60.6031 30.5938C60.8948 30.974 61.0667 31.4271 61.1188 31.9531Z" fill="white"/>
<path d="M94.5 18L103.593 30H85.4067L94.5 18Z" fill="#43A833"/>
<path d="M110.5 30L119.593 18H101.407L110.5 30Z" fill="#FF1717"/>
</svg>
