<svg width="40" height="40" viewBox="0 0 40 40" fill="none" xmlns="http://www.w3.org/2000/svg">
<path d="M38.4417 24.9442C38.0326 24.5271 37.5003 24.2527 36.9233 24.1615C36.3463 24.0703 35.7553 24.167 35.2375 24.4375L28.13 27.9875C27.8608 28.8042 27.356 29.5229 26.679 30.0531C26.002 30.5832 25.1832 30.9011 24.3258 30.9667L15.0758 31.6275H15.015C14.794 31.6352 14.5789 31.5549 14.4172 31.4041C14.2554 31.2532 14.1602 31.0444 14.1525 30.8233C14.1448 30.6023 14.2251 30.3873 14.376 30.2255C14.5268 30.0638 14.7357 29.9686 14.9567 29.9608L15.0158 29.9567L24.1892 29.4792C24.8657 29.4299 25.4986 29.1264 25.9605 28.6296C26.4225 28.1328 26.6793 27.4796 26.6793 26.8013C26.6793 26.1229 26.4225 25.4697 25.9605 24.9729C25.4986 24.4761 24.8657 24.1726 24.1892 24.1233L15.6058 22.5633C15.2141 22.4922 14.8295 22.3862 14.4567 22.2467L9.84333 20.5167C8.86196 20.1485 7.8076 20.0169 6.76583 20.1325L1.59167 20.7075C1.38776 20.7301 1.19934 20.8271 1.06249 20.9799C0.925646 21.1327 0.849984 21.3307 0.849998 21.5358V31.6192C0.849998 31.8402 0.937796 32.0521 1.09408 32.2084C1.25036 32.3647 1.46232 32.4525 1.68333 32.4525H2.38167C3.56206 32.4526 4.72127 32.766 5.74083 33.3608L11.965 37C13.3928 37.8328 15.0791 38.1054 16.6967 37.765L28.5792 35.265C29.5321 35.0646 30.4295 34.6578 31.2083 34.0733L38.105 28.8958C38.4042 28.6709 38.6526 28.3854 38.8339 28.0579C39.0153 27.7304 39.1254 27.3683 39.1572 26.9953C39.189 26.6223 39.1417 26.2468 39.0184 25.8934C38.8951 25.5399 38.6985 25.2165 38.4417 24.9442Z" fill="#EEBC99"/>
<path d="M24.1667 19.1666C29.2293 19.1666 33.3333 15.0626 33.3333 9.99998C33.3333 4.93737 29.2293 0.833313 24.1667 0.833313C19.1041 0.833313 15 4.93737 15 9.99998C15 15.0626 19.1041 19.1666 24.1667 19.1666Z" fill="#EFD358"/>
<path d="M24.1667 17.5C22.6833 17.5 21.2333 17.0601 19.9999 16.236C18.7665 15.4119 17.8052 14.2406 17.2376 12.8701C16.6699 11.4997 16.5214 9.99168 16.8108 8.53683C17.1002 7.08197 17.8145 5.7456 18.8634 4.6967C19.9123 3.64781 21.2486 2.9335 22.7035 2.64411C24.1583 2.35472 25.6663 2.50325 27.0368 3.07091C28.4072 3.63856 29.5786 4.59986 30.4027 5.83323C31.2268 7.0666 31.6667 8.51664 31.6667 10C31.6645 11.9885 30.8736 13.8948 29.4675 15.3009C28.0615 16.7069 26.1551 17.4978 24.1667 17.5Z" fill="#D8BC48"/>
<path d="M24.1667 15.8333C23.0129 15.8333 21.8851 15.4912 20.9258 14.8502C19.9666 14.2092 19.2189 13.2982 18.7774 12.2323C18.3359 11.1664 18.2203 9.99349 18.4454 8.86194C18.6705 7.73038 19.2261 6.69098 20.0419 5.87517C20.8577 5.05937 21.8971 4.50379 23.0286 4.27871C24.1602 4.05363 25.3331 4.16915 26.399 4.61066C27.4649 5.05218 28.3759 5.79985 29.0169 6.75914C29.6579 7.71842 30 8.84624 30 9.99996C29.9982 11.5465 29.3831 13.0292 28.2895 14.1228C27.1959 15.2164 25.7132 15.8315 24.1667 15.8333Z" fill="#EFD358"/>
<path d="M24.1667 13.3333C23.9457 13.3333 23.7337 13.2454 23.5775 13.0891L21.0775 10.5891C20.9213 10.4329 20.8335 10.2209 20.8335 9.99996C20.8335 9.77899 20.9213 9.56707 21.0775 9.4108L23.5775 6.9108C23.7338 6.75457 23.9457 6.66681 24.1667 6.66681C24.3876 6.66681 24.5996 6.75457 24.7558 6.9108L27.2558 9.4108C27.4121 9.56707 27.4998 9.77899 27.4998 9.99996C27.4998 10.2209 27.4121 10.4329 27.2558 10.5891L24.7558 13.0891C24.5996 13.2454 24.3877 13.3333 24.1667 13.3333Z" fill="#D8BC48"/>
</svg>
