<svg xmlns="http://www.w3.org/2000/svg" width="299" height="135" viewBox="0 0 299 135" fill="none">
<path d="M107.381 43.4033V95.2617H87.6521V49.7447C87.6521 38.612 82.7199 34.9481 76.9422 34.9481C67.0778 34.9481 63.5548 41.4304 63.5548 50.3083V95.2617H43.826V50.1674C43.826 43.826 43.826 34.9481 31.9888 34.9481C22.6881 34.9481 19.7288 41.4304 19.7288 49.6037V95.2617H0V20.2924H18.8832V31.2842H19.1651C21.7016 26.352 27.1975 18.3196 40.444 18.3196C51.2948 18.3196 56.227 22.2653 61.3001 30.2977C63.8366 26.6338 69.3325 18.3196 81.3107 18.3196C95.9663 18.3196 107.381 26.9157 107.381 43.4033Z" fill="#ecedf0"/>
<path d="M180.856 20.2924L155.068 93.9934C145.767 121.755 143.231 125.419 126.038 125.419C123.361 125.419 119.979 125.278 117.16 125.137V109.354C118.006 109.495 119.274 109.636 120.965 109.636C128.152 109.636 132.098 108.649 133.93 98.3619L106.31 20.2924H128.293L144.358 75.533H144.64L160 20.2924H180.856Z" fill="#ecedf0"/>
<path d="M253.101 43.4033V95.2617H233.372V49.7447C233.372 44.2488 233.09 34.9481 220.548 34.9481C211.811 34.9481 205.047 40.8667 205.047 52.2812V95.2617H185.318V20.2924H204.201V31.2842H204.483C207.161 26.7747 212.798 18.3196 227.03 18.3196C241.686 18.3196 253.101 26.9157 253.101 43.4033Z" fill="#ecedf0"/>
<path d="M286.545 0V20.2924H298.805V34.3844H286.545V75.1102C286.545 79.4787 286.686 81.1697 294.718 81.1697C295.986 81.1697 297.396 81.0288 298.805 80.8879V95.8254C295.705 95.9663 292.604 96.1072 289.504 96.1072H286.968C269.916 96.1072 266.816 89.6249 266.816 79.9015V34.3844H256.67V20.2924H266.816V8.17334L286.545 0Z" fill="#ecedf0"/>
<path d="M204.79 121.7H207.85C208.49 121.7 208.94 121.57 209.2 121.31C209.48 121.03 209.62 120.57 209.62 119.93V114.71C209.62 114.07 209.48 113.62 209.2 113.36C208.94 113.08 208.49 112.94 207.85 112.94H206.53C205.15 112.94 204.46 113.7 204.46 115.22V121.37C204.46 121.59 204.57 121.7 204.79 121.7ZM200.65 124.37V104.54C200.65 104.12 200.86 103.91 201.28 103.91H203.83C204.25 103.91 204.46 104.12 204.46 104.54V111.29H204.58C204.8 110.75 205.19 110.34 205.75 110.06C206.31 109.78 206.9 109.64 207.52 109.64H208.48C210.06 109.64 211.28 110.06 212.14 110.9C213 111.74 213.43 112.95 213.43 114.53V120.11C213.43 121.69 213 122.9 212.14 123.74C211.28 124.58 210.06 125 208.48 125H201.28C200.86 125 200.65 124.79 200.65 124.37ZM218.931 130.07H217.011C216.611 130.07 216.411 129.85 216.411 129.41V127.4C216.411 126.96 216.611 126.74 217.011 126.74H217.641C218.901 126.74 219.751 126.56 220.191 126.2C220.651 125.86 221.001 125.19 221.241 124.19H219.651C219.271 124.19 219.021 123.98 218.901 123.56L215.391 110.33C215.271 109.91 215.421 109.7 215.841 109.7H218.511C218.911 109.7 219.161 109.91 219.261 110.33L221.841 121.4H221.961L224.511 110.33C224.591 109.91 224.841 109.7 225.261 109.7H227.781C228.281 109.7 228.481 109.92 228.381 110.36L224.721 125C224.281 126.66 223.601 127.92 222.681 128.78C221.761 129.64 220.511 130.07 218.931 130.07ZM236.944 124.37V122.57C236.944 121.91 237.074 121.42 237.334 121.1L245.284 109.37V109.25H238.114C237.694 109.25 237.484 109.04 237.484 108.62V106.34C237.484 105.92 237.694 105.71 238.114 105.71H248.764C249.164 105.71 249.364 105.92 249.364 106.34V108.92C249.364 109.52 249.214 110.04 248.914 110.48L241.444 121.34V121.46H249.064C249.464 121.46 249.664 121.65 249.664 122.03V124.31C249.664 124.77 249.464 125 249.064 125H237.574C237.154 125 236.944 124.79 236.944 124.37ZM263.538 125H253.728C253.308 125 253.098 124.79 253.098 124.37V106.34C253.098 105.92 253.308 105.71 253.728 105.71H263.538C263.938 105.71 264.138 105.92 264.138 106.34V108.38C264.138 108.8 263.938 109.01 263.538 109.01H257.268C257.028 109.01 256.908 109.12 256.908 109.34V113.24C256.908 113.46 257.028 113.57 257.268 113.57H262.398C262.818 113.57 263.028 113.78 263.028 114.2V116.24C263.028 116.66 262.818 116.87 262.398 116.87H257.268C257.028 116.87 256.908 116.98 256.908 117.2V121.37C256.908 121.59 257.028 121.7 257.268 121.7H263.538C263.938 121.7 264.138 121.91 264.138 122.33V124.37C264.138 124.79 263.938 125 263.538 125ZM271.594 121.82H274.954C275.614 121.82 276.084 121.69 276.364 121.43C276.664 121.15 276.814 120.7 276.814 120.08V118.34C276.814 117.72 276.664 117.28 276.364 117.02C276.064 116.76 275.574 116.63 274.894 116.63H271.594C271.374 116.63 271.264 116.74 271.264 116.96V121.49C271.264 121.71 271.374 121.82 271.594 121.82ZM271.594 113.54H274.654C275.294 113.54 275.764 113.41 276.064 113.15C276.364 112.87 276.514 112.42 276.514 111.8V110.63C276.514 110.01 276.364 109.57 276.064 109.31C275.784 109.03 275.324 108.89 274.684 108.89H271.594C271.374 108.89 271.264 109 271.264 109.22V113.21C271.264 113.43 271.374 113.54 271.594 113.54ZM267.454 124.37V106.34C267.454 105.92 267.664 105.71 268.084 105.71H275.284C276.864 105.71 278.084 106.13 278.944 106.97C279.804 107.81 280.234 109.01 280.234 110.57V111.8C280.234 113.5 279.444 114.6 277.864 115.1C278.664 115.22 279.304 115.55 279.784 116.09C280.264 116.61 280.504 117.36 280.504 118.34V120.14C280.504 121.7 280.074 122.9 279.214 123.74C278.354 124.58 277.144 125 275.584 125H268.084C267.664 125 267.454 124.79 267.454 124.37ZM293.965 105.71H296.485C296.925 105.71 297.145 105.91 297.145 106.31V120.11C297.145 121.67 296.705 122.88 295.825 123.74C294.965 124.58 293.755 125 292.195 125H288.895C287.315 125 286.095 124.58 285.235 123.74C284.375 122.9 283.945 121.69 283.945 120.11V106.34C283.945 105.92 284.155 105.71 284.575 105.71H287.125C287.545 105.71 287.755 105.92 287.755 106.34V119.93C287.755 120.57 287.885 121.03 288.145 121.31C288.425 121.57 288.875 121.7 289.495 121.7H291.565C292.205 121.7 292.655 121.57 292.915 121.31C293.195 121.03 293.335 120.57 293.335 119.93V106.34C293.335 105.92 293.545 105.71 293.965 105.71Z" fill="#feffff"/>
</svg>