<svg width="22" height="22" viewBox="0 0 22 22" fill="none" xmlns="http://www.w3.org/2000/svg">
<g clip-path="url(#clip0_8896_4152)">
<path d="M10.9987 21.5413C16.8207 21.5413 21.5404 16.8217 21.5404 10.9997C21.5404 5.17767 16.8207 0.458008 10.9987 0.458008C5.1767 0.458008 0.457031 5.17767 0.457031 10.9997C0.457031 16.8217 5.1767 21.5413 10.9987 21.5413Z" fill="#F8D34C"/>
<path d="M10.9969 18.3328C10.8753 18.3328 10.7587 18.2845 10.6728 18.1985C10.5868 18.1126 10.5385 17.996 10.5385 17.8745V16.4995C10.5385 16.3779 10.5868 16.2613 10.6728 16.1754C10.7587 16.0894 10.8753 16.0411 10.9969 16.0411C11.1184 16.0411 11.235 16.0894 11.321 16.1754C11.4069 16.2613 11.4552 16.3779 11.4552 16.4995V17.8745C11.4552 17.996 11.4069 18.1126 11.321 18.1985C11.235 18.2845 11.1184 18.3328 10.9969 18.3328Z" fill="#BB991D"/>
<path d="M17.9713 13.2655C17.9338 13.381 17.8518 13.477 17.7435 13.5322C17.6352 13.5874 17.5094 13.5973 17.3938 13.5597L16.0844 13.1348C16.0247 13.1183 15.969 13.0899 15.9206 13.0513C15.8722 13.0127 15.8321 12.9647 15.8028 12.9101C15.7734 12.8556 15.7555 12.7957 15.7499 12.734C15.7444 12.6723 15.7514 12.6102 15.7706 12.5513C15.7897 12.4924 15.8206 12.438 15.8614 12.3914C15.9021 12.3448 15.9519 12.3069 16.0077 12.28C16.0635 12.2532 16.1242 12.2379 16.186 12.2352C16.2479 12.2324 16.3097 12.2422 16.3676 12.264L17.6753 12.6889C17.791 12.7261 17.8872 12.8077 17.9427 12.9158C17.9982 13.024 18.0085 13.1497 17.9713 13.2655Z" fill="#BB991D"/>
<path d="M15.3075 5.06678C15.3564 5.10218 15.3978 5.14689 15.4294 5.19833C15.461 5.24978 15.4821 5.30695 15.4915 5.36657C15.5009 5.4262 15.4984 5.48709 15.4842 5.54576C15.47 5.60443 15.4444 5.65972 15.4088 5.70845L14.6003 6.81945C14.5286 6.91779 14.4207 6.98361 14.3005 7.00244C14.1802 7.02126 14.0574 6.99155 13.9591 6.91983C13.8608 6.84811 13.7949 6.74026 13.7761 6.62001C13.7573 6.49976 13.787 6.37696 13.8587 6.27862L14.6672 5.16624C14.739 5.06818 14.8467 5.00262 14.9668 4.98397C15.0868 4.96532 15.2094 4.9951 15.3075 5.06678Z" fill="#BB991D"/>
<path d="M6.68855 5.06678C6.73728 5.03117 6.79257 5.00554 6.85124 4.99135C6.90991 4.97717 6.97081 4.97471 7.03043 4.98412C7.09005 4.99353 7.14722 5.01463 7.19867 5.0462C7.25012 5.07777 7.29482 5.11918 7.33022 5.16808L8.13505 6.27862C8.20653 6.37696 8.23601 6.49966 8.21701 6.61974C8.19802 6.73982 8.1321 6.84743 8.03376 6.91891C7.93542 6.99039 7.81271 7.01987 7.69263 7.00087C7.57256 6.98188 7.46494 6.91596 7.39347 6.81762L6.58497 5.70524C6.51429 5.60676 6.48551 5.48428 6.50493 5.36463C6.52434 5.24497 6.59036 5.13788 6.68855 5.06678Z" fill="#BB991D"/>
<path d="M4.02242 13.2655C3.98487 13.1499 3.99477 13.0241 4.04996 12.9158C4.10514 12.8075 4.20108 12.7255 4.31667 12.688L5.6243 12.2631C5.68227 12.2413 5.74404 12.2315 5.80591 12.2342C5.86777 12.237 5.92843 12.2523 5.98423 12.2791C6.04003 12.306 6.08981 12.3438 6.13057 12.3905C6.17133 12.4371 6.20221 12.4915 6.22137 12.5504C6.24052 12.6092 6.24754 12.6714 6.24201 12.7331C6.23648 12.7947 6.2185 12.8547 6.18918 12.9092C6.15985 12.9637 6.11977 13.0118 6.07137 13.0504C6.02296 13.089 5.96724 13.1174 5.90755 13.1339L4.59992 13.5588C4.48444 13.5964 4.35876 13.5866 4.25048 13.5316C4.1422 13.4766 4.06018 13.3809 4.02242 13.2655Z" fill="#BB991D"/>
<path d="M13.8298 15.3435C13.7555 15.3435 13.6823 15.3252 13.6167 15.2904L10.9969 13.9154L8.37705 15.2904C8.30141 15.33 8.2162 15.3477 8.13103 15.3415C8.04586 15.3353 7.96412 15.3054 7.89503 15.2552C7.82593 15.2051 7.77223 15.1366 7.73997 15.0575C7.70771 14.9784 7.69819 14.8919 7.71247 14.8077L8.21297 11.8905L6.09272 9.8252C6.03144 9.76552 5.98808 9.68988 5.96756 9.60683C5.94703 9.52379 5.95016 9.43666 5.97658 9.3553C6.003 9.27394 6.05166 9.2016 6.11706 9.14646C6.18245 9.09132 6.26198 9.05558 6.34663 9.04328L9.27538 8.61795L10.5853 5.9642C10.6273 5.89262 10.6873 5.83327 10.7594 5.79203C10.8314 5.75079 10.913 5.72909 10.996 5.72909C11.079 5.72909 11.1605 5.75079 11.2326 5.79203C11.3046 5.83327 11.3646 5.89262 11.4066 5.9642L12.7166 8.61795L15.6453 9.04328C15.73 9.05558 15.8095 9.09132 15.8749 9.14646C15.9403 9.2016 15.9889 9.27394 16.0154 9.3553C16.0418 9.43666 16.0449 9.52379 16.0244 9.60683C16.0039 9.68988 15.9605 9.76552 15.8992 9.8252L13.7799 11.8905L14.2804 14.8077C14.2917 14.8735 14.2884 14.9409 14.271 15.0053C14.2535 15.0697 14.2221 15.1295 14.1791 15.1805C14.1361 15.2316 14.0825 15.2726 14.022 15.3007C13.9616 15.3289 13.8956 15.3435 13.8289 15.3435H13.8298Z" fill="#BB991D"/>
</g>
<defs>
<clipPath id="clip0_8896_4152">
<rect width="22" height="22" fill="white"/>
</clipPath>
</defs>
</svg>
