<svg width="72" height="70" viewBox="0 0 72 70" fill="none" xmlns="http://www.w3.org/2000/svg">
<g clip-path="url(#clip0_3197_123385)" filter="url(#filter0_d_3197_123385)">
<rect x="28" width="33" height="44" rx="4" fill="#555555"/>
<path d="M67.5852 53.9182C67.2719 53.5695 66.8414 53.3772 66.3732 53.3772H57.9622V8.76772C57.9622 5.09409 54.9752 2.10547 51.3034 2.10547H11.4839C7.63415 2.10547 4.42065 4.99372 4.00777 8.83509C3.96352 9.29622 4.10927 9.73972 4.4174 10.083C4.72827 10.4305 5.15777 10.6217 5.6269 10.6217H17V54.3771C17 58.5216 20.3719 61.8933 24.5163 61.8933H60.5163C62.378 61.8933 64.1673 61.2018 65.5545 59.9463C66.931 58.7003 67.7964 57.0067 67.9904 55.1862C68.0442 54.7206 67.9004 54.2706 67.5852 53.9182ZM6.0579 8.62172C6.53627 6.01922 8.79927 4.10547 11.4838 4.10547C14.184 4.10547 16.4373 6.05584 16.909 8.62172H6.0579ZM24.5162 59.8933C21.4745 59.8933 18.9999 57.4187 18.9999 54.3771V9.62184C18.9999 7.44409 18.0687 5.47959 16.584 4.10559H51.3035C53.8723 4.10559 55.9623 6.19709 55.9623 8.76784V53.3773H31.631C30.7819 53.3773 30.0855 54.0148 30.0114 54.8595C29.7613 57.6822 27.3474 59.8933 24.5162 59.8933ZM60.5162 59.8933H29.5932C30.852 58.7343 31.7243 57.1543 31.9653 55.3771H65.9432C65.4689 57.9792 63.2048 59.8933 60.5162 59.8933ZM34.3162 14.1925C34.3162 13.9273 34.4215 13.6729 34.609 13.4854C34.7966 13.2978 35.0509 13.1925 35.3162 13.1925H49.9392C50.2044 13.1925 50.4587 13.2978 50.6463 13.4854C50.8338 13.6729 50.9392 13.9273 50.9392 14.1925C50.9392 14.4577 50.8338 14.712 50.6463 14.8996C50.4587 15.0871 50.2044 15.1925 49.9392 15.1925H35.316C35.0508 15.1925 34.7965 15.0871 34.6089 14.8996C34.4214 14.712 34.3162 14.4577 34.3162 14.1925ZM34.3162 22.0338C34.3162 21.7686 34.4215 21.5143 34.609 21.3267C34.7966 21.1392 35.0509 21.0338 35.3162 21.0338H49.9392C50.2044 21.0338 50.4587 21.1392 50.6463 21.3267C50.8338 21.5143 50.9392 21.7686 50.9392 22.0338C50.9392 22.2991 50.8338 22.5534 50.6463 22.7409C50.4587 22.9285 50.2044 23.0338 49.9392 23.0338H35.316C35.0508 23.0338 34.7965 22.9285 34.6089 22.7409C34.4214 22.5534 34.3162 22.2991 34.3162 22.0338ZM34.3162 29.8751C34.3162 29.6099 34.4215 29.3555 34.609 29.168C34.7966 28.9804 35.0509 28.8751 35.3162 28.8751H49.9392C50.2044 28.8751 50.4587 28.9804 50.6463 29.168C50.8338 29.3555 50.9392 29.6099 50.9392 29.8751C50.9392 30.1403 50.8338 30.3947 50.6463 30.5822C50.4587 30.7697 50.2044 30.8751 49.9392 30.8751H35.316C35.0508 30.8751 34.7965 30.7697 34.6089 30.5822C34.4214 30.3947 34.3162 30.1403 34.3162 29.8751ZM34.3162 37.7165C34.3162 37.4513 34.4215 37.1969 34.609 37.0094C34.7966 36.8218 35.0509 36.7165 35.3162 36.7165H49.9392C50.2044 36.7165 50.4587 36.8218 50.6463 37.0094C50.8338 37.1969 50.9392 37.4513 50.9392 37.7165C50.9392 37.9817 50.8338 38.236 50.6463 38.4236C50.4587 38.6111 50.2044 38.7165 49.9392 38.7165H35.316C35.0508 38.7165 34.7965 38.6111 34.6089 38.4236C34.4214 38.236 34.3162 37.9817 34.3162 37.7165ZM34.3162 45.5578C34.3162 45.2926 34.4215 45.0383 34.609 44.8507C34.7966 44.6632 35.0509 44.5578 35.3162 44.5578H49.9392C50.2044 44.5578 50.4587 44.6632 50.6463 44.8507C50.8338 45.0383 50.9392 45.2926 50.9392 45.5578C50.9392 45.8231 50.8338 46.0774 50.6463 46.2649C50.4587 46.4525 50.2044 46.5578 49.9392 46.5578H35.316C35.0508 46.5578 34.7965 46.4525 34.6089 46.2649C34.4214 46.0774 34.3162 45.8231 34.3162 45.5578ZM24.2614 14.2413C24.0932 14.0382 24.012 13.7768 24.0357 13.5141C24.0593 13.2513 24.1857 13.0086 24.3875 12.8387C24.5892 12.6688 24.85 12.5855 25.1129 12.6069C25.3758 12.6283 25.6196 12.7528 25.7912 12.9531L27.0282 14.4222L29.2644 11.7662C29.349 11.6657 29.4525 11.5829 29.5691 11.5224C29.6857 11.462 29.8131 11.4251 29.9439 11.4139C30.0748 11.4026 30.2065 11.4173 30.3317 11.457C30.4569 11.4967 30.5731 11.5606 30.6735 11.6452C30.8764 11.816 31.0031 12.0604 31.0258 12.3247C31.0484 12.5889 30.9652 12.8513 30.7944 13.0542L27.7934 16.6188C27.6995 16.7303 27.5824 16.82 27.4503 16.8815C27.3181 16.943 27.1742 16.9748 27.0284 16.9748C26.8827 16.9748 26.7387 16.943 26.6065 16.8815C26.4744 16.82 26.3573 16.7303 26.2634 16.6188L24.2614 14.2413ZM24.2614 22.0826C24.0932 21.8794 24.012 21.618 24.0357 21.3553C24.0593 21.0926 24.1857 20.8498 24.3875 20.6799C24.5892 20.51 24.85 20.4267 25.1129 20.4481C25.3758 20.4696 25.6196 20.594 25.7912 20.7943L27.0284 22.2636L29.2644 19.6076C29.349 19.5071 29.4525 19.4243 29.5691 19.3638C29.6857 19.3034 29.8131 19.2665 29.9439 19.2552C30.0748 19.244 30.2065 19.2586 30.3317 19.2983C30.4569 19.338 30.5731 19.402 30.6735 19.4866C30.8764 19.6574 31.0031 19.9018 31.0258 20.166C31.0485 20.4303 30.9653 20.6927 30.7945 20.8956L27.7933 24.4602C27.6994 24.5717 27.5823 24.6613 27.4502 24.7227C27.3181 24.7842 27.1741 24.816 27.0284 24.816C26.8827 24.816 26.7387 24.7842 26.6066 24.7227C26.4745 24.6613 26.3574 24.5717 26.2635 24.4602L24.2614 22.0826ZM24.2614 29.9241C24.0932 29.7209 24.012 29.4595 24.0357 29.1968C24.0593 28.9341 24.1857 28.6913 24.3875 28.5214C24.5892 28.3515 24.85 28.2682 25.1129 28.2896C25.3758 28.3111 25.6196 28.4355 25.7912 28.6358L27.0282 30.1048L29.2644 27.4488C29.349 27.3484 29.4525 27.2656 29.5691 27.2051C29.6857 27.1447 29.8131 27.1078 29.9439 27.0965C30.0748 27.0853 30.2066 27.1 30.3317 27.1397C30.4569 27.1794 30.5731 27.2434 30.6735 27.328C30.8764 27.4988 31.0031 27.7432 31.0258 28.0074C31.0484 28.2717 30.9652 28.5341 30.7944 28.737L27.7934 32.3016C27.6995 32.4131 27.5824 32.5027 27.4503 32.5642C27.3181 32.6257 27.1742 32.6576 27.0284 32.6576C26.8827 32.6576 26.7387 32.6257 26.6065 32.5642C26.4744 32.5027 26.3573 32.4131 26.2634 32.3016L24.2614 29.9241ZM24.2614 37.769C24.0932 37.5658 24.012 37.3044 24.0357 37.0417C24.0593 36.779 24.1857 36.5362 24.3875 36.3663C24.5892 36.1964 24.85 36.1131 25.1129 36.1345C25.3758 36.1559 25.6196 36.2804 25.7912 36.4807L27.0279 37.9493L29.2642 35.2906C29.4356 35.09 29.6793 34.9652 29.9423 34.9435C30.2053 34.9219 30.4662 35.005 30.6682 35.1749C30.8701 35.3447 30.9967 35.5876 31.0204 35.8504C31.0441 36.1132 30.963 36.3747 30.7947 36.578L27.7937 40.146C27.6998 40.2575 27.5827 40.3472 27.4506 40.4088C27.3184 40.4703 27.1744 40.5022 27.0287 40.5022C26.8829 40.5022 26.7386 40.4704 26.6065 40.4089C26.4744 40.3475 26.3573 40.2579 26.2634 40.1465L24.2614 37.769ZM30.7947 44.4192L27.7935 47.9873C27.6997 48.0989 27.5826 48.1886 27.4505 48.2502C27.3183 48.3118 27.1743 48.3437 27.0285 48.3437C26.7335 48.3437 26.4533 48.2135 26.2634 47.9878L24.2614 45.6103C24.1755 45.5101 24.1103 45.3938 24.0696 45.2682C24.0289 45.1426 24.0135 45.0102 24.0242 44.8786C24.0349 44.747 24.0716 44.6189 24.1321 44.5015C24.1926 44.3842 24.2758 44.28 24.3768 44.195C24.4778 44.1099 24.5946 44.0457 24.7205 44.006C24.8464 43.9664 24.979 43.952 25.1104 43.9639C25.2419 43.9757 25.3698 44.0134 25.4866 44.0749C25.6035 44.1364 25.707 44.2204 25.7912 44.3221L27.0279 45.7907L29.2642 43.132C29.3481 43.0297 29.4515 42.9451 29.5684 42.8831C29.6853 42.8211 29.8134 42.7829 29.9451 42.7708C30.0769 42.7586 30.2097 42.7727 30.336 42.8123C30.4623 42.8519 30.5794 42.9161 30.6807 43.0013C30.7819 43.0864 30.8653 43.1908 30.9259 43.3085C30.9865 43.4261 31.0232 43.5545 31.0338 43.6864C31.0444 43.8183 31.0287 43.951 30.9877 44.0768C30.9466 44.2026 30.881 44.319 30.7947 44.4192Z" fill="white"/>
</g>
<defs>
<filter id="filter0_d_3197_123385" x="0" y="0" width="72" height="72" filterUnits="userSpaceOnUse" color-interpolation-filters="sRGB">
<feFlood flood-opacity="0" result="BackgroundImageFix"/>
<feColorMatrix in="SourceAlpha" type="matrix" values="0 0 0 0 0 0 0 0 0 0 0 0 0 0 0 0 0 0 127 0" result="hardAlpha"/>
<feOffset dy="4"/>
<feGaussianBlur stdDeviation="2"/>
<feComposite in2="hardAlpha" operator="out"/>
<feColorMatrix type="matrix" values="0 0 0 0 0 0 0 0 0 0 0 0 0 0 0 0 0 0 0.25 0"/>
<feBlend mode="normal" in2="BackgroundImageFix" result="effect1_dropShadow_3197_123385"/>
<feBlend mode="normal" in="SourceGraphic" in2="effect1_dropShadow_3197_123385" result="shape"/>
</filter>
<clipPath id="clip0_3197_123385">
<rect width="64" height="64" fill="white" transform="translate(4)"/>
</clipPath>
</defs>
</svg>
