<svg width="160" height="160" viewBox="0 0 160 160" fill="none" xmlns="http://www.w3.org/2000/svg">
<rect x="11" y="37" width="34" height="18" rx="5" fill="white" stroke="black" stroke-width="2"/>
<path d="M18 44H33" stroke="black" stroke-width="3" stroke-linecap="round"/>
<path d="M18 49H25" stroke="black" stroke-width="3" stroke-linecap="round"/>
<rect x="16" y="91" width="34" height="18" rx="5" fill="white" stroke="black" stroke-width="2"/>
<path d="M23 98H38" stroke="black" stroke-width="3" stroke-linecap="round"/>
<path d="M23 103H30" stroke="black" stroke-width="3" stroke-linecap="round"/>
<rect x="89" y="24" width="34" height="18" rx="5" fill="white" stroke="black" stroke-width="2"/>
<path d="M96 31H111" stroke="black" stroke-width="3" stroke-linecap="round"/>
<path d="M96 36H103" stroke="black" stroke-width="3" stroke-linecap="round"/>
<rect x="116" y="65" width="34" height="18" rx="5" fill="white" stroke="black" stroke-width="2"/>
<path d="M123 72H138" stroke="black" stroke-width="3" stroke-linecap="round"/>
<path d="M123 77H130" stroke="black" stroke-width="3" stroke-linecap="round"/>
<rect x="84" y="117" width="34" height="18" rx="5" fill="white" stroke="black" stroke-width="2"/>
<path d="M91 124H106" stroke="black" stroke-width="3" stroke-linecap="round"/>
<path d="M91 129H98" stroke="black" stroke-width="3" stroke-linecap="round"/>
<g clip-path="url(#clip0_8181_4308)">
<path d="M77 62C73.8355 62 70.7421 62.9384 68.1109 64.6965C65.4797 66.4546 63.4289 68.9534 62.2179 71.8771C61.0069 74.8007 60.6901 78.0177 61.3074 81.1214C61.9248 84.2251 63.4487 87.0761 65.6863 89.3137C67.9239 91.5513 70.7749 93.0752 73.8786 93.6926C76.9823 94.3099 80.1993 93.9931 83.1229 92.7821C86.0466 91.5711 88.5454 89.5203 90.3035 86.8891C92.0616 84.2579 93 81.1645 93 78C93 73.7565 91.3143 69.6869 88.3137 66.6863C85.3131 63.6857 81.2435 62 77 62ZM81.4067 69.6653L82.9747 67.508C83.0776 67.3663 83.2075 67.2462 83.3569 67.1546C83.5062 67.0631 83.6722 67.0018 83.8452 66.9744C84.0182 66.947 84.1949 66.9539 84.3653 66.9948C84.5356 67.0357 84.6963 67.1097 84.838 67.2127C84.9797 67.3156 85.0998 67.4455 85.1914 67.5948C85.2829 67.7442 85.3442 67.9101 85.3716 68.0832C85.399 68.2562 85.3921 68.4329 85.3512 68.6033C85.3103 68.7736 85.2363 68.9343 85.1333 69.076L83.5653 71.2333C83.3574 71.5196 83.0443 71.7115 82.6948 71.7669C82.3454 71.8223 81.9883 71.7366 81.702 71.5287C81.4158 71.3207 81.2238 71.0076 81.1684 70.6582C81.113 70.3087 81.1987 69.9516 81.4067 69.6653ZM69.1627 67.2133C69.3044 67.1097 69.4653 67.0352 69.636 66.9939C69.8066 66.9526 69.9838 66.9455 70.1572 66.9729C70.3307 67.0002 70.497 67.0616 70.6467 67.1534C70.7963 67.2453 70.9264 67.3658 71.0293 67.508L72.6 69.6653C72.8079 69.9525 72.8933 70.3105 72.8373 70.6605C72.7813 71.0106 72.5885 71.3241 72.3013 71.532C72.0142 71.7399 71.6562 71.8253 71.3062 71.7693C70.9561 71.7133 70.6426 71.5205 70.4347 71.2333L68.8667 69.076C68.7638 68.9343 68.6898 68.7737 68.649 68.6033C68.6082 68.433 68.6013 68.2563 68.6288 68.0833C68.6563 67.9104 68.7176 67.7445 68.8092 67.5952C68.9008 67.4459 69.0209 67.3162 69.1627 67.2133ZM68.536 82.1467L66.0027 82.9707C65.8342 83.0334 65.6548 83.0614 65.4753 83.053C65.2958 83.0446 65.1198 82.9999 64.9579 82.9218C64.796 82.8437 64.6517 82.7336 64.5334 82.5982C64.4152 82.4629 64.3255 82.305 64.2698 82.1341C64.2142 81.9632 64.1936 81.7828 64.2094 81.6038C64.2252 81.4247 64.2771 81.2507 64.3619 81.0922C64.4466 80.9338 64.5626 80.794 64.7027 80.6815C64.8428 80.5689 65.0043 80.4859 65.1773 80.4373L67.7107 79.6133C67.8793 79.55 68.059 79.5214 68.239 79.5295C68.4189 79.5375 68.5954 79.5819 68.7577 79.66C68.9201 79.7381 69.0649 79.8483 69.1835 79.9839C69.302 80.1195 69.3919 80.2777 69.4476 80.4491C69.5033 80.6204 69.5237 80.8012 69.5076 80.9806C69.4916 81.16 69.4393 81.3343 69.3539 81.493C69.2686 81.6516 69.152 81.7913 69.0112 81.9037C68.8704 82.016 68.7096 82.0987 68.536 82.1467ZM78.3333 90C78.3333 90.3536 78.1929 90.6928 77.9428 90.9428C77.6928 91.1929 77.3536 91.3333 77 91.3333C76.6464 91.3333 76.3072 91.1929 76.0572 90.9428C75.8072 90.6928 75.6667 90.3536 75.6667 90V87.3333C75.6667 86.9797 75.8072 86.6406 76.0572 86.3905C76.3072 86.1405 76.6464 86 77 86C77.3536 86 77.6928 86.1405 77.9428 86.3905C78.1929 86.6406 78.3333 86.9797 78.3333 87.3333V90ZM77 82.2667L71.9813 84.9067L72.94 79.3187L68.88 75.3613L74.4907 74.5467L77 69.4667L79.5093 74.5467L85.12 75.3613L81.06 79.3187L82.0187 84.9067L77 82.2667ZM88 82.9733L85.4667 82.1493C85.293 82.1014 85.1309 82.0187 84.9901 81.9064C84.8493 81.794 84.7327 81.6543 84.6474 81.4956C84.5621 81.337 84.5098 81.1627 84.4937 80.9833C84.4776 80.8038 84.498 80.623 84.5538 80.4517C84.6095 80.2804 84.6993 80.1222 84.8179 79.9866C84.9365 79.8509 85.0813 79.7407 85.2436 79.6626C85.4059 79.5845 85.5824 79.5401 85.7624 79.5321C85.9423 79.5241 86.122 79.5526 86.2907 79.616L88.824 80.44C88.9971 80.4886 89.1585 80.5716 89.2986 80.6842C89.4388 80.7967 89.5547 80.9364 89.6395 81.0949C89.7243 81.2534 89.7761 81.4274 89.7919 81.6064C89.8077 81.7855 89.7872 81.9659 89.7315 82.1368C89.6758 82.3077 89.5862 82.4655 89.4679 82.6009C89.3497 82.7363 89.2053 82.8463 89.0434 82.9245C88.8816 83.0026 88.7056 83.0472 88.5261 83.0556C88.3465 83.064 88.1685 83.036 88 82.9733Z" fill="#212121"/>
</g>
<path d="M47.2891 55.5928L61.2891 65.5928" stroke="#999999" stroke-width="2" stroke-linecap="round"/>
<path d="M89.457 44.2002L82.8579 59.284" stroke="#999999" stroke-width="2" stroke-linecap="round"/>
<path d="M96.9648 74.501L110.965 73.501" stroke="#999999" stroke-width="2" stroke-linecap="round"/>
<path d="M79.4727 96.834L85.4727 113.834" stroke="#999999" stroke-width="2" stroke-linecap="round"/>
<path d="M52.8047 90.54L59.8047 87.54" stroke="#999999" stroke-width="2" stroke-linecap="round"/>
<defs>
<clipPath id="clip0_8181_4308">
<rect width="32" height="32" fill="white" transform="translate(61 62)"/>
</clipPath>
</defs>
</svg>
