<svg width="64" height="64" viewBox="0 0 64 64" fill="none" xmlns="http://www.w3.org/2000/svg">
<g id="money-coins 1">
<g id="Group">
<path id="Vector" d="M61.332 44H2.66536C1.92903 44 1.33203 43.403 1.33203 42.6667V5.33333C1.33203 4.597 1.92903 4 2.66536 4H61.332C62.0684 4 62.6654 4.597 62.6654 5.33333V42.6667C62.6654 43.403 62.0684 44 61.332 44Z" fill="#4DA34D"/>
<path id="Vector_2" d="M50.6654 8H13.332C13.332 12.4183 9.75032 16 5.33203 16V32C9.75032 32 13.332 35.5817 13.332 40H50.6654C50.6654 35.5817 54.2471 32 58.6654 32V16C54.2471 16 50.6654 12.4183 50.6654 8Z" fill="#9EDB9E"/>
<path id="Vector_3" d="M31.9974 33.3337C37.1521 33.3337 41.3307 29.155 41.3307 24.0003C41.3307 18.8457 37.1521 14.667 31.9974 14.667C26.8427 14.667 22.6641 18.8457 22.6641 24.0003C22.6641 29.155 26.8427 33.3337 31.9974 33.3337Z" fill="#4DA34D"/>
<path id="Vector_4" opacity="0.1" d="M33.332 43.9997H57.332V41.333C57.332 40.8565 57.2115 40.4139 57.0033 39.9997C57.2115 39.5854 57.332 39.1428 57.332 38.6663V34.6663C57.332 34.1899 57.2115 33.7472 57.0033 33.333C57.2115 32.9188 57.332 32.4762 57.332 31.9997V27.9997C57.332 27.5232 57.2115 27.0806 57.0033 26.6663C57.2115 26.2521 57.332 25.8095 57.332 25.333V21.333C57.332 20.8565 57.2115 20.4139 57.0033 19.9997C57.2115 19.5854 57.332 19.1428 57.332 18.6663V14.6663C57.332 11.165 51.2956 9.33301 45.332 9.33301C39.3685 9.33301 33.332 11.165 33.332 14.6663V18.6663C33.332 19.1428 33.4526 19.5854 33.6607 19.9997C33.4526 20.4139 33.332 20.8565 33.332 21.333V25.333C33.332 25.8095 33.4526 26.2521 33.6607 26.6663C33.4526 27.0806 33.332 27.5232 33.332 27.9997V31.9997C33.332 32.4762 33.4526 32.9188 33.6607 33.333C33.4526 33.7472 33.332 34.1899 33.332 34.6663V38.6663C33.332 39.1428 33.4526 39.5854 33.6607 39.9997C33.4526 40.4139 33.332 40.8565 33.332 41.333V43.9997Z" fill="black"/>
<path id="Vector_5" d="M58.6667 49.333H37.3333C36.597 49.333 36 49.93 36 50.6663V54.6663C36 58.1676 42.0365 59.9997 48 59.9997C53.9635 59.9997 60 58.1676 60 54.6663V50.6663C60 49.93 59.403 49.333 58.6667 49.333Z" fill="#D8BC48"/>
<path id="Vector_6" d="M48 45.333C42.0365 45.333 36 47.165 36 50.6663C36 54.1676 42.0365 55.9997 48 55.9997C53.9635 55.9997 60 54.1676 60 50.6663C60 47.165 53.9635 45.333 48 45.333Z" fill="#EFD358"/>
<path id="Vector_7" d="M58.6667 42.667H37.3333C36.597 42.667 36 43.264 36 44.0003V48.0003C36 51.5016 42.0365 53.3337 48 53.3337C53.9635 53.3337 60 51.5016 60 48.0003V44.0003C60 43.264 59.403 42.667 58.6667 42.667Z" fill="#D8BC48"/>
<path id="Vector_8" d="M48 38.667C42.0365 38.667 36 40.499 36 44.0003C36 47.5016 42.0365 49.3337 48 49.3337C53.9635 49.3337 60 47.5016 60 44.0003C60 40.499 53.9635 38.667 48 38.667Z" fill="#EFD358"/>
<path id="Vector_9" d="M58.6667 36H37.3333C36.597 36 36 36.597 36 37.3333V41.3333C36 44.8346 42.0365 46.6667 48 46.6667C53.9635 46.6667 60 44.8346 60 41.3333V37.3333C60 36.597 59.403 36 58.6667 36Z" fill="#D8BC48"/>
<path id="Vector_10" d="M48 32C42.0365 32 36 33.832 36 37.3333C36 40.8346 42.0365 42.6667 48 42.6667C53.9635 42.6667 60 40.8346 60 37.3333C60 33.832 53.9635 32 48 32Z" fill="#EFD358"/>
<path id="Vector_11" d="M58.6667 29.333H37.3333C36.597 29.333 36 29.93 36 30.6663V34.6663C36 38.1676 42.0365 39.9997 48 39.9997C53.9635 39.9997 60 38.1676 60 34.6663V30.6663C60 29.93 59.403 29.333 58.6667 29.333Z" fill="#D8BC48"/>
<path id="Vector_12" d="M48 25.333C42.0365 25.333 36 27.165 36 30.6663C36 34.1676 42.0365 35.9997 48 35.9997C53.9635 35.9997 60 34.1676 60 30.6663C60 27.165 53.9635 25.333 48 25.333Z" fill="#EFD358"/>
<path id="Vector_13" d="M58.6667 22.667H37.3333C36.597 22.667 36 23.264 36 24.0003V28.0003C36 31.5016 42.0365 33.3337 48 33.3337C53.9635 33.3337 60 31.5016 60 28.0003V24.0003C60 23.264 59.403 22.667 58.6667 22.667Z" fill="#D8BC48"/>
<path id="Vector_14" d="M48 18.667C42.0365 18.667 36 20.499 36 24.0003C36 27.5016 42.0365 29.3337 48 29.3337C53.9635 29.3337 60 27.5016 60 24.0003C60 20.499 53.9635 18.667 48 18.667Z" fill="#EFD358"/>
<path id="Vector_15" d="M58.6667 16H37.3333C36.597 16 36 16.597 36 17.3333V21.3333C36 24.8346 42.0365 26.6667 48 26.6667C53.9635 26.6667 60 24.8346 60 21.3333V17.3333C60 16.597 59.403 16 58.6667 16Z" fill="#D8BC48"/>
<path id="Vector_16" d="M48 12C42.0365 12 36 13.832 36 17.3333C36 20.8346 42.0365 22.6667 48 22.6667C53.9635 22.6667 60 20.8346 60 17.3333C60 13.832 53.9635 12 48 12Z" fill="#EFD358"/>
</g>
</g>
</svg>
