<svg width="64" height="64" viewBox="0 0 64 64" fill="none" xmlns="http://www.w3.org/2000/svg">
<path d="M10.6654 33.3327H2.66536C1.92903 33.3327 1.33203 32.7363 1.33203 31.9993C1.33203 31.2624 1.92903 30.666 2.66536 30.666H10.6654C11.4017 30.666 11.9987 31.2624 11.9987 31.9993C11.9987 32.7363 11.4017 33.3327 10.6654 33.3327Z" fill="#B29930"/>
<path d="M16.916 18.248C16.5749 18.248 16.2337 18.1178 15.9733 17.8574L10.3164 12.1999C9.79557 11.679 9.79557 10.8353 10.3164 10.3144C10.8372 9.79362 11.681 9.79362 12.2018 10.3144L17.8587 15.972C18.3795 16.4928 18.3795 17.3366 17.8587 17.8574C17.5983 18.1178 17.2571 18.248 16.916 18.248Z" fill="#B29930"/>
<path d="M31.9974 11.9997C31.2611 11.9997 30.6641 11.4033 30.6641 10.6663V2.66634C30.6641 1.92937 31.2611 1.33301 31.9974 1.33301C32.7337 1.33301 33.3307 1.92937 33.3307 2.66634V10.6663C33.3307 11.4033 32.7337 11.9997 31.9974 11.9997Z" fill="#B29930"/>
<path d="M47.0833 18.248C46.7422 18.248 46.401 18.1178 46.1406 17.8574C45.6198 17.3366 45.6198 16.4928 46.1406 15.972L51.7975 10.3144C52.3184 9.79362 53.1621 9.79362 53.6829 10.3144C54.2038 10.8353 54.2038 11.679 53.6829 12.1999L48.026 17.8574C47.7656 18.1178 47.4245 18.248 47.0833 18.248Z" fill="#B29930"/>
<path d="M61.3333 33.3327H53.3333C52.597 33.3327 52 32.7363 52 31.9993C52 31.2624 52.597 30.666 53.3333 30.666H61.3333C62.0697 30.666 62.6667 31.2624 62.6667 31.9993C62.6667 32.7363 62.0697 33.3327 61.3333 33.3327Z" fill="#B29930"/>
<path d="M41.2626 20.9115C41.081 20.3672 40.5719 20 39.9976 20H23.9976C23.4234 20 22.9143 20.3672 22.7327 20.9115L17.7031 36H46.2922L41.2626 20.9115Z" fill="#EFD358"/>
<path d="M46.4134 38.1133C46.664 37.7656 46.7324 37.3177 46.597 36.9115L46.2932 36H17.7041L17.4003 36.9115C17.2649 37.3177 17.3333 37.7656 17.5839 38.1133C17.8346 38.4609 18.2369 38.6667 18.6653 38.6667H45.332C45.7604 38.6667 46.1627 38.4609 46.4134 38.1133Z" fill="#B29930"/>
<path d="M54.5973 39.5775C54.4156 39.0332 53.9065 38.666 53.3323 38.666H37.3323C36.7581 38.666 36.2489 39.0332 36.0673 39.5775L31.9989 51.7825L27.9306 39.5775C27.7489 39.0332 27.2398 38.666 26.6656 38.666H10.6656C10.0914 38.666 9.58228 39.0332 9.40064 39.5775L4.37109 54.666H59.6268L54.5973 39.5775Z" fill="#EFD358"/>
<path d="M4.25189 56.7793C4.50254 57.127 4.90489 57.3327 5.33327 57.3327H31.9999H58.6666C59.095 57.3327 59.4973 57.127 59.748 56.7793C59.9986 56.4316 60.067 55.9837 59.9316 55.5775L59.6278 54.666H4.37209L4.0683 55.5775C3.93289 55.9837 4.00125 56.4316 4.25189 56.7793Z" fill="#B29930"/>
</svg>
