<svg width="160" height="160" viewBox="0 0 160 160" fill="none" xmlns="http://www.w3.org/2000/svg">
<path d="M119.69 103.606L117.065 120.394C116.818 122.051 117.279 123.72 118.349 125C118.878 125.627 119.535 126.13 120.273 126.476C121.012 126.821 121.816 127 122.629 127H141.37C143.014 127 144.58 126.269 145.65 125C146.177 124.371 146.564 123.634 146.786 122.839C147.007 122.044 147.058 121.211 146.934 120.394L144.31 103.606C144.19 102.797 143.786 102.06 143.174 101.529C142.562 100.998 141.781 100.709 140.976 100.714H138.656C138.115 97.48 135.345 95 132 95C128.655 95 125.884 97.48 125.343 100.714H123.023C121.345 100.714 119.949 101.926 119.69 103.606ZM132 97.2857C134.094 97.2857 135.84 98.7486 136.347 100.714H127.652C128.159 98.7486 129.905 97.2857 132 97.2857ZM126.368 105.286C126.988 105.286 127.495 105.789 127.495 106.429C127.495 108.943 129.511 111 132 111C134.489 111 136.505 108.943 136.505 106.429C136.505 105.789 137.011 105.286 137.631 105.286C138.25 105.286 138.757 105.789 138.757 106.429C138.757 110.211 135.727 113.286 132 113.286C128.272 113.286 125.242 110.211 125.242 106.429C125.242 105.789 125.749 105.286 126.368 105.286Z" fill="black"/>
<path d="M19.0265 71.05C18.5482 71.05 18.1515 70.6533 18.1515 70.175V67.76C18.1515 67.2817 18.5482 66.885 19.0265 66.885C19.5048 66.885 19.9015 67.2817 19.9015 67.76V70.175C19.9015 70.665 19.5048 71.05 19.0265 71.05ZM24.9998 71.05C24.5215 71.05 24.1248 70.6533 24.1248 70.175V65.3333C24.1248 64.855 24.5215 64.4583 24.9998 64.4583C25.4782 64.4583 25.8748 64.855 25.8748 65.3333V70.175C25.8748 70.665 25.4782 71.05 24.9998 71.05ZM30.9732 71.05C30.4948 71.05 30.0982 70.6533 30.0982 70.175V62.9183C30.0982 62.44 30.4948 62.0433 30.9732 62.0433C31.4515 62.0433 31.8482 62.44 31.8482 62.9183V70.175C31.8482 70.665 31.4632 71.05 30.9732 71.05ZM19.0265 64.3767C18.6298 64.3767 18.2798 64.1083 18.1748 63.7117C18.0582 63.245 18.3382 62.7667 18.8165 62.65C23.1098 61.5767 26.8898 59.2317 29.7715 55.8833L30.3082 55.2533C30.6232 54.8917 31.1715 54.845 31.5448 55.16C31.9065 55.475 31.9532 56.0233 31.6382 56.3967L31.1015 57.0267C28.0103 60.6499 23.8605 63.2124 19.2365 64.3533C19.1665 64.3767 19.0965 64.3767 19.0265 64.3767Z" fill="black"/>
<path d="M30.973 60.1059C30.4947 60.1059 30.098 59.7092 30.098 59.2309V56.6992H27.5547C27.0764 56.6992 26.6797 56.3026 26.6797 55.8242C26.6797 55.3459 27.0764 54.9492 27.5547 54.9492H30.973C31.4514 54.9492 31.848 55.3459 31.848 55.8242V59.2426C31.848 59.7209 31.463 60.1059 30.973 60.1059Z" fill="black"/>
<path d="M28.4987 75.5413H21.4987C15.1637 75.5413 12.457 72.8347 12.457 66.4997V59.4997C12.457 53.1647 15.1637 50.458 21.4987 50.458H28.4987C34.8337 50.458 37.5404 53.1647 37.5404 59.4997V66.4997C37.5404 72.8347 34.8337 75.5413 28.4987 75.5413ZM21.4987 52.208C16.1204 52.208 14.207 54.1213 14.207 59.4997V66.4997C14.207 71.878 16.1204 73.7913 21.4987 73.7913H28.4987C33.877 73.7913 35.7904 71.878 35.7904 66.4997V59.4997C35.7904 54.1213 33.877 52.208 28.4987 52.208H21.4987Z" fill="black"/>
<path d="M36.0265 140.05C35.5482 140.05 35.1515 139.653 35.1515 139.175V136.76C35.1515 136.282 35.5482 135.885 36.0265 135.885C36.5048 135.885 36.9015 136.282 36.9015 136.76V139.175C36.9015 139.665 36.5048 140.05 36.0265 140.05ZM41.9998 140.05C41.5215 140.05 41.1248 139.653 41.1248 139.175V134.333C41.1248 133.855 41.5215 133.458 41.9998 133.458C42.4782 133.458 42.8748 133.855 42.8748 134.333V139.175C42.8748 139.665 42.4782 140.05 41.9998 140.05ZM47.9732 140.05C47.4948 140.05 47.0982 139.653 47.0982 139.175V131.918C47.0982 131.44 47.4948 131.043 47.9732 131.043C48.4515 131.043 48.8482 131.44 48.8482 131.918V139.175C48.8482 139.665 48.4632 140.05 47.9732 140.05ZM36.0265 133.377C35.6298 133.377 35.2798 133.108 35.1748 132.712C35.0582 132.245 35.3382 131.767 35.8165 131.65C40.1098 130.577 43.8898 128.232 46.7715 124.883L47.3082 124.253C47.6232 123.892 48.1715 123.845 48.5448 124.16C48.9065 124.475 48.9532 125.023 48.6382 125.397L48.1015 126.027C45.0103 129.65 40.8605 132.212 36.2365 133.353C36.1665 133.377 36.0965 133.377 36.0265 133.377Z" fill="black"/>
<path d="M47.973 129.106C47.4947 129.106 47.098 128.709 47.098 128.231V125.699H44.5547C44.0764 125.699 43.6797 125.303 43.6797 124.824C43.6797 124.346 44.0764 123.949 44.5547 123.949H47.973C48.4514 123.949 48.848 124.346 48.848 124.824V128.243C48.848 128.721 48.463 129.106 47.973 129.106Z" fill="black"/>
<path d="M45.4987 144.541H38.4987C32.1637 144.541 29.457 141.835 29.457 135.5V128.5C29.457 122.165 32.1637 119.458 38.4987 119.458H45.4987C51.8337 119.458 54.5404 122.165 54.5404 128.5V135.5C54.5404 141.835 51.8337 144.541 45.4987 144.541ZM38.4987 121.208C33.1204 121.208 31.207 123.121 31.207 128.5V135.5C31.207 140.878 33.1204 142.791 38.4987 142.791H45.4987C50.877 142.791 52.7904 140.878 52.7904 135.5V128.5C52.7904 123.121 50.877 121.208 45.4987 121.208H38.4987Z" fill="black"/>
<path d="M74.0265 91.05C73.5482 91.05 73.1515 90.6533 73.1515 90.175V87.76C73.1515 87.2817 73.5482 86.885 74.0265 86.885C74.5048 86.885 74.9015 87.2817 74.9015 87.76V90.175C74.9015 90.665 74.5048 91.05 74.0265 91.05ZM79.9998 91.05C79.5215 91.05 79.1248 90.6533 79.1248 90.175V85.3333C79.1248 84.855 79.5215 84.4583 79.9998 84.4583C80.4782 84.4583 80.8748 84.855 80.8748 85.3333V90.175C80.8748 90.665 80.4782 91.05 79.9998 91.05ZM85.9732 91.05C85.4948 91.05 85.0982 90.6533 85.0982 90.175V82.9183C85.0982 82.44 85.4948 82.0433 85.9732 82.0433C86.4515 82.0433 86.8482 82.44 86.8482 82.9183V90.175C86.8482 90.665 86.4632 91.05 85.9732 91.05ZM74.0265 84.3767C73.6298 84.3767 73.2798 84.1083 73.1748 83.7117C73.0582 83.245 73.3382 82.7667 73.8165 82.65C78.1098 81.5767 81.8898 79.2317 84.7715 75.8833L85.3082 75.2533C85.6232 74.8917 86.1715 74.845 86.5448 75.16C86.9065 75.475 86.9532 76.0233 86.6382 76.3967L86.1015 77.0267C83.0103 80.6499 78.8605 83.2124 74.2365 84.3533C74.1665 84.3767 74.0965 84.3767 74.0265 84.3767Z" fill="black"/>
<path d="M85.973 80.1059C85.4947 80.1059 85.098 79.7092 85.098 79.2309V76.6992H82.5547C82.0764 76.6992 81.6797 76.3026 81.6797 75.8242C81.6797 75.3459 82.0764 74.9492 82.5547 74.9492H85.973C86.4514 74.9492 86.848 75.3459 86.848 75.8242V79.2426C86.848 79.7209 86.463 80.1059 85.973 80.1059Z" fill="black"/>
<path d="M83.4987 95.5413H76.4987C70.1637 95.5413 67.457 92.8347 67.457 86.4997V79.4997C67.457 73.1647 70.1637 70.458 76.4987 70.458H83.4987C89.8337 70.458 92.5404 73.1647 92.5404 79.4997V86.4997C92.5404 92.8347 89.8337 95.5413 83.4987 95.5413ZM76.4987 72.208C71.1204 72.208 69.207 74.1213 69.207 79.4997V86.4997C69.207 91.878 71.1204 93.7913 76.4987 93.7913H83.4987C88.877 93.7913 90.7904 91.878 90.7904 86.4997V79.4997C90.7904 74.1213 88.877 72.208 83.4987 72.208H76.4987Z" fill="black"/>
<path d="M112.027 36.05C111.548 36.05 111.152 35.6533 111.152 35.175V32.76C111.152 32.2817 111.548 31.885 112.027 31.885C112.505 31.885 112.902 32.2817 112.902 32.76V35.175C112.902 35.665 112.505 36.05 112.027 36.05ZM118 36.05C117.522 36.05 117.125 35.6533 117.125 35.175V30.3333C117.125 29.855 117.522 29.4583 118 29.4583C118.478 29.4583 118.875 29.855 118.875 30.3333V35.175C118.875 35.665 118.478 36.05 118 36.05ZM123.973 36.05C123.495 36.05 123.098 35.6533 123.098 35.175V27.9183C123.098 27.44 123.495 27.0433 123.973 27.0433C124.452 27.0433 124.848 27.44 124.848 27.9183V35.175C124.848 35.665 124.463 36.05 123.973 36.05ZM112.027 29.3767C111.63 29.3767 111.28 29.1083 111.175 28.7117C111.058 28.245 111.338 27.7667 111.817 27.65C116.11 26.5767 119.89 24.2317 122.772 20.8833L123.308 20.2533C123.623 19.8917 124.172 19.845 124.545 20.16C124.907 20.475 124.953 21.0233 124.638 21.3967L124.102 22.0267C121.01 25.6499 116.861 28.2124 112.237 29.3533C112.167 29.3767 112.097 29.3767 112.027 29.3767Z" fill="black"/>
<path d="M123.973 25.1059C123.495 25.1059 123.098 24.7092 123.098 24.2309V21.6992H120.555C120.076 21.6992 119.68 21.3026 119.68 20.8242C119.68 20.3459 120.076 19.9492 120.555 19.9492H123.973C124.451 19.9492 124.848 20.3459 124.848 20.8242V24.2426C124.848 24.7209 124.463 25.1059 123.973 25.1059Z" fill="black"/>
<path d="M121.499 40.5413H114.499C108.164 40.5413 105.457 37.8347 105.457 31.4997V24.4997C105.457 18.1647 108.164 15.458 114.499 15.458H121.499C127.834 15.458 130.54 18.1647 130.54 24.4997V31.4997C130.54 37.8347 127.834 40.5413 121.499 40.5413ZM114.499 17.208C109.12 17.208 107.207 19.1213 107.207 24.4997V31.4997C107.207 36.878 109.12 38.7913 114.499 38.7913H121.499C126.877 38.7913 128.79 36.878 128.79 31.4997V24.4997C128.79 19.1213 126.877 17.208 121.499 17.208H114.499Z" fill="black"/>
<path d="M58.9922 137.134C71.8587 137.134 85.0973 136.514 97.6997 133.713C101.183 132.939 109.527 131.358 110.842 127.412" stroke="#999999" stroke-width="2" stroke-linecap="round" stroke-dasharray="4 4"/>
<path d="M131.094 42.3457C139.397 49.3717 145.382 54.8987 148.557 65.6602C149.967 70.4372 149.727 75.0863 149.727 80.018C149.727 84.824 149.34 88.4638 148.062 92.9355C147.759 93.9954 144.866 97.9274 144.866 97.4364" stroke="#999999" stroke-width="2" stroke-linecap="round" stroke-dasharray="4 4"/>
<path d="M40.3555 52.0676C40.9558 50.2665 45.4477 49.4096 47.0168 48.782C51.0202 47.1806 55.4446 46.0623 59.7542 45.6314C64.2483 45.182 69.4679 45.2393 73.977 45.6314C82.0876 46.3366 93.8724 49.7568 100.757 54.138C104.922 56.7884 109.417 58.9514 113.45 61.7895C118.283 65.1906 121.139 71.1464 124.612 75.7422C128.379 80.728 130.815 86.07 132.713 91.7653" stroke="#999999" stroke-width="2" stroke-linecap="round" stroke-dasharray="4 4"/>
<path d="M88.9648 97.4365C88.9648 111.139 102.807 114.45 114.08 114.45" stroke="#999999" stroke-width="2" stroke-linecap="round" stroke-dasharray="4 4"/>
</svg>
