<svg width="68" height="68" viewBox="0 0 68 68" fill="none" xmlns="http://www.w3.org/2000/svg">
<rect x="45" width="20" height="44" rx="4" fill="#FFDCD1"/>
<rect y="60" width="59" height="8" rx="4" fill="#FFDCD1"/>
<path d="M64.0436 61.8428H62.2459V5.39325C62.2459 5.10718 62.1322 4.83283 61.93 4.63055C61.7277 4.42827 61.4533 4.31462 61.1673 4.31462H41.0324C40.8907 4.31461 40.7505 4.3425 40.6196 4.3967C40.4887 4.4509 40.3698 4.53035 40.2696 4.63051C40.1695 4.73067 40.09 4.84959 40.0358 4.98046C39.9816 5.11133 39.9537 5.2516 39.9538 5.39325V10.0674H37.7965V5.39325C37.7965 5.10718 37.6829 4.83283 37.4806 4.63055C37.2783 4.42827 37.0039 4.31462 36.7179 4.31462H32.0436V1.07862C32.0436 0.48275 31.5606 0 30.965 0C30.3694 0 29.8864 0.48275 29.8864 1.07862V4.31462H25.2122C25.0706 4.31461 24.9303 4.3425 24.7995 4.3967C24.6686 4.4509 24.5497 4.53035 24.4495 4.63051C24.3493 4.73067 24.2699 4.84959 24.2157 4.98046C24.1615 5.11133 24.1336 5.2516 24.1336 5.39325V10.0674H20.8976C20.756 10.0674 20.6157 10.0952 20.4848 10.1494C20.354 10.2036 20.235 10.2831 20.1349 10.3833C20.0347 10.4834 19.9553 10.6023 19.9011 10.7332C19.8469 10.8641 19.819 11.0043 19.819 11.146V20.1348H10.8303C10.6886 20.1347 10.5483 20.1626 10.4175 20.2168C10.2866 20.271 10.1677 20.3505 10.0675 20.4506C9.96735 20.5508 9.8879 20.6697 9.8337 20.8006C9.7795 20.9315 9.75161 21.0717 9.75162 21.2134V61.8426H7.95362C7.35787 61.8426 6.875 62.3254 6.875 62.9212C6.875 63.5171 7.358 64 7.95362 64H64.0436C64.6394 64 65.1223 63.5173 65.1223 62.9214C65.1223 62.3255 64.6393 61.8428 64.0436 61.8428ZM26.2908 6.47188H35.639V10.0674H26.2908V6.47188ZM22.6952 61.8428H21.9761V60.045C21.9761 59.4491 21.4931 58.9664 20.8975 58.9664C20.3019 58.9664 19.8189 59.4491 19.8189 60.045V61.8428H19.0997V58.2472H22.6952V61.8428ZM29.8862 34.1572V61.8428H24.8525V57.1686C24.8525 56.8826 24.7389 56.6082 24.5366 56.4059C24.3343 56.2036 24.0599 56.09 23.7739 56.09H18.0211C17.8795 56.09 17.7392 56.1179 17.6083 56.1721C17.4775 56.2263 17.3585 56.3057 17.2584 56.4059C17.1582 56.506 17.0788 56.625 17.0246 56.7558C16.9704 56.8867 16.9425 57.027 16.9425 57.1686V61.8428H11.9087V22.2921H29.8862V34.1572ZM30.9649 20.1349H21.9761V12.2247H39.9536V33.0786H32.0436V29.4831H35.2796C35.8754 29.4831 36.3583 29.0004 36.3583 28.4045C36.3583 27.8086 35.8752 27.3259 35.2796 27.3259H32.0436V23.7304H35.2796C35.8754 23.7304 36.3583 23.2476 36.3583 22.6518C36.3583 22.0559 35.8752 21.5731 35.2796 21.5731H32.0436V21.2136C32.0436 21.072 32.0158 20.9317 31.9615 20.8008C31.9073 20.6699 31.8279 20.551 31.7277 20.4508C31.6275 20.3506 31.5086 20.2712 31.3777 20.217C31.2468 20.1628 31.1065 20.1349 30.9649 20.1349ZM50.0211 61.8428H32.0436V35.236H50.0211V61.8428ZM60.0885 61.8428H52.1784V32.719C52.1784 32.1231 51.6954 31.6404 51.0998 31.6404C50.5041 31.6404 50.0211 32.1231 50.0211 32.719V33.0785H47.8639V32.719C47.8639 32.1231 47.3809 31.6404 46.7853 31.6404C46.1896 31.6404 45.7066 32.1231 45.7066 32.719V33.0785H42.1111V6.47188H60.0886V61.8428H60.0885Z" fill="black"/>
<path d="M36.7174 59.6855C37.0035 59.6855 37.2778 59.5718 37.4801 59.3695C37.6823 59.1673 37.796 58.8929 37.796 58.6069V38.4721C37.796 37.8763 37.313 37.3935 36.7174 37.3935C36.1218 37.3935 35.6388 37.8763 35.6388 38.4721V58.607C35.6388 58.7486 35.6667 58.8889 35.7209 59.0198C35.7751 59.1506 35.8545 59.2695 35.9547 59.3697C36.0549 59.4698 36.1738 59.5493 36.3046 59.6034C36.4355 59.6576 36.5758 59.6855 36.7174 59.6855ZM41.032 59.6855C41.3181 59.6855 41.5924 59.5718 41.7947 59.3695C41.997 59.1673 42.1106 58.8929 42.1107 58.6069V38.4721C42.1107 37.8763 41.6277 37.3935 41.032 37.3935C40.4364 37.3935 39.9534 37.8763 39.9534 38.4721V58.607C39.9534 58.7486 39.9813 58.8889 40.0355 59.0198C40.0897 59.1506 40.1692 59.2695 40.2693 59.3697C40.3695 59.4698 40.4884 59.5493 40.6193 59.6034C40.7501 59.6576 40.8904 59.6855 41.032 59.6855ZM45.3465 59.6855C45.6326 59.6855 45.9069 59.5718 46.1092 59.3695C46.3115 59.1673 46.4251 58.8929 46.4252 58.6069V38.4721C46.4252 37.8763 45.9422 37.3935 45.3465 37.3935C44.7509 37.3935 44.2679 37.8763 44.2679 38.4721V58.607C44.2679 58.8931 44.3816 59.1674 44.5839 59.3696C44.7861 59.5719 45.0605 59.6855 45.3465 59.6855ZM46.7848 13.6628C46.9264 13.6628 47.0667 13.6349 47.1976 13.5807C47.3284 13.5265 47.4474 13.447 47.5475 13.3469C47.6477 13.2467 47.7271 13.1278 47.7813 12.9969C47.8355 12.8661 47.8634 12.7258 47.8634 12.5841V11.146C47.8634 10.5501 47.3804 10.0674 46.7848 10.0674C46.1892 10.0674 45.7062 10.5501 45.7062 11.146V12.5843C45.7062 12.7259 45.7341 12.8662 45.7883 12.997C45.8425 13.1279 45.9219 13.2468 46.0221 13.3469C46.1222 13.4471 46.2412 13.5265 46.372 13.5807C46.5029 13.6349 46.6431 13.6628 46.7848 13.6628ZM51.0994 13.6628C51.2411 13.6628 51.3813 13.6349 51.5122 13.5807C51.6431 13.5265 51.762 13.447 51.8621 13.3469C51.9623 13.2467 52.0418 13.1278 52.096 12.9969C52.1502 12.8661 52.178 12.7258 52.178 12.5841V11.146C52.178 10.5501 51.695 10.0674 51.0994 10.0674C50.5038 10.0674 50.0208 10.5501 50.0208 11.146V12.5843C50.0208 12.7259 50.0487 12.8662 50.1029 12.997C50.1571 13.1279 50.2365 13.2468 50.3367 13.3469C50.4369 13.4471 50.5558 13.5265 50.6866 13.5807C50.8175 13.6349 50.9578 13.6628 51.0994 13.6628ZM55.414 13.6628C55.5557 13.6628 55.6959 13.6349 55.8268 13.5807C55.9577 13.5265 56.0766 13.447 56.1768 13.3469C56.2769 13.2467 56.3564 13.1278 56.4106 12.9969C56.4648 12.8661 56.4927 12.7258 56.4926 12.5841V11.146C56.4926 10.5501 56.0097 10.0674 55.414 10.0674C54.8184 10.0674 54.3354 10.5501 54.3354 11.146V12.5843C54.3354 12.7259 54.3633 12.8662 54.4175 12.997C54.4717 13.1279 54.5512 13.2468 54.6513 13.3469C54.7515 13.4471 54.8704 13.5265 55.0013 13.5807C55.1321 13.6349 55.2724 13.6628 55.414 13.6628ZM46.7848 20.8538C46.9264 20.8538 47.0667 20.8259 47.1976 20.7717C47.3284 20.7175 47.4474 20.638 47.5475 20.5379C47.6477 20.4377 47.7271 20.3188 47.7813 20.1879C47.8355 20.0571 47.8634 19.9168 47.8634 19.7751V18.3369C47.8634 17.741 47.3804 17.2583 46.7848 17.2583C46.1892 17.2583 45.7062 17.741 45.7062 18.3369V19.7751C45.7061 19.9168 45.734 20.0571 45.7882 20.1879C45.8424 20.3188 45.9219 20.4377 46.022 20.5379C46.1222 20.638 46.2411 20.7175 46.372 20.7717C46.5029 20.8259 46.6431 20.8538 46.7848 20.8538ZM51.0994 20.8538C51.2411 20.8538 51.3813 20.8259 51.5122 20.7717C51.6431 20.7175 51.762 20.638 51.8621 20.5379C51.9623 20.4377 52.0418 20.3188 52.096 20.1879C52.1502 20.0571 52.178 19.9168 52.178 19.7751V18.3369C52.178 17.741 51.695 17.2583 51.0994 17.2583C50.5038 17.2583 50.0208 17.741 50.0208 18.3369V19.7751C50.0208 19.9168 50.0486 20.0571 50.1028 20.1879C50.157 20.3188 50.2365 20.4377 50.3367 20.5379C50.4368 20.638 50.5557 20.7175 50.6866 20.7717C50.8175 20.8259 50.9577 20.8538 51.0994 20.8538ZM55.414 20.8538C55.5557 20.8538 55.6959 20.8259 55.8268 20.7717C55.9577 20.7175 56.0766 20.638 56.1768 20.5379C56.2769 20.4377 56.3564 20.3188 56.4106 20.1879C56.4648 20.0571 56.4927 19.9168 56.4926 19.7751V18.3369C56.4926 17.741 56.0097 17.2583 55.414 17.2583C54.8184 17.2583 54.3354 17.741 54.3354 18.3369V19.7751C54.3354 19.9168 54.3633 20.0571 54.4175 20.1879C54.4717 20.3188 54.5511 20.4377 54.6513 20.5379C54.7514 20.638 54.8704 20.7175 55.0012 20.7717C55.1321 20.8259 55.2724 20.8538 55.414 20.8538ZM46.7848 28.0449C46.9264 28.0449 47.0667 28.017 47.1976 27.9628C47.3284 27.9086 47.4474 27.8292 47.5475 27.729C47.6477 27.6288 47.7271 27.5099 47.7813 27.379C47.8355 27.2482 47.8634 27.1079 47.8634 26.9663V25.528C47.8634 24.9321 47.3804 24.4494 46.7848 24.4494C46.1892 24.4494 45.7062 24.9321 45.7062 25.528V26.9663C45.7062 27.2523 45.8198 27.5267 46.0221 27.729C46.2244 27.9312 46.4987 28.0449 46.7848 28.0449ZM51.0994 28.0449C51.2411 28.0449 51.3813 28.017 51.5122 27.9628C51.6431 27.9086 51.762 27.8292 51.8621 27.729C51.9623 27.6288 52.0418 27.5099 52.096 27.379C52.1502 27.2482 52.178 27.1079 52.178 26.9663V25.528C52.178 24.9321 51.695 24.4494 51.0994 24.4494C50.5038 24.4494 50.0208 24.9321 50.0208 25.528V26.9663C50.0208 27.2523 50.1344 27.5267 50.3367 27.729C50.539 27.9312 50.8133 28.0449 51.0994 28.0449ZM55.414 28.0449C55.5557 28.0449 55.6959 28.017 55.8268 27.9628C55.9577 27.9086 56.0766 27.8292 56.1768 27.729C56.2769 27.6288 56.3564 27.5099 56.4106 27.379C56.4648 27.2482 56.4927 27.1079 56.4926 26.9663V25.528C56.4926 24.9321 56.0097 24.4494 55.414 24.4494C54.8184 24.4494 54.3354 24.9321 54.3354 25.528V26.9663C54.3354 27.2523 54.449 27.5267 54.6513 27.729C54.8536 27.9312 55.128 28.0449 55.414 28.0449ZM16.5825 30.9213C16.7242 30.9213 16.8645 30.8934 16.9953 30.8392C17.1262 30.785 17.2451 30.7055 17.3453 30.6054C17.4454 30.5052 17.5249 30.3863 17.5791 30.2554C17.6333 30.1246 17.6612 29.9843 17.6612 29.8426V28.4044C17.6612 27.8085 17.1782 27.3258 16.5825 27.3258C15.9869 27.3258 15.5039 27.8085 15.5039 28.4044V29.8426C15.5039 30.1287 15.6176 30.403 15.8199 30.6053C16.0221 30.8076 16.2965 30.9212 16.5825 30.9213ZM20.8972 30.9213C21.0388 30.9213 21.1791 30.8934 21.3099 30.8392C21.4408 30.785 21.5597 30.7055 21.6599 30.6054C21.7601 30.5052 21.8395 30.3863 21.8937 30.2554C21.9479 30.1246 21.9758 29.9843 21.9758 29.8426V28.4044C21.9758 27.8085 21.4928 27.3258 20.8972 27.3258C20.3015 27.3258 19.8185 27.8085 19.8185 28.4044V29.8426C19.8185 30.1287 19.9322 30.4031 20.1345 30.6053C20.3367 30.8076 20.6111 30.9213 20.8972 30.9213ZM25.2118 30.9213C25.3534 30.9213 25.4937 30.8934 25.6246 30.8392C25.7554 30.785 25.8744 30.7055 25.9745 30.6054C26.0747 30.5052 26.1541 30.3863 26.2083 30.2554C26.2625 30.1246 26.2904 29.9843 26.2904 29.8426V28.4044C26.2904 27.8085 25.8074 27.3258 25.2118 27.3258C24.6162 27.3258 24.1332 27.8085 24.1332 28.4044V29.8426C24.1332 30.1287 24.2468 30.4031 24.4491 30.6053C24.6514 30.8076 24.9257 30.9213 25.2118 30.9213ZM16.5825 38.1123C16.7242 38.1123 16.8645 38.0844 16.9953 38.0302C17.1262 37.976 17.2451 37.8965 17.3453 37.7964C17.4454 37.6962 17.5249 37.5773 17.5791 37.4464C17.6333 37.3155 17.6612 37.1753 17.6612 37.0336V35.5954C17.6612 34.9995 17.1782 34.5168 16.5825 34.5168C15.9869 34.5168 15.5039 34.9995 15.5039 35.5954V37.0336C15.5039 37.3197 15.6176 37.594 15.8199 37.7963C16.0221 37.9986 16.2965 38.1122 16.5825 38.1123ZM20.8972 38.1123C21.0388 38.1123 21.1791 38.0844 21.3099 38.0302C21.4408 37.976 21.5597 37.8965 21.6599 37.7964C21.7601 37.6962 21.8395 37.5773 21.8937 37.4464C21.9479 37.3155 21.9758 37.1753 21.9758 37.0336V35.5954C21.9758 34.9995 21.4928 34.5168 20.8972 34.5168C20.3015 34.5168 19.8185 34.9995 19.8185 35.5954V37.0336C19.8185 37.3197 19.9322 37.5941 20.1345 37.7963C20.3367 37.9986 20.6111 38.1123 20.8972 38.1123ZM25.2118 38.1123C25.3534 38.1123 25.4937 38.0844 25.6246 38.0302C25.7554 37.976 25.8744 37.8965 25.9745 37.7964C26.0747 37.6962 26.1541 37.5773 26.2083 37.4464C26.2625 37.3155 26.2904 37.1753 26.2904 37.0336V35.5954C26.2904 34.9995 25.8074 34.5168 25.2118 34.5168C24.6162 34.5168 24.1332 34.9995 24.1332 35.5954V37.0336C24.1332 37.3197 24.2468 37.5941 24.4491 37.7963C24.6514 37.9986 24.9257 38.1123 25.2118 38.1123ZM16.5825 45.3033C16.7242 45.3033 16.8645 45.2754 16.9953 45.2212C17.1262 45.167 17.2451 45.0875 17.3453 44.9874C17.4454 44.8872 17.5249 44.7683 17.5791 44.6374C17.6333 44.5066 17.6612 44.3663 17.6612 44.2246V42.7864C17.6612 42.1905 17.1782 41.7078 16.5825 41.7078C15.9869 41.7078 15.5039 42.1905 15.5039 42.7864V44.2246C15.5039 44.3663 15.5318 44.5065 15.586 44.6374C15.6402 44.7683 15.7197 44.8872 15.8198 44.9873C15.92 45.0875 16.0389 45.1669 16.1698 45.2211C16.3006 45.2754 16.4409 45.3033 16.5825 45.3033ZM20.8972 45.3033C21.0388 45.3033 21.1791 45.2754 21.3099 45.2212C21.4408 45.167 21.5597 45.0875 21.6599 44.9874C21.7601 44.8872 21.8395 44.7683 21.8937 44.6374C21.9479 44.5066 21.9758 44.3663 21.9758 44.2246V42.7864C21.9758 42.1905 21.4928 41.7078 20.8972 41.7078C20.3015 41.7078 19.8185 42.1905 19.8185 42.7864V44.2246C19.8185 44.3663 19.8464 44.5066 19.9006 44.6374C19.9548 44.7683 20.0343 44.8872 20.1344 44.9874C20.2346 45.0875 20.3535 45.167 20.4844 45.2212C20.6152 45.2754 20.7555 45.3033 20.8972 45.3033ZM25.2118 45.3033C25.3534 45.3033 25.4937 45.2754 25.6246 45.2212C25.7554 45.167 25.8744 45.0875 25.9745 44.9874C26.0747 44.8872 26.1541 44.7683 26.2083 44.6374C26.2625 44.5066 26.2904 44.3663 26.2904 44.2246V42.7864C26.2904 42.1905 25.8074 41.7078 25.2118 41.7078C24.6162 41.7078 24.1332 42.1905 24.1332 42.7864V44.2246C24.1331 44.3663 24.161 44.5066 24.2152 44.6374C24.2694 44.7683 24.3489 44.8872 24.449 44.9874C24.5492 45.0875 24.6681 45.167 24.799 45.2212C24.9299 45.2754 25.0701 45.3033 25.2118 45.3033ZM16.5825 52.4943C16.7242 52.4943 16.8645 52.4664 16.9953 52.4122C17.1262 52.358 17.2451 52.2785 17.3453 52.1784C17.4454 52.0782 17.5249 51.9593 17.5791 51.8284C17.6333 51.6976 17.6612 51.5573 17.6612 51.4156V49.9774C17.6612 49.3815 17.1782 48.8988 16.5825 48.8988C15.9869 48.8988 15.5039 49.3815 15.5039 49.9774V51.4156C15.5039 51.7017 15.6175 51.9761 15.8198 52.1783C16.0221 52.3806 16.2965 52.4943 16.5825 52.4943ZM20.8972 52.4943C21.0388 52.4943 21.1791 52.4664 21.3099 52.4122C21.4408 52.358 21.5597 52.2785 21.6599 52.1784C21.7601 52.0782 21.8395 51.9593 21.8937 51.8284C21.9479 51.6976 21.9758 51.5573 21.9758 51.4156V49.9774C21.9758 49.3815 21.4928 48.8988 20.8972 48.8988C20.3015 48.8988 19.8185 49.3815 19.8185 49.9774V51.4156C19.8185 51.5573 19.8464 51.6976 19.9006 51.8284C19.9548 51.9593 20.0343 52.0782 20.1344 52.1784C20.2346 52.2785 20.3535 52.358 20.4844 52.4122C20.6152 52.4664 20.7555 52.4943 20.8972 52.4943ZM25.2118 52.4943C25.3534 52.4943 25.4937 52.4664 25.6246 52.4122C25.7554 52.358 25.8744 52.2785 25.9745 52.1784C26.0747 52.0782 26.1541 51.9593 26.2083 51.8284C26.2625 51.6976 26.2904 51.5573 26.2904 51.4156V49.9774C26.2904 49.3815 25.8074 48.8988 25.2118 48.8988C24.6162 48.8988 24.1332 49.3815 24.1332 49.9774V51.4156C24.1331 51.5573 24.161 51.6976 24.2152 51.8284C24.2694 51.9593 24.3489 52.0782 24.449 52.1784C24.5492 52.2785 24.6681 52.358 24.799 52.4122C24.9299 52.4664 25.0701 52.4943 25.2118 52.4943ZM55.414 35.2359C55.5557 35.2359 55.6959 35.208 55.8268 35.1538C55.9577 35.0996 56.0766 35.0202 56.1768 34.92C56.2769 34.8198 56.3564 34.7009 56.4106 34.57C56.4648 34.4392 56.4927 34.2989 56.4926 34.1573V32.719C56.4926 32.1231 56.0097 31.6404 55.414 31.6404C54.8184 31.6404 54.3354 32.1231 54.3354 32.719V34.1573C54.3354 34.4433 54.449 34.7177 54.6513 34.92C54.8536 35.1222 55.128 35.2359 55.414 35.2359ZM55.414 42.4269C55.5557 42.4269 55.6959 42.399 55.8268 42.3448C55.9577 42.2906 56.0766 42.2112 56.1768 42.111C56.2769 42.0108 56.3564 41.8919 56.4106 41.761C56.4648 41.6302 56.4927 41.4899 56.4926 41.3483V39.91C56.4926 39.3141 56.0097 38.8314 55.414 38.8314C54.8184 38.8314 54.3354 39.3141 54.3354 39.91V41.3483C54.3354 41.6343 54.449 41.9087 54.6513 42.111C54.8536 42.3132 55.128 42.4269 55.414 42.4269ZM55.414 49.6179C55.5557 49.6179 55.6959 49.59 55.8268 49.5358C55.9577 49.4816 56.0766 49.4022 56.1768 49.302C56.2769 49.2018 56.3564 49.0829 56.4106 48.952C56.4648 48.8212 56.4927 48.6809 56.4926 48.5393V47.101C56.4926 46.5051 56.0097 46.0224 55.414 46.0224C54.8184 46.0224 54.3354 46.5051 54.3354 47.101V48.5393C54.3354 48.6809 54.3633 48.8212 54.4175 48.952C54.4717 49.0829 54.5512 49.2018 54.6513 49.302C54.7515 49.4021 54.8704 49.4816 55.0013 49.5358C55.1321 49.59 55.2724 49.6179 55.414 49.6179ZM55.414 56.8089C55.5557 56.8089 55.6959 56.781 55.8268 56.7268C55.9577 56.6726 56.0766 56.5932 56.1768 56.493C56.2769 56.3928 56.3564 56.2739 56.4106 56.143C56.4648 56.0122 56.4927 55.8719 56.4926 55.7303V54.292C56.4926 53.6961 56.0097 53.2134 55.414 53.2134C54.8184 53.2134 54.3354 53.6961 54.3354 54.292V55.7303C54.3354 56.0163 54.449 56.2907 54.6513 56.493C54.8536 56.6952 55.128 56.8089 55.414 56.8089ZM36.3578 16.8988C36.3578 16.6127 36.2441 16.3383 36.0419 16.1361C35.8396 15.9338 35.5652 15.8201 35.2792 15.8201H26.6499C26.5083 15.8201 26.368 15.848 26.2371 15.9022C26.1062 15.9564 25.9873 16.0359 25.8872 16.136C25.787 16.2362 25.7076 16.3551 25.6534 16.486C25.5992 16.6168 25.5713 16.7571 25.5713 16.8988C25.5713 17.1848 25.6849 17.4592 25.8872 17.6615C26.0895 17.8637 26.3638 17.9774 26.6499 17.9774H35.2792C35.4208 17.9774 35.5611 17.9495 35.6919 17.8953C35.8228 17.8411 35.9417 17.7617 36.0419 17.6615C36.1421 17.5613 36.2215 17.4424 36.2757 17.3115C36.3299 17.1807 36.3578 17.0404 36.3578 16.8988Z" fill="black"/>
</svg>
