<svg width="150" height="54" viewBox="0 0 150 54" fill="none" xmlns="http://www.w3.org/2000/svg">
<path d="M43.0468 12.8959C42.9267 12.8359 42.7467 13.1809 42.5066 13.931C42.2968 14.6512 42.0115 15.5964 41.6516 16.7666C41.2915 17.9068 40.9014 19.2119 40.4815 20.6822C40.0913 22.1222 39.6563 23.5625 39.1761 25.0028C38.6962 26.4428 38.216 27.7931 37.7361 29.0533C37.2559 30.2835 36.7759 31.2588 36.2958 31.9788C35.8156 32.6988 35.3657 33.1038 34.9455 33.1939C34.5256 33.2539 34.1503 32.8188 33.8205 31.8888C33.5804 31.4686 33.2354 30.8086 32.7852 29.9085C32.3653 28.9784 31.8701 27.9431 31.3 26.803C30.7299 25.6628 30.1298 24.4626 29.4998 23.2024C28.8696 21.9424 28.2695 20.7571 27.6995 19.6469C27.1594 18.5067 26.6493 17.4866 26.1692 16.5865C25.7192 15.6864 25.3891 15.0262 25.1791 14.6062C24.819 13.9461 24.489 13.421 24.1889 13.0309C23.9189 12.6109 23.4838 12.4008 22.8837 12.4008C22.8837 14.5012 23.0037 16.8115 23.2438 19.3319C23.4838 21.8524 23.7389 24.4026 24.0089 26.983C24.309 29.5635 24.579 32.1137 24.819 34.6344C25.0591 37.1243 25.1791 39.4347 25.1791 41.5653C25.2991 41.8354 25.2541 42.0903 25.0441 42.3304C24.864 42.5705 24.594 42.7503 24.2339 42.8704C23.9039 42.9904 23.5288 42.9904 23.1088 42.8704C22.7187 42.7806 22.3887 42.5405 22.1187 42.1501C21.8486 39.4798 21.6986 36.7645 21.6686 34.0042C21.6686 31.2136 21.6535 28.4233 21.6235 25.6328C21.5935 22.8425 21.4735 20.0519 21.2635 17.2616C21.0535 14.4411 20.6334 11.6357 20.0033 8.84531C19.9733 8.3052 20.0633 7.97518 20.2733 7.85519C20.4834 7.70513 20.7534 7.63013 21.0835 7.63013C21.8036 7.63013 22.4487 7.81014 23.0188 8.17018C23.6189 8.50025 24.1589 8.93532 24.639 9.47542C25.1191 9.98546 25.5391 10.5555 25.8992 11.1857C26.2892 11.8157 26.6343 12.3858 26.9344 12.8959C27.1744 13.286 27.5044 13.9011 27.9245 14.7412L29.3647 17.6667C29.9048 18.7468 30.4599 19.887 31.03 21.0872C31.6301 22.2574 32.2001 23.3824 32.7403 24.4626C33.2802 25.5127 33.7753 26.458 34.2255 27.298C34.6754 28.1083 35.0207 28.6932 35.2605 29.0533C35.3805 29.0533 35.4857 29.0084 35.5757 28.9184C35.6658 28.8284 35.7856 28.5734 35.9356 28.1532C36.1157 27.7331 36.3406 27.0879 36.6107 26.2179C36.9109 25.3478 37.3159 24.1476 37.8261 22.6173C38.336 21.0872 38.9663 19.1518 39.7163 16.8115C40.4663 14.4711 41.3815 11.6207 42.4617 8.26024C42.5217 8.11018 42.7167 7.97518 43.0468 7.85519C43.3769 7.73511 43.6768 7.67512 43.9469 7.67512C44.217 7.67512 44.3971 7.76513 44.4871 7.9452C44.6071 8.12521 44.6969 8.42522 44.7569 8.84531C45.027 11.3957 45.2371 14.0661 45.3872 16.8566C45.5672 19.6169 45.7922 22.4223 46.0623 25.2726C46.3321 28.0932 46.6623 30.8986 47.0524 33.6892C47.4726 36.4797 48.0425 39.1346 48.7626 41.6553L45.6573 42.8704L43.0468 12.8959Z" fill="#20257F"/>
<path d="M58.754 41.7004C58.754 40.62 58.9192 39.5698 59.2493 38.5497C59.5792 37.4996 59.9393 36.4497 60.3295 35.3993C60.7193 34.3489 61.0495 33.3139 61.3196 32.2937C61.6194 31.2436 61.7246 30.1486 61.6348 29.0084C60.7645 28.0483 59.8044 27.013 58.754 25.9028C57.7038 24.7627 56.6688 23.5925 55.6487 22.3923C54.6286 21.1621 53.6833 19.9018 52.8133 18.6119C51.9432 17.2916 51.238 15.9562 50.6978 14.6061C50.6678 14.5761 50.653 14.5311 50.653 14.4711V14.2911C50.653 13.931 50.7879 13.691 51.058 13.571C51.3281 13.451 51.6131 13.391 51.9132 13.391C52.6932 14.3211 53.5184 15.3863 54.3885 16.5865C55.2886 17.7567 56.2038 18.9269 57.1339 20.097C58.064 21.2672 59.0092 22.3923 59.9693 23.4724C60.9297 24.5226 61.8744 25.3926 62.805 26.0829H63.3899C63.5099 25.8728 63.7197 25.3626 64.0198 24.5526C64.3197 23.7125 64.6801 22.7224 65.1 21.5822C65.5502 20.442 66.0152 19.1818 66.4951 17.8015C66.9753 16.4213 67.4255 15.0712 67.8454 13.751C68.2956 12.4008 68.6703 11.1406 68.971 9.97044C69.3008 8.80025 69.5404 7.84011 69.6907 7.09001C69.7207 7.03001 69.8105 7 69.9608 7C70.411 7 70.7711 7.21 71.041 7.63009C71.3411 8.02013 71.4609 8.42518 71.4011 8.84527C70.5908 11.6957 69.9157 14.036 69.3755 15.8665C68.8658 17.6966 68.4308 19.1967 68.0703 20.3669C67.7402 21.5071 67.4555 22.4374 67.2154 23.1574C66.9753 23.8474 66.7204 24.5077 66.4503 25.1377C66.2102 25.7679 65.9555 26.4728 65.6854 27.2531C65.4152 28.0031 65.0548 29.0233 64.6049 30.3135C64.1548 31.5737 63.5999 33.209 62.94 35.2192C62.2794 37.1994 61.4545 39.7348 60.4644 42.8252C60.4344 42.8252 60.3443 42.8252 60.1943 42.8252C60.0742 42.8552 59.9842 42.8706 59.9242 42.8706C59.1441 42.8706 58.754 42.4802 58.754 41.7004Z" fill="#F92D17"/>
<path d="M73.7863 15.1463V12.986C74.1465 12.986 74.5515 13.106 75.0011 13.346C75.4516 13.586 75.8866 13.8711 76.3065 14.2012C76.7267 14.5312 77.1166 14.9063 77.477 15.3264C77.8371 15.7165 78.1218 16.0464 78.3319 16.3165L91.609 34.184C91.6991 33.6738 91.7742 32.7289 91.834 31.3489C91.924 29.9686 91.9538 28.4083 91.924 26.6681C91.924 24.8977 91.8791 23.0524 91.7888 21.1321C91.7291 19.2119 91.6239 17.4266 91.4741 15.7765C91.3538 14.0961 91.204 12.6859 91.0239 11.5458C90.8742 10.3756 90.6638 9.67051 90.394 9.43044C90.394 8.9804 90.4689 8.56032 90.6186 8.17024C90.799 7.78022 91.1289 7.58517 91.609 7.58517C92.089 7.58517 92.4794 7.85525 92.7792 8.39528C93.0793 8.93538 93.3043 9.55046 93.4544 10.2406C93.6041 10.9007 93.7093 11.5608 93.7693 12.2209C93.8591 12.851 93.9043 13.2711 93.9043 13.4811C93.9343 14.0212 93.9643 14.8463 93.994 15.9563C94.024 17.0365 94.0546 18.2818 94.0846 19.6919C94.1143 21.0721 94.1444 22.5424 94.1744 24.1028C94.2344 25.6628 94.2796 27.1332 94.3093 28.5134C94.3693 29.8934 94.3993 31.1537 94.3993 32.2938C94.4293 33.404 94.4591 34.2292 94.4896 34.7694C94.4896 35.1593 94.5494 35.5192 94.6694 35.8493C94.8195 36.1797 94.9547 36.5095 95.0745 36.8397C95.2248 37.1695 95.3597 37.4997 95.4795 37.8295C95.5993 38.1597 95.6598 38.5047 95.6598 38.8648C95.6598 39.4648 95.4343 39.9149 94.9847 40.2151C94.5643 40.4852 94.0846 40.6201 93.5444 40.6201C93.2443 40.6201 92.9742 40.5901 92.7341 40.5303C92.524 40.44 92.3442 40.3048 92.1941 40.1253C92.0741 39.9149 91.9992 39.6602 91.9692 39.3601C91.9692 39.06 92.0289 38.6699 92.1487 38.1899C91.8188 37.7995 91.3092 37.1695 90.6186 36.2995C89.9289 35.3994 89.1486 34.409 88.2785 33.3291C87.4382 32.2189 86.5381 31.0636 85.5783 29.8634C84.6179 28.6632 83.703 27.523 82.8329 26.4429C81.9628 25.3327 81.1825 24.3426 80.4925 23.4725L78.9619 21.5372C78.9021 21.4471 78.797 21.3274 78.6472 21.1773L77.567 20.0971C77.4167 19.9471 77.2969 19.8419 77.2069 19.7822C77.0868 21.5223 77.102 23.2776 77.2518 25.0477C77.4018 26.7882 77.5968 28.5283 77.8371 30.2687C78.107 32.0089 78.3619 33.749 78.602 35.4894C78.8721 37.1995 79.0071 38.9251 79.0071 40.6652C79.0071 41.1452 78.9619 41.5802 78.8721 41.9706C78.7824 42.3305 78.422 42.6152 77.7917 42.8253C77.1917 42.6152 76.7867 42.2253 76.5766 41.6554C76.3668 41.0551 76.3817 40.4852 76.6218 39.9449L73.7863 15.1463Z" fill="#FA6821"/>
<path d="M110.872 14.6063C109.912 14.6063 108.937 14.6963 107.947 14.8763C106.986 15.0564 106.026 15.2664 105.066 15.5065C104.106 15.7165 103.146 15.9115 102.186 16.0916C101.225 16.2716 100.251 16.3617 99.2603 16.3617C98.9602 16.3617 98.6454 16.3317 98.315 16.2716C98.0149 16.1816 97.8651 15.9115 97.8651 15.4613C97.8651 15.1614 97.9849 14.8613 98.225 14.5613C98.4951 14.2312 98.7798 14.0512 99.0805 14.0212L111.142 12.2659C111.172 12.1459 111.217 11.9659 111.277 11.7258C111.337 11.4558 111.412 11.2008 111.502 10.9607C111.622 10.6907 111.772 10.4656 111.952 10.2856C112.132 10.0756 112.342 9.97058 112.582 9.97058C112.942 9.97058 113.227 10.0606 113.437 10.2406C113.648 10.4206 113.827 10.6307 113.978 10.8707C114.127 11.0808 114.262 11.2758 114.383 11.4558C114.502 11.6358 114.653 11.7258 114.832 11.7258H115.193C115.493 11.6958 115.973 11.6508 116.633 11.5908C117.293 11.5008 118.043 11.4108 118.883 11.3208C119.753 11.2308 120.668 11.1408 121.629 11.0507C122.589 10.9307 123.504 10.8407 124.374 10.7807C125.244 10.6907 126.009 10.6156 126.669 10.5556C127.329 10.4656 127.81 10.3907 128.11 10.3306C128.2 10.3306 128.41 10.3306 128.74 10.3306C129.1 10.3006 129.355 10.2856 129.505 10.2856C129.505 10.8557 129.19 11.3358 128.559 11.7258C127.959 12.0859 127.18 12.4009 126.219 12.671C125.289 12.911 124.239 13.1061 123.069 13.2561C121.928 13.3761 120.804 13.4811 119.693 13.5711C118.613 13.6611 117.608 13.7361 116.678 13.7962C115.778 13.8562 115.088 13.9311 114.608 14.0212C114.488 16.1516 114.533 18.3719 114.743 20.6823C114.983 22.9927 115.268 25.3179 115.598 27.6583C115.958 29.9987 116.288 32.3239 116.588 34.6345C116.888 36.9446 117.038 39.1501 117.038 41.2501C117.158 41.6705 117.203 42.0004 117.173 42.2405C117.173 42.4803 117.098 42.6458 116.948 42.7356C116.798 42.8253 116.573 42.8707 116.273 42.8707C115.973 42.8707 115.613 42.8553 115.193 42.8253C114.892 41.7452 114.622 40.4852 114.383 39.0449C114.173 37.5749 113.978 36.0148 113.797 34.3644C113.618 32.684 113.437 30.9588 113.257 29.1883C113.107 27.4182 112.957 25.6629 112.808 23.9227C112.657 22.1823 112.492 20.5171 112.312 18.927C112.132 17.3366 111.922 15.8963 111.682 14.6063H110.872Z" fill="#FDB130"/>
<path d="M41.354 13.9291C41.222 13.8631 41.0238 14.2426 40.76 15.0678C40.5288 15.8598 40.2154 16.8997 39.8193 18.1866C39.4232 19.4409 38.9941 20.8766 38.5321 22.4937C38.103 24.0782 37.6244 25.6623 37.0964 27.2467C36.5683 28.8308 36.0403 30.316 35.5122 31.7022C34.9839 33.0555 34.4559 34.1283 33.9278 34.92C33.3998 35.7125 32.9047 36.158 32.4426 36.257C31.9806 36.323 31.568 35.8447 31.205 34.821C30.941 34.3592 30.5614 33.633 30.0663 32.6429C29.6042 31.6198 29.0597 30.4812 28.4325 29.2269C27.8055 27.9727 27.1454 26.6524 26.4523 25.2662C25.7592 23.88 25.0991 22.5765 24.472 21.3552C23.8779 20.1009 23.3168 18.9789 22.7887 17.9887C22.2936 16.9986 21.9306 16.2724 21.6996 15.8103C21.3035 15.0843 20.9404 14.5067 20.6104 14.0776C20.3133 13.6155 19.8348 13.3845 19.1747 13.3845C19.1747 15.6949 19.3067 18.2361 19.5707 21.0086C19.8348 23.781 20.1153 26.5864 20.4124 29.4249C20.7424 32.2633 21.0395 35.069 21.3035 37.8411C21.5675 40.5806 21.6996 43.1221 21.6996 45.4652C21.8316 45.7626 21.7821 46.0427 21.551 46.3069C21.353 46.5708 21.056 46.769 20.6599 46.9009C20.2969 47.0331 19.8843 47.0331 19.4222 46.9009C18.9932 46.8022 18.6301 46.5381 18.333 46.109C18.036 43.1716 17.871 40.1845 17.838 37.1479C17.838 34.0786 17.8215 31.0093 17.7885 27.9397C17.7554 24.8704 17.6234 21.8008 17.3924 18.7315C17.1614 15.6289 16.6993 12.5429 16.0062 9.47343C15.9732 8.87931 16.0722 8.5163 16.3032 8.38425C16.5343 8.21921 16.8313 8.13672 17.1944 8.13672C17.9865 8.13672 18.6961 8.33474 19.3232 8.73082C19.9833 9.09385 20.5774 9.57242 21.1054 10.1665C21.6335 10.7276 22.0956 11.3547 22.4917 12.0478C22.9207 12.7409 23.3003 13.368 23.6303 13.9291C23.8943 14.3581 24.2574 15.0347 24.7195 15.959L26.3037 19.1768C26.8979 20.3651 27.5084 21.6193 28.1355 22.9393C28.7956 24.2266 29.4227 25.4644 30.0168 26.6524C30.6109 27.8077 31.1555 28.8473 31.6506 29.7715C32.1458 30.6626 32.5251 31.3061 32.7893 31.7022C32.9212 31.7022 33.0366 31.6528 33.1359 31.5538C33.2348 31.4548 33.3668 31.1742 33.5317 30.7121C33.7299 30.25 33.9773 29.5406 34.2744 28.5832C34.6046 27.626 35.0501 26.3061 35.6112 24.6227C36.1722 22.9393 36.8655 20.8107 37.6904 18.2361C38.5156 15.6619 39.5222 12.5264 40.7105 8.82983C40.7765 8.66479 40.9909 8.5163 41.354 8.38425C41.7171 8.25222 42.0472 8.18622 42.3441 8.18622C42.6412 8.18622 42.8392 8.28526 42.9384 8.48326C43.0703 8.68128 43.1693 9.01136 43.2353 9.47343C43.5324 12.2788 43.7633 15.2163 43.9285 18.2859C44.1264 21.3222 44.3741 24.4083 44.671 27.5436C44.9681 30.6461 45.3312 33.732 45.76 36.8013C46.2221 39.8711 46.8494 42.7917 47.6413 45.5644L44.2254 46.9009L41.354 13.9291Z" fill="#20257F"/>
<path d="M57.6182 45.6137C57.6182 44.4257 57.7999 43.2706 58.1627 42.1483C58.5258 40.993 58.922 39.8382 59.351 38.6826C59.7801 37.5278 60.1432 36.389 60.4401 35.2666C60.7702 34.1119 60.886 32.9071 60.7867 31.6528C59.8296 30.5967 58.7735 29.4579 57.6182 28.2368C56.4631 26.9826 55.3246 25.6953 54.2023 24.3753C53.0802 23.0221 52.0403 21.6359 51.0832 20.2167C50.1261 18.7645 49.3506 17.2955 48.7566 15.8103C48.7233 15.7773 48.7068 15.7279 48.7068 15.6619V15.4637C48.7068 15.0678 48.8556 14.8037 49.1524 14.6717C49.4496 14.5397 49.7632 14.4737 50.0931 14.4737C50.9512 15.4967 51.8589 16.6685 52.816 17.9888C53.8062 19.276 54.8128 20.563 55.8361 21.8503C56.8592 23.1375 57.8988 24.3753 58.9549 25.5634C60.0113 26.7184 61.0509 27.6755 62.074 28.4348H62.7175C62.8497 28.2039 63.0806 27.6426 63.4105 26.7517C63.7406 25.8275 64.137 24.7382 64.5988 23.4842C65.0941 22.2299 65.6057 20.8437 66.1334 19.3255C66.6615 17.8073 67.1571 16.3219 67.6186 14.8698C68.1137 13.3845 68.5265 11.9983 68.8567 10.7111C69.2192 9.42395 69.4834 8.36778 69.6483 7.54265C69.6816 7.47665 69.7808 7.44363 69.9458 7.44363C70.4405 7.44363 70.8369 7.67467 71.1338 8.13674C71.4639 8.56581 71.5961 9.01139 71.5296 9.47346C70.6387 12.6089 69.8963 15.1833 69.3017 17.1966C68.741 19.2098 68.2627 20.8602 67.8663 22.1474C67.5032 23.4014 67.1898 24.4248 66.9256 25.2167C66.6615 25.976 66.3814 26.7019 66.084 27.3952C65.8201 28.0881 65.5394 28.8639 65.2425 29.722C64.9451 30.5472 64.5493 31.6693 64.0545 33.0885C63.5595 34.475 62.9487 36.2738 62.2224 38.4849C61.4965 40.6631 60.5888 43.4523 59.4995 46.8515C59.4665 46.8515 59.3675 46.8515 59.2026 46.8515C59.0704 46.8847 58.9714 46.901 58.9055 46.901C58.0473 46.901 57.6182 46.4719 57.6182 45.6137Z" fill="#F92D17"/>
<path d="M73.14 16.4042V14.0279C73.5359 14.0279 73.9815 14.16 74.4765 14.424C74.9716 14.688 75.4504 15.0016 75.9122 15.3646C76.3743 15.7277 76.8034 16.1403 77.1992 16.6023C77.5956 17.0314 77.909 17.3945 78.1399 17.6914L92.7448 37.3459C92.844 36.7852 92.9265 35.7453 92.9925 34.2268C93.0914 32.7087 93.1241 30.9926 93.0914 29.0781C93.0914 27.1308 93.0417 25.1011 92.943 22.9889C92.8767 20.8765 92.7616 18.9127 92.5964 17.0974C92.4641 15.2491 92.2992 13.6979 92.101 12.4437C91.9361 11.1565 91.7052 10.3809 91.4078 10.1169C91.4078 9.62178 91.4908 9.15968 91.6557 8.73064C91.8536 8.30158 92.2167 8.08704 92.7448 8.08704C93.2731 8.08704 93.7022 8.38407 94.0321 8.97817C94.3622 9.57224 94.6096 10.2488 94.7745 11.008C94.9394 11.7341 95.0552 12.4602 95.1211 13.1863C95.2201 13.8794 95.2696 14.3414 95.2696 14.5725C95.3028 15.1666 95.3358 16.0743 95.3685 17.2953C95.4018 18.4836 95.4345 19.8533 95.4678 21.4045C95.501 22.9227 95.5337 24.5401 95.5667 26.2561C95.6327 27.9725 95.6824 29.5899 95.7151 31.1081C95.7811 32.6262 95.8144 34.0124 95.8144 35.2664C95.8474 36.4877 95.8801 37.3954 95.9133 37.9894C95.9133 38.4185 95.9793 38.8149 96.1115 39.178C96.2764 39.5406 96.4249 39.9037 96.5568 40.2671C96.7218 40.6302 96.8705 40.9928 97.0024 41.3559C97.1346 41.7193 97.2006 42.0989 97.2006 42.4947C97.2006 43.1547 96.9532 43.6498 96.4576 43.9802C95.9958 44.277 95.4678 44.4255 94.8737 44.4255C94.5436 44.4255 94.2465 44.3927 93.9823 44.3262C93.7514 44.2275 93.5532 44.0788 93.3883 43.8812C93.2563 43.6498 93.1739 43.3696 93.1409 43.0395C93.1409 42.7091 93.2066 42.28 93.3391 41.7522C92.9757 41.3232 92.4149 40.6302 91.6557 39.6728C90.8962 38.6824 90.0383 37.5933 89.0815 36.4053C88.157 35.184 87.1669 33.9135 86.1106 32.5932C85.0547 31.273 84.0479 30.019 83.091 28.8307C82.1339 27.6094 81.2757 26.5203 80.5167 25.5632L78.8331 23.4345C78.7671 23.3353 78.6514 23.2033 78.4865 23.0384L77.2984 21.8501C77.1335 21.6852 77.0016 21.5694 76.9026 21.5035C76.7701 23.4177 76.7869 25.3488 76.9518 27.296C77.1168 29.2103 77.3317 31.1245 77.5956 33.0388C77.8925 34.9531 78.1731 36.8676 78.4373 38.7816C78.7339 40.6629 78.8829 42.5607 78.8829 44.4752C78.8829 45.0033 78.8331 45.4816 78.7339 45.9106C78.6354 46.3067 78.2391 46.6204 77.5458 46.8513C76.8858 46.6204 76.4403 46.1913 76.2094 45.5643C75.9785 44.9043 75.9947 44.277 76.2586 43.683L73.14 16.4042Z" fill="#FA6821"/>
<path d="M112.92 15.8103C111.864 15.8103 110.791 15.9092 109.702 16.1074C108.646 16.3053 107.59 16.5365 106.533 16.8004C105.477 17.0315 104.421 17.246 103.365 17.4441C102.309 17.6421 101.236 17.741 100.147 17.741C99.8167 17.741 99.4703 17.708 99.1075 17.6421C98.7776 17.5431 98.6122 17.246 98.6122 16.7509C98.6122 16.421 98.7444 16.0909 99.0085 15.7608C99.3051 15.3977 99.619 15.1997 99.9492 15.1667L113.217 13.2359C113.25 13.1039 113.3 12.9059 113.366 12.6418C113.431 12.3448 113.514 12.0642 113.613 11.8002C113.745 11.5032 113.91 11.2556 114.108 11.0576C114.306 10.8266 114.537 10.711 114.801 10.711C115.197 10.711 115.511 10.8101 115.742 11.0081C115.973 11.2061 116.171 11.4372 116.336 11.7012C116.501 11.9322 116.65 12.1468 116.781 12.3448C116.914 12.5428 117.079 12.6418 117.277 12.6418H117.673C118.003 12.6088 118.531 12.5593 119.257 12.4933C119.983 12.3943 120.808 12.2953 121.733 12.1963C122.689 12.0972 123.696 11.9982 124.752 11.8993C125.809 11.7672 126.815 11.6682 127.772 11.6022C128.729 11.5032 129.571 11.4206 130.297 11.3546C131.023 11.2556 131.551 11.1731 131.881 11.1071C131.98 11.1071 132.211 11.1071 132.574 11.1071C132.97 11.0741 133.251 11.0576 133.416 11.0576C133.416 11.6847 133.07 12.2128 132.376 12.6418C131.716 13.0379 130.858 13.3844 129.802 13.6815C128.779 13.9455 127.624 14.1601 126.337 14.3251C125.082 14.4571 123.845 14.5726 122.623 14.6716C121.435 14.7707 120.33 14.8532 119.307 14.9192C118.316 14.9852 117.557 15.0677 117.029 15.1667C116.897 17.5101 116.946 19.9524 117.178 22.4937C117.442 25.0352 117.755 27.593 118.118 30.1675C118.514 32.7418 118.877 35.2998 119.207 37.8411C119.537 40.3826 119.702 42.8082 119.702 45.1185C119.835 45.5809 119.884 45.944 119.851 46.2082C119.851 46.4718 119.768 46.6532 119.603 46.7524C119.438 46.8514 119.191 46.9009 118.861 46.9009C118.531 46.9009 118.135 46.8846 117.673 46.8514C117.343 45.6633 117.045 44.2771 116.781 42.693C116.551 41.0753 116.336 39.3592 116.138 37.5442C115.94 35.6956 115.742 33.7979 115.544 31.8506C115.379 29.9034 115.214 27.9726 115.049 26.0583C114.883 24.1441 114.702 22.3123 114.504 20.5629C114.306 18.8139 114.075 17.2295 113.811 15.8103H112.92Z" fill="#FDB130"/>
</svg>
