<svg width="146" height="146" viewBox="0 0 146 146" fill="none" xmlns="http://www.w3.org/2000/svg">
<circle opacity="0.9" cx="72.8153" cy="72.8153" r="72.8153" transform="matrix(-1 0 0 1 146 0)" fill="url(#paint0_linear_375_68)"/>
<path d="M57.5305 65.9782V85.069H50.2676V68.3127C50.2676 64.2144 48.4519 62.8656 46.325 62.8656C42.6936 62.8656 41.3966 65.2519 41.3966 68.5202V85.069H34.1338V68.4683C34.1338 66.1338 34.1338 62.8656 29.7761 62.8656C26.3522 62.8656 25.2628 65.2519 25.2628 68.2608V85.069H18V57.4703H24.9515V61.5167H25.0553C25.9891 59.701 28.0123 56.744 32.8888 56.744C36.8833 56.744 38.699 58.1966 40.5666 61.1536C41.5004 59.8048 43.5236 56.744 47.9332 56.744C53.3284 56.744 57.5305 59.9086 57.5305 65.9782Z" fill="white"/>
<path d="M84.5792 57.4703L75.0856 84.6021C71.6617 94.8219 70.7279 96.1707 64.3989 96.1707C63.4132 96.1707 62.1682 96.1189 61.1306 96.067V90.2567C61.4419 90.3086 61.9088 90.3605 62.5313 90.3605C65.1771 90.3605 66.6296 89.9973 67.304 86.2103L57.1361 57.4703H65.229L71.143 77.8062H71.2467L76.9013 57.4703H84.5792Z" fill="white"/>
<path d="M111.175 65.9782V85.069H103.912V68.3127C103.912 66.2895 103.808 62.8656 99.1911 62.8656C95.9747 62.8656 93.4846 65.0444 93.4846 69.2465V85.069H86.2218V57.4703H93.1734V61.5167H93.2771C94.2628 59.8567 96.3379 56.744 101.577 56.744C106.973 56.744 111.175 59.9086 111.175 65.9782Z" fill="white"/>
<path d="M123.487 50V57.4703H128V62.658H123.487V77.6506C123.487 79.2588 123.539 79.8813 126.496 79.8813C126.962 79.8813 127.481 79.8294 128 79.7775V85.2765C126.859 85.3284 125.717 85.3803 124.576 85.3803H123.642C117.365 85.3803 116.224 82.9939 116.224 79.4144V62.658H112.489V57.4703H116.224V53.0089L123.487 50Z" fill="white"/>
<path d="M87.223 94.895H88.835C89.459 94.895 89.771 94.5743 89.771 93.933V91.385C89.771 90.7437 89.459 90.423 88.835 90.423H88.146C87.4353 90.423 87.08 90.787 87.08 91.515V94.752C87.08 94.8473 87.1277 94.895 87.223 94.895ZM85.819 95.779V87.082C85.819 86.9347 85.8927 86.861 86.04 86.861H86.859C87.0063 86.861 87.08 86.9347 87.08 87.082V90.02H87.132C87.3487 89.552 87.7863 89.318 88.445 89.318H89.017C89.6583 89.318 90.1567 89.4957 90.512 89.851C90.8673 90.1977 91.045 90.6873 91.045 91.32V93.985C91.045 94.6177 90.8673 95.1117 90.512 95.467C90.1567 95.8223 89.6583 96 89.017 96H86.04C85.8927 96 85.819 95.9263 85.819 95.779ZM93.3275 98.106H92.6385C92.4912 98.106 92.4175 98.0323 92.4175 97.885V97.222C92.4175 97.066 92.4912 96.988 92.6385 96.988H92.9375C93.4662 96.988 93.8302 96.884 94.0295 96.676C94.2375 96.468 94.4108 96.1257 94.5495 95.649H94.0295C93.8995 95.649 93.8085 95.5753 93.7565 95.428L92.0275 89.591C91.9928 89.4437 92.0492 89.37 92.1965 89.37H93.0675C93.2062 89.37 93.2928 89.4437 93.3275 89.591L94.7445 94.687H94.7965L96.2135 89.591C96.2395 89.4437 96.3262 89.37 96.4735 89.37H97.3055C97.4702 89.37 97.5395 89.448 97.5135 89.604L95.7325 95.857C95.5332 96.585 95.2515 97.1397 94.8875 97.521C94.5235 97.911 94.0035 98.106 93.3275 98.106ZM101.493 95.779V95.168C101.493 94.9427 101.532 94.7823 101.61 94.687L105.367 88.876V88.824H101.922C101.766 88.824 101.688 88.7503 101.688 88.603V87.862C101.688 87.7147 101.766 87.641 101.922 87.641H106.524C106.671 87.641 106.745 87.7147 106.745 87.862V88.72C106.745 88.9107 106.697 89.0797 106.602 89.227L102.988 94.765V94.817H106.654C106.801 94.817 106.875 94.8863 106.875 95.025V95.753C106.875 95.9177 106.801 96 106.654 96H101.714C101.566 96 101.493 95.9263 101.493 95.779ZM112.801 96H108.641C108.493 96 108.42 95.9263 108.42 95.779V87.862C108.42 87.7147 108.493 87.641 108.641 87.641H112.801C112.939 87.641 113.009 87.7147 113.009 87.862V88.525C113.009 88.6723 112.939 88.746 112.801 88.746H109.837C109.733 88.746 109.681 88.7893 109.681 88.876V91.073C109.681 91.1597 109.733 91.203 109.837 91.203H112.346C112.502 91.203 112.58 91.2767 112.58 91.424V92.087C112.58 92.2343 112.502 92.308 112.346 92.308H109.837C109.733 92.308 109.681 92.3513 109.681 92.438V94.752C109.681 94.8473 109.733 94.895 109.837 94.895H112.801C112.939 94.895 113.009 94.9687 113.009 95.116V95.779C113.009 95.9263 112.939 96 112.801 96ZM116.07 94.921H117.89C118.54 94.921 118.865 94.609 118.865 93.985V93.179C118.865 92.555 118.522 92.243 117.838 92.243H116.07C115.974 92.243 115.927 92.2863 115.927 92.373V94.791C115.927 94.8777 115.974 94.921 116.07 94.921ZM116.07 91.203H117.76C118.418 91.203 118.748 90.8867 118.748 90.254V89.656C118.748 89.032 118.427 88.72 117.786 88.72H116.07C115.974 88.72 115.927 88.7633 115.927 88.85V91.073C115.927 91.1597 115.974 91.203 116.07 91.203ZM114.666 95.779V87.862C114.666 87.7147 114.739 87.641 114.887 87.641H117.968C118.609 87.641 119.107 87.8143 119.463 88.161C119.818 88.5077 119.996 88.9973 119.996 89.63V90.267C119.996 91.021 119.64 91.5063 118.93 91.723C119.268 91.7663 119.545 91.9137 119.762 92.165C119.987 92.4163 120.1 92.7543 120.1 93.179V94.011C120.1 94.6437 119.922 95.1333 119.567 95.48C119.211 95.8267 118.717 96 118.085 96H114.887C114.739 96 114.666 95.9263 114.666 95.779ZM126.207 87.641H127.026C127.182 87.641 127.26 87.7103 127.26 87.849V93.985C127.26 94.6177 127.078 95.1117 126.714 95.467C126.358 95.8223 125.864 96 125.232 96H123.789C123.156 96 122.662 95.8223 122.307 95.467C121.951 95.1117 121.774 94.6177 121.774 93.985V87.862C121.774 87.7147 121.847 87.641 121.995 87.641H122.814C122.961 87.641 123.035 87.7147 123.035 87.862V93.933C123.035 94.5743 123.347 94.895 123.971 94.895H125.037C125.669 94.895 125.986 94.5743 125.986 93.933V87.862C125.986 87.7147 126.059 87.641 126.207 87.641Z" fill="white"/>
<defs>
<linearGradient id="paint0_linear_375_68" x1="106.131" y1="135" x2="34.1309" y2="12.5" gradientUnits="userSpaceOnUse">
<stop offset="0.0439766" stop-color="#003F9E"/>
<stop offset="0.536458" stop-color="#005FEC"/>
</linearGradient>
</defs>
</svg>
