<svg width="18" height="18" viewBox="0 0 18 18" fill="none" xmlns="http://www.w3.org/2000/svg">
<circle cx="9" cy="9" r="9" fill="#D34645"/>
<path d="M11.8015 12.5996H7.00803C6.79614 12.5996 6.59294 12.5154 6.44311 12.3656C6.29329 12.2158 6.20912 12.0126 6.20912 11.8007C6.20912 11.5888 6.29329 11.3856 6.44311 11.2358C6.59294 11.086 6.79614 11.0018 7.00803 11.0018H9.87291L5.64429 6.77316C5.56798 6.69947 5.50712 6.61131 5.46525 6.51384C5.42338 6.41637 5.40134 6.31154 5.40042 6.20546C5.3995 6.09938 5.41971 5.99418 5.45988 5.896C5.50005 5.79782 5.55937 5.70862 5.63439 5.63361C5.7094 5.55859 5.7986 5.49927 5.89678 5.4591C5.99496 5.41893 6.10016 5.39872 6.20624 5.39964C6.31232 5.40056 6.41715 5.4226 6.51462 5.46447C6.61209 5.50634 6.70025 5.5672 6.77395 5.64351L11.0026 9.87213V7.00725C11.0026 6.79536 11.0867 6.59216 11.2366 6.44233C11.3864 6.29251 11.5896 6.20834 11.8015 6.20834C12.0134 6.20834 12.2166 6.29251 12.3664 6.44233C12.5162 6.59216 12.6004 6.79536 12.6004 7.00725V11.8007C12.6004 12.0126 12.5162 12.2158 12.3664 12.3656C12.2166 12.5154 12.0134 12.5996 11.8015 12.5996Z" fill="white"/>
</svg>
