<svg width="180" height="112" viewBox="0 0 180 112" fill="none" xmlns="http://www.w3.org/2000/svg">
<rect x="13" y="3" width="154" height="94" rx="9" stroke="#20257F" stroke-opacity="0.3" stroke-width="6"/>
<line x1="3" y1="109" x2="177" y2="109" stroke="#20257F" stroke-opacity="0.3" stroke-width="6" stroke-linecap="round"/>
<path d="M121.832 30.3794C122.042 29.2949 121.332 28.2459 120.248 28.0363L102.575 24.6215C101.49 24.4119 100.441 25.1212 100.232 26.2057C100.022 27.2902 100.731 28.3393 101.816 28.5488L117.525 31.5842L114.49 47.2937C114.28 48.3782 114.99 49.4272 116.074 49.6368C117.159 49.8463 118.208 49.137 118.417 48.0525L121.832 30.3794ZM78.9267 60.0962L120.989 31.6568L118.748 28.3432L76.6862 56.7826L78.9267 60.0962Z" fill="#20257F"/>
<path d="M58.0367 70.1027C57.826 71.187 58.5341 72.2368 59.6184 72.4476L77.2877 75.8822C78.372 76.0929 79.4218 75.3848 79.6325 74.3005C79.8433 73.2163 79.1352 72.1664 78.0509 71.9557L62.3449 68.9027L65.3978 53.1967C65.6086 52.1124 64.9005 51.0626 63.8162 50.8518C62.7319 50.641 61.6821 51.3492 61.4713 52.4334L58.0367 70.1027ZM100.975 40.4338L58.8816 68.8263L61.1184 72.1424L103.212 43.75L100.975 40.4338Z" fill="#20257F"/>
</svg>
