<svg width="800" height="800" viewBox="0 0 800 800" fill="none" xmlns="http://www.w3.org/2000/svg">
<path d="M366.666 700H333.333C207.625 700 144.772 700 105.719 660.947C66.6665 621.897 66.6665 559.04 66.6665 433.333V366.667C66.6665 240.959 66.6665 178.105 105.719 139.052C144.772 100 207.625 100 333.333 100H466.666C592.373 100 655.23 100 694.28 139.052C733.333 178.105 733.333 240.959 733.333 366.667" stroke="#506D84" stroke-width="50" stroke-linecap="round"/>
<path d="M433.333 566.667C433.333 503.813 433.334 472.387 452.86 452.86C472.387 433.333 503.813 433.333 566.667 433.333H600C662.853 433.333 694.28 433.333 713.807 452.86C733.333 472.387 733.333 503.813 733.333 566.667C733.333 629.52 733.333 660.947 713.807 680.473C694.28 700 662.853 700 600 700H566.667C503.813 700 472.387 700 452.86 680.473C433.334 660.947 433.333 629.52 433.333 566.667Z" stroke="#506D84" stroke-width="50"/>
<path d="M250 250L250 350M250 250L350 250M250 250L383.333 383.333" stroke="#506D84" stroke-width="50" stroke-linecap="round" stroke-linejoin="round"/>
</svg>
