<svg width="28" height="28" viewBox="0 0 28 28" fill="none" xmlns="http://www.w3.org/2000/svg">
<path d="M6.20001 17.2133H9.59339C10.0358 17.2133 10.4756 17.266 10.9045 17.3713L14.49 18.2426C15.2679 18.4321 16.0785 18.4505 16.8646 18.2978L20.8289 17.5266C21.8761 17.3226 22.8395 16.8211 23.5944 16.0867L26.3993 13.3582C27.2002 12.5804 27.2002 11.3182 26.3993 10.539C25.6782 9.83746 24.5361 9.7585 23.7203 10.3534L20.4514 12.7383C19.9833 13.0805 19.4136 13.2648 18.8278 13.2648H15.6712L17.6804 13.2647C18.8129 13.2647 19.7303 12.3723 19.7303 11.2707V10.8719C19.7303 9.95715 19.0903 9.15955 18.1784 8.93843L15.0772 8.18426C14.5725 8.06185 14.0557 8 13.536 8C12.2818 8 10.0115 9.03845 10.0115 9.03845L6.20001 10.6323M1 10.08V17.62C1 18.3481 1 18.7121 1.14169 18.9902C1.26633 19.2348 1.46521 19.4337 1.70981 19.5583C1.9879 19.7 2.35194 19.7 3.08 19.7H4.12C4.84807 19.7 5.21211 19.7 5.49019 19.5583C5.7348 19.4337 5.93367 19.2348 6.05832 18.9902C6.20001 18.7121 6.20001 18.3481 6.20001 17.62V10.08C6.20001 9.35194 6.20001 8.9879 6.05832 8.70981C5.93367 8.46521 5.7348 8.26633 5.49019 8.14169C5.21211 8 4.84807 8 4.12 8H3.08C2.35194 8 1.9879 8 1.70981 8.14169C1.46521 8.26633 1.26633 8.46521 1.14169 8.70981C1 8.9879 1 9.35194 1 10.08Z" stroke="white" stroke-width="1.8" stroke-linecap="round" stroke-linejoin="round"/>
</svg>
