<svg width="28" height="28" viewBox="0 0 28 28" fill="none" xmlns="http://www.w3.org/2000/svg">
<g clip-path="url(#clip0_1_21)">
<mask id="mask0_1_21" style="mask-type:luminance" maskUnits="userSpaceOnUse" x="0" y="0" width="28" height="28">
<path d="M0 0H28V28H0V0Z" fill="white"/>
</mask>
<g mask="url(#mask0_1_21)">
<path d="M22.0814 8.094C22.0814 3.63 18.453 0 13.9923 0C9.53159 0 5.90317 3.63 5.90317 8.094C5.90317 10.858 7.29545 13.303 9.41476 14.764C7.42402 15.45 5.60733 16.59 4.09862 18.1C1.45503 20.744 0 24.26 0 28H2.18593C2.18593 21.486 7.48276 16.187 13.9923 16.187C18.453 16.187 22.0814 12.557 22.0814 8.094ZM13.9923 14C10.7375 14 8.0891 11.35 8.0891 8.094C8.0891 4.837 10.7375 2.187 13.9923 2.187C17.247 2.187 19.8954 4.837 19.8954 8.094C19.8954 11.35 17.247 14 13.9923 14ZM28 20.125L22.8538 25.273L21.309 23.726L23.8695 21.163H21.9732C19.3538 21.163 17.221 23.296 17.219 25.917L17.2171 28L15.0312 27.998L15.0321 25.915C15.036 22.089 18.1498 18.975 21.9742 18.975H23.7604L21.308 16.523L22.8548 14.976L28 20.125Z" fill="white"/>
<path d="M28 20.125L22.8557 25.273L21.309 23.726L23.8705 21.163H21.9742C19.3548 21.163 17.2219 23.296 17.22 25.917L17.2181 28L15.0312 27.998L15.0331 25.915C15.036 22.089 18.1498 18.975 21.9752 18.975H23.7614L21.309 16.523L22.8557 14.976L28 20.125Z" fill="white"/>
</g>
</g>
<defs>
<clipPath id="clip0_1_21">
<rect width="28" height="28" fill="black"/>
</clipPath>
</defs>
</svg>
