<svg width="48" height="48" viewBox="0 0 48 48" fill="none" xmlns="http://www.w3.org/2000/svg">
<path d="M24 1C11.3174 1 1 11.3179 1 24C1 36.6821 11.3174 47 24 47C36.6826 47 47 36.6821 47 24C47 11.3179 36.6826 1 24 1Z" fill="#D37FF0" fill-opacity="0.5"/>
<path d="M24 10C25.8385 10 27.659 10.3621 29.3576 11.0657C31.0561 11.7693 32.5995 12.8005 33.8995 14.1005C35.1995 15.4005 36.2308 16.9439 36.9343 18.6424C37.6379 20.341 38 22.1615 38 24L24 24V10Z" fill="#645AED"/>
<path d="M38 24C38 26.2094 37.4771 28.3873 36.4741 30.3559C35.4711 32.3244 34.0164 34.0276 32.229 35.3262L24 24L38 24Z" fill="#645AED"/>
<path d="M38 24C38 31.732 31.732 38 24 38C16.268 38 10 31.732 10 24C10 16.268 16.268 10 24 10C31.732 10 38 16.268 38 24Z" fill="#645AED"/>
<path d="M24 10C25.8385 10 27.659 10.3621 29.3576 11.0657C31.0561 11.7693 32.5995 12.8005 33.8995 14.1005C35.1995 15.4005 36.2308 16.9439 36.9343 18.6424C37.6379 20.341 38 22.1615 38 24M24 10V24M24 10C16.268 10 10 16.268 10 24C10 31.732 16.268 38 24 38C31.732 38 38 31.732 38 24M24 10C31.732 10 38 16.268 38 24M38 24L24 24M38 24C38 26.2094 37.4771 28.3873 36.4741 30.3559C35.4711 32.3244 34.0164 34.0276 32.229 35.3262L24 24" stroke="#E3B9F3" stroke-width="1.6" stroke-linecap="round" stroke-linejoin="round"/>
</svg>
