<svg width="72" height="72" viewBox="0 0 72 72" fill="none" xmlns="http://www.w3.org/2000/svg">
<g id="divider 1">
<g id="Group">
<path id="Vector" d="M61.5 1.5H10.5C8.8425 1.5 7.5 2.8425 7.5 4.5V25.5C7.5 27.1575 8.8425 28.5 10.5 28.5H61.5C63.1575 28.5 64.5 27.1575 64.5 25.5V4.5C64.5 2.8425 63.1575 1.5 61.5 1.5Z" fill="url(#paint0_linear_3197_102248)"/>
<path id="Vector_2" d="M61.5 70.5H10.5C8.8425 70.5 7.5 69.1575 7.5 67.5V46.5C7.5 44.8425 8.8425 43.5 10.5 43.5H61.5C63.1575 43.5 64.5 44.8425 64.5 46.5V67.5C64.5 69.1575 63.1575 70.5 61.5 70.5Z" fill="url(#paint1_linear_3197_102248)"/>
<path id="Vector_3" d="M69 37.5H3C2.1705 37.5 1.5 36.828 1.5 36C1.5 35.172 2.1705 34.5 3 34.5H69C69.8295 34.5 70.5 35.172 70.5 36C70.5 36.828 69.8295 37.5 69 37.5Z" fill="#B3B3B3"/>
</g>
</g>
<defs>
<linearGradient id="paint0_linear_3197_102248" x1="36" y1="28.5" x2="36" y2="1.5" gradientUnits="userSpaceOnUse">
<stop stop-color="#72C472"/>
<stop offset="1" stop-color="#15B7B7"/>
</linearGradient>
<linearGradient id="paint1_linear_3197_102248" x1="36" y1="43.5" x2="36" y2="70.5" gradientUnits="userSpaceOnUse">
<stop stop-color="#72C472"/>
<stop offset="1" stop-color="#15B7B7"/>
</linearGradient>
</defs>
</svg>
