<svg width="48" height="48" viewBox="0 0 48 48" fill="none" xmlns="http://www.w3.org/2000/svg">
<path d="M24 1C11.3174 1 1 11.3179 1 24C1 36.6821 11.3174 47 24 47C36.6826 47 47 36.6821 47 24C47 11.3179 36.6826 1 24 1Z" fill="#CAE88C"/>
<path d="M35 35H14.9556C14.271 35 13.9288 35 13.6673 34.8668C13.4374 34.7496 13.2504 34.5626 13.1332 34.3327C13 34.0712 13 33.729 13 33.0444V13M35 17.8889L28.3581 24.5308C28.116 24.7728 27.995 24.8938 27.8555 24.9392C27.7328 24.9791 27.6006 24.9791 27.4778 24.9392C27.3383 24.8938 27.2173 24.7728 26.9753 24.5308L24.6914 22.2469C24.4494 22.0049 24.3284 21.8839 24.1888 21.8386C24.0661 21.7987 23.9339 21.7987 23.8112 21.8386C23.6716 21.8839 23.5506 22.0049 23.3086 22.2469L17.8889 27.6667M35 17.8889H30.1111M35 17.8889V22.7778" stroke="#5B8937" stroke-width="3" stroke-linecap="round" stroke-linejoin="round"/>
</svg>
