<svg width="48" height="48" viewBox="0 0 48 48" fill="none" xmlns="http://www.w3.org/2000/svg">
<path d="M24 1C11.3174 1 1 11.3179 1 24C1 36.6821 11.3174 47 24 47C36.6826 47 47 36.6821 47 24C47 11.3179 36.6826 1 24 1Z" fill="#CAE88C"/>
<path d="M13.6668 17.3336C15.6919 17.3336 17.3336 15.6919 17.3336 13.6668C17.3336 11.6417 15.6919 10 13.6668 10C11.6417 10 10 11.6417 10 13.6668C10 15.6919 11.6417 17.3336 13.6668 17.3336Z" fill="#444444"/>
<path d="M33.8333 17.3336C35.8584 17.3336 37.5001 15.6919 37.5001 13.6668C37.5001 11.6417 35.8584 10 33.8333 10C31.8082 10 30.1665 11.6417 30.1665 13.6668C30.1665 15.6919 31.8082 17.3336 33.8333 17.3336Z" fill="#5B8937"/>
<path d="M13.6668 37.3336C15.6919 37.3336 17.3336 35.6919 17.3336 33.6668C17.3336 31.6417 15.6919 30 13.6668 30C11.6417 30 10 31.6417 10 33.6668C10 35.6919 11.6417 37.3336 13.6668 37.3336Z" fill="#444444"/>
<path d="M33.8333 37.5001C35.8584 37.5001 37.5001 35.8584 37.5001 33.8333C37.5001 31.8082 35.8584 30.1665 33.8333 30.1665C31.8082 30.1665 30.1665 31.8082 30.1665 33.8333C30.1665 35.8584 31.8082 37.5001 33.8333 37.5001Z" fill="#444444"/>
<path d="M23.7493 20.0833C23.0241 20.0833 22.3152 20.2983 21.7122 20.7012C21.1092 21.1041 20.6392 21.6768 20.3616 22.3468C20.0841 23.0168 20.0115 23.7541 20.153 24.4654C20.2945 25.1767 20.6437 25.83 21.1565 26.3429C21.6693 26.8557 22.3227 27.2049 23.034 27.3464C23.7452 27.4879 24.4825 27.4152 25.1525 27.1377C25.8226 26.8602 26.3952 26.3902 26.7981 25.7872C27.2011 25.1842 27.4161 24.4753 27.4161 23.75C27.4161 22.7775 27.0298 21.8449 26.3421 21.1572C25.6545 20.4696 24.7218 20.0833 23.7493 20.0833Z" fill="#444444"/>
<path d="M17.3336 20.0833H10V27.4168H17.3336V20.0833Z" fill="#444444"/>
<path d="M27.4161 10H20.0825V17.3336H27.4161V10Z" fill="#5B8937"/>
<path d="M37.5001 20.0833H30.1665V27.4168H37.5001V20.0833Z" fill="#5B8937"/>
<path d="M27.4161 30.1665H20.0825V37.5001H27.4161V30.1665Z" fill="#444444"/>
</svg>
