<svg width="40" height="40" viewBox="0 0 40 40" fill="none" xmlns="http://www.w3.org/2000/svg">
<path d="M14.4717 6.84916C14.2924 6.31098 14.1927 5.74949 14.1758 5.1825C10.7659 6.38841 7.81286 8.62038 5.72228 11.5719C3.63169 14.5234 2.50608 18.0498 2.5 21.6667C2.49188 24.4024 3.13215 27.1011 4.36833 29.5417L4.74333 30.2867L6.2325 29.5367L5.85583 28.7933C4.73832 26.5843 4.15949 24.1422 4.16667 21.6667C4.17214 18.4416 5.16168 15.2949 7.00309 12.6472C8.8445 9.99942 11.4501 7.97667 14.4717 6.84916Z" fill="#D37FF0"/>
<path d="M34.1325 28.8616L33.7158 29.5825C32.5667 31.5766 30.9962 33.2959 29.1138 34.6202C27.2314 35.9445 25.0827 36.842 22.8175 37.2499C20.5524 37.6578 18.2256 37.5662 15.9995 36.9818C13.7734 36.3973 11.7017 35.3338 9.92918 33.8658C9.55222 34.2909 9.11476 34.6581 8.63084 34.9558C10.5816 36.6283 12.8769 37.8503 15.3536 38.5348C17.8303 39.2193 20.4275 39.3495 22.9602 38.9161C25.493 38.4827 27.899 37.4964 30.0072 36.0273C32.1154 34.5583 33.8739 32.6426 35.1575 30.4166L35.5742 29.695L34.1325 28.8616Z" fill="#D37FF0"/>
<path d="M5.56584 34.1666C7.86702 34.1666 9.7325 32.3012 9.7325 30C9.7325 27.6988 7.86702 25.8333 5.56584 25.8333C3.26465 25.8333 1.39917 27.6988 1.39917 30C1.39917 32.3012 3.26465 34.1666 5.56584 34.1666Z" fill="#645AED"/>
<path d="M35.8333 21.6666C35.8304 22.5484 35.7543 23.4283 35.6058 24.2975C36.1619 24.4107 36.6984 24.6047 37.1983 24.8733C37.6741 22.3469 37.5864 19.7466 36.9417 17.2579C36.297 14.7692 35.111 12.4534 33.4684 10.4757C31.8258 8.49807 29.7671 6.90723 27.439 5.81667C25.1109 4.72611 22.5709 4.16271 20 4.16665H19.1667V5.83331H20C24.1978 5.83795 28.2224 7.50758 31.1907 10.4759C34.1591 13.4442 35.8287 17.4688 35.8333 21.6666Z" fill="#D37FF0"/>
<path d="M34.4342 34.1666C36.7354 34.1666 38.6008 32.3012 38.6008 30C38.6008 27.6988 36.7354 25.8333 34.4342 25.8333C32.133 25.8333 30.2675 27.6988 30.2675 30C30.2675 32.3012 32.133 34.1666 34.4342 34.1666Z" fill="#645AED"/>
<path d="M20 9.16665C22.3012 9.16665 24.1667 7.30117 24.1667 4.99998C24.1667 2.69879 22.3012 0.833313 20 0.833313C17.6988 0.833313 15.8333 2.69879 15.8333 4.99998C15.8333 7.30117 17.6988 9.16665 20 9.16665Z" fill="#645AED"/>
</svg>
