<svg width="20" height="15" viewBox="0 0 20 15" fill="none" xmlns="http://www.w3.org/2000/svg">
<rect width="20" height="15" rx="7" fill="#FFB038"/>
<path d="M5.3125 8.75C6.00286 8.75 6.5625 8.19036 6.5625 7.5C6.5625 6.80964 6.00286 6.25 5.3125 6.25C4.62214 6.25 4.0625 6.80964 4.0625 7.5C4.0625 8.19036 4.62214 8.75 5.3125 8.75Z" fill="white"/>
<path d="M10.3125 8.75C11.0029 8.75 11.5625 8.19036 11.5625 7.5C11.5625 6.80964 11.0029 6.25 10.3125 6.25C9.62214 6.25 9.0625 6.80964 9.0625 7.5C9.0625 8.19036 9.62214 8.75 10.3125 8.75Z" fill="white"/>
<path d="M15.3125 8.75C16.0029 8.75 16.5625 8.19036 16.5625 7.5C16.5625 6.80964 16.0029 6.25 15.3125 6.25C14.6221 6.25 14.0625 6.80964 14.0625 7.5C14.0625 8.19036 14.6221 8.75 15.3125 8.75Z" fill="white"/>
</svg>
