<svg width="19" height="18" viewBox="0 0 19 18" fill="none" xmlns="http://www.w3.org/2000/svg">
<path d="M6.71387 4.37662V1H12.4282V4.37662" stroke="#000000" stroke-width="1.4" stroke-linecap="round" stroke-linejoin="round"/>
<path d="M7.85714 11.1302H1V5.50249C1 5.20398 1.12041 4.9177 1.33474 4.70662C1.54906 4.49554 1.83975 4.37695 2.14286 4.37695H17C17.3031 4.37695 17.5938 4.49554 17.8081 4.70662C18.0224 4.9177 18.1429 5.20398 18.1429 5.50249V11.1302H11.2857" stroke="#000000" stroke-width="1.4" stroke-linecap="round" stroke-linejoin="round"/>
<path d="M16.9997 13.3809V15.6319C16.9997 15.9305 16.8793 16.2167 16.665 16.4278C16.4507 16.6389 16.16 16.7575 15.8569 16.7575H3.28544C2.98233 16.7575 2.69164 16.6389 2.47731 16.4278C2.26299 16.2167 2.14258 15.9305 2.14258 15.6319V13.3809" stroke="#000000" stroke-width="1.4" stroke-linecap="round" stroke-linejoin="round"/>
<path d="M11.287 8.87891H7.8584V13.3811H11.287V8.87891Z" stroke="#000000" stroke-width="1.4" stroke-linecap="round" stroke-linejoin="round"/>
</svg>
