<svg width="92" height="41" viewBox="0 0 92 41" fill="none" xmlns="http://www.w3.org/2000/svg">
<path d="M25.5996 19.8C25.7496 23.45 27.5496 25.1 30.6996 25.1C32.9996 25.1 34.8496 23.7 35.1996 22.4H40.2496C38.6496 27.3 35.1996 29.4 30.4996 29.4C23.9496 29.4 19.8496 24.9 19.8496 18.45C19.8496 12.2 24.1496 7.45002 30.4996 7.45002C37.6496 7.40002 41.0496 13.35 40.6496 19.8H25.5996ZM34.8996 16.15C34.3496 13.25 33.0996 11.7 30.3496 11.7C26.6996 11.7 25.6496 14.5 25.5996 16.15H34.8996Z" fill="white"/>
<path d="M18.7 11.1001L0 5.1001V10.3501L12.95 14.5001L0 18.7001V19.1501V23.9001V23.9501L13.35 19.6501L18.7 17.9501V11.1501V11.1001Z" fill="white"/>
<path d="M18.65 23.9502H0V28.8002H18.65V23.9502Z" fill="white"/>
<path d="M54.2495 7.39999C51.6495 7.39999 49.0995 8.35 47.6995 10.5H47.5994V0L41.8994 1.85001V28.8H47.3494V26.15H47.4495C48.6995 28.45 51.2494 29.4 54.2994 29.4C58.4494 29.4 62.9495 26.05 62.9495 18.4C62.8995 10.75 58.3995 7.39999 54.2495 7.39999ZM52.2994 25.05C48.8994 25.05 47.3994 21.85 47.3994 18.4C47.3994 14.9 48.8994 11.7 52.2994 11.7C55.6994 11.7 57.1995 14.9 57.1995 18.4C57.1495 21.9 55.6994 25.05 52.2994 25.05Z" fill="white"/>
<path d="M77.9496 18.9002C77.9496 23.1502 76.5996 24.8502 73.4996 24.8502C70.8496 24.8502 69.8496 23.1502 69.8496 19.7502V7.9502L64.0996 9.8002V20.8002C64.0996 25.9502 65.6496 29.4002 71.6996 29.4002C74.0996 29.4002 76.5996 28.2502 78.0496 25.9502H78.1496V28.8502H83.5996V7.9502L77.8496 9.8002L77.9496 18.9002Z" fill="white"/>
<path d="M0.0996094 34.75H2.79962C3.54962 34.75 4.09963 34.95 4.49963 35.35C4.84963 35.7 4.99963 36.15 4.99963 36.7C4.99963 37.65 4.49963 38.25 3.74963 38.5L5.19965 40.6H3.69965L2.44965 38.7H1.44965V40.6H0.149597L0.0996094 34.75ZM2.69965 37.6C3.34965 37.6 3.69965 37.25 3.69965 36.75C3.69965 36.2 3.29965 35.9 2.69965 35.9H1.3996V37.6H2.69965Z" fill="white"/>
<path d="M6.14941 34.75H10.5994V35.9H7.44946V37.05H10.1995V38.2H7.44946V39.45H10.6494V40.6H6.14941V34.75Z" fill="white"/>
<path d="M11.7998 34.75H13.0498V39.4H15.9998V40.6H11.7998V34.75Z" fill="white"/>
<path d="M18.3 34.75H17V40.6H18.3V34.75Z" fill="white"/>
<path d="M21.8 34.7002H23L25.5 40.6002H24.15L23.6 39.3002H21.1L20.55 40.6002H19.25L21.8 34.7002ZM23.15 38.1502L22.35 36.2502L21.55 38.1502H23.15Z" fill="white"/>
<path d="M26.3994 34.75H29.0994C29.7494 34.75 30.2994 34.95 30.6494 35.25C30.8994 35.5 31.0494 35.85 31.0494 36.25C31.0494 36.9 30.6994 37.3 30.2994 37.5C30.9994 37.75 31.3994 38.15 31.3994 38.95C31.3994 40 30.5495 40.55 29.1995 40.55H26.3994V34.75ZM28.8494 37.1C29.3994 37.1 29.7994 36.9 29.7994 36.5C29.7994 36.1 29.4995 35.9 28.9495 35.9H27.6995V37.15L28.8494 37.1ZM29.1995 39.45C29.7495 39.45 30.0994 39.25 30.0994 38.8C30.0994 38.4 29.7994 38.15 29.1494 38.15H27.6494V39.45H29.1995Z" fill="white"/>
<path d="M32.4502 34.75H33.7502V39.4H36.6501V40.6H32.4502V34.75Z" fill="white"/>
<path d="M37.5996 34.75H42.0496V35.9H38.8996V37.05H41.6496V38.2H38.8996V39.45H42.0996V40.6H37.5996V34.75Z" fill="white"/>
<path d="M44.3998 39.25H43.0498V40.6H44.3998V39.25Z" fill="white"/>
<path d="M50.1496 34.7002H51.3496L53.8496 40.6002H52.4996L51.9496 39.3002H49.4496L48.8996 40.6002H47.5996L50.1496 34.7002ZM51.4996 38.1502L50.6996 36.2502L49.8996 38.1502H51.4996Z" fill="white"/>
<path d="M54.75 34.75H56.05V39.4H58.95V40.6H54.75V34.75Z" fill="white"/>
<path d="M58.6494 34.7502H60.0494L61.2495 38.7002L62.5494 34.7002H63.6494L64.9995 38.7002L66.1995 34.7502H67.5494L65.5494 40.6502H64.3994L63.0994 36.8002L61.7495 40.6502H60.6494L58.6494 34.7502Z" fill="white"/>
<path d="M69.7502 34.7002H70.9502L73.4502 40.6002H72.1002L71.5502 39.3002H69.0502L68.5002 40.6002H67.2002L69.7502 34.7002ZM71.1002 38.1502L70.3002 36.2502L69.5002 38.1502H71.1002Z" fill="white"/>
<path d="M75.0996 38.3L72.8496 34.75H74.3496L75.7496 37.1L77.1496 34.75H78.6496L76.3996 38.25V40.6H75.0996V38.3Z" fill="white"/>
<path d="M78.75 39.7502L79.5 38.8502C80.05 39.3002 80.6 39.5502 81.25 39.5502C81.8 39.5502 82.1 39.3502 82.1 39.0002C82.1 38.6502 81.9 38.5002 80.9 38.2502C79.7 37.9502 78.95 37.6002 78.95 36.4502C78.95 35.4002 79.8 34.7002 81 34.7002C81.85 34.7002 82.6 34.9502 83.2 35.4502L82.55 36.3502C82.05 36.0002 81.5 35.7502 81.05 35.7502C80.6 35.7502 80.3 36.0002 80.3 36.2502C80.3 36.6502 80.55 36.7502 81.55 37.0002C82.75 37.3002 83.4 37.7502 83.4 38.7502C83.4 39.9002 82.5 40.5502 81.25 40.5502C80.35 40.7002 79.45 40.3502 78.75 39.7502Z" fill="white"/>
<path d="M85.6498 39.25H84.2998V40.6H85.6498V39.25Z" fill="white"/>
<path d="M87.4998 4.8002C89.0498 4.8002 90.2998 6.05019 90.2998 7.60019C90.2998 9.15019 89.0498 10.4002 87.4998 10.4002C85.9498 10.4002 84.6998 9.15019 84.6998 7.60019C84.6998 6.05019 85.8998 4.8002 87.4998 4.8002ZM87.4998 3.9502C85.4498 3.9502 83.7998 5.60018 83.7998 7.65018C83.7998 9.70018 85.4498 11.3502 87.4998 11.3502C89.5498 11.3502 91.1998 9.70018 91.1998 7.65018C91.1998 5.60018 89.4998 3.9502 87.4998 3.9502Z" fill="white"/>
<path d="M87.1996 6.7002V7.0502H86.5996V8.65018H86.1996V7.0502H85.5996V6.7002H87.1996Z" fill="white"/>
<path d="M88.7994 6.7002H89.3994V8.65018H88.9995V7.35019C88.9995 7.30019 88.9995 7.2502 88.9995 7.2002C88.9995 7.1502 88.9995 7.1002 88.9995 7.0502L88.5994 8.7002H88.1995L87.7994 7.0502C87.7994 7.1002 87.7994 7.1502 87.7994 7.2002C87.7994 7.2502 87.7994 7.30019 87.7994 7.35019V8.65018H87.3994V6.7002H87.9995L88.3494 8.25018L88.7994 6.7002Z" fill="white"/>
</svg>
