<svg width="92" height="42" viewBox="0 0 92 42" fill="none" xmlns="http://www.w3.org/2000/svg">
<path d="M26.0498 20.4499C26.1998 24.0999 27.9998 25.7499 31.1498 25.7499C33.4498 25.7499 35.2998 24.3499 35.6498 23.0499H40.6998C39.0998 27.9499 35.6498 30.0499 30.9498 30.0499C24.3998 30.0499 20.2998 25.5499 20.2998 19.0999C20.2998 12.8499 24.5998 8.09992 30.9498 8.09992C38.0998 8.04992 41.4998 13.9999 41.0998 20.4499H26.0498ZM35.3498 16.7999C34.7998 13.8999 33.5498 12.3499 30.7998 12.3499C27.1498 12.3499 26.0998 15.1499 26.0498 16.7999H35.3498Z" fill="#1F3465"/>
<path d="M19.1502 11.75L0.450195 5.75V11L13.4002 15.15L0.450195 19.35V19.8V24.55V24.6L13.8002 20.3L19.1502 18.6V11.8V11.75Z" fill="#1F3465"/>
<path d="M19.1002 24.6001H0.450195V29.4501H19.1002V24.6001Z" fill="#1F3465"/>
<path d="M54.6996 8.0499C52.0996 8.0499 49.5497 8.9999 48.1497 11.1499H48.0496V0.649902L42.3496 2.49991V29.4499H47.7996V26.7999H47.8997C49.1497 29.0999 51.6996 30.0499 54.7496 30.0499C58.8996 30.0499 63.3997 26.6999 63.3997 19.0499C63.3497 11.3999 58.8496 8.0499 54.6996 8.0499ZM52.7496 25.6999C49.3496 25.6999 47.8496 22.4999 47.8496 19.0499C47.8496 15.5499 49.3496 12.3499 52.7496 12.3499C56.1496 12.3499 57.6497 15.5499 57.6497 19.0499C57.5997 22.5499 56.1496 25.6999 52.7496 25.6999Z" fill="#1F3465"/>
<path d="M78.3998 19.5501C78.3998 23.8001 77.0498 25.5001 73.9498 25.5001C71.2998 25.5001 70.2998 23.8001 70.2998 20.4001V8.6001L64.5498 10.4501V21.4501C64.5498 26.6001 66.0998 30.0501 72.1498 30.0501C74.5498 30.0501 77.0498 28.9001 78.4998 26.6001H78.5998V29.5001H84.0498V8.6001L78.2998 10.4501L78.3998 19.5501Z" fill="#1F3465"/>
<path d="M0.549805 35.3999H3.24982C3.99982 35.3999 4.54983 35.5999 4.94983 35.9999C5.29983 36.3499 5.44983 36.7999 5.44983 37.3499C5.44983 38.2999 4.94983 38.8999 4.19983 39.1499L5.64984 41.2499H4.14984L2.89984 39.3499H1.89984V41.2499H0.599792L0.549805 35.3999ZM3.14984 38.2499C3.79984 38.2499 4.14984 37.8999 4.14984 37.3999C4.14984 36.8499 3.74984 36.5499 3.14984 36.5499H1.84979V38.2499H3.14984Z" fill="#1E3565"/>
<path d="M6.59961 35.3999H11.0496V36.5499H7.89966V37.6999H10.6497V38.8499H7.89966V40.0999H11.0996V41.2499H6.59961V35.3999Z" fill="#1E3565"/>
<path d="M12.25 35.3999H13.5V40.0499H16.45V41.2499H12.25V35.3999Z" fill="#1E3565"/>
<path d="M18.7502 35.3999H17.4502V41.2499H18.7502V35.3999Z" fill="#1E3565"/>
<path d="M22.2502 35.3501H23.4502L25.9502 41.2501H24.6002L24.0502 39.9501H21.5502L21.0002 41.2501H19.7002L22.2502 35.3501ZM23.6002 38.8001L22.8002 36.9001L22.0002 38.8001H23.6002Z" fill="#1E3565"/>
<path d="M26.8496 35.3999H29.5496C30.1996 35.3999 30.7496 35.5999 31.0996 35.8999C31.3496 36.1499 31.4996 36.4999 31.4996 36.8999C31.4996 37.5499 31.1496 37.9499 30.7496 38.1499C31.4496 38.3999 31.8496 38.7999 31.8496 39.5999C31.8496 40.6499 30.9997 41.1999 29.6497 41.1999H26.8496V35.3999ZM29.2996 37.7499C29.8496 37.7499 30.2496 37.5499 30.2496 37.1499C30.2496 36.7499 29.9497 36.5499 29.3997 36.5499H28.1497V37.7999L29.2996 37.7499ZM29.6497 40.0999C30.1997 40.0999 30.5496 39.8999 30.5496 39.4499C30.5496 39.0499 30.2496 38.7999 29.5996 38.7999H28.0996V40.0999H29.6497Z" fill="#1E3565"/>
<path d="M32.9004 35.3999H34.2004V40.0499H37.1003V41.2499H32.9004V35.3999Z" fill="#1E3565"/>
<path d="M38.0498 35.3999H42.4998V36.5499H39.3498V37.6999H42.0998V38.8499H39.3498V40.0999H42.5498V41.2499H38.0498V35.3999Z" fill="#1E3565"/>
<path d="M44.85 39.8999H43.5V41.2499H44.85V39.8999Z" fill="#1F3465"/>
<path d="M50.5998 35.3501H51.7998L54.2998 41.2501H52.9498L52.3998 39.9501H49.8998L49.3498 41.2501H48.0498L50.5998 35.3501ZM51.9498 38.8001L51.1498 36.9001L50.3498 38.8001H51.9498Z" fill="#1E3565"/>
<path d="M55.2002 35.3999H56.5002V40.0499H59.4002V41.2499H55.2002V35.3999Z" fill="#1E3565"/>
<path d="M59.0996 35.4001H60.4996L61.6996 39.3501L62.9996 35.3501H64.0996L65.4496 39.3501L66.6497 35.4001H67.9996L65.9996 41.3001H64.8496L63.5496 37.4501L62.1996 41.3001H61.0996L59.0996 35.4001Z" fill="#1E3565"/>
<path d="M70.2004 35.3501H71.4004L73.9004 41.2501H72.5504L72.0004 39.9501H69.5004L68.9504 41.2501H67.6504L70.2004 35.3501ZM71.5504 38.8001L70.7504 36.9001L69.9504 38.8001H71.5504Z" fill="#1E3565"/>
<path d="M75.5498 38.9499L73.2998 35.3999H74.7998L76.1998 37.7499L77.5998 35.3999H79.0998L76.8498 38.8999V41.2499H75.5498V38.9499Z" fill="#1E3565"/>
<path d="M79.2002 40.4001L79.9502 39.5001C80.5002 39.9501 81.0502 40.2001 81.7002 40.2001C82.2502 40.2001 82.5502 40.0001 82.5502 39.6501C82.5502 39.3001 82.3502 39.1501 81.3502 38.9001C80.1502 38.6001 79.4002 38.2501 79.4002 37.1001C79.4002 36.0501 80.2502 35.3501 81.4502 35.3501C82.3002 35.3501 83.0502 35.6001 83.6502 36.1001L83.0002 37.0001C82.5002 36.6501 81.9502 36.4001 81.5002 36.4001C81.0502 36.4001 80.7502 36.6501 80.7502 36.9001C80.7502 37.3001 81.0002 37.4001 82.0002 37.6501C83.2002 37.9501 83.8502 38.4001 83.8502 39.4001C83.8502 40.5501 82.9502 41.2001 81.7002 41.2001C80.8002 41.3501 79.9002 41.0001 79.2002 40.4001Z" fill="#1E3565"/>
<path d="M86.1 39.8999H84.75V41.2499H86.1V39.8999Z" fill="#1F3465"/>
<path d="M87.95 5.4501C89.5 5.4501 90.75 6.70009 90.75 8.25009C90.75 9.80009 89.5 11.0501 87.95 11.0501C86.4 11.0501 85.15 9.80009 85.15 8.25009C85.15 6.70009 86.35 5.4501 87.95 5.4501ZM87.95 4.6001C85.9 4.6001 84.25 6.25008 84.25 8.30008C84.25 10.3501 85.9 12.0001 87.95 12.0001C90 12.0001 91.65 10.3501 91.65 8.30008C91.65 6.25008 89.95 4.6001 87.95 4.6001Z" fill="#1E3465"/>
<path d="M87.6498 7.3501V7.7001H87.0498V9.30008H86.6498V7.7001H86.0498V7.3501H87.6498Z" fill="#1F3465"/>
<path d="M89.2496 7.3501H89.8496V9.30008H89.4496V8.00009C89.4496 7.95009 89.4496 7.9001 89.4496 7.8501C89.4496 7.8001 89.4496 7.7501 89.4496 7.7001L89.0496 9.3501H88.6497L88.2496 7.7001C88.2496 7.7501 88.2496 7.8001 88.2496 7.8501C88.2496 7.9001 88.2496 7.95009 88.2496 8.00009V9.30008H87.8496V7.3501H88.4496L88.7996 8.90009L89.2496 7.3501Z" fill="#1F3465"/>
</svg>
