<svg xmlns="http://www.w3.org/2000/svg" viewBox="0 0 121 120" width="121" height="120"><path fill="#1E222D" d="M53.88 18.36a43.4 43.4 0 0 1 11.24 0 1 1 0 0 0 .26-1.98 45.42 45.42 0 0 0-11.76 0 1 1 0 1 0 .26 1.98zM43.04 21.26a1 1 0 0 0-.77-1.85A44.95 44.95 0 0 0 32.1 25.3a1 1 0 0 0 1.22 1.58 42.95 42.95 0 0 1 9.72-5.62zM75.42 19.96a1 1 0 0 1 1.3-.55A44.95 44.95 0 0 1 86.9 25.3a1 1 0 0 1-1.22 1.58 42.95 42.95 0 0 0-9.72-5.62 1 1 0 0 1-.54-1.3zM25.38 34.82a1 1 0 1 0-1.58-1.22 44.95 44.95 0 0 0-5.89 10.17 1 1 0 0 0 1.85.77 42.95 42.95 0 0 1 5.62-9.72zM16.86 55.38a1 1 0 0 0-1.98-.26 45.42 45.42 0 0 0 0 11.76 1 1 0 1 0 1.98-.26 43.4 43.4 0 0 1 0-11.24zM103 54.26a1 1 0 0 1 1.12.86 45.4 45.4 0 0 1 0 11.76 1 1 0 0 1-1.98-.26 43.37 43.37 0 0 0 0-11.24 1 1 0 0 1 .86-1.12zM19.76 77.46a1 1 0 0 0-1.85.77A44.95 44.95 0 0 0 23.8 88.4a1 1 0 0 0 1.58-1.22 42.95 42.95 0 0 1-5.62-9.72zM100.54 76.92a1 1 0 0 1 .54 1.3A44.95 44.95 0 0 1 95.2 88.4a1 1 0 0 1-1.58-1.22 42.95 42.95 0 0 0 5.62-9.72 1 1 0 0 1 1.3-.54zM33.32 95.12a1 1 0 1 0-1.22 1.58 44.94 44.94 0 0 0 10.17 5.88 1 1 0 0 0 .77-1.84 42.97 42.97 0 0 1-9.72-5.62zM87.08 95.3a1 1 0 0 1-.18 1.4 44.94 44.94 0 0 1-10.17 5.88 1 1 0 0 1-.77-1.84 42.98 42.98 0 0 0 9.72-5.62 1 1 0 0 1 1.4.18zM53.88 103.64a1 1 0 0 0-.26 1.98 45.4 45.4 0 0 0 11.76 0 1 1 0 0 0-.26-1.98 43.37 43.37 0 0 1-11.24 0zM62.81 53.17a1 1 0 0 0-.78 1.84 6.62 6.62 0 0 1 3.49 3.5 1 1 0 1 0 1.84-.78 8.62 8.62 0 0 0-4.55-4.56z"></path><path fill="#1E222D" d="M45.5 61a14 14 0 1 1 24.28 9.5l7.92 7.92a1 1 0 0 1-1.42 1.42l-7.96-7.97A14 14 0 0 1 45.5 61zm14-12a12 12 0 1 0 0 24 12 12 0 0 0 0-24z"></path><circle fill="#0037B7" cx="97.5" cy="39" r="13"></circle><path fill="#fff" d="M98.5 34a1 1 0 1 0-2 0v4h-4a1 1 0 1 0 0 2h4v4a1 1 0 1 0 2 0v-4h4a1 1 0 0 0 0-2h-4v-4z"></path></svg>