<svg width="14" height="14" viewBox="0 0 14 14" fill="none" xmlns="http://www.w3.org/2000/svg">
<path d="M12.525 11.3554C12.5251 11.2267 12.4942 11.0999 12.4349 10.9857C12.3756 10.8715 12.2896 10.7733 12.1842 10.6994C10.741 9.76479 9.0429 9.30184 7.325 9.37462C5.6071 9.30184 3.90904 9.76479 2.4658 10.6994C2.36042 10.7733 2.27441 10.8715 2.21508 10.9857C2.15576 11.0999 2.12485 11.2267 2.125 11.3554V13.3746H12.525V11.3554Z" stroke="black" stroke-width="1.2" stroke-linecap="round" stroke-linejoin="round"/>
<path d="M7.32344 6.975C8.86983 6.975 10.1234 5.7214 10.1234 4.175C10.1234 2.6286 8.86983 1.375 7.32344 1.375C5.77704 1.375 4.52344 2.6286 4.52344 4.175C4.52344 5.7214 5.77704 6.975 7.32344 6.975Z" stroke="black" stroke-width="1.2" stroke-linecap="round" stroke-linejoin="round"/>
</svg>
