<svg width="14" height="14" viewBox="0 0 14 14" fill="none" xmlns="http://www.w3.org/2000/svg">
<g id="privacy-settings 1" clip-path="url(#clip0_4141_75268)">
<g id="Group">
<g id="Group_2">
<path id="Vector" d="M11.5549 7C11.5548 6.70784 11.5247 6.41641 11.465 6.13L13 5.04L11.7578 2.96L10.0075 3.7016C9.55441 3.31483 9.02591 3.01945 8.453 2.8328L8.24224 1H5.75776L5.547 2.8328C4.97409 3.01945 4.44559 3.31483 3.99255 3.7016L2.24224 2.96L1 5.04L2.53499 6.1308C2.41532 6.70504 2.41532 7.29656 2.53499 7.8708L1 8.96L2.24224 11.04L3.99255 10.2992C4.44559 10.686 4.97409 10.9814 5.547 11.168L5.75776 13H8.24224L8.453 11.1672C9.02591 10.9806 9.55441 10.6852 10.0075 10.2984L11.7578 11.04L13 8.96L11.465 7.8692C11.5247 7.58306 11.5548 7.29189 11.5549 7Z" stroke="white" stroke-width="1.2" stroke-miterlimit="10" stroke-linecap="square"/>
<path id="Vector_2" d="M7 7.7998V8.9998" stroke="white" stroke-width="1.2" stroke-miterlimit="10" stroke-linecap="square"/>
<path id="Vector_3" d="M7.00005 7.80039C7.68612 7.80039 8.24228 7.26313 8.24228 6.60039C8.24228 5.93765 7.68612 5.40039 7.00005 5.40039C6.31398 5.40039 5.75781 5.93765 5.75781 6.60039C5.75781 7.26313 6.31398 7.80039 7.00005 7.80039Z" stroke="white" stroke-width="1.2" stroke-miterlimit="10" stroke-linecap="square"/>
</g>
</g>
</g>
<defs>
<clipPath id="clip0_4141_75268">
<rect width="14" height="14" fill="black"/>
</clipPath>
</defs>
</svg>
