<svg width="28" height="28" viewBox="0 0 28 28" fill="none" xmlns="http://www.w3.org/2000/svg">
<path d="M16 1.35039V6.72009C16 7.44816 16 7.81219 16.1417 8.09028C16.2664 8.33489 16.4651 8.53376 16.7098 8.6584C16.9879 8.80009 17.3519 8.80009 18.08 8.80009H23.4497M18.6 15.3H8.2M18.6 20.5H8.2M10.8 10.1H8.2M16 1H9.24C7.05579 1 5.96369 1 5.12944 1.42507C4.3956 1.79898 3.79898 2.3956 3.42507 3.12944C3 3.96369 3 5.05579 3 7.24V20.76C3 22.9443 3 24.0363 3.42507 24.8706C3.79898 25.6044 4.3956 26.201 5.12944 26.5749C5.96369 27 7.05579 27 9.24 27H17.56C19.7443 27 20.8363 27 21.6706 26.5749C22.4045 26.201 23.001 25.6044 23.3749 24.8706C23.8 24.0363 23.8 22.9443 23.8 20.76V8.8L16 1Z" stroke="black" stroke-width="2" stroke-linecap="round" stroke-linejoin="round"/>
</svg>
