<svg width="48" height="48" viewBox="0 0 48 48" fill="none" xmlns="http://www.w3.org/2000/svg">
<g id="globe 1">
<g id="Group">
<path id="Vector" d="M24 44C35.0457 44 44 35.0457 44 24C44 12.9543 35.0457 4 24 4C12.9543 4 4 12.9543 4 24C4 35.0457 12.9543 44 24 44Z" fill="#E3E3E3"/>
<path id="Vector_2" d="M24 3C19.8466 3 15.7865 4.23163 12.333 6.53914C8.8796 8.84665 6.18798 12.1264 4.59854 15.9636C3.0091 19.8009 2.59323 24.0233 3.40352 28.0969C4.21381 32.1705 6.21386 35.9123 9.15077 38.8492C12.0877 41.7861 15.8295 43.7862 19.9031 44.5965C23.9767 45.4068 28.1991 44.9909 32.0364 43.4015C35.8736 41.812 39.1534 39.1204 41.4609 35.667C43.7684 32.2135 45 28.1534 45 24C44.9937 18.4324 42.7791 13.0947 38.8422 9.15777C34.9053 5.22089 29.5676 3.00635 24 3ZM5.05101 25H13.026C13.0766 27.6952 13.4159 30.3771 14.038 33H7.27301C5.94749 30.5314 5.18844 27.7986 5.05101 25ZM25 13V5.132C27.551 5.759 29.811 8.748 31.274 13H25ZM31.887 15C32.5526 17.6166 32.9176 20.3006 32.975 23H25V15H31.887ZM23 5.132V13H16.726C18.189 8.748 20.449 5.759 23 5.132ZM23 15V23H15.025C15.0819 20.3006 15.447 17.6166 16.113 15H23ZM13.026 23H5.05101C5.18844 20.2014 5.94749 17.4686 7.27301 15H14.038C13.4159 17.6229 13.0766 20.3048 13.026 23ZM15.026 25H23V33H16.113C15.447 30.3834 15.0819 27.6994 15.025 25H15.026ZM23 35V42.868C20.449 42.241 18.189 39.252 16.726 35H23ZM25 42.868V35H31.274C29.811 39.252 27.551 42.241 25 42.868ZM25 33V25H32.975C32.9176 27.6994 32.5526 30.3834 31.887 33H25ZM34.974 25H42.949C42.8116 27.7986 42.0525 30.5314 40.727 33H33.962C34.5836 30.377 34.9229 27.6951 34.974 25ZM34.974 23C34.9229 20.3049 34.5836 17.623 33.962 15H40.727C42.0525 17.4686 42.8116 20.2014 42.949 23H34.974ZM39.463 13H33.4C32.6437 10.3709 31.3409 7.93108 29.577 5.84C33.5683 7.07806 37.042 9.59386 39.463 13ZM18.419 5.84C16.6561 7.93119 15.3547 10.3711 14.6 13H8.53701C10.957 9.59457 14.4292 7.07884 18.419 5.84ZM8.53701 35H14.6C15.3559 37.6295 16.6587 40.0698 18.423 42.161C14.4318 40.9222 10.9583 38.4061 8.53701 35ZM29.581 42.161C31.3435 40.0692 32.6449 37.629 33.4 35H39.459C37.0398 38.4047 33.5693 40.9207 29.581 42.161Z" fill="#444444"/>
<path id="Vector_3" d="M16 20C15.2089 20 14.4355 19.7654 13.7777 19.3259C13.1199 18.8864 12.6072 18.2616 12.3045 17.5307C12.0017 16.7998 11.9225 15.9956 12.0769 15.2196C12.2312 14.4437 12.6122 13.731 13.1716 13.1716C13.731 12.6122 14.4437 12.2312 15.2196 12.0769C15.9956 11.9225 16.7998 12.0017 17.5307 12.3045C18.2616 12.6072 18.8864 13.1199 19.3259 13.7777C19.7654 14.4355 20 15.2089 20 16C20 17.0609 19.5786 18.0783 18.8284 18.8284C18.0783 19.5786 17.0609 20 16 20Z" fill="white"/>
<path id="Vector_4" d="M33 27C32.2089 27 31.4355 26.7654 30.7777 26.3259C30.1199 25.8864 29.6072 25.2616 29.3045 24.5307C29.0017 23.7998 28.9225 22.9956 29.0769 22.2196C29.2312 21.4437 29.6122 20.731 30.1716 20.1716C30.731 19.6122 31.4437 19.2312 32.2196 19.0769C32.9956 18.9225 33.7998 19.0017 34.5307 19.3045C35.2616 19.6072 35.8864 20.1199 36.3259 20.7777C36.7654 21.4355 37 22.2089 37 23C37 24.0609 36.5786 25.0783 35.8284 25.8284C35.0783 26.5786 34.0609 27 33 27Z" fill="white"/>
<path id="Vector_5" d="M24 38C23.2089 38 22.4355 37.7654 21.7777 37.3259C21.1199 36.8864 20.6072 36.2616 20.3045 35.5307C20.0017 34.7998 19.9225 33.9956 20.0769 33.2196C20.2312 32.4437 20.6122 31.731 21.1716 31.1716C21.731 30.6122 22.4437 30.2312 23.2196 30.0769C23.9956 29.9225 24.7998 30.0017 25.5307 30.3045C26.2616 30.6072 26.8864 31.1199 27.3259 31.7777C27.7654 32.4355 28 33.2089 28 34C28 35.0609 27.5786 36.0783 26.8284 36.8284C26.0783 37.5786 25.0609 38 24 38Z" fill="white"/>
<path id="Vector_6" d="M24 36C25.1046 36 26 35.1046 26 34C26 32.8954 25.1046 32 24 32C22.8954 32 22 32.8954 22 34C22 35.1046 22.8954 36 24 36Z" fill="#58BFCA"/>
<path id="Vector_7" d="M16 18C17.1046 18 18 17.1046 18 16C18 14.8954 17.1046 14 16 14C14.8954 14 14 14.8954 14 16C14 17.1046 14.8954 18 16 18Z" fill="#58BFCA"/>
<path id="Vector_8" d="M33 25C34.1046 25 35 24.1046 35 23C35 21.8954 34.1046 21 33 21C31.8954 21 31 21.8954 31 23C31 24.1046 31.8954 25 33 25Z" fill="#58BFCA"/>
</g>
</g>
</svg>
