<svg width="48" height="48" viewBox="0 0 48 48" fill="none" xmlns="http://www.w3.org/2000/svg">
<g id="percentage-39 1">
<g id="Group">
<path id="Vector" d="M24 1C11.3174 1 1 11.3179 1 24C1 36.6821 11.3174 47 24 47C36.6826 47 47 36.6821 47 24C47 11.3179 36.6826 1 24 1Z" fill="#CAE88C"/>
<g id="Vector_2">
<path d="M16 33C15.7441 33 15.4883 32.9023 15.293 32.707C14.9023 32.3164 14.9023 31.6836 15.293 31.293L33.293 13.293C33.6836 12.9023 34.3164 12.9023 34.707 13.293C35.0977 13.6836 35.0977 14.3164 34.707 14.707L16.707 32.707C16.5117 32.9023 16.2559 33 16 33Z" fill="#5B8937"/>
<path d="M34 21C33.4473 21 33 20.5522 33 20V15H28C27.4473 15 27 14.5523 27 14C27 13.4477 27.4473 13 28 13H34C34.5527 13 35 13.4477 35 14V20C35 20.5522 34.5527 21 34 21Z" fill="#5B8937"/>
<path d="M17 21C14.794 21 13 19.2056 13 17C13 14.7944 14.794 13 17 13C19.206 13 21 14.7944 21 17C21 19.2056 19.206 21 17 21ZM17 15C15.8975 15 15 15.897 15 17C15 18.103 15.8975 19 17 19C18.1025 19 19 18.103 19 17C19 15.897 18.1025 15 17 15Z" fill="#5B8937"/>
<path d="M31 35C28.794 35 27 33.2056 27 31C27 28.7944 28.794 27 31 27C33.2061 27 35 28.7944 35 31C35 33.2056 33.2061 35 31 35ZM31 29C29.8975 29 29 29.897 29 31C29 32.103 29.8975 33 31 33C32.1025 33 33 32.103 33 31C33 29.897 32.1025 29 31 29Z" fill="#5B8937"/>
</g>
</g>
</g>
</svg>
