<svg width="40" height="40" viewBox="0 0 40 40" fill="none" xmlns="http://www.w3.org/2000/svg">
<path d="M20 36.6666C29.2047 36.6666 36.6667 29.2047 36.6667 20C36.6667 10.7952 29.2047 3.33331 20 3.33331C10.7952 3.33331 3.33333 10.7952 3.33333 20C3.33333 29.2047 10.7952 36.6666 20 36.6666Z" fill="#E3E3E3"/>
<path d="M20 2.5C16.5388 2.5 13.1554 3.52636 10.2775 5.44928C7.39965 7.37221 5.15663 10.1053 3.8321 13.303C2.50757 16.5007 2.16101 20.0194 2.83625 23.4141C3.51149 26.8087 5.17821 29.927 7.62562 32.3744C10.073 34.8218 13.1912 36.4885 16.5859 37.1637C19.9806 37.839 23.4992 37.4924 26.697 36.1679C29.8947 34.8434 32.6278 32.6003 34.5507 29.7225C36.4736 26.8446 37.5 23.4612 37.5 20C37.4947 15.3603 35.6493 10.9122 32.3685 7.63148C29.0878 4.35074 24.6397 2.50529 20 2.5ZM4.20916 20.8333H10.855C10.8972 23.0793 11.1799 25.3143 11.6983 27.5H6.06083C4.95623 25.4428 4.32369 23.1655 4.20916 20.8333ZM20.8333 10.8333V4.27667C22.9592 4.79917 24.8425 7.29 26.0617 10.8333H20.8333ZM26.5725 12.5C27.1271 14.6805 27.4313 16.9172 27.4792 19.1667H20.8333V12.5H26.5725ZM19.1667 4.27667V10.8333H13.9383C15.1575 7.29 17.0408 4.79917 19.1667 4.27667ZM19.1667 12.5V19.1667H12.5208C12.5683 16.9172 12.8725 14.6805 13.4275 12.5H19.1667ZM10.855 19.1667H4.20916C4.32369 16.8345 4.95623 14.5572 6.06083 12.5H11.6983C11.1799 14.6857 10.8972 16.9207 10.855 19.1667ZM12.5217 20.8333H19.1667V27.5H13.4275C12.8725 25.3195 12.5683 23.0828 12.5208 20.8333H12.5217ZM19.1667 29.1667V35.7233C17.0408 35.2008 15.1575 32.71 13.9383 29.1667H19.1667ZM20.8333 35.7233V29.1667H26.0617C24.8425 32.71 22.9592 35.2008 20.8333 35.7233ZM20.8333 27.5V20.8333H27.4792C27.4313 23.0828 27.1271 25.3195 26.5725 27.5H20.8333ZM29.145 20.8333H35.7908C35.6763 23.1655 35.0438 25.4428 33.9392 27.5H28.3017C28.8197 25.3142 29.1024 23.0793 29.145 20.8333ZM29.145 19.1667C29.1024 16.9207 28.8197 14.6858 28.3017 12.5H33.9392C35.0438 14.5572 35.6763 16.8345 35.7908 19.1667H29.145ZM32.8858 10.8333H27.8333C27.203 8.64244 26.1174 6.60924 24.6475 4.86667C27.9736 5.89838 30.8683 7.99489 32.8858 10.8333ZM15.3492 4.86667C13.8801 6.60932 12.7956 8.64257 12.1667 10.8333H7.11416C9.13085 7.99547 12.0243 5.89903 15.3492 4.86667ZM7.11416 29.1667H12.1667C12.7966 31.358 13.8822 33.3915 15.3525 35.1342C12.0265 34.1018 9.13189 32.0051 7.11416 29.1667ZM24.6508 35.1342C26.1196 33.391 27.204 31.3575 27.8333 29.1667H32.8825C30.8665 32.0039 27.9744 34.1005 24.6508 35.1342Z" fill="#444444"/>
<path d="M13.3333 16.6667C12.674 16.6667 12.0296 16.4712 11.4814 16.1049C10.9333 15.7386 10.506 15.218 10.2537 14.6089C10.0014 13.9999 9.93542 13.3296 10.064 12.683C10.1927 12.0364 10.5101 11.4425 10.9763 10.9763C11.4425 10.5101 12.0364 10.1927 12.683 10.0641C13.3296 9.93543 13.9998 10.0014 14.6089 10.2537C15.218 10.506 15.7386 10.9333 16.1049 11.4814C16.4712 12.0296 16.6667 12.6741 16.6667 13.3333C16.6667 14.2174 16.3155 15.0652 15.6903 15.6904C15.0652 16.3155 14.2174 16.6667 13.3333 16.6667Z" fill="white"/>
<path d="M27.5 22.5C26.8407 22.5 26.1963 22.3045 25.6481 21.9382C25.0999 21.5719 24.6727 21.0513 24.4204 20.4423C24.1681 19.8332 24.1021 19.163 24.2307 18.5163C24.3593 17.8697 24.6768 17.2758 25.143 16.8096C25.6091 16.3435 26.2031 16.026 26.8497 15.8974C27.4963 15.7687 28.1665 15.8348 28.7756 16.087C29.3847 16.3393 29.9053 16.7666 30.2716 17.3147C30.6378 17.8629 30.8333 18.5074 30.8333 19.1666C30.8333 20.0507 30.4821 20.8985 29.857 21.5237C29.2319 22.1488 28.384 22.5 27.5 22.5Z" fill="white"/>
<path d="M20 31.6667C19.3407 31.6667 18.6963 31.4712 18.1481 31.1049C17.5999 30.7386 17.1727 30.218 16.9204 29.6089C16.6681 28.9999 16.6021 28.3296 16.7307 27.683C16.8593 27.0364 17.1768 26.4425 17.643 25.9763C18.1091 25.5101 18.7031 25.1927 19.3497 25.0641C19.9963 24.9354 20.6665 25.0014 21.2756 25.2537C21.8847 25.506 22.4053 25.9333 22.7716 26.4814C23.1378 27.0296 23.3333 27.6741 23.3333 28.3333C23.3333 29.2174 22.9821 30.0652 22.357 30.6904C21.7319 31.3155 20.884 31.6667 20 31.6667Z" fill="white"/>
<path d="M20 30C20.9205 30 21.6667 29.2538 21.6667 28.3334C21.6667 27.4129 20.9205 26.6667 20 26.6667C19.0795 26.6667 18.3333 27.4129 18.3333 28.3334C18.3333 29.2538 19.0795 30 20 30Z" fill="#58BFCA"/>
<path d="M13.3333 15C14.2538 15 15 14.2538 15 13.3334C15 12.4129 14.2538 11.6667 13.3333 11.6667C12.4128 11.6667 11.6667 12.4129 11.6667 13.3334C11.6667 14.2538 12.4128 15 13.3333 15Z" fill="#58BFCA"/>
<path d="M27.5 20.8333C28.4205 20.8333 29.1667 20.0871 29.1667 19.1667C29.1667 18.2462 28.4205 17.5 27.5 17.5C26.5795 17.5 25.8333 18.2462 25.8333 19.1667C25.8333 20.0871 26.5795 20.8333 27.5 20.8333Z" fill="#58BFCA"/>
</svg>
