<svg width="72" height="72" viewBox="0 0 72 72" fill="none" xmlns="http://www.w3.org/2000/svg">
<g id="math 1">
<g id="Group">
<path id="Vector" d="M63 4.5H9C6.51472 4.5 4.5 6.51472 4.5 9V63C4.5 65.4853 6.51472 67.5 9 67.5H63C65.4853 67.5 67.5 65.4853 67.5 63V9C67.5 6.51472 65.4853 4.5 63 4.5Z" fill="#212121"/>
<path id="Vector_2" d="M63 4.5H37.5V34.5H67.5V9C67.5 7.80653 67.0259 6.66193 66.182 5.81802C65.3381 4.97411 64.1935 4.5 63 4.5Z" fill="#4C4C4C"/>
<path id="Vector_3" d="M9 4.5C7.80653 4.5 6.66193 4.97411 5.81802 5.81802C4.97411 6.66193 4.5 7.80653 4.5 9V34.5H34.5V4.5H9Z" fill="#4C4C4C"/>
<path id="Vector_4" d="M37.5 37.5V67.5H63C64.1935 67.5 65.3381 67.0259 66.182 66.182C67.0259 65.3381 67.5 64.1935 67.5 63V37.5H37.5Z" fill="#EE7C2F"/>
<path id="Vector_5" d="M4.5 37.5V63C4.5 64.1935 4.97411 65.3381 5.81802 66.182C6.66193 67.0259 7.80653 67.5 9 67.5H34.5V37.5H4.5Z" fill="#4C4C4C"/>
<path id="Vector_6" d="M58.0616 22.9396C58.2049 23.078 58.3191 23.2435 58.3978 23.4265C58.4764 23.6095 58.5177 23.8064 58.5195 24.0055C58.5212 24.2047 58.4833 24.4022 58.4078 24.5866C58.3324 24.7709 58.221 24.9384 58.0802 25.0792C57.9394 25.2201 57.7719 25.3314 57.5875 25.4069C57.4032 25.4823 57.2057 25.5202 57.0065 25.5185C56.8073 25.5168 56.6105 25.4754 56.4275 25.3968C56.2445 25.3182 56.079 25.2039 55.9406 25.0606L52.5011 21.6211L49.0616 25.0606C48.7787 25.3339 48.3998 25.4851 48.0065 25.4816C47.6132 25.4782 47.237 25.3205 46.9589 25.0423C46.6808 24.7642 46.523 24.388 46.5196 23.9947C46.5162 23.6014 46.6674 23.2225 46.9406 22.9396L50.3801 19.5001L46.9406 16.0606C46.6674 15.7777 46.5162 15.3988 46.5196 15.0055C46.523 14.6122 46.6808 14.236 46.9589 13.9579C47.237 13.6798 47.6132 13.522 48.0065 13.5186C48.3998 13.5152 48.7787 13.6664 49.0616 13.9396L52.5011 17.3791L55.9406 13.9396C56.2235 13.6664 56.6024 13.5152 56.9957 13.5186C57.389 13.522 57.7652 13.6798 58.0433 13.9579C58.3214 14.236 58.4792 14.6122 58.4826 15.0055C58.486 15.3988 58.3348 15.7777 58.0616 16.0606L54.6221 19.5001L58.0616 22.9396Z" fill="white"/>
<path id="Vector_7" d="M25.5 22.5H13.5C13.1022 22.5 12.7206 22.342 12.4393 22.0607C12.158 21.7794 12 21.3978 12 21C12 20.6022 12.158 20.2206 12.4393 19.9393C12.7206 19.658 13.1022 19.5 13.5 19.5H25.5C25.8978 19.5 26.2794 19.658 26.5607 19.9393C26.842 20.2206 27 20.6022 27 21C27 21.3978 26.842 21.7794 26.5607 22.0607C26.2794 22.342 25.8978 22.5 25.5 22.5Z" fill="white"/>
<path id="Vector_8" d="M58.5 57H46.5C46.1022 57 45.7206 56.842 45.4393 56.5607C45.158 56.2794 45 55.8978 45 55.5C45 55.1022 45.158 54.7206 45.4393 54.4393C45.7206 54.158 46.1022 54 46.5 54H58.5C58.8978 54 59.2794 54.158 59.5607 54.4393C59.842 54.7206 60 55.1022 60 55.5C60 55.8978 59.842 56.2794 59.5607 56.5607C59.2794 56.842 58.8978 57 58.5 57ZM58.5 51H46.5C46.1022 51 45.7206 50.842 45.4393 50.5607C45.158 50.2794 45 49.8978 45 49.5C45 49.1022 45.158 48.7206 45.4393 48.4393C45.7206 48.158 46.1022 48 46.5 48H58.5C58.8978 48 59.2794 48.158 59.5607 48.4393C59.842 48.7206 60 49.1022 60 49.5C60 49.8978 59.842 50.2794 59.5607 50.5607C59.2794 50.842 58.8978 51 58.5 51Z" fill="white"/>
<path id="Vector_9" d="M25.5 54H21V58.5C21 58.8978 20.842 59.2794 20.5607 59.5607C20.2794 59.842 19.8978 60 19.5 60C19.1022 60 18.7206 59.842 18.4393 59.5607C18.158 59.2794 18 58.8978 18 58.5V54H13.5C13.1022 54 12.7206 53.842 12.4393 53.5607C12.158 53.2794 12 52.8978 12 52.5C12 52.1022 12.158 51.7206 12.4393 51.4393C12.7206 51.158 13.1022 51 13.5 51H18V46.5C18 46.1022 18.158 45.7206 18.4393 45.4393C18.7206 45.158 19.1022 45 19.5 45C19.8978 45 20.2794 45.158 20.5607 45.4393C20.842 45.7206 21 46.1022 21 46.5V51H25.5C25.8978 51 26.2794 51.158 26.5607 51.4393C26.842 51.7206 27 52.1022 27 52.5C27 52.8978 26.842 53.2794 26.5607 53.5607C26.2794 53.842 25.8978 54 25.5 54Z" fill="white"/>
</g>
</g>
</svg>
